<svg width="122" height="65" viewBox="0 0 122 65" fill="none" xmlns="http://www.w3.org/2000/svg">
<g clip-path="url(#clip0_6_2)">
<path d="M47.6713 26.0419H49.1375V30.7197C49.8496 30.0354 50.5478 29.7143 51.3996 29.7143C52.9914 29.7143 53.9828 30.6917 53.9828 32.2975V37.1708H52.5027V32.6745C52.5027 31.4876 52.0279 30.9291 50.9667 30.9291C50.1987 30.9291 49.6541 31.2084 49.1235 31.8786V37.1708H47.6573V26.0559H47.6713V26.0419Z" fill="#05C3DE"/>
<path d="M59.4565 37.3244C57.1106 37.3244 55.6445 35.7325 55.6445 33.3727C55.6445 31.1944 57.0967 29.6724 59.2471 29.6724C61.3974 29.6724 62.696 31.1246 62.696 33.5263V33.7358H57.1944C57.2782 35.1321 58.1579 35.956 59.5403 35.956C60.4619 35.956 61.4812 35.6069 62.5704 34.9087V36.3749C61.5929 37.0172 60.5736 37.3244 59.4565 37.3244ZM61.0902 32.7025C60.9925 31.6273 60.2385 30.9291 59.2331 30.9291C58.116 30.9291 57.4039 31.5435 57.1944 32.7025H61.0902Z" fill="#05C3DE"/>
<path d="M66.913 37.2965C65.5585 37.2965 64.8185 36.5983 64.8185 35.5231C64.8185 34.4479 65.6284 33.6939 67.2481 33.1633L68.9936 32.5768C68.9936 32.4651 68.9936 32.3673 68.9936 32.2696C68.9936 31.3899 68.5886 31.0268 67.6112 31.0268C66.8013 31.0268 65.9216 31.362 65.0419 32.0462V30.594C65.8099 29.9796 66.7734 29.6724 67.7927 29.6724C69.7336 29.6724 70.5016 30.4962 70.5016 32.3115V35.4253C70.5016 35.9001 70.5714 36.1375 70.7949 36.1375C71.0322 36.1375 71.2556 35.9699 71.5628 35.7325V36.6262C71.0322 37.087 70.4877 37.2965 69.9152 37.2965C69.3427 37.2965 69.0913 37.087 69.0355 36.5704C68.3233 37.073 67.695 37.2965 66.913 37.2965ZM68.9796 33.5123C67.2342 34.043 66.3684 34.4898 66.3684 35.2717C66.3684 35.8722 66.7734 36.2213 67.4715 36.2213C67.9742 36.2213 68.4769 36.0397 68.9656 35.6627V33.5123H68.9796Z" fill="#05C3DE"/>
<path d="M74.5929 26.0419H73.1267V37.1568H74.5929V26.0419Z" fill="#05C3DE"/>
<path d="M79.9549 37.3104C78.1675 37.3104 77.7068 36.4866 77.7068 34.5736V31.0827H76.45V30.9431L79.0193 28.1085H79.1869V29.812H81.4769V31.0827H79.1869V34.4479C79.1869 35.4952 79.2986 35.9001 80.2621 35.9001C80.6949 35.9001 81.1278 35.7884 81.5327 35.5371V36.9194C81.058 37.1847 80.5413 37.2965 79.9549 37.2965" fill="#05C3DE"/>
<path d="M83.4039 26.0419H84.87V30.7197C85.5822 30.0354 86.2803 29.7143 87.1321 29.7143C88.7239 29.7143 89.7153 30.6917 89.7153 32.2975V37.1708H88.2352V32.6745C88.2352 31.4876 87.7605 30.9291 86.6992 30.9291C85.9312 30.9291 85.3867 31.2084 84.8561 31.8786V37.1708H83.3899V26.0559L83.4039 26.0419Z" fill="#05C3DE"/>
<path d="M97.6047 36.9194C96.8786 37.1847 96.1665 37.3104 95.4823 37.3104C93.0526 37.3104 91.377 35.6767 91.377 33.4844C91.377 31.2922 93.0526 29.6584 95.4125 29.6584C96.1106 29.6584 96.7948 29.812 97.479 30.1192V31.6831C96.7948 31.2782 96.1386 31.0827 95.4543 31.0827C93.9044 31.0827 92.899 32.102 92.899 33.4984C92.899 34.8947 93.9044 35.942 95.5242 35.942C96.2363 35.942 96.9205 35.7744 97.5908 35.4393V36.9334L97.6047 36.9194Z" fill="#05C3DE"/>
<path d="M101.542 37.2965C100.188 37.2965 99.4479 36.5983 99.4479 35.5231C99.4479 34.4479 100.258 33.6939 101.878 33.1633L103.623 32.5768C103.637 32.4651 103.637 32.3673 103.637 32.2696C103.637 31.3899 103.232 31.0268 102.255 31.0268C101.445 31.0268 100.565 31.362 99.6853 32.0462V30.594C100.453 29.9796 101.417 29.6724 102.436 29.6724C104.377 29.6724 105.145 30.4962 105.145 32.3115V35.4253C105.145 35.9001 105.215 36.1375 105.438 36.1375C105.676 36.1375 105.899 35.9699 106.206 35.7325V36.6262C105.676 37.087 105.131 37.2965 104.559 37.2965C103.986 37.2965 103.721 37.087 103.679 36.5704C102.967 37.073 102.338 37.2965 101.556 37.2965M103.609 33.5123C101.864 34.043 100.998 34.4898 100.998 35.2717C100.998 35.8722 101.403 36.2213 102.101 36.2213C102.604 36.2213 103.106 36.0397 103.595 35.6627V33.5123H103.609Z" fill="#05C3DE"/>
<path d="M108.049 29.826H109.516V31.4178C110.242 30.2589 110.828 29.6864 111.68 29.6864C112.211 29.6864 112.755 29.9377 113.356 30.3985L112.56 31.6971C112.099 31.3061 111.694 31.1106 111.191 31.1106C110.423 31.1106 109.781 31.7809 109.516 32.9957V37.1429H108.049V29.7981V29.826Z" fill="#05C3DE"/>
<path d="M118.117 37.3244C115.771 37.3244 114.305 35.7325 114.305 33.3727C114.305 31.1944 115.757 29.6724 117.908 29.6724C120.058 29.6724 121.357 31.1246 121.357 33.5263V33.7358H115.855C115.939 35.1321 116.818 35.956 118.201 35.956C119.122 35.956 120.142 35.6069 121.231 34.9087V36.3749C120.253 37.0172 119.234 37.3244 118.117 37.3244ZM119.751 32.7025C119.653 31.6273 118.899 30.9291 117.894 30.9291C116.777 30.9291 116.064 31.5435 115.855 32.7025H119.751Z" fill="#05C3DE"/>
<path d="M47.7551 19.3673V15.6531C49.0118 16.435 50.073 16.9796 50.9388 17.2868C51.8045 17.594 52.6423 17.7476 53.4522 17.7476C54.2621 17.7476 54.8904 17.6219 55.3093 17.3706C55.7283 17.1192 55.9377 16.7422 55.9377 16.2535C55.9377 15.8625 55.812 15.5414 55.5467 15.29C55.2814 15.0526 54.667 14.7594 53.7035 14.4243C51.3298 13.5865 49.6821 12.7347 48.7884 11.869C47.8947 11.0032 47.4479 9.88614 47.4479 8.53169C47.4479 7.10741 48.0344 5.94844 49.1933 5.05478C50.3523 4.16112 51.8743 3.71429 53.7454 3.71429C54.695 3.71429 55.6445 3.82599 56.594 4.06337C57.5435 4.30075 58.493 4.63588 59.4146 5.08271V8.50376C58.2975 7.94522 57.2922 7.52632 56.3985 7.24705C55.5048 6.98174 54.695 6.84211 53.9689 6.84211C53.1729 6.84211 52.5725 6.95381 52.1536 7.19119C51.7347 7.42857 51.5252 7.74973 51.5252 8.1826C51.5252 8.53169 51.7068 8.86681 52.0838 9.16004C52.4608 9.46724 53.0193 9.76047 53.7734 10.0397C53.927 10.1096 54.1783 10.1933 54.4995 10.319C56.0913 10.9055 57.2363 11.4082 57.9205 11.841C58.6466 12.2879 59.1912 12.8604 59.5542 13.5585C59.9173 14.2567 60.1128 15.0806 60.1128 16.0161C60.1128 17.5661 59.5263 18.7669 58.3673 19.6606C57.2084 20.5403 55.5886 20.9871 53.522 20.9871C52.4887 20.9871 51.4834 20.8475 50.5199 20.5822C49.5564 20.3169 48.6208 19.9119 47.7272 19.3673H47.7551Z" fill="#002D72"/>
<path d="M62.3888 5.71106C62.3888 5.18045 62.5704 4.73362 62.9474 4.35661C63.3104 3.99356 63.7712 3.79807 64.3018 3.79807C64.8324 3.79807 65.2932 3.97959 65.6563 4.34264C66.0193 4.70569 66.2009 5.16649 66.2009 5.6971C66.2009 6.22771 66.0193 6.67454 65.6563 7.05156C65.2932 7.41461 64.8324 7.59613 64.3018 7.59613C63.7712 7.59613 63.3244 7.41461 62.9474 7.03759C62.5704 6.67454 62.3888 6.21375 62.3888 5.6971V5.71106ZM62.5145 20.6799V9.3695H66.0752V20.6799H62.5145Z" fill="#002D72"/>
<path d="M68.9237 20.6799V9.3695H72.4705V10.7938C73.015 10.2352 73.6015 9.81633 74.2159 9.55102C74.8303 9.28571 75.5145 9.14608 76.2685 9.14608C77.1063 9.14608 77.8045 9.31364 78.363 9.66273C78.9076 10.0118 79.3265 10.5285 79.6337 11.2266C80.3598 10.4586 81.044 9.92803 81.6863 9.62084C82.3287 9.31364 83.0827 9.16004 83.9205 9.16004C85.1633 9.16004 86.1128 9.53706 86.7691 10.2911C87.4253 11.0451 87.7605 12.1203 87.7605 13.5446V20.7078H84.1998V14.0333C84.1998 13.1955 84.0741 12.5951 83.8228 12.246C83.5714 11.8829 83.1665 11.7154 82.594 11.7154C82.1053 11.7154 81.6445 11.869 81.2255 12.1622C80.8066 12.4554 80.4157 12.9023 80.0526 13.5027V20.7078H76.5897V14.0333C76.5897 13.2095 76.464 12.609 76.2127 12.246C75.9613 11.8829 75.5564 11.7014 74.9839 11.7014C74.4952 11.7014 74.0483 11.855 73.6155 12.1482C73.1966 12.4415 72.8056 12.8883 72.4565 13.4887V20.6939H68.9098H68.9237V20.6799Z" fill="#002D72"/>
<path d="M90.5392 26.2374V9.3695H93.9463V10.305C94.421 9.90011 94.9237 9.60687 95.4543 9.41139C95.9849 9.2159 96.5575 9.11815 97.2137 9.11815C98.7916 9.11815 100.076 9.66273 101.068 10.7519C102.059 11.841 102.548 13.2653 102.548 15.0247C102.548 16.7841 102.059 18.1944 101.068 19.2836C100.076 20.3727 98.7916 20.9173 97.2137 20.9173C96.5993 20.9173 96.0268 20.8335 95.5102 20.652C94.9935 20.4705 94.5188 20.2052 94.0859 19.8421V26.2234H90.5392V26.2374ZM94.0859 12.5671V17.4125C94.3931 17.6498 94.7003 17.8174 95.0354 17.9431C95.3706 18.0687 95.6917 18.1246 96.0268 18.1246C96.9065 18.1246 97.5907 17.8453 98.0934 17.3008C98.5961 16.7422 98.8475 15.9882 98.8475 15.0247C98.8475 14.0612 98.5961 13.3212 98.1074 12.7347C97.6047 12.1622 96.9624 11.869 96.1385 11.869C95.7895 11.869 95.4404 11.9248 95.1052 12.0365C94.7701 12.1482 94.421 12.3298 94.0859 12.5671Z" fill="#002D72"/>
<path d="M104.754 20.6799V3.99356H108.315V20.6799H104.754Z" fill="#002D72"/>
<path d="M114.151 26.2374H110.423L113.774 18.8786L109.474 9.38346H113.286L115.576 14.913L118.019 9.38346H121.776L114.151 26.2374Z" fill="#002D72"/>
<path d="M24.5478 40.1171C34.8199 40.1171 43.1471 31.7899 43.1471 21.5177C43.1471 11.2456 34.8199 2.91837 24.5478 2.91837C14.2757 2.91837 5.94844 11.2456 5.94844 21.5177C5.94844 31.7899 14.2757 40.1171 24.5478 40.1171Z" fill="url(#paint0_linear_6_2)"/>
<mask id="mask0_6_2" style="mask-type:luminance" maskUnits="userSpaceOnUse" x="5" y="2" width="39" height="39">
<path d="M41.3314 29.5204C45.7537 20.2489 41.8226 9.14792 32.5512 4.72565C23.2797 0.303378 12.1787 4.23444 7.75642 13.5059C3.33415 22.7774 7.26521 33.8784 16.5367 38.3007C25.8082 42.7229 36.9092 38.7919 41.3314 29.5204Z" fill="white"/>
</mask>
<g mask="url(#mask0_6_2)">
<path d="M21.0569 0.572503C21.0569 0.572503 14.8571 10.6262 16.4629 13.4468C18.0548 16.2675 28.9603 26.9774 28.9603 26.9774V35.4393C28.9603 35.4393 15.7089 40.2288 14.2986 40.6896C12.8883 41.1504 1.70354 38.9162 1.70354 38.9162L0 12.9023L5.83673 3.47691L15.4157 0L21.0569 0.572503Z" fill="#A0DBEA"/>
</g>
<mask id="mask1_6_2" style="mask-type:luminance" maskUnits="userSpaceOnUse" x="5" y="2" width="39" height="39">
<path d="M41.7427 28.614C45.6621 19.119 41.1421 8.2445 31.6471 4.32512C22.1521 0.405737 11.2776 4.92568 7.35822 14.4207C3.43884 23.9157 7.95878 34.7902 17.4538 38.7096C26.9488 42.629 37.8233 38.109 41.7427 28.614Z" fill="white"/>
</mask>
<g mask="url(#mask1_6_2)">
<path d="M16.5188 4.76155C16.7003 4.62191 16.9098 4.5102 17.1053 4.38453C14.3265 5.68314 12.3437 7.79162 11.464 10.4447C8.26639 20.1912 17.7197 23.7938 22.8024 25.6928C24.7433 26.4189 26.0698 27.0054 26.9495 27.536C33.1633 30.217 36.0537 35.7186 31.9624 38.7766C35.2438 37.2825 37.478 34.5596 38.2879 31.0129C40.4243 21.6853 31.5994 18.334 26.3212 16.3512C25.4415 16.0161 23.9194 15.6391 22.8443 15.0945C22.8024 15.0806 22.7465 15.0666 22.7046 15.0526C18.1106 13.3491 11.8271 8.19656 16.4769 4.77551H16.5188V4.76155Z" fill="url(#paint1_linear_6_2)"/>
<path d="M22.8303 11.3942C24.2546 8.30827 31.9065 5.04082 35.7046 6.64662L37.464 6.116C33.652 4.27283 29.5746 3.15575 25.7207 2.94629C22.8861 2.7927 20.3169 3.12782 18.1106 3.95166C17.7615 4.07734 17.4264 4.23093 17.0913 4.38453C16.8958 4.5102 16.6863 4.63588 16.5048 4.76155C11.855 8.1826 18.1386 13.3351 22.7325 15.0387C22.7744 15.0526 22.8303 15.0666 22.8722 15.0806C21.9227 14.6058 22.4393 12.232 22.8303 11.3942Z" fill="url(#paint2_linear_6_2)"/>
<path d="M26.9635 27.536C28.3319 28.3598 28.5832 29.044 28.1923 29.826C27.5499 31.0967 19.6327 38.5252 11.3663 34.6434L10.4586 36.4168C14.3824 38.2739 19.1579 40.0333 23.7798 40.2846C26.5446 40.4382 29.1139 39.8937 31.2084 39.0977C31.4737 39 31.725 38.8743 31.9903 38.7487C36.0816 35.6907 33.1772 30.203 26.9774 27.5081V27.536H26.9635Z" fill="url(#paint3_linear_6_2)"/>
</g>
<path d="M121.58 45.2696H6.31149V45.6187H121.58V45.2696Z" fill="#BCBEC0"/>
<path d="M11.9108 60.3222H7.98711L7.07948 62.5005H6.32545L9.56498 54.8067H10.4028L13.6423 62.5005H12.8324L11.9248 60.3222H11.9108ZM11.6455 59.666L9.95596 55.5886L8.25241 59.666H11.6455Z" fill="#010101"/>
<path d="M78.3491 56.1332C77.7766 55.6724 77.1063 55.3792 76.1568 55.3792C74.4253 55.3792 73.015 56.8593 73.015 58.6745C73.015 60.4898 74.4253 61.942 76.2546 61.942C77.0784 61.942 77.8324 61.6907 78.377 61.2159L78.8378 61.7325C78.1117 62.3888 77.2599 62.6262 76.2127 62.6262C73.9925 62.6262 72.275 60.8528 72.275 58.6606C72.275 56.4683 74.0204 54.667 76.1708 54.667C77.3297 54.667 78.1396 54.9603 78.8378 55.5607L78.363 56.1192H78.3491V56.1332Z" fill="#010101"/>
<path d="M79.536 59.6241C79.536 57.9624 80.7787 56.6219 82.4125 56.6219C84.0462 56.6219 85.2889 57.9624 85.2889 59.6241C85.2889 61.2857 84.0462 62.6402 82.4125 62.6402C80.7787 62.6402 79.536 61.2857 79.536 59.6241ZM84.5908 59.6101C84.5908 58.3115 83.6971 57.2782 82.4264 57.2782C81.1557 57.2782 80.2481 58.3115 80.2481 59.6101C80.2481 60.9087 81.1557 61.9699 82.4264 61.9699C83.6971 61.9699 84.5908 60.8947 84.5908 59.6101Z" fill="#010101"/>
<path d="M86.5177 62.5005V56.7476H87.2298V57.6692C87.565 57.0269 88.1654 56.6079 88.9753 56.6079C89.9388 56.6079 90.6509 57.1106 90.9721 57.9345C91.2653 57.1246 91.9355 56.6079 92.8711 56.6079C94.1976 56.6079 95.0634 57.5156 95.0634 58.9398V62.5005H94.3512V59.0795C94.3512 57.9764 93.7508 57.2782 92.7594 57.2782C91.768 57.2782 91.1536 57.9764 91.1536 59.0795V62.5005H90.4414V59.0795C90.4414 57.9764 89.841 57.2782 88.8496 57.2782C87.8582 57.2782 87.2578 57.9764 87.2578 59.0795V62.5005H86.5177Z" fill="#010101"/>
<path d="M96.4876 64.8604V56.7615H97.1998V57.9764C97.6606 57.1665 98.4425 56.6359 99.4339 56.6359C101.04 56.6359 102.255 57.9624 102.255 59.652C102.255 61.3416 101.068 62.6541 99.4339 62.6541C98.4425 62.6541 97.6606 62.1375 97.1998 61.3276V64.8743H96.4876V64.8604ZM101.542 59.652C101.542 58.3534 100.649 57.2922 99.3781 57.2922C98.1074 57.2922 97.1998 58.3673 97.1998 59.652C97.1998 60.9366 98.1074 61.9839 99.3781 61.9839C100.649 61.9839 101.542 60.9506 101.542 59.652Z" fill="#010101"/>
<path d="M103.176 59.6241C103.176 57.9484 104.363 56.6219 105.983 56.6219C106.974 56.6219 107.784 57.1525 108.231 57.9484V56.7476H108.943V62.5005H108.231V61.2718C107.784 62.0816 106.988 62.6262 105.983 62.6262C104.391 62.6262 103.176 61.2997 103.176 59.6101V59.6241ZM108.231 59.6101C108.231 58.3115 107.337 57.2782 106.067 57.2782C104.796 57.2782 103.888 58.3115 103.888 59.6101C103.888 60.9087 104.796 61.9699 106.067 61.9699C107.337 61.9699 108.231 60.8947 108.231 59.6101Z" fill="#010101"/>
<path d="M110.465 56.7615H111.177V57.6831C111.526 57.0408 112.169 56.6219 113.02 56.6219C114.389 56.6219 115.282 57.5435 115.282 58.9538V62.5145H114.57V59.0934C114.57 57.9903 113.928 57.2922 112.881 57.2922C111.834 57.2922 111.191 57.9903 111.191 59.0934V62.5145H110.479V56.7615H110.465Z" fill="#010101"/>
<path d="M118.676 62.5843L116.078 56.7616H116.832L118.997 61.7046L120.854 56.7616H121.58L118.969 63.6316C118.648 64.4834 118.173 65 117.349 65C116.958 65 116.497 64.8464 116.148 64.5392L116.497 63.9807C116.749 64.2041 117.056 64.3298 117.405 64.3298C117.824 64.3298 118.117 64.0924 118.382 63.3663L118.676 62.5704V62.5843Z" fill="#010101"/>
<path d="M28.0387 59.6241C28.0387 57.9205 29.3093 56.5381 30.985 56.5381C32.6606 56.5381 33.9173 57.8228 33.9173 59.4984C33.9173 59.6799 33.9173 59.8894 33.8754 59.9871H29.5607C29.7003 60.797 30.3287 61.3835 31.2223 61.3835C31.8088 61.3835 32.2975 61.1321 32.6466 60.7691L33.4146 61.7744C32.9817 62.2911 32.1439 62.6821 31.1665 62.6821C29.3512 62.6821 28.0387 61.2997 28.0387 59.6101V59.6241ZM29.5886 59.0516H32.3953C32.2277 58.2277 31.6971 57.7948 31.0129 57.7948C30.2728 57.7948 29.7562 58.3115 29.5886 59.0516ZM42.5328 56.7057V57.3341C42.9517 56.8314 43.5521 56.5381 44.3061 56.5381C45.8561 56.5381 47.0988 57.8088 47.0988 59.6101C47.0988 61.4114 45.9259 62.696 44.3061 62.696C43.5381 62.696 42.9517 62.4168 42.5328 61.942V64.9023H41.0526V56.6917H42.5328V56.7057ZM42.5328 59.6241C42.5328 60.5596 43.189 61.2997 44.0827 61.2997C44.9764 61.2997 45.6326 60.5596 45.6326 59.6241C45.6326 58.6885 44.9903 57.9345 44.0827 57.9345C43.1751 57.9345 42.5328 58.6885 42.5328 59.6241ZM47.7691 59.6241C47.7691 57.9205 49.1096 56.5381 50.7991 56.5381C52.4887 56.5381 53.8432 57.9205 53.8432 59.6241C53.8432 61.3276 52.4887 62.696 50.7991 62.696C49.1096 62.696 47.7691 61.3136 47.7691 59.6241ZM52.3351 59.6101C52.3351 58.6745 51.6928 57.9345 50.7991 57.9345C49.9055 57.9345 49.2492 58.6745 49.2492 59.6101C49.2492 60.5456 49.9055 61.2997 50.7991 61.2997C51.6928 61.2997 52.3351 60.5456 52.3351 59.6101ZM58.7025 62.5424H57.2223V56.7057H58.7025V57.2782C59.0655 56.8034 59.6241 56.5381 60.3502 56.5381C61.7046 56.5381 62.5564 57.4876 62.5564 59.0097V62.5424H61.0763V59.2331C61.0763 58.4372 60.6155 57.9484 59.9033 57.9484C59.1912 57.9484 58.7164 58.4511 58.7164 59.2331V62.5424H58.7025ZM63.0451 56.7057H64.0644V55.1976H65.5725V56.7057H67.1364V58.0183H65.5725V60.4898C65.5725 61.0344 65.8099 61.2997 66.2427 61.2997C66.508 61.2997 66.7734 61.174 66.927 61.0064L67.5972 62.1096C67.2621 62.4307 66.7175 62.696 66.0054 62.696C64.8324 62.696 64.0784 61.956 64.0784 60.5317V58.0183H63.0591V56.7057H63.0451ZM56.0913 62.5424H54.6112V56.7057H56.0913V62.5285V62.5424ZM28.3179 54.8206L25.8743 62.5285H24.0032L22.4812 56.6778L20.9592 62.5285H19.1439L16.7003 54.8206H18.362L20.0516 60.783L21.5875 54.8206H23.4726L25.0226 60.783L26.7121 54.8206H28.3179ZM35.0623 54.2202H36.5285V62.5424H35.0623V54.2202ZM38.1343 54.2202H39.6004V62.5424H38.1343V54.2202Z" fill="#1A3673"/>
<path d="M54.304 51.1343C54.5274 50.5059 54.8904 49.9194 55.3512 49.4307C55.812 49.9194 56.1751 50.5059 56.3985 51.1343C56.3985 51.1343 56.3985 51.1622 56.3985 51.1762C56.6498 51.0365 56.9012 50.9109 57.1665 50.7991C57.1665 50.7991 57.1665 50.7712 57.1665 50.7572C56.8453 49.9055 56.3147 49.1375 55.6305 48.5231L55.3512 48.2718L55.072 48.5231C54.3878 49.1375 53.8571 49.9055 53.536 50.7572C53.536 50.7572 53.536 50.7852 53.536 50.7991C53.8013 50.9109 54.0666 51.0365 54.304 51.1762C54.304 51.1762 54.304 51.1482 54.304 51.1343Z" fill="#44B8F3"/>
<path d="M59.8475 51.2739C59.8475 50.9807 59.8195 50.6874 59.7637 50.4221C59.6101 50.4221 59.4705 50.4221 59.3169 50.4221C57.7809 50.4221 56.3845 51.0226 55.3512 52C55.5607 52.1955 55.7562 52.4049 55.9237 52.6284C56.7336 51.8604 57.7948 51.3716 58.9817 51.2879C58.9817 52.7261 58.1439 53.9828 56.9151 54.5693C56.9989 54.8486 57.0548 55.1278 57.0967 55.421C58.7025 54.7368 59.8335 53.145 59.8335 51.2879H59.8475V51.2739Z" fill="#2861BB"/>
<path d="M51.3856 50.3942C51.232 50.3942 51.0924 50.3942 50.9388 50.3942C50.8829 50.6735 50.855 50.9527 50.855 51.246C50.855 53.7315 52.8657 55.7422 55.3512 55.7422C55.9796 55.7422 56.566 55.6165 57.1106 55.3931C56.7476 52.5725 54.3179 50.3802 51.3996 50.3802L51.3856 50.3942ZM51.7207 51.2599C53.8292 51.3996 55.5746 52.8657 56.1192 54.8206C55.8679 54.8765 55.6165 54.9044 55.3512 54.9044C53.3405 54.9044 51.7207 53.2707 51.7207 51.2599Z" fill="#D91754"/>
</g>
<defs>
<linearGradient id="paint0_linear_6_2" x1="24.5478" y1="61.6069" x2="24.5478" y2="17.9151" gradientUnits="userSpaceOnUse">
<stop stop-color="#41C3DC"/>
<stop offset="0.21" stop-color="#40BFD9"/>
<stop offset="0.37" stop-color="#3DB5D1"/>
<stop offset="0.53" stop-color="#39A4C4"/>
<stop offset="0.67" stop-color="#348DB1"/>
<stop offset="0.81" stop-color="#2C6E98"/>
<stop offset="0.94" stop-color="#23497B"/>
<stop offset="1" stop-color="#1F366C"/>
</linearGradient>
<linearGradient id="paint1_linear_6_2" x1="34.2664" y1="31.2363" x2="13.3212" y2="9.0623" gradientUnits="userSpaceOnUse">
<stop stop-color="white"/>
<stop offset="0.17" stop-color="#FBFCFC"/>
<stop offset="0.31" stop-color="#F1F3F6"/>
<stop offset="0.43" stop-color="#E0E3EB"/>
<stop offset="0.55" stop-color="#C9CEDB"/>
<stop offset="0.67" stop-color="#AAB2C7"/>
<stop offset="0.78" stop-color="#8491AE"/>
<stop offset="0.89" stop-color="#576891"/>
<stop offset="0.99" stop-color="#253B6F"/>
<stop offset="1" stop-color="#1F366C"/>
</linearGradient>
<linearGradient id="paint2_linear_6_2" x1="13" y1="12.5392" x2="34.5875" y2="3.81203" gradientUnits="userSpaceOnUse">
<stop stop-color="white"/>
<stop offset="0.12" stop-color="#FAFAFB"/>
<stop offset="0.25" stop-color="#ECEEF3"/>
<stop offset="0.39" stop-color="#D6DAE4"/>
<stop offset="0.54" stop-color="#B7BECF"/>
<stop offset="0.69" stop-color="#8E9AB5"/>
<stop offset="0.84" stop-color="#5D6D94"/>
<stop offset="0.99" stop-color="#233A6F"/>
<stop offset="1" stop-color="#1F366C"/>
</linearGradient>
<linearGradient id="paint3_linear_6_2" x1="21.015" y1="37.1848" x2="32.9817" y2="28.3878" gradientUnits="userSpaceOnUse">
<stop stop-color="#DCDBE5"/>
<stop offset="0.17" stop-color="#D8D8E2"/>
<stop offset="0.32" stop-color="#CECEDC"/>
<stop offset="0.46" stop-color="#BCBFD0"/>
<stop offset="0.59" stop-color="#A3A9C0"/>
<stop offset="0.72" stop-color="#838DAC"/>
<stop offset="0.84" stop-color="#5B6A92"/>
<stop offset="0.96" stop-color="#2D4275"/>
<stop offset="1" stop-color="#1F366C"/>
</linearGradient>
<clipPath id="clip0_6_2">
<rect width="121.776" height="65" fill="white"/>
</clipPath>
</defs>
</svg>
