<svg width="834" height="687" viewBox="0 0 834 687" fill="none" xmlns="http://www.w3.org/2000/svg">
<g opacity="0.2">
<path d="M8.75789 -45.0043C96.6467 -14.798 165.579 -9.49774 212.62 -10.3556C260.189 -11.2238 297.376 -18.6398 354.337 -6.69316C417.2 6.39665 452.668 27.9576 466.315 37.369C485.234 50.4245 482.736 52.681 512.465 76.8664C569.573 123.328 585.463 120.457 609.346 145.232C648.947 186.304 621.296 210.812 657.157 266.672C683.123 307.133 735.263 352.896 795.955 362.907C853.109 372.332 872.799 342.628 929.085 361.468C952.205 369.206 968.964 381.373 1002.47 405.701C1045.43 436.824 1071.71 463.694 1082.51 473.811C1114.5 503.802 1171.93 538.751 1283.36 554.777" stroke="url(#paint0_radial_601_2031)" stroke-miterlimit="10"/>
<path d="M3.69488 -34.8324C88.4212 -4.93877 157.995 2.94871 208.889 2.98143C250.322 2.80149 284.109 -2.41057 325.902 1.47192C335.039 2.32918 344.57 3.45394 354.603 5.20123C417.815 16.229 454.448 34.693 469.549 42.8404C489.806 53.7559 488.9 55.8582 518.071 79.4807C538.635 96.1167 553.68 107.041 565.525 115.059C585.662 128.682 596.52 133.698 610.372 149.177C615.551 154.928 620.045 161.175 623.766 167.792C640.979 198.389 629.207 222.697 660.416 267.295C687.582 306.116 740.332 349.355 800.047 359.057C804.78 359.824 809.533 360.368 814.291 360.687C862.309 363.891 882.848 341.976 932.345 358.478C937.564 360.21 942.677 362.26 947.651 364.613C964.388 372.47 980.27 383.882 1005.36 402.092C1046.91 432.322 1072.8 458.732 1084.7 469.899C1093.44 478.044 1102.84 485.534 1112.8 492.29C1147.25 515.762 1200.04 539.413 1282.77 553.056" stroke="url(#paint1_radial_601_2031)" stroke-miterlimit="10"/>
<path d="M-1.76346 -23.7414C79.7975 5.81021 150.011 16.4664 204.804 17.143C248.312 17.6894 283.705 12.1472 325.082 15.1361C334.531 15.8057 344.295 16.5688 354.504 18.014C418.071 26.9678 456.291 41.2141 472.432 49.2357C493.221 59.5962 494.734 59.9823 523.299 83.0077C543.293 99.1455 558.038 110.585 569.397 119.052C588.547 133.285 598.361 138.72 610.963 154.025C615.751 159.89 619.928 166.153 623.431 172.717C639.829 202.808 631.012 226.625 663.291 268.883C691.661 306.053 745.021 346.767 803.761 356.161C808.753 356.913 813.407 357.518 817.903 357.775C867.35 361.274 887.527 340.63 935.208 356.518C940.392 358.222 945.473 360.239 950.418 362.555C967.476 370.453 983.378 381.747 1007.82 399.607C1047.98 428.905 1073.44 454.878 1086.52 466.982C1095.18 475.057 1104.48 482.512 1114.32 489.273C1148.35 512.765 1200.55 537.125 1281.75 552.291" stroke="url(#paint2_radial_601_2031)" stroke-miterlimit="10"/>
<path d="M-7.54198 -11.8731C70.8332 17.3838 141.714 30.6384 200.373 32.1409C245.945 33.2968 282.958 27.5004 323.897 29.5727C333.672 30.0603 343.676 30.479 354.041 31.5991C417.952 38.5026 456.676 50.8653 474.956 56.3916C497.567 63.2383 500.209 64.867 528.182 87.301C547.64 102.928 562.082 114.894 573.019 123.838C591.173 138.665 599.961 144.553 611.318 159.671C615.664 165.637 619.49 171.9 622.754 178.395C638.343 207.97 632.564 231.317 665.814 271.179C695.441 306.72 749.354 344.9 807.122 353.973C812.075 354.708 816.704 355.302 821.159 355.583C872.035 359.305 891.866 339.998 937.758 355.142C942.91 356.82 947.963 358.806 952.884 361.087C970.268 369.014 986.232 380.236 1010.01 397.67C1048.77 426.012 1073.83 451.547 1088.02 464.678C1096.65 472.671 1105.85 480.091 1115.57 486.874C1149.19 510.386 1200.79 535.466 1280.44 552.138" stroke="url(#paint3_radial_601_2031)" stroke-miterlimit="10"/>
<path d="M-13.3431 0.0109287C61.8696 28.9551 133.382 44.8206 195.924 47.1428C243.579 48.902 282.203 42.8339 322.722 44.0244C332.808 44.3244 343.045 44.3813 353.586 45.1994C417.827 50.0881 457.46 59.4116 477.478 63.5863C501.132 68.5154 505.63 69.7681 533.062 91.633C552.023 106.807 566.097 119.232 576.603 128.605C593.767 144.014 601.504 150.373 611.634 165.299C615.532 171.351 619.01 177.613 622.045 184.043C636.848 213.083 634.1 235.973 668.304 273.514C699.193 307.414 753.642 343.066 810.446 351.836C815.347 352.548 819.95 353.131 824.381 353.431C876.694 357.394 896.104 339.529 940.249 353.865C945.365 355.534 950.388 357.489 955.291 359.718C972.971 367.674 988.924 378.779 1012.14 395.832C1049.51 423.252 1074.16 448.357 1089.47 462.478C1098.04 470.405 1107.16 477.793 1116.75 484.586C1149.98 508.135 1200.98 533.912 1279.09 552.119" stroke="url(#paint4_radial_601_2031)" stroke-miterlimit="10"/>
<path d="M-17.2589 7.59435C54.7912 36.2258 126.943 54.7195 193.356 57.8558C243.084 60.2009 283.349 53.8313 323.426 54.1873C333.816 54.2822 344.292 54.0359 355.012 54.5108C419.555 57.3734 460.111 63.7336 481.851 66.4517C506.524 69.5514 512.999 70.3672 539.794 91.6357C554.585 103.397 568.683 115.918 582.015 129.131C598.233 145.127 604.883 151.97 613.773 166.627C617.648 173.045 620.254 179.224 623.275 185.442C637.312 213.899 637.574 236.42 672.718 271.566C704.913 303.83 759.866 336.954 815.694 345.415C820.556 346.111 825.132 346.683 829.528 346.995C883.275 351.24 902.35 334.617 944.677 348.309C949.754 349.96 954.743 351.886 959.618 354.076C977.609 362.097 993.592 373.061 1016.18 389.657C1052.15 416.115 1076.39 440.818 1092.82 455.925C1101.34 463.786 1110.38 471.142 1119.86 477.944C1152.67 501.524 1203.06 528.016 1279.64 547.734" stroke="url(#paint5_radial_601_2031)" stroke-miterlimit="10"/>
<path d="M-20.2557 12.9072C48.6291 41.1966 121.425 62.3068 191.712 66.2865C243.514 69.2174 285.403 62.5114 325.029 62.1269C335.741 62.0105 346.435 61.4378 357.336 61.5988C422.233 62.4988 463.719 65.9131 487.178 67.1453C512.806 68.4581 521.269 68.7723 547.485 89.4548C562.174 101.044 575.866 113.72 588.411 127.345C603.641 143.881 609.246 151.254 616.881 165.748C620.282 172.158 622.461 178.363 625.423 184.611C638.666 212.586 642.048 234.519 678.05 267.388C711.587 298.004 767.02 328.618 821.877 336.759C826.687 337.432 831.225 337.987 835.61 338.322C890.777 342.885 909.54 327.557 949.986 340.606C955.033 342.23 959.994 344.125 964.844 346.281C983.13 354.331 999.159 365.189 1021.09 381.418C1055.66 406.949 1079.49 431.209 1097.05 447.336C1105.52 455.122 1114.46 462.442 1123.83 469.255C1156.24 492.872 1206.02 520.084 1281.08 541.302" stroke="url(#paint6_radial_601_2031)" stroke-miterlimit="10"/>
<path d="M-23.2523 18.3224C42.4467 46.3171 115.881 69.9853 190.068 74.8195C243.937 78.3188 287.446 71.2474 326.652 70.0513C337.697 69.7001 348.634 68.8123 359.693 68.6774C424.907 67.6272 467.329 68.1539 492.504 67.8009C519.21 67.4354 529.546 67.1566 555.17 87.2477C569.759 98.7389 583.037 111.64 594.755 125.709C608.982 142.75 613.534 150.706 619.963 164.961C622.846 171.357 624.639 177.564 627.513 183.872C640.011 211.288 646.51 232.743 683.355 263.301C718.257 292.25 774.127 320.35 827.964 328.177C832.735 328.833 837.246 329.377 841.601 329.713C898.222 334.511 916.569 320.473 955.289 332.807C960.298 334.414 965.225 336.276 970.05 338.385C988.684 346.416 1004.71 357.215 1025.99 373.053C1059.18 397.627 1082.57 421.474 1101.28 438.586C1109.7 446.312 1118.55 453.607 1127.8 460.433C1159.81 484.035 1208.99 511.967 1282.49 534.727" stroke="url(#paint7_radial_601_2031)" stroke-miterlimit="10"/>
<path d="M-26.2748 23.7607C36.2617 51.4427 110.337 77.6982 188.398 83.3757C244.346 87.4491 289.482 80.0003 328.249 78.0691C339.585 77.5073 350.764 76.3454 362.009 75.8146C427.552 72.8198 470.937 70.4702 497.815 68.5262C525.567 66.4831 537.8 65.5934 562.844 85.0985C577.33 96.4851 590.211 109.577 601.128 124.007C614.449 141.61 617.832 150.099 623.055 164.114C625.427 170.514 626.871 176.71 629.644 183.073C641.392 209.941 650.998 230.873 688.67 259.154C724.979 286.414 781.252 312.04 834.157 319.563C838.889 320.203 843.374 320.735 847.687 321.096C905.741 326.217 923.721 313.422 960.657 325.07C965.632 326.661 970.531 328.492 975.334 330.556C994.287 338.598 1010.38 349.344 1030.99 364.755C1062.78 388.385 1085.76 411.818 1105.6 429.921C1113.96 437.593 1122.71 444.868 1131.83 451.716C1163.43 475.39 1212.03 503.995 1283.99 528.278" stroke="url(#paint8_radial_601_2031)" stroke-miterlimit="10"/>
<path d="M-29.2839 29.1697C30.1053 56.5035 104.854 85.3455 186.783 91.8782C244.867 96.5363 291.557 88.6647 329.901 86.0333C341.557 85.231 352.964 83.7894 364.378 82.9391C430.222 78.0296 474.578 72.8211 503.17 69.2215C531.996 65.5823 546.106 64.0175 570.558 82.9312C584.936 94.2537 597.412 107.567 607.496 122.352C619.876 140.46 622.121 149.55 626.143 163.313C628.005 169.718 629.065 175.874 631.811 182.338C642.839 208.658 655.609 229.007 694.051 255.071C731.777 280.616 788.43 303.788 840.371 311.008C845.052 311.625 849.511 312.146 853.775 312.584C913.254 318.011 930.881 306.464 965.996 317.439C970.953 318.994 975.833 320.798 980.615 322.844C999.846 330.993 1015.95 341.533 1036.01 356.522C1066.4 379.213 1088.96 402.227 1109.94 421.326C1117.52 428.233 1126.07 435.519 1135.93 442.991C1167.12 466.685 1215.11 496.011 1285.54 521.799" stroke="url(#paint9_radial_601_2031)" stroke-miterlimit="10"/>
<path d="M-32.2242 34.4164C23.9323 61.4213 99.335 92.8561 185.154 100.267C245.257 105.459 293.615 97.1861 331.545 93.872C343.507 92.8235 355.15 91.1197 366.743 89.9263C432.941 83.1244 478.287 75.08 508.499 69.7975C538.428 64.4913 554.373 62.3167 578.245 80.6445C592.533 91.915 604.625 105.448 613.897 120.547C625.356 139.182 626.355 148.842 629.263 162.363C630.615 168.772 631.312 174.912 633.918 181.413C644.238 207.162 660.128 226.993 699.348 250.788C738.568 274.582 795.542 295.329 846.507 302.241C851.148 302.84 855.581 303.351 859.82 303.777C920.736 309.516 938.009 299.217 971.36 309.53C976.273 311.056 981.111 312.828 985.852 314.838C1005.44 323.014 1021.53 333.45 1040.87 348.048C1069.88 369.795 1092.01 392.396 1114.14 412.479C1121.68 419.346 1130.17 426.587 1139.87 434.061C1170.65 457.775 1218.05 487.809 1286.93 515.133" stroke="url(#paint10_radial_601_2031)" stroke-miterlimit="10"/>
<path d="M-35.1173 39.5941C17.9055 66.3266 93.905 100.273 183.608 108.574C245.82 114.381 295.74 105.591 333.236 101.642C345.522 100.341 357.397 98.3865 369.194 96.8612C435.724 88.1439 482.06 77.3047 513.908 70.2628C544.937 63.4418 562.79 60.5213 585.974 78.2302C601.367 89.9905 613.185 105.685 620.326 118.609C630.888 137.754 630.747 148.056 632.425 161.286C633.241 167.687 633.588 173.817 636.088 180.385C645.722 205.544 664.718 224.781 704.717 246.376C745.363 268.362 802.721 286.754 852.71 293.357C857.299 293.934 861.706 294.433 865.931 294.854C928.277 300.887 945.185 291.83 976.702 301.465C981.582 302.969 986.392 304.71 991.11 306.681C1011 314.846 1027.11 325.21 1045.9 339.439C1073.51 360.247 1095.17 382.412 1118.44 403.492C1125.97 410.307 1134.37 417.526 1143.91 424.974C1174.29 448.725 1221.09 479.468 1288.44 508.273" stroke="url(#paint11_radial_601_2031)" stroke-miterlimit="10"/>
<path d="M-37.9964 44.7C11.8587 71.1317 88.511 107.461 182.082 116.798C246.335 122.981 297.885 113.913 334.987 109.303C347.577 107.727 359.716 105.551 371.641 103.66C438.525 93.1209 485.903 79.398 519.347 70.6911C551.509 62.3139 571.097 58.6567 593.811 75.8127C608.685 87.0972 620.221 103.231 626.851 116.662C636.515 136.317 635.095 147.189 635.669 160.194C635.987 166.605 635.969 172.689 638.377 179.329C647.299 203.957 669.476 222.535 710.195 242.032C752.348 262.203 810.008 278.246 859.026 284.528C863.577 285.099 867.954 285.585 872.157 285.986C935.942 292.359 952.494 284.522 982.204 293.49C987.05 294.963 991.828 296.671 996.515 298.608C1016.71 306.796 1032.87 317.078 1051.03 330.898C1077.23 350.749 1098.47 372.565 1122.92 394.6C1130.41 401.386 1138.73 408.542 1148.14 415.987C1178.11 439.77 1224.3 471.221 1290.11 501.573" stroke="url(#paint12_radial_601_2031)" stroke-miterlimit="10"/>
<path d="M-40.838 49.7215C5.84672 75.823 83.1534 114.745 180.593 124.937C246.925 131.694 300.095 122.12 336.76 116.916C349.643 115.088 362.019 112.65 374.135 110.422C441.37 98.0309 489.836 81.4995 524.815 71.0176C558.142 61.0834 579.537 56.6647 601.601 73.2186C615.974 84.0211 627.236 100.611 633.319 114.562C642.111 134.737 639.404 146.203 638.838 158.955C638.576 165.354 638.278 171.444 640.572 178.133C648.908 202.228 673.739 221.334 715.683 237.521C759.781 254.539 817.307 269.572 865.361 275.551C869.869 276.103 874.216 276.576 878.401 276.97C943.609 283.76 959.815 277.048 987.716 285.349C992.53 286.802 997.278 288.484 1001.94 290.387C1022.45 298.61 1038.69 308.802 1056.16 322.161C1080.89 341.11 1101.74 362.6 1127.34 385.555C1134.81 392.3 1143.05 399.423 1152.29 406.854C1181.86 430.674 1227.46 462.833 1291.72 494.703" stroke="url(#paint13_radial_601_2031)" stroke-miterlimit="10"/>
<path d="M-43.7056 54.6591C-0.173265 80.4242 77.7646 121.957 179.078 132.993C247.489 140.323 302.197 130.222 338.515 124.392C351.741 122.306 364.338 119.641 376.627 117.011C444.254 102.744 493.685 83.4362 530.296 71.2067C564.828 59.7616 588.027 54.6635 609.529 70.6253C623.388 80.9401 634.382 97.9746 639.929 112.452C647.861 133.124 643.826 145.165 642.204 157.687C641.388 164.085 640.789 170.157 642.973 176.924C650.566 200.419 678.952 217.64 721.19 232.932C766.251 249.286 824.61 260.813 871.688 266.483C876.096 266.983 880.503 267.482 884.637 267.863C951.275 274.948 967.146 269.478 993.234 277.123C998.014 278.545 1002.73 280.194 1007.36 282.063C1028.18 290.309 1044.39 300.391 1061.29 313.386C1084.71 331.366 1105.11 352.355 1131.82 376.36C1139.26 383.071 1147.46 390.106 1156.56 397.598C1185.74 421.379 1230.73 454.312 1293.39 487.677" stroke="url(#paint14_radial_601_2031)" stroke-miterlimit="10"/>
<path d="M-46.4324 59.5902C-6.08584 85.0606 72.4906 129.151 177.698 141.054C248.241 148.981 304.472 138.275 340.356 131.88C353.839 129.485 366.743 126.644 379.174 123.683C447.201 107.74 497.673 85.4075 535.758 71.4042C571.461 58.3493 596.359 52.5269 617.362 67.9657C630.707 77.7929 641.458 95.283 646.463 110.268C653.515 131.514 648.159 144.05 645.471 156.364C644.056 162.756 643.188 168.81 645.252 175.638C652.193 198.572 683.744 215.028 726.666 228.304C773.181 242.751 831.91 252.028 878.003 257.372C882.411 257.871 886.727 258.331 890.821 258.807C958.901 266.191 974.413 261.911 998.706 268.894C1003.48 270.322 1008.19 271.977 1012.81 273.852C1032.15 281.416 1050.26 291.822 1066.4 304.655C1088.43 321.696 1108.41 342.266 1136.26 367.267C1143.68 373.926 1151.77 380.958 1160.7 388.389C1202.51 422.9 1247.48 453.821 1294.98 480.731" stroke="url(#paint15_radial_601_2031)" stroke-miterlimit="10"/>
<path d="M-49.2092 64.4591C-12.0252 89.6168 67.1927 136.295 176.274 149.04C248.844 157.519 306.66 146.32 342.238 139.346C500.189 108.313 579.017 31.5957 625.311 65.2875C638.142 74.6271 648.651 92.5728 653.095 108.073C662.595 141.157 641.972 154.256 647.643 174.346C661.54 223.61 812.376 240.291 897.146 249.673C979.799 258.814 985.602 252.787 1018.23 265.45C1075.2 287.527 1095.53 320.557 1164.93 379.097C1206.23 413.834 1250.31 445.482 1296.73 473.712" stroke="url(#paint16_radial_601_2031)" stroke-miterlimit="10"/>
<path d="M-50.6646 67.8372C-12.7126 94.1802 64.3035 138.817 168.601 150.971C240.616 159.308 296.661 146.997 334.672 139.922C486.471 111.756 560.051 42.1035 609.012 72.2533C628.143 84.0281 646.299 98.9255 656.042 113.964C675.179 143.528 658.258 155.295 667.656 176.389C688.221 222.589 827.76 240.816 908.128 250.541C986.447 259.943 991.759 255.342 1025.2 271.158C1080.78 297.436 1100.79 327.545 1165.99 383.122C1206.67 417.79 1250.49 449.011 1296.86 476.374" stroke="url(#paint17_radial_601_2031)" stroke-miterlimit="10"/>
<path d="M-52.1827 71.3566C10.9091 115.754 84.5715 143.993 160.871 153.031C232.325 161.239 286.533 147.757 327.048 140.627C472.627 115.06 542.158 51.4773 592.669 79.3541C618.294 93.5077 643.166 105.012 658.925 119.997C685.983 145.664 674.069 156.074 687.607 178.574C713.483 221.532 843.085 241.47 919.065 251.544C992.934 261.157 997.817 257.87 1032.13 277C1086.27 307.171 1105.95 334.78 1166.98 387.289C1207.03 421.871 1250.57 452.661 1296.88 479.155" stroke="url(#paint18_radial_601_2031)" stroke-miterlimit="10"/>
<path d="M-54.88 77.6161C6.11759 121.317 77.7327 149.091 151.975 157.837C222.86 165.898 275.243 151.251 318.244 144.073C457.436 120.85 519.934 71.9383 575.133 89.1893C609.664 99.9831 638.277 113.996 660.648 128.764C694.456 151.066 688.319 159.442 706.396 183.493C736.323 223.309 857.206 244.993 928.811 255.282C998.281 265.268 1002.69 263.009 1037.87 285.565C1090.65 319.405 1109.92 344.727 1166.81 394.19C1206.24 428.706 1249.51 459.077 1295.75 484.693" stroke="url(#paint19_radial_601_2031)" stroke-miterlimit="10"/>
<path d="M-58.9871 87.146C-0.0855651 130.141 69.4862 157.437 141.67 165.873C212.005 173.78 262.551 157.963 308.046 150.753C440.828 129.712 500.331 86.7492 556.216 102.265C597.73 113.8 635.88 120.524 660.963 140.76C695.479 168.605 696.622 169.994 723.778 191.642C749.798 233.121 869.935 251.71 937.175 262.26C1002.24 272.52 1006.2 271.283 1042.22 297.383C1093.68 334.674 1112.46 357.95 1165.23 404.32C1204.04 438.766 1247.05 468.718 1293.23 493.448" stroke="url(#paint20_radial_601_2031)" stroke-miterlimit="10"/>
<path d="M-63.1923 96.9022C-6.39391 139.199 61.1237 166.053 131.253 174.24C201.028 182.018 249.738 164.99 297.736 157.766C424.054 138.742 480.764 101.186 537.095 115.634C585.649 128.102 628.365 133.097 661.161 153.1C703.45 178.89 708.518 178.105 741.042 200.134C770.093 239.586 882.553 258.648 945.335 269.532C1006 280.065 1009.56 279.737 1046.37 309.493C1096.66 350.104 1114.79 371.489 1163.47 414.749C1201.65 449.126 1244.41 478.663 1290.51 502.502" stroke="url(#paint21_radial_601_2031)" stroke-miterlimit="10"/>
<path d="M-67.4774 106.846C-12.7838 148.408 52.6701 174.793 120.73 182.713C189.949 190.35 236.798 172.099 287.319 164.884C407.176 147.767 461.216 115.335 518.036 129.181C573.434 142.681 618.28 153.495 661.257 165.534C714.326 180.397 720.319 186.299 758.204 208.72C790.32 246.244 895.097 265.761 953.557 276.981C1009.82 287.788 1013.02 288.299 1050.58 321.782C1099.64 365.532 1117.14 385.243 1161.69 425.34C1199.25 459.645 1241.77 488.768 1287.79 511.718" stroke="url(#paint22_radial_601_2031)" stroke-miterlimit="10"/>
<path d="M-71.82 116.919C-28.9249 150.49 34.5493 182.932 110.183 191.345C178.835 198.975 223.831 179.338 276.865 172.156C390.211 156.812 441.696 129.342 498.85 142.842C561.161 157.571 611.524 167.416 661.329 178.127C720.983 190.94 736.211 188.498 775.343 217.465C815.89 247.475 907.562 273.052 961.652 284.545C1013.52 295.614 1016.4 296.939 1054.67 334.173C1102.73 381.034 1119.36 399.141 1159.92 436.089C1185.14 459.058 1224.06 491.659 1285.07 521.092" stroke="url(#paint23_radial_601_2031)" stroke-miterlimit="10"/>
<path d="M-76.241 127.176C-32.5157 161.931 28.6945 192.332 99.5496 200.142C167.641 207.643 210.781 186.701 266.338 179.599C373.138 165.929 421.988 143.247 479.603 156.68C548.773 172.797 604.781 181.629 661.315 190.885C727.681 201.745 747.545 196.806 792.396 226.375C835.131 254.597 919.982 280.413 969.687 292.285C1017.19 303.627 1019.9 305.635 1058.69 346.752C1105.78 396.642 1121.46 413.245 1158.02 446.981C1182.77 469.836 1221.03 502.151 1282.21 530.621" stroke="url(#paint24_radial_601_2031)" stroke-miterlimit="10"/>
</g>
<defs>
<radialGradient id="paint0_radial_601_2031" cx="0" cy="0" r="1" gradientUnits="userSpaceOnUse" gradientTransform="translate(663.476 214.475) rotate(113.316) scale(88.7333 703.953)">
<stop offset="0.530015" stop-color="#8E72DA"/>
<stop offset="1" stop-color="#C981B3"/>
</radialGradient>
<radialGradient id="paint1_radial_601_2031" cx="0" cy="0" r="1" gradientUnits="userSpaceOnUse" gradientTransform="translate(662.255 214.982) rotate(113.316) scale(82.9547 703.656)">
<stop offset="0.530015" stop-color="#8E72DA"/>
<stop offset="1" stop-color="#C981B3"/>
</radialGradient>
<radialGradient id="paint2_radial_601_2031" cx="0" cy="0" r="1" gradientUnits="userSpaceOnUse" gradientTransform="translate(661.015 215.499) rotate(113.316) scale(78.2437 703.345)">
<stop offset="0.530015" stop-color="#8E72DA"/>
<stop offset="1" stop-color="#C981B3"/>
</radialGradient>
<radialGradient id="paint3_radial_601_2031" cx="0" cy="0" r="1" gradientUnits="userSpaceOnUse" gradientTransform="translate(659.766 216.036) rotate(113.316) scale(74.8621 703.019)">
<stop offset="0.530015" stop-color="#8E72DA"/>
<stop offset="1" stop-color="#C981B3"/>
</radialGradient>
<radialGradient id="paint4_radial_601_2031" cx="0" cy="0" r="1" gradientUnits="userSpaceOnUse" gradientTransform="translate(658.548 216.502) rotate(113.316) scale(72.2181 702.708)">
<stop offset="0.530015" stop-color="#8E72DA"/>
<stop offset="1" stop-color="#C981B3"/>
</radialGradient>
<radialGradient id="paint5_radial_601_2031" cx="0" cy="0" r="1" gradientUnits="userSpaceOnUse" gradientTransform="translate(657.328 217.025) rotate(113.316) scale(74.6814 702.39)">
<stop offset="0.530015" stop-color="#8E72DA"/>
<stop offset="1" stop-color="#C981B3"/>
</radialGradient>
<radialGradient id="paint6_radial_601_2031" cx="0" cy="0" r="1" gradientUnits="userSpaceOnUse" gradientTransform="translate(656.077 217.554) rotate(113.316) scale(79.7651 702.1)">
<stop offset="0.530015" stop-color="#8E72DA"/>
<stop offset="1" stop-color="#C981B3"/>
</radialGradient>
<radialGradient id="paint7_radial_601_2031" cx="0" cy="0" r="1" gradientUnits="userSpaceOnUse" gradientTransform="translate(654.831 218.031) rotate(113.316) scale(84.9927 701.753)">
<stop offset="0.530015" stop-color="#8E72DA"/>
<stop offset="1" stop-color="#C981B3"/>
</radialGradient>
<radialGradient id="paint8_radial_601_2031" cx="0" cy="0" r="1" gradientUnits="userSpaceOnUse" gradientTransform="translate(653.635 218.536) rotate(113.316) scale(90.3003 701.477)">
<stop offset="0.530015" stop-color="#8E72DA"/>
<stop offset="1" stop-color="#C981B3"/>
</radialGradient>
<radialGradient id="paint9_radial_601_2031" cx="0" cy="0" r="1" gradientUnits="userSpaceOnUse" gradientTransform="translate(652.438 219.08) rotate(113.316) scale(95.7743 701.216)">
<stop offset="0.530015" stop-color="#8E72DA"/>
<stop offset="1" stop-color="#C981B3"/>
</radialGradient>
<radialGradient id="paint10_radial_601_2031" cx="0" cy="0" r="1" gradientUnits="userSpaceOnUse" gradientTransform="translate(651.155 219.552) rotate(113.316) scale(101.414 700.848)">
<stop offset="0.530015" stop-color="#8E72DA"/>
<stop offset="1" stop-color="#C981B3"/>
</radialGradient>
<radialGradient id="paint11_radial_601_2031" cx="0" cy="0" r="1" gradientUnits="userSpaceOnUse" gradientTransform="translate(649.889 220.042) rotate(113.316) scale(107.251 700.487)">
<stop offset="0.530015" stop-color="#8E72DA"/>
<stop offset="1" stop-color="#C981B3"/>
</radialGradient>
<radialGradient id="paint12_radial_601_2031" cx="0" cy="0" r="1" gradientUnits="userSpaceOnUse" gradientTransform="translate(648.706 220.588) rotate(113.316) scale(113.206 700.239)">
<stop offset="0.530015" stop-color="#8E72DA"/>
<stop offset="1" stop-color="#C981B3"/>
</radialGradient>
<radialGradient id="paint13_radial_601_2031" cx="0" cy="0" r="1" gradientUnits="userSpaceOnUse" gradientTransform="translate(647.478 221.08) rotate(113.316) scale(119.328 699.928)">
<stop offset="0.530015" stop-color="#8E72DA"/>
<stop offset="1" stop-color="#C981B3"/>
</radialGradient>
<radialGradient id="paint14_radial_601_2031" cx="0" cy="0" r="1" gradientUnits="userSpaceOnUse" gradientTransform="translate(646.22 221.567) rotate(113.316) scale(125.546 699.645)">
<stop offset="0.530015" stop-color="#8E72DA"/>
<stop offset="1" stop-color="#C981B3"/>
</radialGradient>
<radialGradient id="paint15_radial_601_2031" cx="0" cy="0" r="1" gradientUnits="userSpaceOnUse" gradientTransform="translate(644.994 222.085) rotate(113.316) scale(131.849 699.277)">
<stop offset="0.530015" stop-color="#8E72DA"/>
<stop offset="1" stop-color="#C981B3"/>
</radialGradient>
<radialGradient id="paint16_radial_601_2031" cx="0" cy="0" r="1" gradientUnits="userSpaceOnUse" gradientTransform="translate(643.791 222.606) rotate(113.316) scale(138.223 699.001)">
<stop offset="0.530015" stop-color="#8E72DA"/>
<stop offset="1" stop-color="#C981B3"/>
</radialGradient>
<radialGradient id="paint17_radial_601_2031" cx="0" cy="0" r="1" gradientUnits="userSpaceOnUse" gradientTransform="translate(640.882 230.841) rotate(113.316) scale(133.541 699.588)">
<stop offset="0.530015" stop-color="#8E72DA"/>
<stop offset="1" stop-color="#C981B3"/>
</radialGradient>
<radialGradient id="paint18_radial_601_2031" cx="0" cy="0" r="1" gradientUnits="userSpaceOnUse" gradientTransform="translate(637.944 239.068) rotate(113.316) scale(129.01 700.147)">
<stop offset="0.530015" stop-color="#8E72DA"/>
<stop offset="1" stop-color="#C981B3"/>
</radialGradient>
<radialGradient id="paint19_radial_601_2031" cx="0" cy="0" r="1" gradientUnits="userSpaceOnUse" gradientTransform="translate(635.027 247.301) rotate(113.316) scale(127.451 700.727)">
<stop offset="0.530015" stop-color="#8E72DA"/>
<stop offset="1" stop-color="#C981B3"/>
</radialGradient>
<radialGradient id="paint20_radial_601_2031" cx="0" cy="0" r="1" gradientUnits="userSpaceOnUse" gradientTransform="translate(632.118 255.499) rotate(113.316) scale(129.486 701.3)">
<stop offset="0.530015" stop-color="#8E72DA"/>
<stop offset="1" stop-color="#C981B3"/>
</radialGradient>
<radialGradient id="paint21_radial_601_2031" cx="0" cy="0" r="1" gradientUnits="userSpaceOnUse" gradientTransform="translate(629.155 263.751) rotate(113.316) scale(131.733 701.845)">
<stop offset="0.530015" stop-color="#8E72DA"/>
<stop offset="1" stop-color="#C981B3"/>
</radialGradient>
<radialGradient id="paint22_radial_601_2031" cx="0" cy="0" r="1" gradientUnits="userSpaceOnUse" gradientTransform="translate(626.232 271.981) rotate(113.316) scale(134.195 702.418)">
<stop offset="0.530015" stop-color="#8E72DA"/>
<stop offset="1" stop-color="#C981B3"/>
</radialGradient>
<radialGradient id="paint23_radial_601_2031" cx="0" cy="0" r="1" gradientUnits="userSpaceOnUse" gradientTransform="translate(623.337 280.234) rotate(113.316) scale(136.853 703.027)">
<stop offset="0.530015" stop-color="#8E72DA"/>
<stop offset="1" stop-color="#C981B3"/>
</radialGradient>
<radialGradient id="paint24_radial_601_2031" cx="0" cy="0" r="1" gradientUnits="userSpaceOnUse" gradientTransform="translate(620.414 288.463) rotate(113.316) scale(139.651 703.6)">
<stop offset="0.530015" stop-color="#8E72DA"/>
<stop offset="1" stop-color="#C981B3"/>
</radialGradient>
</defs>
</svg>
