<svg width="93" height="24" viewBox="0 0 93 24" fill="none" xmlns="http://www.w3.org/2000/svg">
<g clip-path="url(#clip0_322_2497)">
<path d="M82.0481 19.517C81.9789 18.2756 81.9789 16.5515 81.9789 15.0343H81.2188C78.5241 15.0343 77.4877 15.9306 77.4877 17.517C77.4877 19.1721 78.317 19.7928 80.2515 19.7928C80.9425 19.7238 81.6334 19.6549 82.0481 19.517ZM87.9903 22.8964C84.4665 22.8964 81.7027 23.3102 78.9389 23.3102C73.6874 23.3102 71.822 21.1723 71.822 17.4482C71.822 13.8619 74.7931 11.931 81.219 11.931H82.1172V11.5862C82.1172 9.03435 81.3572 7.99988 78.7316 7.99988C76.866 7.99988 75.0004 8.62056 73.6876 9.31021L73.4805 5.2413C74.9315 4.62062 77.4189 4.20683 80.1827 4.20683C85.8487 4.20683 87.9216 6.06904 87.9216 11.1033C87.9216 13.7929 87.7143 16.1377 87.7143 17.793C87.714 19.2411 87.714 21.379 87.9903 22.8964ZM27.6702 12.2067C30.1577 12.2067 31.3322 11.3791 31.3322 9.58623C31.3322 8.34487 30.5031 7.65522 29.1212 7.65522C26.7719 7.65522 25.9426 9.51742 25.9426 12.0689V12.1379C26.4264 12.2067 27.0483 12.2067 27.6702 12.2067ZM10.7418 19.517C10.6727 18.2756 10.6727 16.5515 10.6727 15.0343H9.91267C7.21795 15.0343 6.18152 15.9306 6.18152 17.517C6.18152 19.1721 7.01083 19.7928 9.01443 19.7928C9.56719 19.7238 10.2581 19.6549 10.7418 19.517ZM28.3611 15.2412C27.6702 15.2412 26.5646 15.2412 26.012 15.1722V15.3103C26.012 17.862 27.7394 19.5171 30.9178 19.5171C32.8523 19.5171 34.5797 18.8964 35.8236 18.2068L36.0308 22.2757C34.7871 22.8273 32.3688 23.2412 29.9505 23.2412C23.5246 23.2412 20.4153 21.0342 19.8625 15.1034C19.1025 15.0344 17.9968 15.0344 16.4769 15.0344C16.4078 16.0689 16.4078 16.9653 16.4078 17.793C16.4078 19.2413 16.4078 21.3792 16.6842 22.8273C13.1601 22.8273 10.3963 23.2412 7.63252 23.2412C2.38128 23.2412 0.515869 21.1031 0.515869 17.4482C0.515869 13.8619 3.4868 11.931 9.91283 11.931H10.8111V11.5862C10.8111 9.03435 10.0509 7.99988 7.4254 7.99988C5.55966 7.99988 3.69425 8.62056 2.38144 9.31021L2.17399 5.2413C3.62499 4.62062 6.11243 4.20683 8.87624 4.20683C14.542 4.20683 16.6149 6.06904 16.6149 11.1033V11.931C17.9968 11.931 18.9641 11.931 19.9315 12C20.4842 7.03438 23.0408 4.207 29.3284 4.207C34.5106 4.207 36.9289 6.34489 36.9289 9.65519C36.9289 13.517 34.0269 15.2412 28.3611 15.2412ZM69.4728 14.4825V10.8964C69.4728 6.34457 67.469 4.27564 61.7341 4.27564C58.4865 4.27564 56.2065 4.82735 52.6134 4.82735C52.8207 8.06868 52.8207 11.9997 52.8207 14.4824C52.8207 16.9651 52.7516 21.4478 52.6134 22.8962H58.7629C58.6938 21.4478 58.5557 17.241 58.5557 14.4824C58.5557 12.8962 58.5557 10.9652 58.6248 8.34454C59.2467 8.13781 60.0067 7.99972 60.8359 7.99972C62.9778 7.99972 63.6688 9.03419 63.6688 11.7238V14.4824C63.6688 16.9651 63.5997 21.4478 63.4617 22.8962H69.611C69.611 21.448 69.4728 17.2411 69.4728 14.4825ZM50.1261 18.8273L50.4025 22.8271C49.9188 22.9652 48.4678 23.241 46.4641 23.241C42.3874 23.241 40.2455 21.5859 40.2455 17.448C40.2455 14.2065 40.3146 10.6895 40.3146 8.75833H38.2417C38.3108 7.86195 38.2417 6.62043 38.2417 5.72405C41.4201 5.17234 42.3874 3.44823 42.8711 0H46.3259C46.1877 1.37929 46.1188 3.44823 46.1188 4.82752H49.7806V8.75849H46.0495V15.7929C46.0495 18.5515 46.6023 19.2411 48.4678 19.2411C49.0897 19.2411 49.7806 19.0342 50.1261 18.8273ZM90.4087 5.51716C90.6851 5.51716 90.8232 5.37923 90.8232 5.17234C90.8232 5.10337 90.7542 4.96544 90.7542 4.96544C90.6851 4.89648 90.5469 4.89648 90.4087 4.89648H90.1321V5.51716H90.4087ZM89.8559 4.68959H90.3396C90.6158 4.68959 90.8232 4.75855 90.8922 4.82752C91.0305 4.96545 91.0995 5.10337 91.0995 5.2413C91.0995 5.31027 91.0995 5.37939 91.0304 5.44819C91.0304 5.51716 90.9611 5.58612 90.9611 5.58612L90.8229 5.72422C90.7538 5.72422 90.6847 5.79318 90.6847 5.79318L91.1684 6.55179H90.8918C90.8228 6.55179 90.8228 6.48283 90.7537 6.41386L90.3389 5.79318H90.1318V6.55179H89.8554V4.68959H89.8559ZM89.8559 6.82748C89.9943 6.89645 90.2014 6.96541 90.4087 6.96541C90.6158 6.96541 90.7541 6.89645 90.9613 6.82748C91.0996 6.75852 91.2377 6.62059 91.376 6.55163C91.5142 6.4137 91.5831 6.27577 91.5831 6.13784C91.6522 5.99975 91.6522 5.79302 91.6522 5.65493C91.6522 5.517 91.6522 5.3101 91.5831 5.17217L91.376 4.75839C91.2377 4.62029 91.1687 4.55149 90.9613 4.48253C90.8231 4.41357 90.6158 4.3446 90.4087 4.3446C90.2014 4.3446 90.0632 4.41357 89.8559 4.48253C89.7177 4.55149 89.5795 4.62046 89.4413 4.75839C89.3031 4.89631 89.2341 5.03425 89.2341 5.17217C89.165 5.3101 89.165 5.517 89.165 5.65493C89.165 5.93079 89.2341 6.13784 89.3722 6.4137C89.5104 6.55163 89.6486 6.75852 89.8559 6.82748ZM89.3031 6.75852C89.1648 6.62043 89.0959 6.4137 89.0268 6.27561C88.9577 6.06887 88.9577 5.86182 88.9577 5.65493C88.9577 5.4482 89.0268 5.24114 89.0959 5.03441C89.165 4.82752 89.2341 4.68958 89.3722 4.55149C89.5104 4.41356 89.6485 4.27563 89.8559 4.20667C90.0634 4.13771 90.2705 4.06874 90.4778 4.06874C90.6849 4.06874 90.9614 4.13771 91.0996 4.20667C91.3067 4.27563 91.4451 4.41356 91.5833 4.55149C91.7215 4.68958 91.7906 4.89632 91.8597 5.03441C91.9288 5.24114 91.9979 5.4482 91.9979 5.65493C91.9979 5.86182 91.9288 6.06887 91.8597 6.27561C91.7904 6.4825 91.7213 6.62043 91.5833 6.75852C91.4451 6.89645 91.3069 7.03422 91.0996 7.10334C90.8923 7.17231 90.6849 7.24127 90.4778 7.24127C90.2705 7.24127 89.9939 7.17231 89.8559 7.10334C89.5794 7.03438 89.4413 6.89645 89.3031 6.75852Z" fill="#703484"/>
</g>
<defs>
<clipPath id="clip0_322_2497">
<rect width="91.5133" height="23.31" fill="white" transform="translate(0.5)"/>
</clipPath>
</defs>
</svg>
