<svg width="94" height="22" viewBox="0 0 94 22" fill="none" xmlns="http://www.w3.org/2000/svg">
<g clip-path="url(#clip0_322_2501)">
<path d="M88.1983 3.00703L87.986 3.00162V1.2613H84.3396V20.7124H88.5844V9.85751C88.5844 8.09341 88.8222 6.07754 90.621 5.19522C91.3551 4.80743 92.53 4.48945 93.375 4.48945V0.713623C91.3186 0.784695 89.4461 1.31373 88.1983 3.00703ZM71.0159 17.9341C67.1242 17.9341 64.0772 14.7227 64.0772 11.0534C64.0772 7.2419 67.0144 4.06572 71.0525 4.06572C75.2011 4.06572 78.1018 7.13632 78.1018 11.0534C78.1018 14.8283 74.9808 17.9341 71.0158 17.9341H71.0159ZM77.8325 3.78504C76.3023 1.70521 73.6826 0.713623 71.0525 0.713623C64.8848 0.713623 60.2589 5.15982 60.2589 11.0885C60.2589 16.9813 64.9584 21.2863 71.0525 21.2863C73.7497 21.2863 76.368 20.1983 77.8325 17.9913V20.7124H81.9979V1.26121H77.8325V3.78504ZM49.2079 4.06581C51.9248 4.06581 53.797 5.44194 54.935 7.7358H59.1572C58.0188 3.53669 53.5399 0.713623 49.171 0.713623C43.1499 0.713623 38.7081 5.26575 38.7081 10.9824C38.7081 16.6993 43.0768 21.2863 49.1343 21.2863C53.7971 21.2863 57.652 18.5338 59.1573 14.335H54.8985C53.8338 16.5931 51.7411 17.9342 49.1343 17.9342C45.0593 17.9342 42.5262 14.6876 42.5262 10.9824C42.5262 7.13642 45.0223 4.06581 49.2079 4.06581H49.2079ZM31.1079 8.68901C29.7127 8.26573 27.9508 7.87704 27.9508 6.14789C27.9508 4.84229 29.0519 4.06581 30.3368 4.06581C31.8789 4.06581 32.7599 5.01866 32.9436 6.43029H36.7618C36.6882 3.04279 34.0083 0.713623 30.5203 0.713623C27.1796 0.713623 24.1323 3.00703 24.1323 6.35931C24.1323 13.2762 33.4208 11.1591 33.4208 15.2521C33.4208 16.9457 32.1724 17.9342 30.4837 17.9342C28.2076 17.9342 27.655 16.3861 27.5079 14.3752H23.3164C23.3164 17.4448 24.7932 19.8044 27.8036 20.8276C28.6483 21.1104 29.5292 21.2863 30.4104 21.2863C34.3018 21.2863 37.2391 18.8869 37.2391 15.0409C37.2391 11.2645 34.4488 9.67672 31.1079 8.68901ZM11.5396 17.9342C7.57456 17.9342 4.3805 14.7935 4.3805 10.9824C4.3805 7.17146 7.57456 4.06581 11.5396 4.06581C15.5048 4.06581 18.6986 7.13642 18.6986 10.9473C18.6986 14.7581 15.5412 17.9342 11.5396 17.9342ZM11.5396 0.713623C5.66528 0.713623 0.5625 5.12469 0.5625 10.8762C0.5625 16.6639 5.55543 21.2863 11.5396 21.2863C17.7076 21.2863 22.5171 16.5223 22.5171 10.9473C22.5171 5.15973 17.4872 0.713623 11.5396 0.713623Z" fill="#2854A1"/>
</g>
<defs>
<clipPath id="clip0_322_2501">
<rect width="92.8125" height="20.625" fill="white" transform="translate(0.5625 0.6875)"/>
</clipPath>
</defs>
</svg>
