<svg width="99" height="35" viewBox="0 0 99 35" fill="none" xmlns="http://www.w3.org/2000/svg">
<g clip-path="url(#clip0_322_2449)">
<path d="M11.5054 14.8906C12.3977 14.8906 18.1888 17.4122 18.1888 26.4699C18.1888 30.7984 16.7111 34.4062 15.8402 34.4062C15.4556 34.4062 15.3098 34.0275 15.3098 33.2995C15.3098 31.6967 15.8824 30.2771 15.8824 26.8565C15.8824 20.2516 13.1247 17.5868 11.89 16.0868C11.5257 15.6428 11.2495 15.354 11.2495 15.093C11.2495 14.9867 11.326 14.8906 11.5054 14.8906ZM26.102 15.093C26.102 15.354 25.8258 15.6428 25.4614 16.0868C24.2273 17.5868 21.4708 20.2516 21.4708 26.8553C21.4708 30.2765 22.041 31.6961 22.041 33.2995C22.041 34.0275 21.8952 34.4062 21.5118 34.4062C20.6391 34.4062 19.162 30.7984 19.162 26.4699C19.162 17.4122 24.9543 14.8906 25.8478 14.8906C26.026 14.8906 26.102 14.9867 26.102 15.093Z" fill="#0982C6"/>
<path d="M16.5616 16.7036C16.5616 17.8865 17.5072 18.8441 18.6745 18.8441C19.8454 18.8441 20.7922 17.8865 20.7922 16.7036C20.7922 15.5196 19.8454 14.5632 18.6751 14.5632C17.5072 14.5632 16.5616 15.5196 16.5616 16.7036Z" fill="#F8971F"/>
<path d="M7.69133 13.3199C6.5859 12.8269 5.75791 11.8386 5.62317 10.8798C6.44382 10.347 7.74032 10.3059 8.84636 10.7995C10.0038 11.316 10.2751 12.189 10.2819 12.9568C9.69212 13.4607 8.85003 13.8376 7.69133 13.3199ZM10.8625 7.55595C10.1508 6.47759 9.98547 5.11227 10.4258 4.16923C11.4798 4.15534 12.6765 4.86095 13.3869 5.93811C14.1291 7.06782 13.8615 8.01146 13.4157 8.70922C12.5864 8.82703 11.6047 8.68566 10.8625 7.55595ZM12.5087 13.2667C11.6317 12.5333 11.1387 11.4211 11.2685 10.5119C12.1565 10.2377 13.3501 10.5337 14.2271 11.2659C15.1458 12.0355 15.1605 12.8994 14.9639 13.6014C14.2939 13.9065 13.4273 14.0334 12.5087 13.2661M15.1917 10.5065C14.8144 9.30308 15.0269 7.97098 15.6988 7.19589C16.6964 7.45989 17.6334 8.44401 18.0107 9.64743C18.4057 10.9082 17.8955 11.7268 17.2874 12.2675C16.4759 12.16 15.5849 11.7673 15.1917 10.5065ZM10.5709 19.2935C9.69763 19.4614 8.77593 19.2143 8.28109 18.6966C8.54137 18.0321 9.30507 17.4642 10.1796 17.2968C11.0952 17.1216 11.6335 17.5306 11.9691 17.9892C11.8313 18.5389 11.4896 19.1165 10.5709 19.2935ZM8.26211 16.741C7.26692 16.6347 6.36053 16.0705 6.0041 15.3516C6.5069 14.7245 7.51679 14.3638 8.51259 14.4701C9.55555 14.5819 9.99527 15.1981 10.2017 15.7992C9.8685 16.3447 9.30568 16.8528 8.26211 16.741ZM8.17331 9.45109C7.39247 8.79742 6.95458 7.80968 7.07033 7.00197C7.85852 6.75669 8.91985 7.0207 9.70069 7.67194C10.5158 8.35581 10.5311 9.12365 10.356 9.74831C9.75887 10.0202 8.98967 10.1325 8.17331 9.45109ZM13.494 4.26952C13.1793 3.26667 13.3581 2.15508 13.9166 1.51048C14.7495 1.73219 15.531 2.55139 15.8458 3.55302C16.1746 4.6042 15.7484 5.28505 15.2407 5.73814C14.564 5.64752 13.8248 5.32129 13.4947 4.27012M0.419403 30.2922C0.419403 30.3193 0.437163 30.3411 0.472072 30.3411C0.50453 30.3411 0.563323 30.3151 0.627015 30.2928C3.7516 29.1872 8.365 27.8303 14.8395 27.4171C14.8475 27.3591 14.8855 27.0746 14.8855 26.8553C14.8855 26.3931 14.8304 25.911 14.8157 25.8307C8.18127 26.4312 3.60217 28.3287 0.593944 30.1526C0.471459 30.2275 0.419403 30.2444 0.419403 30.2922ZM27.0715 12.9562C27.0782 12.189 27.3483 11.3154 28.5058 10.7989C29.6106 10.3053 30.9089 10.3458 31.729 10.8792C31.5936 11.838 30.7669 12.8263 29.662 13.3187C28.5021 13.8364 27.6606 13.4601 27.0715 12.9562ZM23.9371 8.70862C23.4925 8.01085 23.2236 7.06661 23.9671 5.9369C24.6769 4.86035 25.873 4.15473 26.9276 4.16863C27.3667 5.11166 27.2001 6.47698 26.4909 7.55535C25.7487 8.68506 24.7651 8.82642 23.9371 8.70862ZM22.3877 13.6008C22.1923 12.8988 22.207 12.0349 23.1256 11.2653C24.0039 10.5331 25.1956 10.2371 26.0849 10.5119C26.2135 11.4199 25.7211 12.5327 24.8435 13.2655C23.9267 14.0328 23.0577 13.9059 22.3877 13.6008ZM20.0647 12.2675C19.4566 11.7268 18.9471 10.9082 19.3421 9.64682C19.7175 8.44401 20.6588 7.4605 21.6546 7.19589C22.3264 7.97098 22.5389 9.30247 22.1617 10.5065C21.7667 11.7673 20.8793 12.16 20.0647 12.2675ZM25.3849 17.9898C25.7205 17.5324 26.2564 17.1216 27.1738 17.2974C28.0495 17.4648 28.8114 18.0339 29.0723 18.6972C28.5787 19.2149 27.6557 19.4614 26.7812 19.2941C25.8638 19.1171 25.5202 18.5389 25.3849 17.9898ZM27.1517 15.7998C27.3581 15.1987 27.7984 14.5825 28.8414 14.4708C29.8366 14.3644 30.8453 14.7263 31.3481 15.3528C30.9922 16.0705 30.0852 16.6353 29.0913 16.7417C28.0471 16.8534 27.483 16.3453 27.1517 15.7998ZM26.9968 9.74892C26.821 9.12425 26.8351 8.35641 27.6527 7.67194C28.4335 7.0213 29.4942 6.75669 30.2824 7.00257C30.3976 7.81029 29.9597 8.79803 29.1795 9.45109C28.3637 10.1337 27.5927 10.0214 26.9968 9.74892ZM22.1115 5.73874C21.6038 5.28565 21.1787 4.6048 21.5082 3.55363C21.8218 2.55199 22.6045 1.7328 23.4331 1.51109C23.9965 2.15629 24.1723 3.26727 23.8587 4.27012C23.5292 5.32129 22.7888 5.64813 22.1115 5.73874ZM36.7582 30.1532C33.7512 28.3294 29.1721 26.4318 22.5371 25.8313C22.4928 26.1711 22.4695 26.5133 22.4673 26.8559C22.4673 27.0752 22.5059 27.3597 22.5132 27.4177C28.9872 27.8316 33.5993 29.1878 36.7264 30.2934C36.7907 30.3157 36.8507 30.3417 36.8795 30.3417C36.9162 30.3417 36.9346 30.3193 36.9346 30.2934C36.9346 30.245 36.8795 30.2281 36.7582 30.1532ZM18.6758 6.79294C17.8165 6.39845 16.9702 5.66504 16.9702 4.14084C16.9702 2.6849 17.6665 1.28454 18.6764 0.65625C19.6863 1.28454 20.3826 2.68429 20.3826 4.14023C20.3826 5.66504 19.5375 6.39845 18.6758 6.79294Z" fill="#56B948"/>
<path d="M51.0791 11.9462C51.0791 12.8439 51.8287 13.5718 52.7571 13.5718C53.6831 13.5718 54.4339 12.8439 54.4339 11.9462C54.4339 11.049 53.6831 10.3223 52.7565 10.3223C51.8287 10.3223 51.0791 11.049 51.0791 11.9462ZM64.1764 20.5024C64.1764 23.0681 63.1598 24.1368 61.6887 24.1368C60.2048 24.1368 59.3738 22.8947 59.3738 20.7162C59.3738 18.493 60.6629 16.6553 63.0508 16.6553C63.5431 16.6553 63.8873 16.7036 64.1764 16.7725V20.5024ZM64.3197 24.7107V25.5444C64.3197 27.831 62.8921 28.7191 61.1204 28.7191C59.5281 28.7191 58.3535 28.246 57.9817 28.1186V30.381C58.2843 30.4614 59.5777 30.8625 61.4229 30.8625C64.6994 30.8625 66.8888 29.5286 66.8888 24.9566V15.09C66.4687 14.9849 64.9303 14.5826 63.1591 14.5826C58.5629 14.5826 56.5878 17.6213 56.5878 20.9089C56.5878 23.9314 58.1293 26.3007 61.0818 26.3007C63.0287 26.3007 63.9645 25.1408 64.2689 24.7107H64.3197ZM48.6906 23.3152C47.9526 23.6565 46.7719 23.8812 45.6291 23.8812C42.5131 23.8812 40.2183 21.6822 40.2183 18.3317C40.2183 15.0036 42.4972 12.7786 45.6291 12.7786C47.1816 12.7786 48.2864 13.1532 48.6912 13.3429V10.9481C48.0096 10.6986 46.9042 10.4467 45.3413 10.4467C40.5062 10.4467 37.2554 13.7452 37.2554 18.333C37.2554 22.6688 40.2465 26.2144 45.3419 26.2144C46.8362 26.2144 47.9606 25.9806 48.6906 25.7111V23.3152ZM89.7273 20.5024C89.7273 23.0681 88.7095 24.1368 87.2391 24.1368C85.7545 24.1368 84.9186 22.8947 84.9186 20.7162C84.9186 18.493 86.2145 16.6553 88.6005 16.6553C88.9795 16.6493 89.3579 16.6887 89.7273 16.7725V20.5024ZM92.7809 26.0506C92.6933 25.426 92.4398 23.7767 92.4398 22.357V15.09C92.0154 14.9849 90.4763 14.5826 88.7095 14.5826C84.1108 14.5826 82.1382 17.6213 82.1382 20.9089C82.1382 23.9314 83.6748 26.3007 86.6297 26.3007C88.7879 26.3007 89.7543 24.9246 90.1193 24.1905H90.1903C90.2179 24.5391 90.3147 25.7232 90.3471 26.0512H92.7821L92.7809 26.0506ZM54.1143 14.8689H51.4024V26.05H54.1143V14.8689ZM69.9589 26.05V18.3136C69.9589 17.2763 69.8634 15.287 69.8358 14.8357H72.272L72.3865 16.4082H72.4374C72.7203 15.9684 73.6322 14.5826 75.7579 14.5826C78.3246 14.5826 79.751 16.4433 79.751 18.7619V26.0506H77.041V19.2905C77.041 17.8666 76.2387 16.7906 74.8571 16.7906C73.4326 16.7906 72.6732 17.9264 72.6732 19.2905V26.05H69.9589ZM96.7604 24.1289C96.6912 24.0897 96.5779 24.0715 96.4254 24.0715H96.1884V24.6309H96.4389C96.5284 24.6354 96.618 24.6241 96.7035 24.5977C96.8113 24.5554 96.8658 24.4751 96.8658 24.3549C96.8658 24.2425 96.8309 24.1676 96.7604 24.1289ZM96.4616 23.8855C96.6563 23.8855 96.8002 23.9036 96.8903 23.9398C97.0538 24.0087 97.134 24.1374 97.134 24.3325C97.134 24.4715 97.0832 24.5754 96.9815 24.6388C96.912 24.6789 96.8349 24.7044 96.7549 24.7137C96.8627 24.7246 96.9607 24.7802 97.025 24.8666C97.0774 24.9359 97.1071 25.0193 97.1101 25.1058V25.2194C97.1101 25.2556 97.1101 25.2937 97.1126 25.3341C97.1126 25.3619 97.1181 25.3897 97.1273 25.4157L97.1358 25.4338H96.8774L96.8737 25.4187C96.8731 25.4139 96.87 25.4079 96.87 25.4012L96.8645 25.3523V25.2296C96.8645 25.0508 96.8137 24.9318 96.7163 24.8744C96.6569 24.843 96.554 24.8237 96.4083 24.8237H96.1896V25.4338H95.9128V23.8855H96.4628H96.4616ZM95.6189 23.8069C95.5032 23.9184 95.4119 24.052 95.3505 24.1995C95.2891 24.347 95.2589 24.5053 95.2618 24.6648C95.2618 25.0031 95.3806 25.2931 95.6189 25.5305C95.8455 25.7643 96.1621 25.8942 96.4903 25.8887C96.8315 25.8887 97.123 25.7691 97.3624 25.5305C97.5994 25.2937 97.7195 25.0031 97.7195 24.6666C97.7195 24.3295 97.5994 24.0431 97.3624 23.8063C97.2496 23.6911 97.114 23.5999 96.964 23.5383C96.814 23.4768 96.6528 23.4463 96.4903 23.4487C96.3281 23.446 96.167 23.4764 96.0171 23.538C95.8673 23.5995 95.7319 23.6909 95.6195 23.8063L95.6189 23.8069ZM97.5027 25.6652C97.3718 25.7992 97.2144 25.9052 97.0403 25.9766C96.8661 26.048 96.6789 26.0833 96.4903 26.0802C96.3018 26.0834 96.1147 26.0482 95.9406 25.9767C95.7666 25.9053 95.6093 25.7993 95.4786 25.6652C95.344 25.5349 95.2377 25.379 95.1661 25.2069C95.0945 25.0348 95.0591 24.8502 95.0622 24.6642C95.0622 24.2751 95.2036 23.9429 95.4811 23.6674C95.6119 23.5344 95.7689 23.4293 95.9425 23.3584C96.1161 23.2875 96.3025 23.2525 96.4903 23.2554C96.6787 23.2521 96.8657 23.287 97.0398 23.3579C97.2139 23.4288 97.3715 23.5341 97.5027 23.6674C97.7832 23.941 97.9228 24.2739 97.9228 24.6636C97.9259 24.85 97.8901 25.035 97.8179 25.2073C97.7456 25.3796 97.6384 25.5354 97.5027 25.6652Z" fill="#0982C6"/>
</g>
<defs>
<clipPath id="clip0_322_2449">
<rect width="98.3152" height="33.75" fill="white" transform="translate(0.0774536 0.65625)"/>
</clipPath>
</defs>
</svg>
