<svg width="178" height="32" viewBox="0 0 178 32" fill="none" xmlns="http://www.w3.org/2000/svg">
<g clip-path="url(#clip0_544_142)">
<path d="M14.496 32C-4.91679 21.1738 0.778895 4.32576 0.778895 4.32576C6.82039 -0.135527 14.5163 0.00044888 14.5163 0.00044888C14.5163 0.00044888 22.2123 -0.135527 28.2538 4.32576C28.2538 4.32576 33.9427 21.1738 14.5367 32" fill="url(#paint0_linear_544_142)"/>
<path fill-rule="evenodd" clip-rule="evenodd" d="M14.5163 0.000448871C14.5163 0.000448871 6.82039 -0.135526 0.778895 4.32576C0.778895 4.32576 -4.91679 21.1738 14.496 32L14.5163 31.9635L14.5367 32C33.9427 21.1738 28.2538 4.32576 28.2538 4.32576C22.2123 -0.135526 14.5163 0.000448871 14.5163 0.000448871ZM27.6874 4.72937C24.815 2.66252 21.5641 1.64023 18.9929 1.13766C17.6846 0.881933 16.5612 0.76253 15.7673 0.707102C15.3705 0.679405 15.0567 0.667729 14.844 0.662947C14.7376 0.660556 14.6566 0.65989 14.6032 0.659804C14.5765 0.659761 14.5566 0.659863 14.544 0.659967L14.5305 0.660106L14.528 0.66014L14.5163 0.660346L14.5051 0.660147L14.5022 0.660106L14.4887 0.659967C14.476 0.659863 14.4562 0.659761 14.4295 0.659804C14.3761 0.65989 14.295 0.660556 14.1887 0.662947C13.9759 0.667729 13.6621 0.679405 13.2654 0.707102C12.4714 0.76253 11.3481 0.881933 10.0397 1.13766C7.4685 1.64023 4.21764 2.66255 1.34517 4.72945C1.31138 4.84596 1.26534 5.01348 1.21298 5.22757C1.10015 5.68899 0.958237 6.36579 0.846398 7.2137C0.622559 8.91076 0.520305 11.2847 1.00699 13.9861C1.96508 19.3038 5.21708 25.9659 14.5163 31.2542C23.8122 25.9659 27.0642 19.3039 28.0232 13.986C28.5103 11.2846 28.4086 8.91059 28.1853 7.21351C28.0737 6.36558 27.932 5.68878 27.8194 5.22736C27.7671 5.01335 27.7211 4.84588 27.6874 4.72937Z" fill="url(#paint1_radial_544_142)"/>
<path fill-rule="evenodd" clip-rule="evenodd" d="M5.14758 8.84329C5.08493 8.84135 5.07271 8.94647 5.13362 8.96125C9.27812 9.96719 13.0003 14.3633 13.0003 20.1611V22.7264C13.0003 23.5119 13.6371 24.1487 14.4226 24.1487C15.2082 24.1487 15.845 23.5119 15.845 22.7264V20.4405C15.845 13.1612 12.4888 9.07037 5.14758 8.84329ZM23.6866 8.96195C20.3127 9.78094 17.2187 12.8466 16.1849 17.0862C15.9191 15.5662 15.453 14.2151 14.7686 13.0522C16.4636 10.4239 19.3901 8.97642 23.6728 8.84394C23.7355 8.842 23.7475 8.94716 23.6866 8.96195Z" fill="url(#paint2_radial_544_142)"/>
<path d="M16.6332 8.50412C16.6332 9.73852 15.6326 10.7392 14.3982 10.7392C13.1638 10.7392 12.1631 9.73852 12.1631 8.50412C12.1631 7.26972 13.1638 6.26904 14.3982 6.26904C15.6326 6.26904 16.6332 7.26972 16.6332 8.50412Z" fill="#570B7D"/>
<path d="M41.0312 22.8437V9.15649H43.6905V22.8437H41.0312Z" fill="white"/>
<path d="M45.5789 22.8437V12.9889H48.0426V14.475C48.3684 13.9796 48.7986 13.582 49.3331 13.2822C49.8805 12.9824 50.4932 12.8325 51.171 12.8325C52.253 12.8325 53.1198 13.1584 53.7716 13.8102C54.4364 14.4619 54.7688 15.3223 54.7688 16.3912V22.8437H52.3051V16.9778C52.3051 16.3912 52.1357 15.9219 51.7967 15.5699C51.4578 15.2049 51.0016 15.0224 50.428 15.0224C49.672 15.0224 49.0854 15.3288 48.6683 15.9414C48.2511 16.5541 48.0426 17.4144 48.0426 18.5224V22.8437H45.5789Z" fill="white"/>
<path d="M60.0051 23.0001C58.8971 23.0001 57.9715 22.7198 57.2285 22.1593C56.4855 21.5858 55.9771 20.8949 55.7034 20.0867L57.7174 19.2655C57.8738 19.7999 58.1475 20.2366 58.5386 20.5755C58.9296 20.9144 59.4185 21.0839 60.0051 21.0839C60.4613 21.0839 60.8263 20.9796 61.1 20.771C61.3868 20.5494 61.5302 20.2822 61.5302 19.9694C61.5302 19.6305 61.3412 19.3632 60.9632 19.1677C60.5982 18.9722 60.155 18.8157 59.6336 18.6984C59.1121 18.5681 58.5842 18.4116 58.0498 18.2291C57.5283 18.0467 57.0786 17.7338 56.7006 17.2906C56.3356 16.8474 56.1531 16.2804 56.1531 15.5895C56.1531 14.7943 56.4725 14.136 57.1112 13.6146C57.7499 13.0932 58.5972 12.8325 59.6531 12.8325C60.6177 12.8325 61.465 13.0541 62.195 13.4973C62.938 13.9405 63.4138 14.5206 63.6224 15.2375L61.628 16.0783C61.4976 15.6351 61.2499 15.2897 60.8849 15.042C60.52 14.7813 60.1224 14.6509 59.6922 14.6509C59.3012 14.6509 58.9818 14.7357 58.7341 14.9051C58.4995 15.0616 58.3822 15.2766 58.3822 15.5504C58.3822 15.8632 58.5647 16.1044 58.9296 16.2738C59.3077 16.4433 59.7574 16.5867 60.2788 16.704C60.8133 16.8083 61.3477 16.9517 61.8822 17.1342C62.4166 17.3167 62.8663 17.6426 63.2313 18.1118C63.6093 18.5811 63.7984 19.1873 63.7984 19.9303C63.7984 20.7906 63.4464 21.5206 62.7425 22.1202C62.0386 22.7068 61.1261 23.0001 60.0051 23.0001Z" fill="white"/>
<path d="M74.1798 12.9888V22.8436H71.7161V21.3575C71.3902 21.8529 70.9536 22.2505 70.4061 22.5503C69.8716 22.8501 69.2655 23 68.5876 23C67.5187 23 66.6519 22.6741 65.9871 22.0223C65.3223 21.3706 64.9899 20.5102 64.9899 19.4413V12.9888H67.4536V18.8547C67.4536 19.4413 67.623 19.9171 67.9619 20.2821C68.3009 20.6341 68.7571 20.8101 69.3307 20.8101C70.0867 20.8101 70.6733 20.5037 71.0904 19.8911C71.5076 19.2784 71.7161 18.4181 71.7161 17.3101V12.9888H74.1798Z" fill="white"/>
<path d="M82.3486 15.3744C81.9966 15.218 81.5795 15.1398 81.0972 15.1398C80.3411 15.1398 79.7089 15.4787 79.2005 16.1565C78.7052 16.8213 78.4575 17.8446 78.4575 19.2264V22.8437H75.9938V12.9889H78.4575V14.7878C78.7052 14.2273 79.1093 13.7645 79.6698 13.3995C80.2434 13.0215 80.83 12.8325 81.4296 12.8325C81.8337 12.8325 82.1922 12.8846 82.505 12.9889L82.3486 15.3744Z" fill="white"/>
<path d="M86.8766 12.8325C88.1932 12.8325 89.2426 13.1845 90.0247 13.8884C90.8198 14.5792 91.2174 15.5634 91.2174 16.8409V22.8437H88.8319V21.4163C88.5582 21.8986 88.1476 22.2832 87.6001 22.5699C87.0656 22.8567 86.4921 23.0001 85.8794 23.0001C84.9148 23.0001 84.1262 22.7264 83.5135 22.1789C82.9008 21.6183 82.5945 20.9144 82.5945 20.0671C82.5945 18.19 84.061 17.0951 86.994 16.7822L88.8319 16.6062V16.5085C88.8319 15.948 88.656 15.5113 88.304 15.1984C87.9521 14.8725 87.4763 14.7096 86.8766 14.7096C86.3422 14.7096 85.8925 14.866 85.5275 15.1789C85.1755 15.4917 84.9735 15.9089 84.9213 16.4303L82.7314 16.0392C82.8878 15.0746 83.3506 14.299 84.1197 13.7124C84.9018 13.1258 85.8208 12.8325 86.8766 12.8325ZM86.4269 21.1817C87.1699 21.1817 87.7565 20.934 88.1867 20.4386C88.6169 19.9433 88.8319 19.3241 88.8319 18.5811V18.366L86.9548 18.5811C86.3161 18.6593 85.8273 18.8223 85.4884 19.0699C85.1494 19.3176 84.98 19.6239 84.98 19.9889C84.98 20.3409 85.1103 20.6277 85.371 20.8493C85.6318 21.0709 85.9837 21.1817 86.4269 21.1817Z" fill="white"/>
<path d="M93.0371 22.8437V12.9889H95.5008V14.475C95.8266 13.9796 96.2568 13.582 96.7913 13.2822C97.3387 12.9824 97.9514 12.8325 98.6293 12.8325C99.7112 12.8325 100.578 13.1584 101.23 13.8102C101.895 14.4619 102.227 15.3223 102.227 16.3912V22.8437H99.7633V16.9778C99.7633 16.3912 99.5939 15.9219 99.255 15.5699C98.916 15.2049 98.4598 15.0224 97.8862 15.0224C97.1302 15.0224 96.5436 15.3288 96.1265 15.9414C95.7093 16.5541 95.5008 17.4144 95.5008 18.5224V22.8437H93.0371Z" fill="white"/>
<path d="M108.5 23.0001C107.027 23.0001 105.821 22.5308 104.882 21.5923C103.957 20.6407 103.494 19.4154 103.494 17.9163C103.494 16.4172 103.957 15.1984 104.882 14.2599C105.821 13.3083 107.027 12.8325 108.5 12.8325C109.764 12.8325 110.807 13.1388 111.628 13.7515C112.462 14.3642 112.964 15.1919 113.134 16.2347L110.729 16.704C110.637 16.1826 110.396 15.7655 110.005 15.4526C109.627 15.1267 109.151 14.9638 108.578 14.9638C107.809 14.9638 107.196 15.231 106.74 15.7655C106.284 16.2999 106.055 17.0169 106.055 17.9163C106.055 18.8157 106.284 19.5327 106.74 20.0671C107.196 20.6016 107.809 20.8688 108.578 20.8688C109.151 20.8688 109.621 20.7254 109.986 20.4386C110.364 20.1388 110.611 19.7217 110.729 19.1873L113.134 19.6761C112.951 20.7059 112.443 21.5206 111.609 22.1202C110.787 22.7068 109.751 23.0001 108.5 23.0001Z" fill="white"/>
<path d="M123.683 17.5839C123.683 17.975 123.67 18.3008 123.644 18.5616H116.332C116.436 19.3046 116.716 19.8846 117.172 20.3018C117.629 20.7189 118.209 20.9275 118.913 20.9275C119.486 20.9275 119.968 20.7971 120.359 20.5364C120.75 20.2757 121.011 19.9042 121.142 19.4219L123.449 20.0476C123.175 20.9731 122.634 21.6966 121.826 22.218C121.018 22.7394 120.034 23.0001 118.873 23.0001C117.322 23.0001 116.097 22.4982 115.197 21.4945C114.311 20.4778 113.868 19.285 113.868 17.9163C113.868 16.5346 114.291 15.3418 115.139 14.3381C115.999 13.3344 117.198 12.8325 118.737 12.8325C120.301 12.8325 121.513 13.3148 122.373 14.2794C123.247 15.231 123.683 16.3325 123.683 17.5839ZM116.39 16.7627H121.044C120.979 16.15 120.75 15.6547 120.359 15.2766C119.968 14.8986 119.427 14.7096 118.737 14.7096C118.124 14.7096 117.609 14.8856 117.192 15.2375C116.788 15.5895 116.521 16.0979 116.39 16.7627Z" fill="white"/>
<path d="M133.071 22.8437V12.9889H135.535V14.475C135.861 13.9796 136.291 13.582 136.825 13.2822C137.373 12.9824 137.986 12.8325 138.663 12.8325C139.745 12.8325 140.612 13.1584 141.264 13.8102C141.929 14.4619 142.261 15.3223 142.261 16.3912V22.8437H139.798V16.9778C139.798 16.3912 139.628 15.9219 139.289 15.5699C138.95 15.2049 138.494 15.0224 137.92 15.0224C137.164 15.0224 136.578 15.3288 136.161 15.9414C135.743 16.5541 135.535 17.4144 135.535 18.5224V22.8437H133.071Z" fill="white"/>
<path d="M131.047 13.7905L129.835 9H127L129.464 13.7905H131.047Z" fill="white"/>
<path d="M151.664 22.8437V17.1733L146.971 9.15649H149.826L152.994 14.6705L156.181 9.15649H159.035L154.323 17.1733V22.8437H151.664Z" fill="white"/>
<path d="M166.007 21.5727C165.042 22.5243 163.81 23.0001 162.311 23.0001C160.812 23.0001 159.58 22.5243 158.616 21.5727C157.651 20.6081 157.169 19.3893 157.169 17.9163C157.169 16.4433 157.651 15.231 158.616 14.2794C159.58 13.3148 160.812 12.8325 162.311 12.8325C163.81 12.8325 165.042 13.3148 166.007 14.2794C166.971 15.231 167.454 16.4433 167.454 17.9163C167.454 19.3893 166.971 20.6081 166.007 21.5727ZM160.375 20.0671C160.871 20.6016 161.516 20.8688 162.311 20.8688C163.106 20.8688 163.745 20.5951 164.227 20.0476C164.723 19.5001 164.97 18.7897 164.97 17.9163C164.97 17.0429 164.723 16.3325 164.227 15.785C163.745 15.2375 163.106 14.9638 162.311 14.9638C161.516 14.9638 160.871 15.2375 160.375 15.785C159.893 16.3195 159.652 17.0299 159.652 17.9163C159.652 18.8027 159.893 19.5197 160.375 20.0671Z" fill="white"/>
<path d="M177.91 12.9888V22.8436H175.446V21.3575C175.12 21.8529 174.683 22.2505 174.136 22.5503C173.601 22.8501 172.995 23 172.317 23C171.249 23 170.382 22.6741 169.717 22.0223C169.052 21.3706 168.72 20.5102 168.72 19.4413V12.9888H171.183V18.8547C171.183 19.4413 171.353 19.9171 171.692 20.2821C172.031 20.6341 172.487 20.8101 173.06 20.8101C173.817 20.8101 174.403 20.5037 174.82 19.8911C175.237 19.2784 175.446 18.4181 175.446 17.3101V12.9888H177.91Z" fill="white"/>
</g>
<defs>
<linearGradient id="paint0_linear_544_142" x1="14.5155" y1="-32" x2="14.5155" y2="32" gradientUnits="userSpaceOnUse">
<stop offset="0.701111" stop-color="white"/>
<stop offset="1" stop-color="#DACAEF"/>
</linearGradient>
<radialGradient id="paint1_radial_544_142" cx="0" cy="0" r="1" gradientUnits="userSpaceOnUse" gradientTransform="translate(14.8651 31.5814) rotate(-90) scale(33.0123)">
<stop offset="0.439061" stop-color="#570B7D"/>
<stop offset="1" stop-color="#D25FC7"/>
</radialGradient>
<radialGradient id="paint2_radial_544_142" cx="0" cy="0" r="1" gradientUnits="userSpaceOnUse" gradientTransform="translate(14.6346 23.9485) rotate(-90) scale(17.7395 10.1929)">
<stop offset="0.439061" stop-color="#570B7D"/>
<stop offset="1" stop-color="#D25FC7"/>
</radialGradient>
<clipPath id="clip0_544_142">
<rect width="178" height="32" fill="white"/>
</clipPath>
</defs>
</svg>
