<svg width="49" height="48" viewBox="0 0 49 48" fill="none" xmlns="http://www.w3.org/2000/svg">
<path fill-rule="evenodd" clip-rule="evenodd" d="M35.8664 11.2V15.2C37.5632 15.2019 39.19 15.8768 40.3898 17.0766C41.5896 18.2764 42.2645 19.9032 42.2664 21.6V30C42.2664 39.588 34.6568 47.6584 25.2992 47.988C25.0859 47.996 24.8725 48 24.6592 48C19.9926 47.9981 15.5179 46.143 12.2188 42.8425C8.9197 39.5421 7.06641 35.0666 7.06641 30.4V21.6C7.06831 19.9032 7.74321 18.2764 8.94303 17.0766C10.1428 15.8768 11.7696 15.2019 13.4664 15.2V11.2C13.4664 8.22958 14.6464 5.38081 16.7468 3.2804C18.8472 1.18 21.696 0 24.6664 0C27.6368 0 30.4856 1.18 32.586 3.2804C34.6864 5.38081 35.8664 8.22958 35.8664 11.2ZM17.8782 4.41178C16.0778 6.21212 15.0664 8.65392 15.0664 11.2V15.2H16.6664V11.2C16.6664 9.07827 17.5093 7.04344 19.0096 5.54315C20.5098 4.04285 22.5447 3.2 24.6664 3.2C26.7881 3.2 28.823 4.04285 30.3233 5.54315C31.8236 7.04344 32.6664 9.07827 32.6664 11.2V15.2H34.2664V11.2C34.2664 8.65392 33.255 6.21212 31.4546 4.41178C29.6543 2.61143 27.2125 1.6 24.6664 1.6C22.1203 1.6 19.6785 2.61143 17.8782 4.41178ZM18.2664 15.2H31.0664V11.2C31.0664 9.50261 30.3921 7.87475 29.1919 6.67452C27.9917 5.47428 26.3638 4.8 24.6664 4.8C22.969 4.8 21.3412 5.47428 20.1409 6.67452C18.9407 7.87475 18.2664 9.50261 18.2664 11.2V15.2ZM25.2472 46.3912C33.7496 46.0912 40.6664 38.7384 40.6664 30V21.6C40.6651 20.3274 40.159 19.1072 39.2591 18.2073C38.3592 17.3074 37.1391 16.8013 35.8664 16.8H13.4664C12.1938 16.8013 10.9736 17.3074 10.0737 18.2073C9.1738 19.1072 8.66768 20.3274 8.66641 21.6V30.4C8.66617 32.5502 9.09933 34.6784 9.94001 36.6574C10.7807 38.6364 12.0116 40.4257 13.5593 41.9184C15.107 43.411 16.9397 44.5764 18.9478 45.3449C20.956 46.1134 23.0984 46.4692 25.2472 46.3912ZM26.501 26.3256C25.993 25.8769 25.344 25.6202 24.6666 25.6C24.2422 25.6 23.8352 25.7686 23.5352 26.0686C23.2351 26.3687 23.0666 26.7757 23.0666 27.2C23.0666 27.6243 23.2351 28.0313 23.5352 28.3314C23.8352 28.6314 24.2422 28.8 24.6666 28.8C25.5152 28.8 26.3292 29.1371 26.9293 29.7373C27.5294 30.3374 27.8666 31.1513 27.8666 32C27.8666 32.8487 27.5294 33.6626 26.9293 34.2627C26.3292 34.8629 25.5152 35.2 24.6666 35.2C23.5646 35.1787 22.5087 34.7537 21.6994 34.0056C21.553 33.8553 21.4716 33.6534 21.4726 33.4436C21.4737 33.2338 21.5571 33.0328 21.7049 32.8839C21.8528 32.735 22.0532 32.6502 22.263 32.6477C22.4728 32.6451 22.6752 32.7251 22.8266 32.8704C23.3356 33.3215 23.9867 33.5797 24.6666 33.6C25.0909 33.6 25.4979 33.4314 25.7979 33.1314C26.098 32.8313 26.2666 32.4243 26.2666 32C26.2666 31.5757 26.098 31.1687 25.7979 30.8686C25.4979 30.5686 25.0909 30.4 24.6666 30.4C23.8179 30.4 23.0039 30.0629 22.4038 29.4627C21.8037 28.8626 21.4666 28.0487 21.4666 27.2C21.4666 26.3513 21.8037 25.5374 22.4038 24.9373C23.0039 24.3371 23.8179 24 24.6666 24C25.768 24.0216 26.8232 24.4466 27.6322 25.1944C27.7779 25.3453 27.8585 25.5474 27.8567 25.7571C27.8549 25.9669 27.7707 26.1675 27.6224 26.3159C27.4741 26.4642 27.2734 26.5483 27.0637 26.5501C26.8539 26.552 26.6518 26.4713 26.501 26.3256ZM16.6666 25.6C17.344 25.6202 17.993 25.8769 18.501 26.3256C18.6518 26.4713 18.8539 26.552 19.0637 26.5501C19.2734 26.5483 19.4741 26.4642 19.6224 26.3159C19.7707 26.1675 19.8549 25.9669 19.8567 25.7571C19.8585 25.5474 19.7779 25.3453 19.6322 25.1944C18.8232 24.4466 17.768 24.0216 16.6666 24C15.8179 24 15.0039 24.3371 14.4038 24.9373C13.8037 25.5374 13.4666 26.3513 13.4666 27.2C13.4666 28.0487 13.8037 28.8626 14.4038 29.4627C15.0039 30.0629 15.8179 30.4 16.6666 30.4C17.0909 30.4 17.4979 30.5686 17.7979 30.8686C18.098 31.1687 18.2666 31.5757 18.2666 32C18.2666 32.4243 18.098 32.8313 17.7979 33.1314C17.4979 33.4314 17.0909 33.6 16.6666 33.6C15.9867 33.5797 15.3356 33.3215 14.8266 32.8704C14.6752 32.7251 14.4728 32.6451 14.263 32.6477C14.0532 32.6502 13.8528 32.735 13.7049 32.8839C13.5571 33.0328 13.4737 33.2338 13.4726 33.4436C13.4716 33.6534 13.553 33.8553 13.6994 34.0056C14.5087 34.7537 15.5646 35.1787 16.6666 35.2C17.5152 35.2 18.3292 34.8629 18.9293 34.2627C19.5294 33.6626 19.8666 32.8487 19.8666 32C19.8666 31.1513 19.5294 30.3374 18.9293 29.7373C18.3292 29.1371 17.5152 28.8 16.6666 28.8C16.2422 28.8 15.8352 28.6314 15.5352 28.3314C15.2351 28.0313 15.0666 27.6243 15.0666 27.2C15.0666 26.7757 15.2351 26.3687 15.5352 26.0686C15.8352 25.7686 16.2422 25.6 16.6666 25.6ZM31.0666 33.6H35.0666C35.2787 33.6 35.4822 33.6843 35.6322 33.8343C35.7823 33.9843 35.8666 34.1878 35.8666 34.4C35.8666 34.6122 35.7823 34.8157 35.6322 34.9657C35.4822 35.1157 35.2787 35.2 35.0666 35.2H30.2666C30.0544 35.2 29.8509 35.1157 29.7009 34.9657C29.5508 34.8157 29.4666 34.6122 29.4666 34.4V24.8C29.4666 24.5878 29.5508 24.3843 29.7009 24.2343C29.8509 24.0843 30.0544 24 30.2666 24C30.4787 24 30.6822 24.0843 30.8322 24.2343C30.9823 24.3843 31.0666 24.5878 31.0666 24.8V33.6Z" fill="url(#paint0_linear_449_2670)"/>
<defs>
<linearGradient id="paint0_linear_449_2670" x1="24.6664" y1="0" x2="24.6664" y2="49.8857" gradientUnits="userSpaceOnUse">
<stop stop-color="#A43499"/>
<stop offset="1" stop-color="#500B7E"/>
</linearGradient>
</defs>
</svg>
