<svg width="272" height="297" viewBox="0 0 272 297" fill="none" xmlns="http://www.w3.org/2000/svg">
<g opacity="0.07">
<path d="M32.4713 -155.91C7.32461 -108.884 55.1885 -30.3109 106.789 8.22774C166.256 52.6341 216.322 33.1407 252.751 78.4976C286.004 119.876 261.281 157.273 287.124 185.865C310.874 212.14 371.081 224.075 524.476 172.766" stroke="white" stroke-width="0.6" stroke-miterlimit="10"/>
<path d="M524.633 165.426C373.289 215.866 312.423 204.742 287.553 179.121C269.138 160.106 274.297 136.722 268.319 110.802C265.496 97.6532 259.39 84.9318 250.55 73.7796C221.611 37.2254 184.762 41.1181 139.758 20.5037C128.267 15.2749 117.271 8.8378 106.995 1.32506C54.6734 -36.7015 4.86919 -111.156 27.8006 -157.462" stroke="white" stroke-width="0.6" stroke-miterlimit="10"/>
<path d="M524.772 158.091C375.484 207.655 313.99 197.354 288.063 172.423C269.006 154.096 273.061 131.171 266.525 105.911C263.317 92.8641 257.129 80.2814 248.433 69.1223C220.128 32.8117 184.819 34.7035 139.99 13.5827C128.584 8.23309 117.623 1.82788 107.283 -5.53048C54.3363 -43.1884 2.48973 -113.374 23.2059 -158.959" stroke="white" stroke-width="0.6" stroke-miterlimit="10"/>
<path d="M524.907 150.779C377.709 199.459 315.567 189.955 288.534 165.711C268.828 148.042 271.801 125.617 264.689 100.991C261.11 88.0632 254.85 75.6221 246.307 64.4611C218.602 28.3686 184.903 28.324 140.213 6.6578C128.872 1.2031 117.93 -5.17148 107.52 -12.3874C53.8961 -49.591 0.0679499 -115.587 18.5688 -160.452" stroke="white" stroke-width="0.6" stroke-miterlimit="10"/>
<path d="M525.07 143.431C379.912 191.257 317.166 182.56 289.002 158.984C268.679 141.987 270.528 120.029 262.831 96.0659C258.878 83.2487 252.531 70.9301 244.123 59.7552C217.018 23.8809 184.909 21.8736 140.336 -0.343603C129.096 -5.90824 118.201 -12.2453 107.746 -19.2987C53.4367 -56.0543 -2.36763 -117.868 13.9096 -162.019" stroke="white" stroke-width="0.6" stroke-miterlimit="10"/>
<path d="M525.256 136.121C382.124 183.059 318.207 175.845 289.467 152.263C268.936 135.45 269.217 114.49 260.996 91.144C256.666 78.4521 250.232 66.2567 241.965 55.0665C215.46 19.4103 184.959 15.4531 140.566 -7.27772C129.405 -12.9389 118.537 -19.2415 108.029 -26.1466C53.0123 -62.4253 -4.75162 -120.078 9.31587 -163.516" stroke="white" stroke-width="0.6" stroke-miterlimit="10"/>
<path d="M525.366 128.754C384.332 174.848 320.404 167.718 289.91 145.585C268.442 129.862 267.921 108.896 259.157 86.2093C254.457 73.6525 247.938 61.5767 239.811 50.3714C213.906 14.9333 184.982 9.01422 140.761 -14.2365C129.685 -20.0035 118.846 -26.2774 108.288 -33.0335C52.5858 -68.8642 -7.17631 -122.306 4.69245 -165.046" stroke="white" stroke-width="0.6" stroke-miterlimit="10"/>
<path d="M525.518 121.421C386.56 166.665 322.002 160.345 290.406 138.823C268.315 123.813 266.56 103.356 257.308 81.2907C252.241 68.8797 245.63 56.9226 237.635 45.7066C212.345 10.4859 185.008 2.59046 140.934 -21.1649C130.686 -26.7016 119.864 -32.7677 108.521 -39.8829C52.1076 -75.2503 -9.58368 -124.554 0.0587894 -166.559" stroke="white" stroke-width="0.6" stroke-miterlimit="10"/>
<path d="M525.67 114.086C388.752 158.442 323.659 152.891 290.866 132.124C268.192 117.755 265.195 97.8005 255.436 76.3653C249.999 64.1029 243.299 52.2509 235.445 41.0072C210.755 6.00452 185.006 -3.83274 141.099 -28.1353C130.875 -33.7904 120.089 -39.8519 108.736 -46.7806C51.6927 -81.6346 -11.9972 -126.795 -4.57551 -168.073" stroke="white" stroke-width="0.6" stroke-miterlimit="10"/>
<path d="M525.808 106.753C390.955 150.24 325.305 145.452 291.346 125.382C268.104 111.654 263.8 92.1993 253.623 71.4506C247.827 59.3492 241.039 47.601 233.331 36.3311C209.233 1.54022 185.074 -10.2597 141.303 -35.0525C131.146 -40.7943 120.351 -46.8621 108.993 -53.6116C51.1673 -88.0117 -14.4432 -128.994 -9.23126 -169.558" stroke="white" stroke-width="0.6" stroke-miterlimit="10"/>
<path d="M525.96 99.4184C393.166 142.043 326.963 137.998 291.834 118.681C268.029 105.586 262.441 86.6708 251.801 66.5286C245.64 54.6002 238.755 42.9532 231.189 31.6559C207.699 -2.91051 185.126 -16.666 141.537 -42.0275C131.415 -47.9023 120.64 -53.9438 109.291 -60.5148C50.7415 -94.4163 -16.8037 -131.253 -13.8237 -171.11" stroke="white" stroke-width="0.6" stroke-miterlimit="10"/>
<path d="M526.113 92.0833C395.375 133.832 328.604 130.53 292.28 111.948C267.911 99.4722 261.018 81.1047 249.949 61.5945C243.583 50.3824 237.019 38.962 229.013 26.955C206.118 -7.38611 185.141 -23.1115 141.711 -48.9921C131.636 -54.9799 120.872 -61.0014 109.507 -67.4131C50.2331 -100.816 -19.2552 -133.514 -18.4767 -172.651" stroke="white" stroke-width="0.6" stroke-miterlimit="10"/>
<path d="M526.264 84.75C397.599 125.601 330.314 123.095 292.757 105.228C267.816 93.3793 259.584 75.5549 248.105 56.6686C241.331 45.5226 234.654 34.1987 226.854 22.2686C204.576 -11.876 185.175 -29.5288 141.901 -55.9422C131.877 -62.0502 121.116 -68.0581 109.772 -74.2714C49.7713 -107.155 -21.6574 -135.734 -23.0886 -174.159" stroke="white" stroke-width="0.6" stroke-miterlimit="10"/>
<path d="M526.433 77.4289C399.794 117.426 331.938 115.582 293.234 98.5076C267.738 87.2642 258.145 70.0116 246.266 51.7349C239.066 40.6631 232.29 29.4347 224.734 17.5998C203.031 -16.3114 185.254 -35.9357 142.102 -62.9073C132.111 -69.1274 121.37 -75.109 110.032 -81.1575C49.2847 -113.514 -24.076 -137.968 -27.717 -175.68" stroke="white" stroke-width="0.6" stroke-miterlimit="10"/>
<path d="M526.555 70.0816C401.997 109.222 333.631 108.098 293.697 91.7866C267.633 81.1493 256.681 64.4822 244.425 46.8205C236.793 35.8301 229.911 24.6701 222.536 12.8931C201.45 -20.7873 185.242 -42.3799 142.287 -69.8523C131.863 -76.388 121.17 -82.4479 110.25 -88.0081C48.801 -119.86 -26.5087 -140.237 -32.3509 -177.195" stroke="white" stroke-width="0.6" stroke-miterlimit="10"/>
<path d="M526.707 62.7483C404.206 101.013 335.241 100.586 294.193 85.0932C267.567 75.0547 255.236 58.9811 242.572 41.8882C234.502 30.9865 227.533 19.9076 220.377 8.20663C199.883 -25.2619 185.273 -48.8109 142.493 -76.7896C132.161 -83.4282 121.485 -89.4735 110.532 -94.8881C48.2842 -126.161 -28.9023 -142.452 -37.0097 -178.693" stroke="white" stroke-width="0.6" stroke-miterlimit="10"/>
<path d="M526.858 55.4136C406.417 92.8164 336.89 93.0222 294.631 78.3538C267.469 68.9125 253.73 53.4549 240.731 36.9744C232.218 26.1686 225.176 15.1492 218.226 3.52521C198.34 -29.7189 185.308 -55.2297 142.666 -83.7539C132.419 -90.4855 121.753 -96.5099 110.764 -101.773C47.814 -132.508 -31.3157 -144.694 -41.6163 -180.244" stroke="white" stroke-width="0.6" stroke-miterlimit="10"/>
<path d="M527.002 48.0718C408.647 84.5763 338.589 85.5305 295.108 71.6319C267.358 62.7703 252.238 47.9614 238.895 32.0527C229.894 21.3318 222.806 10.3909 216.067 -1.16335C196.77 -34.1749 185.348 -61.6564 142.862 -90.7133C132.698 -97.5327 122.04 -103.537 111.018 -108.654C47.3221 -138.827 -33.7342 -146.929 -46.2446 -181.766" stroke="white" stroke-width="0.6" stroke-miterlimit="10"/>
<path d="M527.154 40.7387C410.87 76.4354 340.248 77.9885 295.592 64.8844C267.283 56.6009 250.771 42.4552 237.084 27.0838C227.671 16.4706 220.458 5.57173 213.941 -5.8928C195.256 -38.7006 185.413 -68.1304 143.074 -97.692C132.993 -104.599 122.342 -110.584 111.288 -115.553C46.8412 -145.157 -36.1561 -149.245 -50.851 -183.315" stroke="white" stroke-width="0.6" stroke-miterlimit="10"/>
<path d="M527.306 33.4046C413.045 68.2 341.9 70.439 296.047 58.1928C267.155 50.4818 249.249 37.02 235.207 22.2004C225.306 11.7409 218.068 0.8573 211.76 -10.5511C193.683 -43.1344 185.425 -74.5197 143.253 -104.628C133.258 -111.627 122.612 -117.594 111.526 -122.411C46.3189 -151.418 -38.5662 -151.404 -55.5016 -184.807" stroke="white" stroke-width="0.6" stroke-miterlimit="10"/>
<path d="M527.444 26.071C415.248 59.9969 343.579 62.853 296.544 51.4982C267.089 44.3516 247.785 31.5946 233.405 17.3051C223.022 6.99199 215.731 -3.87462 209.626 -15.1852C192.147 -47.564 185.479 -80.912 143.465 -111.54C133.55 -118.623 122.905 -124.574 111.789 -129.249C45.8196 -157.57 -40.9458 -153.621 -60.1187 -186.309" stroke="white" stroke-width="0.6" stroke-miterlimit="10"/>
<path d="M527.606 18.7425C348.861 72.4028 269.894 48.2626 231.528 12.3521C189.646 -26.848 200.113 -76.4626 143.628 -118.524C77.3601 -167.858 -39.7727 -150.464 -64.7629 -187.844" stroke="white" stroke-width="0.6" stroke-miterlimit="10"/>
</g>
</svg>
