<svg width="60" height="60" viewBox="0 0 60 60" fill="none" xmlns="http://www.w3.org/2000/svg">
<path d="M47.68 41.0929L42.1998 38.1509C43.7854 36.4999 44.7062 34.3846 44.875 31.9631L45.4088 24.2281C46.3984 23.4817 47.0394 22.2967 47.0394 20.9645C47.0394 19.8355 46.5791 18.8121 45.8364 18.0718L45.9778 16.0349C46.2502 12.0941 44.845 8.25751 42.0211 5.23173C38.9182 1.90712 34.5361 0.000366211 29.9984 0.000366211C25.527 0.000366211 21.0186 1.97544 17.9386 5.28365C15.1328 8.29724 13.742 12.1163 14.0224 16.0377L14.1691 18.0668C13.4232 18.8074 12.9606 19.8329 12.9606 20.9646C12.9606 22.3049 13.6093 23.4963 14.6092 24.2419L15.6882 39.2838L12.3197 41.093C9.30551 42.712 7.50598 45.7205 7.50598 49.1405V59.1791C7.50598 59.6323 7.87336 59.9997 8.32641 59.9997H51.6732C52.1264 59.9997 52.4937 59.6323 52.4937 59.1791V49.1405C52.4939 45.7225 50.6945 42.7142 47.68 41.0929ZM43.2379 31.8496C43.092 33.9435 42.2804 35.7612 40.8806 37.1542L39.8975 35.3046C39.6299 34.8021 39.2007 34.451 38.6634 34.2914C38.1196 34.1245 37.5667 34.1793 37.0652 34.4489L37.001 34.4834L36.9953 32.0835C39.3056 30.4067 40.9942 27.9235 41.6438 25.0505H42.9537C43.2129 25.0505 43.4663 25.0252 43.7122 24.9788L43.2379 31.8496ZM29.9984 27.5252H23.8596C22.1325 27.5252 20.6483 26.4677 20.0206 24.9667C19.8118 24.1508 19.7007 23.2963 19.7007 22.4162V15.025C23.1649 14.2617 26.247 12.6215 28.52 10.3355C31.4565 13.2927 35.6673 15.124 40.2962 15.4517V22.4162C40.2962 28.0943 35.6767 32.7138 29.9985 32.7138C26.7506 32.7138 23.8497 31.202 21.9608 28.8456C22.5563 29.0524 23.1947 29.1663 23.8597 29.1663H29.9985C30.4516 29.1663 30.8189 28.799 30.8189 28.3458C30.8189 27.8926 30.4515 27.5252 29.9984 27.5252ZM23.0058 32.0867V34.4886L22.9359 34.4513C22.4354 34.1792 21.8822 34.1237 21.3437 34.2892C20.7993 34.451 20.3701 34.8021 20.1021 35.3052L18.906 37.5554L17.2725 38.4328L16.3076 24.9822C16.5473 25.0261 16.794 25.0504 17.0464 25.0504H18.3091C18.3531 25.1949 18.4031 25.3365 18.4577 25.476C19.1727 28.1702 20.8082 30.4931 23.0058 32.0867ZM21.5509 36.0761C21.6114 35.9625 21.6893 35.8985 21.8182 35.8602C21.9424 35.822 22.0392 35.8316 22.1566 35.8955L28.5507 39.3205C27.53 40.2029 26.7028 40.9609 26.0081 41.5975C24.9609 42.557 23.8784 43.5489 23.5573 43.5489C23.5552 43.5489 23.5531 43.5489 23.5511 43.5488C23.2446 43.4533 22.5512 42.1259 21.8806 40.8423C21.4937 40.1018 21.0225 39.1999 20.4451 38.1563L21.5509 36.0761ZM24.6468 35.3677V33.0861C26.2574 33.8973 28.0753 34.3549 29.9984 34.3549C31.924 34.3549 33.7444 33.896 35.3566 33.0829L35.362 35.3612L29.9984 38.2343L24.6468 35.3677ZM37.8413 35.8948C37.9582 35.832 38.0568 35.8218 38.1888 35.8624C38.3108 35.8986 38.3886 35.9625 38.4488 36.0755L39.5547 38.156C38.9762 39.201 38.5045 40.1036 38.117 40.8447C37.4466 42.127 36.7533 43.4533 36.452 43.5478C36.1309 43.5619 35.0448 42.5639 33.9912 41.5986C33.2958 40.9616 32.468 40.2035 31.446 39.3203L37.8413 35.8948ZM45.3984 20.9645C45.3984 22.3126 44.3017 23.4093 42.9536 23.4093H41.8954C41.9224 23.0817 41.937 22.7506 41.937 22.4161V18.5196H42.9534C44.3017 18.5197 45.3984 19.6165 45.3984 20.9645ZM19.1395 6.40185C21.9149 3.42095 25.9741 1.64146 29.9984 1.64146C34.0828 1.64146 38.0278 3.35814 40.8214 6.35158C43.3315 9.04103 44.5813 12.4398 44.3407 15.9216L44.2593 17.0938C43.849 16.9551 43.4101 16.8786 42.9536 16.8786H41.9371V14.6729C41.9371 14.2304 41.5861 13.8676 41.1438 13.8529C36.3173 13.6923 31.9405 11.7751 29.1356 8.59291C28.9798 8.41619 28.7556 8.31494 28.52 8.31494C28.2844 8.31505 28.0602 8.4163 27.9045 8.59314C25.6942 11.1022 22.4361 12.8617 18.7309 13.5472C18.342 13.6192 18.0597 13.9585 18.0597 14.3541V16.8786H17.0464C16.5911 16.8786 16.1534 16.9547 15.744 17.0927L15.6592 15.9199C15.4117 12.4586 16.6477 9.0783 19.1395 6.40185ZM14.6016 20.9645C14.6016 19.6164 15.6983 18.5197 17.0464 18.5197H18.0597V22.4162C18.0597 22.6705 18.0686 22.9227 18.0844 23.173C18.0688 23.2361 18.0597 23.3017 18.0597 23.3695C18.0597 23.3829 18.0606 23.3959 18.0607 23.4093H17.0464C15.6983 23.4094 14.6016 22.3126 14.6016 20.9645ZM50.8529 58.3586H9.14707V49.1405C9.14707 46.2931 10.5866 43.8869 13.0963 42.5386L19.1842 39.2688C19.6734 40.1623 20.084 40.947 20.4263 41.6022C21.6364 43.9184 22.1888 44.9754 23.2651 45.1644C23.3679 45.1824 23.4687 45.1914 23.5689 45.1914C24.5147 45.1914 25.392 44.3877 27.1168 42.8072C27.8863 42.1022 28.8202 41.2465 29.9985 40.24C31.1782 41.2472 32.1128 42.1033 32.8828 42.8086C34.6072 44.3882 35.4839 45.1913 36.4296 45.1913C36.5297 45.1913 36.6306 45.1822 36.7334 45.1643C37.8094 44.9754 38.3616 43.9191 39.5714 41.6047C39.9142 40.9492 40.325 40.1639 40.815 39.2698L46.9034 42.5381C49.4134 43.8881 50.8531 46.2945 50.8531 49.1402V58.3586H50.8529ZM30.8521 44.9217C30.8521 45.3749 30.4847 45.7423 30.0316 45.7423H29.9652C29.512 45.7423 29.1448 45.3749 29.1448 44.9217C29.1448 44.4686 29.5122 44.1012 29.9652 44.1012H30.0316C30.4847 44.1012 30.8521 44.4686 30.8521 44.9217ZM30.8521 49.7285C30.8521 50.1817 30.4847 50.5491 30.0316 50.5491H29.9652C29.512 50.5491 29.1448 50.1817 29.1448 49.7285C29.1448 49.2754 29.5122 48.908 29.9652 48.908H30.0316C30.4847 48.908 30.8521 49.2753 30.8521 49.7285ZM30.8521 54.5352C30.8521 54.9884 30.4847 55.3558 30.0316 55.3558H29.9652C29.512 55.3558 29.1448 54.9884 29.1448 54.5352C29.1448 54.082 29.5122 53.7147 29.9652 53.7147H30.0316C30.4847 53.7147 30.8521 54.082 30.8521 54.5352Z" fill="white"/>
</svg>
