<svg width="932" height="256" viewBox="0 0 932 256" fill="none" xmlns="http://www.w3.org/2000/svg">
<g filter="url(#filter0_d_601_2430)">
<rect x="312" y="124" width="312" height="112" rx="56" fill="white" shape-rendering="crispEdges"/>
<rect x="307" y="119" width="322" height="122" rx="61" stroke="#A43499" stroke-opacity="0.2" stroke-width="10" shape-rendering="crispEdges"/>
<g clip-path="url(#clip0_601_2430)">
<path d="M356.747 210.75V202.854C356.747 195.955 355.09 189.161 351.932 183.01C350.351 179.914 349.444 176.41 349.4 172.702C349.269 159.829 359.549 149.353 372.422 149.251C385.335 149.148 395.836 159.579 395.836 172.462C395.836 174.503 396.331 176.515 397.292 178.323L402.353 186.425C403.089 187.8 402.103 189.469 400.541 189.496L395.841 189.571V195.824C395.841 198.512 393.643 200.709 390.956 200.709H384.235V210.75H356.747Z" stroke="url(#paint0_linear_601_2430)" stroke-width="2" stroke-miterlimit="10" stroke-linecap="round" stroke-linejoin="round"/>
<path fill-rule="evenodd" clip-rule="evenodd" d="M371.093 158.514C370.521 159.997 370.145 162.113 370.145 164.5C370.145 164.672 370.147 164.844 370.151 165.013C370.154 165.041 370.157 165.069 370.158 165.097C370.247 167.278 370.815 169.224 371.671 170.723C372.01 170.924 372.316 171.145 372.58 171.386C372.591 171.395 372.601 171.405 372.611 171.414C372.622 171.405 372.632 171.395 372.642 171.386C372.906 171.145 373.213 170.924 373.552 170.723C374.408 169.224 374.976 167.278 375.065 165.097C375.066 165.069 375.068 165.042 375.072 165.014C375.076 164.844 375.078 164.673 375.078 164.5C375.078 162.113 374.702 159.997 374.13 158.514C373.842 157.77 373.524 157.236 373.222 156.905C372.921 156.575 372.713 156.526 372.611 156.526C372.51 156.526 372.302 156.575 372.001 156.905C371.699 157.236 371.381 157.77 371.093 158.514ZM372.611 175.533C372.622 175.542 372.632 175.552 372.642 175.561C373.22 176.089 374 176.518 374.879 176.857C376.645 177.539 379.016 177.94 381.585 177.94C384.155 177.94 386.526 177.539 388.291 176.857C389.171 176.518 389.951 176.089 390.528 175.561C391.107 175.033 391.559 174.329 391.559 173.474C391.559 172.618 391.107 171.914 390.528 171.386C389.951 170.859 389.171 170.429 388.291 170.09C386.908 169.556 385.153 169.194 383.222 169.062C385.368 166.437 386.493 163.378 386.3 160.71C386.264 160.215 385.87 159.821 385.375 159.785C382.707 159.592 379.647 160.717 377.022 162.862C376.891 160.932 376.529 159.177 375.995 157.794C375.655 156.914 375.226 156.134 374.699 155.556C374.171 154.978 373.467 154.526 372.611 154.526C371.756 154.526 371.052 154.978 370.524 155.556C369.996 156.134 369.567 156.914 369.228 157.794C368.693 159.177 368.332 160.932 368.2 162.862C365.575 160.717 362.516 159.592 359.848 159.785C359.353 159.821 358.959 160.215 358.923 160.71C358.73 163.378 359.855 166.437 362 169.062C360.07 169.194 358.315 169.556 356.931 170.09C356.052 170.429 355.272 170.859 354.694 171.386C354.116 171.914 353.663 172.618 353.663 173.474C353.663 174.329 354.116 175.033 354.694 175.561C355.272 176.089 356.052 176.518 356.931 176.857C358.697 177.539 361.068 177.94 363.637 177.94C366.207 177.94 368.578 177.539 370.343 176.857C371.223 176.518 372.003 176.089 372.58 175.561C372.591 175.552 372.601 175.542 372.611 175.533ZM364.152 171.013C364.18 171.017 364.207 171.019 364.235 171.02C366.416 171.109 368.361 171.677 369.86 172.532C370.061 172.871 370.282 173.178 370.524 173.443C370.738 173.678 370.982 173.892 371.254 174.064C371.247 174.071 371.239 174.078 371.232 174.084C370.901 174.386 370.367 174.704 369.623 174.992C368.14 175.564 366.024 175.94 363.637 175.94C361.25 175.94 359.135 175.564 357.652 174.992C356.908 174.704 356.374 174.386 356.043 174.084C355.713 173.783 355.663 173.575 355.663 173.474C355.663 173.372 355.713 173.164 356.043 172.863C356.374 172.561 356.908 172.243 357.652 171.955C359.135 171.383 361.25 171.007 363.637 171.007C363.811 171.007 363.982 171.009 364.152 171.013ZM368.722 169.585C367.515 169.285 366.142 169.092 364.682 169.03C364.628 168.978 364.575 168.925 364.522 168.872L364.522 168.872C362.28 166.63 361.073 163.992 360.919 161.781C363.13 161.935 365.768 163.142 368.01 165.384C368.063 165.437 368.115 165.49 368.167 165.544C368.23 167.004 368.423 168.378 368.722 169.585ZM380.54 169.03C379.081 169.092 377.707 169.285 376.5 169.585C376.8 168.378 376.993 167.004 377.055 165.544C377.107 165.49 377.16 165.437 377.213 165.384C379.455 163.142 382.093 161.935 384.304 161.781C384.15 163.992 382.943 166.63 380.701 168.872C380.648 168.925 380.594 168.978 380.54 169.03ZM373.969 174.064C374.24 173.892 374.484 173.678 374.699 173.443C374.941 173.178 375.161 172.871 375.363 172.532C376.861 171.677 378.807 171.109 380.987 171.02C381.015 171.019 381.043 171.017 381.07 171.013C381.24 171.009 381.412 171.007 381.585 171.007C383.972 171.007 386.088 171.383 387.571 171.955C388.315 172.243 388.849 172.561 389.18 172.863C389.51 173.164 389.559 173.372 389.559 173.474C389.559 173.575 389.51 173.783 389.18 174.084C388.849 174.386 388.315 174.704 387.571 174.992C386.088 175.564 383.972 175.94 381.585 175.94C379.198 175.94 377.083 175.564 375.6 174.992C374.856 174.704 374.322 174.386 373.991 174.084L373.969 174.064Z" fill="url(#paint1_linear_601_2430)"/>
</g>
<path d="M433.4 188V172H439.713C440.926 172 441.96 172.232 442.814 172.695C443.669 173.154 444.32 173.792 444.768 174.609C445.221 175.422 445.447 176.359 445.447 177.422C445.447 178.484 445.218 179.422 444.76 180.234C444.301 181.047 443.637 181.68 442.768 182.133C441.903 182.586 440.856 182.813 439.627 182.813H435.604V180.102H439.08C439.731 180.102 440.268 179.99 440.689 179.766C441.117 179.537 441.434 179.221 441.643 178.82C441.856 178.414 441.963 177.948 441.963 177.422C441.963 176.891 441.856 176.427 441.643 176.031C441.434 175.63 441.117 175.32 440.689 175.102C440.262 174.878 439.721 174.766 439.064 174.766H436.783V188H433.4ZM452.857 188.234C451.623 188.234 450.561 187.984 449.67 187.484C448.785 186.979 448.102 186.266 447.623 185.344C447.144 184.417 446.904 183.32 446.904 182.055C446.904 180.82 447.144 179.737 447.623 178.805C448.102 177.873 448.777 177.146 449.646 176.625C450.521 176.104 451.548 175.844 452.725 175.844C453.516 175.844 454.253 175.971 454.936 176.227C455.623 176.477 456.222 176.854 456.732 177.359C457.248 177.865 457.649 178.5 457.936 179.266C458.222 180.026 458.365 180.917 458.365 181.938V182.852H448.232V180.789H455.232C455.232 180.31 455.128 179.886 454.92 179.516C454.712 179.146 454.423 178.857 454.053 178.649C453.688 178.435 453.264 178.328 452.779 178.328C452.274 178.328 451.826 178.445 451.436 178.68C451.05 178.909 450.748 179.219 450.529 179.609C450.311 179.995 450.199 180.425 450.193 180.899V182.859C450.193 183.453 450.303 183.966 450.521 184.399C450.745 184.831 451.061 185.164 451.467 185.399C451.873 185.633 452.355 185.75 452.912 185.75C453.282 185.75 453.62 185.698 453.928 185.594C454.235 185.49 454.498 185.333 454.717 185.125C454.936 184.917 455.102 184.662 455.217 184.359L458.295 184.563C458.139 185.302 457.818 185.948 457.334 186.5C456.855 187.047 456.235 187.474 455.475 187.781C454.719 188.083 453.847 188.234 452.857 188.234ZM463.959 188.227C463.193 188.227 462.511 188.094 461.912 187.828C461.313 187.557 460.839 187.159 460.49 186.633C460.146 186.102 459.975 185.44 459.975 184.649C459.975 183.982 460.097 183.422 460.342 182.969C460.587 182.516 460.92 182.151 461.342 181.875C461.764 181.599 462.243 181.391 462.779 181.25C463.321 181.109 463.889 181.011 464.482 180.953C465.18 180.88 465.743 180.813 466.17 180.75C466.597 180.682 466.907 180.583 467.1 180.453C467.292 180.323 467.389 180.13 467.389 179.875V179.828C467.389 179.333 467.232 178.951 466.92 178.68C466.613 178.409 466.175 178.274 465.607 178.274C465.008 178.274 464.532 178.406 464.178 178.672C463.824 178.932 463.589 179.261 463.475 179.656L460.396 179.406C460.553 178.677 460.86 178.047 461.318 177.516C461.777 176.979 462.368 176.568 463.092 176.281C463.821 175.99 464.665 175.844 465.623 175.844C466.29 175.844 466.928 175.922 467.537 176.078C468.152 176.234 468.696 176.477 469.17 176.805C469.649 177.133 470.027 177.555 470.303 178.07C470.579 178.581 470.717 179.193 470.717 179.906V188H467.561V186.336H467.467C467.274 186.711 467.016 187.042 466.693 187.328C466.37 187.609 465.982 187.831 465.529 187.992C465.076 188.149 464.553 188.227 463.959 188.227ZM464.912 185.93C465.402 185.93 465.834 185.833 466.209 185.641C466.584 185.443 466.878 185.177 467.092 184.844C467.305 184.511 467.412 184.133 467.412 183.711V182.438C467.308 182.505 467.165 182.568 466.982 182.625C466.805 182.677 466.605 182.727 466.381 182.774C466.157 182.815 465.933 182.854 465.709 182.891C465.485 182.922 465.282 182.951 465.1 182.977C464.709 183.034 464.368 183.125 464.076 183.25C463.785 183.375 463.558 183.544 463.396 183.758C463.235 183.966 463.154 184.227 463.154 184.539C463.154 184.992 463.318 185.339 463.646 185.578C463.98 185.813 464.402 185.93 464.912 185.93ZM478.721 188.234C477.492 188.234 476.434 187.974 475.549 187.453C474.669 186.927 473.992 186.198 473.518 185.266C473.049 184.333 472.814 183.261 472.814 182.047C472.814 180.818 473.051 179.74 473.525 178.813C474.005 177.88 474.684 177.154 475.564 176.633C476.445 176.107 477.492 175.844 478.705 175.844C479.752 175.844 480.669 176.034 481.455 176.414C482.242 176.794 482.864 177.328 483.322 178.016C483.781 178.703 484.033 179.511 484.08 180.438H480.939C480.851 179.839 480.617 179.357 480.236 178.992C479.861 178.623 479.369 178.438 478.76 178.438C478.244 178.438 477.794 178.578 477.408 178.859C477.028 179.136 476.731 179.539 476.518 180.07C476.304 180.602 476.197 181.245 476.197 182C476.197 182.766 476.301 183.417 476.51 183.953C476.723 184.49 477.023 184.899 477.408 185.18C477.794 185.461 478.244 185.602 478.76 185.602C479.14 185.602 479.481 185.524 479.783 185.367C480.09 185.211 480.343 184.984 480.541 184.688C480.744 184.386 480.877 184.024 480.939 183.602H484.08C484.028 184.518 483.778 185.326 483.33 186.024C482.887 186.716 482.275 187.258 481.494 187.649C480.713 188.039 479.788 188.234 478.721 188.234ZM491.68 188.234C490.445 188.234 489.383 187.984 488.492 187.484C487.607 186.979 486.924 186.266 486.445 185.344C485.966 184.417 485.727 183.32 485.727 182.055C485.727 180.82 485.966 179.737 486.445 178.805C486.924 177.873 487.599 177.146 488.469 176.625C489.344 176.104 490.37 175.844 491.547 175.844C492.339 175.844 493.076 175.971 493.758 176.227C494.445 176.477 495.044 176.854 495.555 177.359C496.07 177.865 496.471 178.5 496.758 179.266C497.044 180.026 497.188 180.917 497.188 181.938V182.852H487.055V180.789H494.055C494.055 180.31 493.951 179.886 493.742 179.516C493.534 179.146 493.245 178.857 492.875 178.649C492.51 178.435 492.086 178.328 491.602 178.328C491.096 178.328 490.648 178.445 490.258 178.68C489.872 178.909 489.57 179.219 489.352 179.609C489.133 179.995 489.021 180.425 489.016 180.899V182.859C489.016 183.453 489.125 183.966 489.344 184.399C489.568 184.831 489.883 185.164 490.289 185.399C490.695 185.633 491.177 185.75 491.734 185.75C492.104 185.75 492.443 185.698 492.75 185.594C493.057 185.49 493.32 185.333 493.539 185.125C493.758 184.917 493.924 184.662 494.039 184.359L497.117 184.563C496.961 185.302 496.641 185.948 496.156 186.5C495.677 187.047 495.057 187.474 494.297 187.781C493.542 188.083 492.669 188.234 491.68 188.234ZM509.873 188.234C508.66 188.234 507.61 187.977 506.725 187.461C505.844 186.94 505.165 186.216 504.686 185.289C504.206 184.357 503.967 183.276 503.967 182.047C503.967 180.807 504.206 179.724 504.686 178.797C505.165 177.865 505.844 177.141 506.725 176.625C507.61 176.104 508.66 175.844 509.873 175.844C511.087 175.844 512.133 176.104 513.014 176.625C513.899 177.141 514.581 177.865 515.061 178.797C515.54 179.724 515.779 180.807 515.779 182.047C515.779 183.276 515.54 184.357 515.061 185.289C514.581 186.216 513.899 186.94 513.014 187.461C512.133 187.977 511.087 188.234 509.873 188.234ZM509.889 185.656C510.441 185.656 510.902 185.5 511.271 185.188C511.641 184.87 511.92 184.438 512.107 183.891C512.3 183.344 512.396 182.721 512.396 182.024C512.396 181.326 512.3 180.703 512.107 180.156C511.92 179.609 511.641 179.177 511.271 178.859C510.902 178.542 510.441 178.383 509.889 178.383C509.331 178.383 508.863 178.542 508.482 178.859C508.107 179.177 507.824 179.609 507.631 180.156C507.443 180.703 507.35 181.326 507.35 182.024C507.35 182.721 507.443 183.344 507.631 183.891C507.824 184.438 508.107 184.87 508.482 185.188C508.863 185.5 509.331 185.656 509.889 185.656ZM524.396 176V178.5H516.99V176H524.396ZM518.686 188V175.133C518.686 174.263 518.855 173.542 519.193 172.969C519.537 172.396 520.006 171.966 520.6 171.68C521.193 171.393 521.868 171.25 522.623 171.25C523.133 171.25 523.6 171.289 524.021 171.367C524.449 171.445 524.766 171.516 524.975 171.578L524.381 174.078C524.251 174.037 524.089 173.998 523.896 173.961C523.709 173.925 523.516 173.906 523.318 173.906C522.829 173.906 522.488 174.021 522.295 174.25C522.102 174.474 522.006 174.789 522.006 175.195V188H518.686ZM531.584 172H535.756L540.162 182.75H540.35L544.756 172H548.928V188H545.646V177.586H545.514L541.373 187.922H539.139L534.998 177.547H534.865V188H531.584V172ZM551.652 188V176H554.98V188H551.652ZM553.324 174.453C552.829 174.453 552.405 174.289 552.051 173.961C551.702 173.628 551.527 173.229 551.527 172.766C551.527 172.307 551.702 171.914 552.051 171.586C552.405 171.253 552.829 171.086 553.324 171.086C553.819 171.086 554.241 171.253 554.59 171.586C554.944 171.914 555.121 172.307 555.121 172.766C555.121 173.229 554.944 173.628 554.59 173.961C554.241 174.289 553.819 174.453 553.324 174.453ZM560.975 181.063V188H557.646V176H560.818V178.117H560.959C561.225 177.419 561.67 176.867 562.295 176.461C562.92 176.05 563.678 175.844 564.568 175.844C565.402 175.844 566.128 176.026 566.748 176.391C567.368 176.755 567.85 177.276 568.193 177.953C568.537 178.625 568.709 179.427 568.709 180.359V188H565.381V180.953C565.386 180.219 565.199 179.646 564.818 179.234C564.438 178.818 563.915 178.609 563.248 178.609C562.8 178.609 562.404 178.706 562.061 178.899C561.722 179.091 561.456 179.373 561.264 179.742C561.076 180.107 560.98 180.547 560.975 181.063ZM575.754 188.195C574.842 188.195 574.017 187.961 573.277 187.492C572.543 187.018 571.96 186.323 571.527 185.406C571.1 184.484 570.887 183.354 570.887 182.016C570.887 180.641 571.108 179.498 571.551 178.586C571.993 177.669 572.582 176.984 573.316 176.531C574.056 176.073 574.866 175.844 575.746 175.844C576.418 175.844 576.978 175.958 577.426 176.188C577.879 176.412 578.243 176.693 578.52 177.031C578.801 177.365 579.014 177.693 579.16 178.016H579.262V172H582.582V188H579.301V186.078H579.16C579.004 186.412 578.783 186.742 578.496 187.07C578.215 187.393 577.848 187.662 577.395 187.875C576.947 188.089 576.4 188.195 575.754 188.195ZM576.809 185.547C577.345 185.547 577.798 185.401 578.168 185.109C578.543 184.813 578.829 184.399 579.027 183.867C579.23 183.336 579.332 182.714 579.332 182C579.332 181.287 579.233 180.667 579.035 180.141C578.837 179.615 578.551 179.208 578.176 178.922C577.801 178.636 577.345 178.492 576.809 178.492C576.262 178.492 575.801 178.641 575.426 178.938C575.051 179.234 574.767 179.646 574.574 180.172C574.382 180.698 574.285 181.307 574.285 182C574.285 182.698 574.382 183.315 574.574 183.852C574.772 184.383 575.056 184.8 575.426 185.102C575.801 185.399 576.262 185.547 576.809 185.547Z" fill="#29292A"/>
</g>
<path fill-rule="evenodd" clip-rule="evenodd" d="M0.666748 5.99996C0.666748 8.94548 3.05456 11.3333 6.00008 11.3333C8.9456 11.3333 11.3334 8.94548 11.3334 5.99996C11.3334 3.05444 8.9456 0.666626 6.00008 0.666626C3.05456 0.666626 0.666748 3.05444 0.666748 5.99996ZM7.00008 17.6573C7.00008 17.105 6.55237 16.6573 6.00008 16.6573C5.4478 16.6573 5.00008 17.105 5.00008 17.6573V23.4859C5.00008 24.0382 5.4478 24.4859 6.00008 24.4859C6.55237 24.4859 7.00008 24.0382 7.00008 23.4859V17.6573ZM7.00008 32.2289C7.00008 31.6766 6.55237 31.2289 6.00008 31.2289C5.4478 31.2289 5.00008 31.6766 5.00008 32.2289V38.0575C5.00008 38.6098 5.4478 39.0575 6.00008 39.0575C6.55237 39.0575 7.00008 38.6098 7.00008 38.0575V32.2289ZM7.00008 46.8005C7.00008 46.2482 6.55237 45.8005 6.00008 45.8005C5.4478 45.8005 5.00008 46.2482 5.00008 46.8005V49.7148C5.00008 50.6321 5.04763 51.5387 5.14045 52.4321C5.19753 52.9815 5.68911 53.3805 6.23844 53.3234C6.78777 53.2664 7.18682 52.7748 7.12974 52.2254C7.04404 51.4006 7.00008 50.563 7.00008 49.7148V46.8005ZM9.06918 59.4787C8.84426 58.9743 8.25302 58.7478 7.74861 58.9727C7.2442 59.1976 7.01763 59.7888 7.24255 60.2933C7.98677 61.9622 8.90153 63.5381 9.96454 64.9987C10.2895 65.4453 10.915 65.5438 11.3615 65.2188C11.8081 64.8938 11.9066 64.2684 11.5816 63.8218C10.6001 62.4732 9.75584 61.0187 9.06918 59.4787ZM16.8931 69.1333C16.4465 68.8083 15.8211 68.9068 15.4961 69.3534C15.1711 69.7999 15.2696 70.4254 15.7162 70.7504C17.1768 71.8134 18.7526 72.7281 20.4216 73.4724C20.926 73.6973 21.5173 73.4707 21.7422 72.9663C21.9671 72.4619 21.7406 71.8706 21.2362 71.6457C19.6962 70.9591 18.2417 70.1148 16.8931 69.1333ZM28.4895 73.5852C27.9401 73.5281 27.4485 73.9271 27.3915 74.4765C27.3344 75.0258 27.7334 75.5174 28.2828 75.5744C29.1762 75.6673 30.0827 75.7148 31.0001 75.7148H34.0371C34.5894 75.7148 35.0371 75.2671 35.0371 74.7148C35.0371 74.1625 34.5894 73.7148 34.0371 73.7148H31.0001C30.1519 73.7148 29.3143 73.6709 28.4895 73.5852ZM43.1482 73.7148C42.5959 73.7148 42.1482 74.1625 42.1482 74.7148C42.1482 75.2671 42.5959 75.7148 43.1482 75.7148H49.2223C49.7746 75.7148 50.2223 75.2671 50.2223 74.7148C50.2223 74.1625 49.7746 73.7148 49.2223 73.7148H43.1482ZM58.3334 73.7148C57.7811 73.7148 57.3334 74.1625 57.3334 74.7148C57.3334 75.2671 57.7811 75.7148 58.3334 75.7148H64.4075C64.9598 75.7148 65.4075 75.2671 65.4075 74.7148C65.4075 74.1625 64.9598 73.7148 64.4075 73.7148H58.3334ZM73.5186 73.7148C72.9663 73.7148 72.5186 74.1625 72.5186 74.7148C72.5186 75.2671 72.9663 75.7148 73.5186 75.7148H79.5927C80.145 75.7148 80.5927 75.2671 80.5927 74.7148C80.5927 74.1625 80.145 73.7148 79.5927 73.7148H73.5186ZM88.7038 73.7148C88.1515 73.7148 87.7038 74.1625 87.7038 74.7148C87.7038 75.2671 88.1515 75.7148 88.7038 75.7148H94.7779C95.3301 75.7148 95.7779 75.2671 95.7779 74.7148C95.7779 74.1625 95.3301 73.7148 94.7779 73.7148H88.7038ZM103.889 73.7148C103.337 73.7148 102.889 74.1625 102.889 74.7148C102.889 75.2671 103.337 75.7148 103.889 75.7148H109.963C110.515 75.7148 110.963 75.2671 110.963 74.7148C110.963 74.1625 110.515 73.7148 109.963 73.7148H103.889ZM119.074 73.7148C118.522 73.7148 118.074 74.1625 118.074 74.7148C118.074 75.2671 118.522 75.7148 119.074 75.7148H125.148C125.701 75.7148 126.148 75.2671 126.148 74.7148C126.148 74.1625 125.701 73.7148 125.148 73.7148H119.074ZM134.259 73.7148C133.707 73.7148 133.259 74.1625 133.259 74.7148C133.259 75.2671 133.707 75.7148 134.259 75.7148H140.333C140.886 75.7148 141.333 75.2671 141.333 74.7148C141.333 74.1625 140.886 73.7148 140.333 73.7148H134.259ZM149.445 73.7148C148.892 73.7148 148.445 74.1625 148.445 74.7148C148.445 75.2671 148.892 75.7148 149.445 75.7148H155.519C156.071 75.7148 156.519 75.2671 156.519 74.7148C156.519 74.1625 156.071 73.7148 155.519 73.7148H149.445ZM164.63 73.7148C164.077 73.7148 163.63 74.1625 163.63 74.7148C163.63 75.2671 164.077 75.7148 164.63 75.7148H170.704C171.256 75.7148 171.704 75.2671 171.704 74.7148C171.704 74.1625 171.256 73.7148 170.704 73.7148H164.63ZM179.815 73.7148C179.263 73.7148 178.815 74.1625 178.815 74.7148C178.815 75.2671 179.263 75.7148 179.815 75.7148H185.889C186.441 75.7148 186.889 75.2671 186.889 74.7148C186.889 74.1625 186.441 73.7148 185.889 73.7148H179.815ZM195 73.7148C194.448 73.7148 194 74.1625 194 74.7148C194 75.2671 194.448 75.7148 195 75.7148H201.074C201.626 75.7148 202.074 75.2671 202.074 74.7148C202.074 74.1625 201.626 73.7148 201.074 73.7148H195ZM210.185 73.7148C209.633 73.7148 209.185 74.1625 209.185 74.7148C209.185 75.2671 209.633 75.7148 210.185 75.7148H216.259C216.812 75.7148 217.259 75.2671 217.259 74.7148C217.259 74.1625 216.812 73.7148 216.259 73.7148H210.185ZM225.37 73.7148C224.818 73.7148 224.37 74.1625 224.37 74.7148C224.37 75.2671 224.818 75.7148 225.37 75.7148H231.445C231.997 75.7148 232.445 75.2671 232.445 74.7148C232.445 74.1625 231.997 73.7148 231.445 73.7148H225.37ZM240.556 73.7148C240.003 73.7148 239.556 74.1625 239.556 74.7148C239.556 75.2671 240.003 75.7148 240.556 75.7148H246.63C247.182 75.7148 247.63 75.2671 247.63 74.7148C247.63 74.1625 247.182 73.7148 246.63 73.7148H240.556ZM255.741 73.7148C255.189 73.7148 254.741 74.1625 254.741 74.7148C254.741 75.2671 255.189 75.7148 255.741 75.7148H261.815C262.367 75.7148 262.815 75.2671 262.815 74.7148C262.815 74.1625 262.367 73.7148 261.815 73.7148H255.741ZM270.926 73.7148C270.374 73.7148 269.926 74.1625 269.926 74.7148C269.926 75.2671 270.374 75.7148 270.926 75.7148H277C277.552 75.7148 278 75.2671 278 74.7148C278 74.1625 277.552 73.7148 277 73.7148H270.926ZM286.111 73.7148C285.559 73.7148 285.111 74.1625 285.111 74.7148C285.111 75.2671 285.559 75.7148 286.111 75.7148H292.185C292.738 75.7148 293.185 75.2671 293.185 74.7148C293.185 74.1625 292.738 73.7148 292.185 73.7148H286.111ZM301.296 73.7148C300.744 73.7148 300.296 74.1625 300.296 74.7148C300.296 75.2671 300.744 75.7148 301.296 75.7148H307.371C307.923 75.7148 308.371 75.2671 308.371 74.7148C308.371 74.1625 307.923 73.7148 307.371 73.7148H301.296ZM316.482 73.7148C315.929 73.7148 315.482 74.1625 315.482 74.7148C315.482 75.2671 315.929 75.7148 316.482 75.7148H322.556C323.108 75.7148 323.556 75.2671 323.556 74.7148C323.556 74.1625 323.108 73.7148 322.556 73.7148H316.482ZM331.667 73.7148C331.115 73.7148 330.667 74.1625 330.667 74.7148C330.667 75.2671 331.115 75.7148 331.667 75.7148H337.741C337.811 75.7148 337.88 75.7076 337.946 75.6938C338.296 75.7078 338.647 75.7148 339 75.7148H341.914C342.467 75.7148 342.914 75.2671 342.914 74.7148C342.914 74.1625 342.467 73.7148 341.914 73.7148H339C338.152 73.7148 337.314 73.6709 336.489 73.5852C336.271 73.5624 336.061 73.6121 335.884 73.7148H331.667ZM346.852 73.7148C346.3 73.7148 345.852 74.1625 345.852 74.7148C345.852 75.2671 346.3 75.7148 346.852 75.7148H350.657H352.926H356.486C357.038 75.7148 357.486 75.2671 357.486 74.7148C357.486 74.1625 357.038 73.7148 356.486 73.7148H352.926H350.657H346.852ZM362.037 73.7148C361.485 73.7148 361.037 74.1625 361.037 74.7148C361.037 75.2671 361.485 75.7148 362.037 75.7148H365.229H368.111H371.057C371.61 75.7148 372.057 75.2671 372.057 74.7148C372.057 74.1625 371.61 73.7148 371.057 73.7148H368.111H365.229H362.037ZM377.222 73.7148C376.67 73.7148 376.222 74.1625 376.222 74.7148C376.222 75.2671 376.67 75.7148 377.222 75.7148H379.8H383.296H385.629C386.181 75.7148 386.629 75.2671 386.629 74.7148C386.629 74.1625 386.181 73.7148 385.629 73.7148H383.296H379.8H377.222ZM392.408 73.7148C391.855 73.7148 391.408 74.1625 391.408 74.7148C391.408 75.2671 391.855 75.7148 392.408 75.7148H394.372H398.482H400.2C400.752 75.7148 401.2 75.2671 401.2 74.7148C401.2 74.1625 400.752 73.7148 400.2 73.7148H398.482H394.372H392.408ZM407.593 73.7148C407.04 73.7148 406.593 74.1625 406.593 74.7148C406.593 75.2671 407.04 75.7148 407.593 75.7148H408.943H413.667H414.772C415.324 75.7148 415.772 75.2671 415.772 74.7148C415.772 74.1625 415.324 73.7148 414.772 73.7148H413.667H408.943H407.593ZM422.778 73.7148C422.226 73.7148 421.778 74.1625 421.778 74.7148C421.778 75.2671 422.226 75.7148 422.778 75.7148H423.514H428.852H429.343C429.895 75.7148 430.343 75.2671 430.343 74.7148C430.343 74.1625 429.895 73.7148 429.343 73.7148H428.852H423.514H422.778ZM437.963 73.7148C437.411 73.7148 436.963 74.1625 436.963 74.7148C436.963 75.2671 437.411 75.7148 437.963 75.7148H438.086H441C441.848 75.7148 442.686 75.7588 443.51 75.8445L443.511 75.8445C444.06 75.9016 444.552 75.5025 444.609 74.9532C444.666 74.4039 444.267 73.9123 443.717 73.8552C443.652 73.8484 443.586 73.8418 443.52 73.8354C443.474 73.831 443.428 73.8267 443.382 73.8225C442.597 73.7512 441.803 73.7148 441 73.7148H438.086H437.963ZM451.386 75.8938C450.932 75.7934 450.455 76.022 450.258 76.4633C450.23 76.5264 450.209 76.5908 450.194 76.6557C450.094 77.1097 450.323 77.5868 450.764 77.7838L450.764 77.7839C452.304 78.4705 453.758 79.3147 455.107 80.2962L455.107 80.2964C455.554 80.6213 456.179 80.5229 456.504 80.0766L456.504 80.0763C456.829 79.6297 456.731 79.0043 456.284 78.6793C456.101 78.5464 455.917 78.4158 455.731 78.2876C454.428 77.3902 453.039 76.6085 451.579 75.9573C451.553 75.9461 451.528 75.936 451.503 75.927C451.464 75.9134 451.425 75.9024 451.386 75.8938ZM461.901 84.2799C461.557 83.9664 461.029 83.9265 460.639 84.2108C460.583 84.2514 460.532 84.2968 460.488 84.3458C460.174 84.6894 460.134 85.2171 460.419 85.6078C460.541 85.7764 460.662 85.9466 460.78 86.1185C461.609 87.3214 462.33 88.6035 462.931 89.9509C463.156 90.4553 463.747 90.6819 464.252 90.4569C464.756 90.232 464.983 89.6408 464.758 89.1364C464.013 87.4674 463.099 85.8915 462.036 84.4309C461.995 84.3751 461.95 84.3247 461.901 84.2799ZM465.762 96.1062L465.762 96.1062C465.212 96.1633 464.813 96.6549 464.87 97.2042C464.956 98.0291 465 98.8666 465 99.7148V102.143C465 102.696 465.448 103.143 466 103.143C466.552 103.143 467 102.696 467 102.143V99.7148C467 98.8666 467.044 98.0291 467.13 97.2042C467.187 96.655 466.788 96.1635 466.239 96.1062C466.239 96.1062 466.239 96.1062 466.238 96.1062C466.157 96.0978 466.077 96.0993 466 96.1098C465.923 96.0993 465.843 96.0978 465.762 96.1062ZM467 109.429C467 108.877 466.552 108.429 466 108.429C465.448 108.429 465 108.877 465 109.429V114H460.227L466 124L471.774 114H467V109.429ZM308.667 5.99996C308.667 8.94548 311.055 11.3333 314 11.3333C316.946 11.3333 319.333 8.94548 319.333 5.99996C319.333 3.05444 316.946 0.666626 314 0.666626C311.055 0.666626 308.667 3.05444 308.667 5.99996ZM315 17.6573C315 17.105 314.552 16.6573 314 16.6573C313.448 16.6573 313 17.105 313 17.6573V23.4859C313 24.0382 313.448 24.4859 314 24.4859C314.552 24.4859 315 24.0382 315 23.4859V17.6573ZM315 32.2289C315 31.6766 314.552 31.2289 314 31.2289C313.448 31.2289 313 31.6766 313 32.2289V38.0575C313 38.6098 313.448 39.0575 314 39.0575C314.552 39.0575 315 38.6098 315 38.0575V32.2289ZM315 46.8005C315 46.2482 314.552 45.8005 314 45.8005C313.448 45.8005 313 46.2482 313 46.8005V49.7148C313 50.6321 313.048 51.5387 313.14 52.4321C313.198 52.9815 313.689 53.3805 314.238 53.3234C314.788 53.2664 315.187 52.7748 315.13 52.2254C315.044 51.4006 315 50.563 315 49.7148V46.8005ZM317.069 59.4787C316.844 58.9743 316.253 58.7478 315.749 58.9727C315.244 59.1976 315.018 59.7888 315.243 60.2933C315.987 61.9622 316.902 63.5381 317.965 64.9987C318.29 65.4453 318.915 65.5438 319.362 65.2188C319.808 64.8938 319.907 64.2684 319.582 63.8218C318.6 62.4732 317.756 61.0187 317.069 59.4787ZM324.893 69.1333C324.447 68.8083 323.821 68.9068 323.496 69.3534C323.171 69.7999 323.27 70.4254 323.716 70.7504C325.177 71.8134 326.753 72.7281 328.422 73.4724C328.926 73.6973 329.517 73.4707 329.742 72.9663C329.967 72.4619 329.741 71.8706 329.236 71.6457C327.696 70.9591 326.242 70.1148 324.893 69.1333ZM618 11.3333C620.946 11.3333 623.333 8.94548 623.333 5.99996C623.333 3.05444 620.946 0.666626 618 0.666626C615.055 0.666626 612.667 3.05444 612.667 5.99996C612.667 8.94548 615.055 11.3333 618 11.3333ZM618 16.6573C617.448 16.6573 617 17.105 617 17.6573V23.4859C617 24.0382 617.448 24.4859 618 24.4859C618.552 24.4859 619 24.0382 619 23.4859V17.6573C619 17.105 618.552 16.6573 618 16.6573ZM618 31.2289C617.448 31.2289 617 31.6766 617 32.2289V38.0575C617 38.6098 617.448 39.0575 618 39.0575C618.552 39.0575 619 38.6098 619 38.0575V32.2289C619 31.6766 618.552 31.2289 618 31.2289ZM618 45.8005C617.448 45.8005 617 46.2482 617 46.8005V49.7148C617 50.563 616.956 51.4006 616.87 52.2254C616.813 52.7748 617.212 53.2664 617.762 53.3234C618.311 53.3805 618.803 52.9815 618.86 52.4321C618.953 51.5387 619 50.6321 619 49.7148V46.8005C619 46.2482 618.552 45.8005 618 45.8005ZM616.252 58.9727C615.747 58.7478 615.156 58.9743 614.931 59.4787C614.244 61.0187 613.4 62.4732 612.419 63.8218C612.094 64.2684 612.192 64.8938 612.639 65.2188C613.085 65.5438 613.711 65.4453 614.036 64.9987C615.099 63.5381 616.013 61.9622 616.758 60.2933C616.983 59.7888 616.756 59.1976 616.252 58.9727ZM608.504 69.3534C608.179 68.9068 607.554 68.8083 607.107 69.1333C605.758 70.1148 604.304 70.9591 602.764 71.6457C602.26 71.8706 602.033 72.4619 602.258 72.9663C602.483 73.4707 603.074 73.6973 603.578 73.4724C605.247 72.7281 606.823 71.8134 608.284 70.7504C608.731 70.4254 608.829 69.7999 608.504 69.3534ZM596.116 73.7148C595.939 73.6121 595.73 73.5624 595.511 73.5852C594.686 73.6709 593.848 73.7148 593 73.7148H590.086C589.534 73.7148 589.086 74.1625 589.086 74.7148C589.086 75.2671 589.534 75.7148 590.086 75.7148H593C593.353 75.7148 593.705 75.7078 594.054 75.6938C594.12 75.7076 594.189 75.7148 594.259 75.7148H600.333C600.886 75.7148 601.333 75.2671 601.333 74.7148C601.333 74.1625 600.886 73.7148 600.333 73.7148H596.116ZM575.514 75.7148H579.074H581.343H585.148C585.7 75.7148 586.148 75.2671 586.148 74.7148C586.148 74.1625 585.7 73.7148 585.148 73.7148H581.343H579.074H575.514C574.962 73.7148 574.514 74.1625 574.514 74.7148C574.514 75.2671 574.962 75.7148 575.514 75.7148ZM560.943 75.7148H563.889H566.771H569.963C570.515 75.7148 570.963 75.2671 570.963 74.7148C570.963 74.1625 570.515 73.7148 569.963 73.7148H566.771H563.889H560.943C560.391 73.7148 559.943 74.1625 559.943 74.7148C559.943 75.2671 560.391 75.7148 560.943 75.7148ZM546.371 75.7148H548.704H552.2H554.778C555.33 75.7148 555.778 75.2671 555.778 74.7148C555.778 74.1625 555.33 73.7148 554.778 73.7148H552.2H548.704H546.371C545.819 73.7148 545.371 74.1625 545.371 74.7148C545.371 75.2671 545.819 75.7148 546.371 75.7148ZM531.8 75.7148H533.518H537.629H539.593C540.145 75.7148 540.593 75.2671 540.593 74.7148C540.593 74.1625 540.145 73.7148 539.593 73.7148H537.629H533.518H531.8C531.248 73.7148 530.8 74.1625 530.8 74.7148C530.8 75.2671 531.248 75.7148 531.8 75.7148ZM517.229 75.7148H518.333H523.057H524.407C524.96 75.7148 525.407 75.2671 525.407 74.7148C525.407 74.1625 524.96 73.7148 524.407 73.7148H523.057H518.333H517.229C516.676 73.7148 516.229 74.1625 516.229 74.7148C516.229 75.2671 516.676 75.7148 517.229 75.7148ZM502.657 75.7148H503.148H508.486H509.222C509.775 75.7148 510.222 75.2671 510.222 74.7148C510.222 74.1625 509.775 73.7148 509.222 73.7148H508.486H503.148H502.657C502.105 73.7148 501.657 74.1625 501.657 74.7148C501.657 75.2671 502.105 75.7148 502.657 75.7148ZM488.489 75.8445C489.314 75.7588 490.152 75.7148 491 75.7148H493.914H494.037C494.589 75.7148 495.037 75.2671 495.037 74.7148C495.037 74.1625 494.589 73.7148 494.037 73.7148H493.914H491C490.943 73.7148 490.885 73.715 490.828 73.7154C489.969 73.7209 489.12 73.7682 488.283 73.8552C488.214 73.8623 488.148 73.8763 488.084 73.8962C487.641 74.0361 487.342 74.4725 487.391 74.9532C487.449 75.5025 487.94 75.9016 488.489 75.8445ZM481.642 76.2876C481.371 75.9094 480.863 75.7605 480.422 75.9573C480.317 76.0038 480.213 76.051 480.11 76.0988C478.556 76.8164 477.086 77.6827 475.716 78.6793C475.66 78.7199 475.61 78.7652 475.565 78.8143C475.252 79.1577 475.212 79.6852 475.496 80.0759C475.496 80.076 475.496 80.0761 475.496 80.0763C475.821 80.5227 476.446 80.6213 476.893 80.2966C476.893 80.2965 476.893 80.2964 476.893 80.2964C478.242 79.3148 479.696 78.4706 481.236 77.7839C481.741 77.559 481.967 76.9678 481.742 76.4633C481.714 76.4003 481.68 76.3416 481.642 76.2876ZM471.187 84.1087C470.763 83.9159 470.249 84.0402 469.965 84.4309C469.832 84.6135 469.701 84.7979 469.573 84.984C468.675 86.2869 467.894 87.676 467.243 89.1364C467.018 89.6408 467.244 90.232 467.749 90.4569C468.253 90.6819 468.844 90.4553 469.069 89.9509C469.756 88.411 470.6 86.9564 471.582 85.6078C471.622 85.552 471.656 85.4934 471.684 85.4329C471.877 85.0096 471.752 84.4952 471.362 84.2108C471.306 84.1702 471.247 84.1362 471.187 84.1087ZM931.333 5.99996C931.333 8.94548 928.946 11.3333 926 11.3333C923.055 11.3333 920.667 8.94548 920.667 5.99996C920.667 3.05444 923.055 0.666626 926 0.666626C928.946 0.666626 931.333 3.05444 931.333 5.99996ZM925 17.6573C925 17.105 925.448 16.6573 926 16.6573C926.552 16.6573 927 17.105 927 17.6573V23.4859C927 24.0382 926.552 24.4859 926 24.4859C925.448 24.4859 925 24.0382 925 23.4859V17.6573ZM925 32.2289C925 31.6766 925.448 31.2289 926 31.2289C926.552 31.2289 927 31.6766 927 32.2289V38.0575C927 38.6098 926.552 39.0575 926 39.0575C925.448 39.0575 925 38.6098 925 38.0575V32.2289ZM925 46.8005C925 46.2482 925.448 45.8005 926 45.8005C926.552 45.8005 927 46.2482 927 46.8005V49.7148C927 50.6321 926.953 51.5387 926.86 52.4321C926.803 52.9815 926.311 53.3805 925.762 53.3234C925.212 53.2664 924.813 52.7748 924.87 52.2254C924.956 51.4006 925 50.563 925 49.7148V46.8005ZM922.931 59.4787C923.156 58.9743 923.747 58.7478 924.252 58.9727C924.756 59.1976 924.983 59.7888 924.758 60.2933C924.013 61.9622 923.099 63.5381 922.036 64.9987C921.711 65.4453 921.085 65.5438 920.639 65.2188C920.192 64.8938 920.094 64.2684 920.419 63.8218C921.4 62.4732 922.244 61.0187 922.931 59.4787ZM915.107 69.1333C915.554 68.8083 916.179 68.9068 916.504 69.3534C916.829 69.7999 916.731 70.4254 916.284 70.7504C914.823 71.8134 913.247 72.7281 911.578 73.4724C911.074 73.6973 910.483 73.4707 910.258 72.9663C910.033 72.4619 910.26 71.8706 910.764 71.6457C912.304 70.9591 913.758 70.1148 915.107 69.1333ZM903.511 73.5852C904.06 73.5281 904.552 73.9271 904.609 74.4765C904.666 75.0258 904.267 75.5174 903.717 75.5744C902.824 75.6673 901.917 75.7148 901 75.7148H897.963C897.411 75.7148 896.963 75.2671 896.963 74.7148C896.963 74.1625 897.411 73.7148 897.963 73.7148H901C901.848 73.7148 902.686 73.6709 903.511 73.5852ZM888.852 73.7148C889.404 73.7148 889.852 74.1625 889.852 74.7148C889.852 75.2671 889.404 75.7148 888.852 75.7148H882.778C882.226 75.7148 881.778 75.2671 881.778 74.7148C881.778 74.1625 882.226 73.7148 882.778 73.7148H888.852ZM873.667 73.7148C874.219 73.7148 874.667 74.1625 874.667 74.7148C874.667 75.2671 874.219 75.7148 873.667 75.7148H867.593C867.04 75.7148 866.593 75.2671 866.593 74.7148C866.593 74.1625 867.04 73.7148 867.593 73.7148H873.667ZM858.482 73.7148C859.034 73.7148 859.482 74.1625 859.482 74.7148C859.482 75.2671 859.034 75.7148 858.482 75.7148H852.407C851.855 75.7148 851.407 75.2671 851.407 74.7148C851.407 74.1625 851.855 73.7148 852.407 73.7148H858.482ZM843.296 73.7148C843.849 73.7148 844.296 74.1625 844.296 74.7148C844.296 75.2671 843.849 75.7148 843.296 75.7148H837.222C836.67 75.7148 836.222 75.2671 836.222 74.7148C836.222 74.1625 836.67 73.7148 837.222 73.7148H843.296ZM828.111 73.7148C828.663 73.7148 829.111 74.1625 829.111 74.7148C829.111 75.2671 828.663 75.7148 828.111 75.7148H822.037C821.485 75.7148 821.037 75.2671 821.037 74.7148C821.037 74.1625 821.485 73.7148 822.037 73.7148H828.111ZM812.926 73.7148C813.478 73.7148 813.926 74.1625 813.926 74.7148C813.926 75.2671 813.478 75.7148 812.926 75.7148H806.852C806.3 75.7148 805.852 75.2671 805.852 74.7148C805.852 74.1625 806.3 73.7148 806.852 73.7148H812.926ZM797.741 73.7148C798.293 73.7148 798.741 74.1625 798.741 74.7148C798.741 75.2671 798.293 75.7148 797.741 75.7148H791.667C791.114 75.7148 790.667 75.2671 790.667 74.7148C790.667 74.1625 791.114 73.7148 791.667 73.7148H797.741ZM782.556 73.7148C783.108 73.7148 783.556 74.1625 783.556 74.7148C783.556 75.2671 783.108 75.7148 782.556 75.7148H776.482C775.929 75.7148 775.482 75.2671 775.482 74.7148C775.482 74.1625 775.929 73.7148 776.482 73.7148H782.556ZM767.37 73.7148C767.923 73.7148 768.37 74.1625 768.37 74.7148C768.37 75.2671 767.923 75.7148 767.37 75.7148H761.296C760.744 75.7148 760.296 75.2671 760.296 74.7148C760.296 74.1625 760.744 73.7148 761.296 73.7148H767.37ZM752.185 73.7148C752.737 73.7148 753.185 74.1625 753.185 74.7148C753.185 75.2671 752.737 75.7148 752.185 75.7148H746.111C745.559 75.7148 745.111 75.2671 745.111 74.7148C745.111 74.1625 745.559 73.7148 746.111 73.7148H752.185ZM737 73.7148C737.552 73.7148 738 74.1625 738 74.7148C738 75.2671 737.552 75.7148 737 75.7148H730.926C730.374 75.7148 729.926 75.2671 729.926 74.7148C729.926 74.1625 730.374 73.7148 730.926 73.7148H737ZM721.815 73.7148C722.367 73.7148 722.815 74.1625 722.815 74.7148C722.815 75.2671 722.367 75.7148 721.815 75.7148H715.741C715.188 75.7148 714.741 75.2671 714.741 74.7148C714.741 74.1625 715.188 73.7148 715.741 73.7148H721.815ZM706.63 73.7148C707.182 73.7148 707.63 74.1625 707.63 74.7148C707.63 75.2671 707.182 75.7148 706.63 75.7148H700.556C700.003 75.7148 699.556 75.2671 699.556 74.7148C699.556 74.1625 700.003 73.7148 700.556 73.7148H706.63ZM691.444 73.7148C691.997 73.7148 692.444 74.1625 692.444 74.7148C692.444 75.2671 691.997 75.7148 691.444 75.7148H685.37C684.818 75.7148 684.37 75.2671 684.37 74.7148C684.37 74.1625 684.818 73.7148 685.37 73.7148H691.444ZM676.259 73.7148C676.812 73.7148 677.259 74.1625 677.259 74.7148C677.259 75.2671 676.812 75.7148 676.259 75.7148H670.185C669.633 75.7148 669.185 75.2671 669.185 74.7148C669.185 74.1625 669.633 73.7148 670.185 73.7148H676.259ZM661.074 73.7148C661.626 73.7148 662.074 74.1625 662.074 74.7148C662.074 75.2671 661.626 75.7148 661.074 75.7148H655C654.448 75.7148 654 75.2671 654 74.7148C654 74.1625 654.448 73.7148 655 73.7148H661.074ZM645.889 73.7148C646.441 73.7148 646.889 74.1625 646.889 74.7148C646.889 75.2671 646.441 75.7148 645.889 75.7148H639.815C639.263 75.7148 638.815 75.2671 638.815 74.7148C638.815 74.1625 639.263 73.7148 639.815 73.7148H645.889ZM630.704 73.7148C631.256 73.7148 631.704 74.1625 631.704 74.7148C631.704 75.2671 631.256 75.7148 630.704 75.7148H624.63C624.077 75.7148 623.63 75.2671 623.63 74.7148C623.63 74.1625 624.077 73.7148 624.63 73.7148H630.704ZM615.518 73.7148C616.071 73.7148 616.518 74.1625 616.518 74.7148C616.518 75.2671 616.071 75.7148 615.518 75.7148H609.444C608.892 75.7148 608.444 75.2671 608.444 74.7148C608.444 74.1625 608.892 73.7148 609.444 73.7148H615.518Z" fill="url(#paint2_linear_601_2430)"/>
<defs>
<filter id="filter0_d_601_2430" x="292" y="104" width="352" height="152" filterUnits="userSpaceOnUse" color-interpolation-filters="sRGB">
<feFlood flood-opacity="0" result="BackgroundImageFix"/>
<feColorMatrix in="SourceAlpha" type="matrix" values="0 0 0 0 0 0 0 0 0 0 0 0 0 0 0 0 0 0 127 0" result="hardAlpha"/>
<feMorphology radius="10" operator="dilate" in="SourceAlpha" result="effect1_dropShadow_601_2430"/>
<feOffset/>
<feComposite in2="hardAlpha" operator="out"/>
<feColorMatrix type="matrix" values="0 0 0 0 0.643461 0 0 0 0 0.205252 0 0 0 0 0.59964 0 0 0 0.09 0"/>
<feBlend mode="normal" in2="BackgroundImageFix" result="effect1_dropShadow_601_2430"/>
<feBlend mode="normal" in="SourceGraphic" in2="effect1_dropShadow_601_2430" result="shape"/>
</filter>
<linearGradient id="paint0_linear_601_2430" x1="376" y1="149.25" x2="376" y2="213.166" gradientUnits="userSpaceOnUse">
<stop stop-color="#A43499"/>
<stop offset="1" stop-color="#500B7E"/>
</linearGradient>
<linearGradient id="paint1_linear_601_2430" x1="372.611" y1="154.526" x2="372.611" y2="178.86" gradientUnits="userSpaceOnUse">
<stop stop-color="#A43499"/>
<stop offset="1" stop-color="#500B7E"/>
</linearGradient>
<linearGradient id="paint2_linear_601_2430" x1="466" y1="0.666626" x2="466" y2="128.845" gradientUnits="userSpaceOnUse">
<stop stop-color="#A43499"/>
<stop offset="1" stop-color="#500B7E"/>
</linearGradient>
<clipPath id="clip0_601_2430">
<rect width="64" height="64" fill="white" transform="translate(344 148)"/>
</clipPath>
</defs>
</svg>
