<svg width="1184" height="147" viewBox="0 0 1184 147" fill="none" xmlns="http://www.w3.org/2000/svg">
<g opacity="0.1">
<path d="M-138.337 155.378C-47.9292 147.813 15.8765 123.751 57.6912 102.92C99.9752 81.8536 130.429 58.7444 186.076 46.3201C247.452 32.5153 287.554 38.6999 303.416 42.1787C325.407 47.0104 324.04 50.2959 360.016 61.5054C429.122 83.0409 442.251 73.4603 473.215 87.7345C524.555 111.396 509.245 147.302 562.946 187.129C601.834 215.981 666.219 238.938 724.462 223.021C779.308 208.029 785.479 170.384 843.183 165.041C866.886 162.846 886.599 167.719 926.011 177.466C976.523 189.89 1010.44 205.213 1024.03 210.597C1064.27 226.569 1129.22 236.619 1235.24 205.075" stroke="white" stroke-width="0.594233" stroke-miterlimit="10"/>
<path d="M-138.944 167.555C-51.4908 161.025 13.8886 139.241 59.4996 117.65C96.5516 99.8696 124.81 80.3773 163.753 66.4483C172.271 63.4112 181.244 60.4708 190.907 57.9307C251.8 41.9448 291.751 44.5815 308.427 46.1966C330.791 48.3502 330.791 50.8074 366.048 61.6994C390.897 69.3611 408.595 73.7372 422.303 76.6086C445.605 81.4817 457.27 81.813 475.658 91.1864C482.519 94.6552 488.958 98.9029 494.847 103.845C522.084 126.692 520.924 155.655 566.107 186.357C605.437 213.083 669.394 233.293 726.643 217.486C731.178 216.231 735.648 214.748 740.033 213.041C784.292 195.799 794.231 165.47 844.95 160.707C850.294 160.198 855.667 160.046 861.032 160.252C879.061 160.887 897.698 165.387 927.212 172.676C976.109 184.824 1009.5 199.858 1024.48 205.808C1035.45 210.125 1046.77 213.515 1058.3 215.94C1098.23 224.444 1154.66 225.328 1234.05 203.626" stroke="white" stroke-width="0.594233" stroke-miterlimit="10"/>
<path d="M-139.551 180.806C-55.0662 175.285 11.956 155.958 61.3081 133.346C100.5 115.399 130.07 94.8993 168.295 80.2662C177.02 76.9117 186.062 73.5157 195.767 70.6029C256.176 52.422 295.92 50.227 313.48 51.2762C336.106 52.6566 337.611 52.3944 372.095 62.955C396.239 70.3682 413.868 75.3793 427.314 78.8995C449.968 84.7942 460.86 85.9814 478.06 95.7138C484.615 99.4619 490.775 103.86 496.448 108.842C522.76 131.537 524.058 158.76 569.296 186.701C609.068 211.287 672.597 228.75 728.852 213.054C733.614 211.674 738.018 210.293 742.146 208.637C787.798 191.077 797.903 162.156 846.758 157.559C852.061 157.037 857.392 156.866 862.717 157.048C881.049 157.587 899.658 161.963 928.455 169.183C975.75 181 1008.59 195.785 1024.98 202.162C1035.86 206.441 1047.07 209.838 1058.5 212.323C1098.06 221.02 1154.23 222.856 1232.84 203.308" stroke="white" stroke-width="0.594233" stroke-miterlimit="10"/>
<path d="M-140.145 194.957C-58.628 190.498 9.99554 173.449 63.1301 150.008C104.406 131.786 135.329 110.347 172.809 94.996C181.754 91.324 190.879 87.4862 200.598 84.1869C260.525 63.8387 299.992 59.573 318.505 57.2538C341.407 54.3962 344.402 54.8793 378.127 65.1087C401.596 72.2458 419.155 77.9057 432.408 82.0748C454.399 88.9772 464.545 91.0479 480.559 101.125C486.756 105.159 492.602 109.708 498.036 114.723C523.423 137.252 527.26 162.722 572.443 187.888C612.712 210.335 675.758 225.065 731.019 209.465C735.74 208.085 740.116 206.704 744.216 205.089C791.235 187.143 801.547 159.685 848.511 155.116C853.776 154.581 859.07 154.392 864.359 154.55C882.995 154.978 901.632 159.257 929.669 166.339C975.336 177.811 1007.65 192.334 1025.43 199.25C1036.25 203.463 1047.37 206.864 1058.69 209.424C1097.89 218.314 1153.8 221.117 1231.61 203.709" stroke="white" stroke-width="0.594233" stroke-miterlimit="10"/>
<path d="M-140.753 209.135C-62.1895 205.711 8.00772 190.968 64.9386 166.685C108.313 148.173 140.575 125.781 177.337 109.74C186.49 105.751 195.684 101.457 205.444 97.7854C264.887 75.3112 303.996 67.6633 323.543 63.2734C346.639 58.0828 351.153 57.4064 384.174 67.3044C407.021 74.2068 424.429 80.4742 437.46 85.2506C458.789 93.147 468.176 96.1288 483.016 106.538C488.845 110.847 494.38 115.542 499.582 120.591C524.058 142.927 530.436 166.657 575.577 189.132C616.343 209.425 678.892 221.435 733.172 205.946C737.838 204.565 742.187 203.185 746.273 201.597C794.673 183.278 805.164 157.422 850.251 152.797C855.479 152.27 860.735 152.062 865.988 152.176C884.901 152.508 903.482 156.677 930.871 163.62C974.935 174.775 1006.71 189.049 1025.89 196.462C1036.63 200.634 1047.65 204.043 1058.87 206.664C1097.73 215.761 1153.38 219.502 1230.39 204.262" stroke="white" stroke-width="0.594233" stroke-miterlimit="10"/>
<path d="M-141.332 218.273C-65.7235 215.885 6.06126 203.46 66.7746 178.336C112.234 159.52 145.848 136.134 181.893 119.458C191.238 115.137 200.529 110.444 210.317 106.357C269.249 81.7574 308.041 70.7964 328.568 64.2391C351.871 56.8121 357.986 54.8656 390.207 64.4462C408 69.7561 425.466 76.108 442.513 83.4692C463.22 92.3456 471.82 96.2662 485.446 106.937C491.396 111.617 496.117 116.601 501.225 121.446C524.789 143.534 533.721 165.621 578.78 185.335C620.084 203.46 682.109 212.765 735.395 197.386C740.02 196.006 744.34 194.625 748.399 193.065C798.193 174.415 808.864 149.925 852.073 145.439C857.26 144.909 862.473 144.688 867.686 144.776C886.902 145.039 905.456 149.056 932.099 155.82C974.549 166.615 1005.8 180.669 1026.36 188.579C1037.03 192.707 1047.96 196.12 1059.09 198.794C1097.59 208.099 1152.96 212.806 1229.19 199.705" stroke="white" stroke-width="0.594233" stroke-miterlimit="10"/>
<path d="M-141.967 224.788C-69.3266 223.408 4.04571 213.289 68.5554 187.349C116.099 168.23 151.039 143.823 186.393 126.608C195.946 121.942 205.305 116.835 215.134 112.362C273.625 85.6772 312.113 71.4168 333.607 62.6646C357.075 53.0703 364.778 49.7847 396.253 59.0339C413.889 64.2172 431.051 70.8954 447.552 78.9957C467.582 88.8247 475.451 93.7116 487.889 104.755C493.411 109.628 497.76 114.819 502.826 119.72C525.493 141.669 536.993 161.852 581.941 178.956C623.811 194.887 685.297 201.513 737.59 186.231C742.159 184.851 746.439 183.47 750.497 181.938C801.685 162.998 812.577 139.916 853.854 135.595C859.003 135.052 864.179 134.812 869.356 134.877C888.849 135.043 907.402 138.936 933.314 145.618C974.148 156.095 1004.86 169.886 1026.83 178.321C1037.42 182.397 1048.26 185.813 1059.28 188.55C1097.44 198.062 1152.55 203.736 1227.99 192.761" stroke="white" stroke-width="0.594233" stroke-miterlimit="10"/>
<path d="M-142.561 231.401C-72.8883 231.084 2.04402 223.215 70.3777 196.461C119.992 177.024 156.243 151.568 190.907 133.733C200.667 128.694 210.123 123.172 219.98 118.34C278.001 89.5986 316.213 72.0942 338.632 61.0503C362.418 49.3439 371.57 44.6779 402.286 53.5958C419.794 58.7248 436.672 65.8002 452.604 74.6895C471.931 85.4434 479.082 91.3518 490.346 102.672C495.399 107.752 499.402 113.108 504.414 118.106C526.197 139.82 540.306 158.208 585.116 172.676C627.566 186.384 688.473 190.346 739.73 175.188C744.258 173.808 748.51 172.427 752.541 170.909C805.123 151.582 816.139 129.95 855.593 125.657C860.701 125.113 865.835 124.855 870.972 124.884C890.768 124.884 909.294 128.721 934.474 135.292C973.707 145.411 1003.87 158.982 1027.24 167.899C1037.77 171.94 1048.51 175.37 1059.43 178.17C1097.23 187.833 1152.08 194.474 1226.72 185.68" stroke="white" stroke-width="0.594233" stroke-miterlimit="10"/>
<path d="M-143.168 238.041C-76.4499 238.759 0.0561735 233.168 72.1861 205.6C123.885 185.845 161.448 159.326 195.435 140.952C205.375 135.582 214.941 129.688 224.812 124.387C282.378 93.5881 320.341 72.8395 343.671 59.5041C367.746 45.6993 378.362 39.6252 408.332 48.2118C425.707 53.2816 442.304 60.7135 457.657 70.2994C476.39 81.9921 482.699 88.9221 492.79 100.518C497.387 105.819 501.073 111.313 506.015 116.407C526.915 137.901 543.605 154.453 588.278 166.326C631.335 177.77 691.648 179.123 741.952 164.062C746.439 162.681 750.663 161.301 754.666 159.823C808.657 140.207 819.825 119.955 857.415 115.745C862.487 115.2 867.583 114.923 872.683 114.916C892.769 114.792 911.337 118.547 935.757 124.98C973.362 134.768 1003 148.103 1027.77 157.518C1038.21 161.531 1048.87 164.983 1059.68 167.858C1097.14 177.77 1151.72 185.321 1225.57 178.681" stroke="white" stroke-width="0.594233" stroke-miterlimit="10"/>
<path d="M-143.776 244.654C-80.0115 246.366 -1.90412 243.039 74.0221 214.67C127.861 194.584 166.652 166.988 199.991 148.103C210.123 142.361 219.787 136.093 229.685 130.406C286.781 97.5917 324.51 73.6128 348.737 57.9168C373.158 42.0827 385.195 34.5453 414.406 42.8006C431.661 47.8528 447.979 55.6763 462.723 65.965C480.807 78.5549 486.329 86.5617 495.247 98.42C499.389 103.942 502.715 109.56 507.671 114.765C527.716 136.024 547.015 150.657 591.522 160.017C635.186 169.17 694.892 167.941 744.216 152.99C748.647 151.61 752.844 150.229 756.834 148.849C812.218 128.929 823.552 110.057 859.251 105.957C864.293 105.384 869.362 105.089 874.437 105.074C894.812 104.936 913.311 108.484 937.069 114.737C973.058 124.194 1002.16 137.294 1028.33 147.206C1037.79 150.795 1048.27 154.343 1059.99 157.518C1097.08 167.623 1151.4 176.141 1224.46 171.641" stroke="white" stroke-width="0.594233" stroke-miterlimit="10"/>
<path d="M-144.383 251.073C-83.6422 253.834 -3.94722 252.785 75.803 223.629C131.657 203.212 171.788 174.511 204.491 155.129C214.803 149.014 224.577 142.388 234.503 136.286C291.185 101.456 328.706 74.2611 353.734 56.2182C378.5 38.272 391.946 29.3541 420.412 37.2781C437.565 42.3174 453.624 50.5204 467.762 61.464C485.225 74.9651 489.85 84.0625 497.677 96.1555C501.363 101.898 504.358 107.655 509.204 112.956C528.392 133.953 550.287 146.75 594.614 153.542C638.941 160.334 697.998 156.579 746.328 141.739C750.718 140.358 754.887 138.978 758.849 137.597C815.642 117.373 827.142 99.8828 861.005 95.8794C865.995 95.2963 871.014 94.9875 876.038 94.9544C896.745 94.6921 915.188 98.1433 938.16 104.314C972.547 113.425 1001.1 126.305 1028.68 136.7C1038.09 140.262 1048.49 143.796 1060.07 147.04C1096.8 157.338 1150.86 166.808 1223.13 164.475" stroke="white" stroke-width="0.594233" stroke-miterlimit="10"/>
<path d="M-144.977 257.409C-87.1486 261.233 -5.94889 262.407 77.6252 232.478C135.605 211.771 176.937 181.897 209.005 162.074C219.511 155.572 229.395 148.6 239.376 142.084C295.616 105.226 332.944 74.855 358.759 54.3825C383.926 34.476 398.793 24.012 426.403 31.6184C444.736 36.671 461.384 47.1212 472.773 56.826C489.629 71.2105 493.48 81.4261 500.093 93.7538C503.295 99.7174 505.973 105.612 510.75 111.024C529.096 131.731 553.545 142.623 597.72 146.916C642.627 151.32 701.118 145.08 748.454 130.35C752.789 128.97 756.93 127.589 760.879 126.209C819.066 105.667 830.717 89.5571 862.675 85.6642C867.628 85.0724 872.61 84.7452 877.598 84.684C898.567 84.2837 917.011 87.652 939.333 93.6985C972.105 102.478 1000.07 115.124 1029.06 126.016C1038.44 129.536 1048.75 133.084 1060.18 136.369C1096.57 146.875 1150.37 157.297 1221.83 157.076" stroke="white" stroke-width="0.594233" stroke-miterlimit="10"/>
<path d="M-145.584 263.663C-90.7102 268.536 -8.0058 271.78 79.4336 241.23C139.388 220.026 182.072 189.186 213.533 168.879C224.204 161.977 234.24 154.674 244.194 147.744C300.048 108.939 337.196 75.2828 363.798 52.4911C389.378 30.5691 405.516 18.6417 432.491 25.9031C450.175 30.7071 466.74 41.7095 477.867 52.1322C494.115 67.4003 497.042 78.7202 502.578 91.2963C505.338 97.4809 507.671 103.486 512.393 109.008C529.897 129.494 556.941 138.384 600.95 140.303C646.506 142.277 704.362 133.594 750.705 118.961C755.002 117.59 759.112 116.209 763.032 114.82C822.641 94.0021 834.444 79.2448 864.525 75.4622C869.436 74.8546 874.376 74.509 879.324 74.4269C900.583 73.9161 919.026 77.1878 940.631 83.0963C971.774 91.531 999.232 104.011 1029.64 115.344C1038.98 118.851 1049.19 122.371 1060.5 125.712C1096.53 136.424 1150.06 147.799 1220.74 149.76" stroke="white" stroke-width="0.594233" stroke-miterlimit="10"/>
<path d="M-146.192 269.819C-94.2856 275.714 -9.99364 281.236 81.2421 249.885C143.281 228.364 187.221 196.337 218.061 175.629C228.898 168.354 239.044 160.693 249.039 153.348C304.493 112.569 341.531 75.6827 368.823 50.489C394.845 26.5377 412.308 13.0918 438.468 20.0356C455.517 24.5774 472.014 36.1458 482.85 47.3139C498.519 63.4655 500.521 75.9174 504.938 88.7282C507.174 95.1475 509.259 101.277 513.897 106.895C530.67 127.106 560.295 135.388 604.125 133.525C650.206 131.564 707.551 121.943 752.913 107.42C757.165 106.049 761.242 104.668 765.144 103.278C826.189 82.2676 838.116 68.7665 866.319 65.0944C871.194 64.4818 876.096 64.1224 881.008 64.0177C902.557 63.4103 921.042 66.5578 941.859 72.3005C971.332 80.473 998.307 92.8006 1030.11 104.549C1039.4 108.027 1049.54 111.548 1060.69 114.944C1096.38 125.863 1149.65 138.191 1219.53 142.305" stroke="white" stroke-width="0.594233" stroke-miterlimit="10"/>
<path d="M-146.854 275.908C-97.9025 282.81 -12.0368 290.637 82.9953 258.472C147.118 236.633 192.232 203.433 222.52 182.256C233.564 174.581 243.821 166.601 253.815 158.788C308.897 115.993 345.728 75.9592 373.807 48.3497C400.326 22.3967 419.141 7.5151 444.57 14.1138C460.97 18.3933 477.398 30.5139 487.958 42.4274C503.047 59.4349 504.082 73.0188 507.464 86.0505C509.204 92.7044 511.012 98.9442 515.582 104.687C531.457 124.621 563.539 129.536 607.287 126.664C653.974 123.641 710.712 110.209 755.081 95.7967C759.222 94.4162 763.363 93.0358 767.215 91.6553C829.654 70.3269 841.761 58.1925 868.086 54.6446C872.918 54.0153 877.779 53.6375 882.65 53.5127C904.49 52.7948 922.905 55.8457 943.06 61.478C970.987 69.2501 997.368 81.2741 1030.57 93.5879C1039.83 97.0391 1049.9 100.49 1060.94 104.011C1096.27 115.054 1149.29 128.404 1218.31 134.671" stroke="white" stroke-width="0.594233" stroke-miterlimit="10"/>
<path d="M-147.393 281.926C-101.409 289.892 -13.9833 299.969 84.8727 267.003C151.136 244.847 197.382 210.404 227.062 188.854C238.216 180.765 248.68 172.482 258.675 164.282C313.466 119.665 350.062 76.2073 378.776 46.2233C405.723 18.1858 425.782 1.86855 450.561 8.16353C466.312 12.1807 482.699 24.8535 492.969 37.4987C507.492 55.4449 507.533 70.078 509.88 83.3582C511.081 90.2606 512.641 96.597 517.128 102.45C532.203 122.108 566.825 124.924 610.407 119.775C657.66 114.253 713.86 98.4468 757.22 84.1313C761.362 82.7508 765.406 81.3703 769.258 80.1003C833.105 58.4544 845.35 47.6452 869.812 44.2078C874.64 43.5875 879.496 43.2188 884.362 43.1034C904.614 42.3408 924.854 44.9057 944.275 50.6961C970.587 58.1368 996.429 69.9261 1031.04 82.737C1040.26 86.1468 1050.23 89.6394 1061.09 93.1734C1111.88 109.426 1164.11 120.802 1217.06 127.147" stroke="white" stroke-width="0.594233" stroke-miterlimit="10"/>
<path d="M-148 287.904C-104.971 296.905 -15.9712 309.26 86.6811 275.48C154.973 253.006 202.448 217.403 231.631 195.412C361.161 97.7156 402.162 -11.3974 456.649 2.14507C471.751 5.89997 488.096 19.125 498.063 32.5156C519.35 61.0915 505.932 82.765 518.77 100.159C550.245 142.816 691.827 95.1755 771.398 68.408C848.981 42.3032 851.852 33.8961 885.977 32.5156C945.545 30.0722 976.509 53.9958 1061.3 82.2128C1111.71 98.9093 1163.43 111.377 1215.91 119.486" stroke="white" stroke-width="0.594233" stroke-miterlimit="10"/>
<path d="M-148 291.852C-103.825 301.694 -17.5863 312.973 80.5518 280.642C148.292 258.265 193.751 222.317 225.074 199.194C350.2 106.937 389.226 7.01746 444.735 15.9354C466.423 19.4142 488.441 26.3856 502.978 37.0705C531.54 58.0814 520.924 76.8697 537.49 93.6701C573.755 130.474 705.811 89.1559 781.572 64.5972C855.372 40.5907 858.354 33.7987 894.426 35.1792C954.366 37.4708 983.922 58.6474 1063.8 85.7324C1113.63 102.622 1164.94 114.782 1217.06 122.053" stroke="white" stroke-width="0.594233" stroke-miterlimit="10"/>
<path d="M-148 295.965C-74.3291 312.924 2.57249 309.464 74.4225 285.957C141.61 263.69 184.971 227.369 218.517 203.128C339.074 116.075 376.816 23.8593 432.836 29.8781C461.26 32.9428 487.986 33.7159 507.892 41.7917C542.045 55.5965 535.391 70.9198 556.209 87.3475C595.981 118.698 719.796 83.2889 791.76 60.9389C861.653 39.0307 864.759 33.7159 902.888 37.9954C963.049 44.7321 991.335 63.5894 1066.3 89.4182C1115.54 106.489 1166.43 118.343 1218.15 124.786" stroke="white" stroke-width="0.594233" stroke-miterlimit="10"/>
<path d="M-148 303.283C-76.4743 320.445 -1.58663 317.396 68.307 294.475C134.929 272.305 176.205 235.612 211.959 210.266C327.699 128.238 364.806 53.4714 420.922 47.0246C456.028 42.9936 487.075 44.6502 512.821 49.7027C551.722 57.323 549.458 68.1873 574.942 84.2147C617.129 110.747 733.807 80.7635 801.934 60.4843C868.031 40.8125 871.11 36.7124 911.337 44.0014C971.691 54.9347 998.735 71.7076 1068.81 96.2939C1117.46 113.566 1167.96 125.12 1219.28 130.723" stroke="white" stroke-width="0.594233" stroke-miterlimit="10"/>
<path d="M-148 314.423C-78.625 331.779 -5.75242 329.128 62.1776 306.775C128.247 284.687 167.425 247.621 205.402 221.185C316.241 144.03 352.961 76.4007 409.022 67.9521C450.671 61.6848 487.447 52.1042 517.735 61.3949C559.412 74.1781 560.972 75.0616 593.661 84.863C632.991 114.695 747.805 81.9778 812.122 63.8107C874.381 46.2786 877.446 43.3796 919.799 53.8022C980.305 68.6976 1006.12 83.662 1071.31 106.951C1119.37 124.419 1169.48 135.669 1220.4 140.427" stroke="white" stroke-width="0.594233" stroke-miterlimit="10"/>
<path d="M-148 325.826C-80.7789 343.388 -9.91737 341.173 56.0759 319.448C121.593 297.471 158.659 259.991 198.872 232.478C304.7 160.058 341.006 98.9439 397.054 89.253C445.37 80.9149 485.57 67.6899 522.677 73.4741C570.524 80.9287 574.763 78.0021 612.408 85.8984C653.671 112.445 761.79 83.455 822.241 67.5104C880.663 52.1181 883.727 50.2821 928.192 63.9764C988.933 82.6405 1013.44 96.0173 1073.75 117.981C1121.23 135.646 1170.95 146.593 1221.46 150.505" stroke="white" stroke-width="0.594233" stroke-miterlimit="10"/>
<path d="M-148 337.45C-82.9482 355.182 -14.1168 353.382 49.919 332.273C114.884 310.392 149.81 272.498 192.288 243.922C293.062 176.127 328.955 121.198 385.209 110.706C440.056 100.477 484.41 92.0834 527.564 85.6917C580.851 77.7954 588.498 81.0671 631.1 87.0722C674.364 110.416 775.774 85.1396 832.484 71.3624C887.068 58.1098 890.133 57.2539 936.71 74.3028C997.561 96.5837 1020.85 108.58 1076.25 129.177C1123.15 147.033 1172.49 157.678 1222.58 160.748" stroke="white" stroke-width="0.594233" stroke-miterlimit="10"/>
<path d="M-148 349.225C-96.6048 364.093 -27.2082 369.104 43.8035 345.263C108.258 323.617 140.989 285.143 185.73 255.532C281.356 192.251 316.876 143.299 373.296 132.324C434.81 120.369 483.734 108.677 532.492 98.0744C590.887 85.3602 603.587 76.4838 649.833 88.4111C697.749 100.766 789.758 87.0306 842.658 75.3794C893.404 64.2527 896.497 64.3355 945.159 84.7804C1006.31 110.554 1028.21 121.336 1078.82 140.524C1110.28 152.451 1157.74 168.051 1223.77 171.143" stroke="white" stroke-width="0.594233" stroke-miterlimit="10"/>
<path d="M-148 361.207C-95.4038 376.89 -28.8234 380.852 37.6742 358.446C101.576 336.911 132.14 297.94 179.173 267.335C269.581 208.485 304.589 165.373 361.396 154.136C429.592 140.635 483.182 125.546 537.407 110.651C601.061 93.1599 616.95 79.8521 668.552 89.9434C717.739 99.6067 803.729 89.0047 852.846 79.5898C899.782 70.5891 902.985 71.4174 953.621 95.4653C1015.08 124.635 1035.54 134.34 1081.31 152.065C1112.32 164.075 1159.08 179.674 1224.88 181.745" stroke="white" stroke-width="0.594233" stroke-miterlimit="10"/>
<path d="M-148 373.327C-94.1614 389.892 -30.4386 392.736 31.5448 371.781C94.8949 350.355 123.264 310.874 172.616 279.288C257.764 224.787 292.303 187.459 349.483 176.098C424.429 161.202 482.699 142.607 542.321 123.377C611.345 101.124 630.327 83.6884 687.271 91.6262C737.797 98.6666 817.699 91.1982 863.02 83.9507C906.063 77.0483 909.473 78.6359 962.069 106.301C1023.91 138.811 1042.85 147.536 1083.81 163.756C1114.38 175.863 1160.4 191.518 1226 192.484" stroke="white" stroke-width="0.594233" stroke-miterlimit="10"/>
<path d="M-148 385.628C-93.0156 402.98 -32.0399 404.789 25.4155 385.283C88.2135 363.954 114.36 323.92 166.059 291.41C245.892 241.188 279.023 202.908 337.583 198.228C420.605 191.588 482.257 159.851 547.236 136.272C621.685 109.27 646.63 74.1505 705.991 93.4772C755.578 109.67 831.614 93.4772 873.208 88.4798C912.386 83.7172 916.003 85.9674 970.532 117.29C1032.8 153.086 1050.14 160.955 1086.31 175.616C1116.42 187.833 1161.74 203.501 1227.12 203.405" stroke="white" stroke-width="0.594233" stroke-miterlimit="10"/>
<path d="M-148 398.328C-91.8146 416.523 -33.6551 417.213 19.3 399.267C81.5319 378.035 105.428 337.394 159.501 304.014C234.047 258.002 266.723 226.472 325.669 220.84C415.4 212.24 481.87 177.59 552.164 149.649C632.094 117.898 658.972 80.473 724.724 95.8101C776.878 107.986 845.626 96.3347 883.382 93.4909C918.709 90.8266 922.643 93.7256 978.98 128.776C1041.75 167.816 1057.43 174.898 1088.82 187.957C1118.46 200.298 1163.08 215.953 1228.25 214.794" stroke="white" stroke-width="0.594233" stroke-miterlimit="10"/>
<path d="M-148 411.829C-90.6274 430.866 -35.284 430.493 13.1707 413.9C74.8504 392.765 96.4549 351.461 152.944 317.266C222.051 275.424 254.409 250.686 313.77 244.101C410.237 233.402 481.511 195.991 557.079 163.688C642.558 127.147 671.658 88.2033 743.443 98.8054C798.027 106.867 859.569 99.7717 893.57 99.1505C925.017 98.5707 929.311 102.105 987.442 140.91C1050.74 183.166 1064.75 189.544 1091.32 200.961C1120.49 213.468 1164.49 229.067 1229.37 226.845" stroke="white" stroke-width="0.594233" stroke-miterlimit="10"/>
<path d="M-148 425.566C-89.4263 445.445 -36.8992 443.982 7.04141 428.851C68.1689 407.799 87.4404 365.75 146.387 330.837C210.096 293.095 242.054 275.19 301.856 267.681C405.005 254.732 481.18 214.698 561.993 178.032C653.105 136.715 684.662 96.8188 762.162 102.106C819.038 105.985 873.526 103.486 903.744 105.129C931.299 106.606 936.02 110.748 995.891 153.363C1059.79 198.822 1071.93 204.62 1093.82 214.284C1122.49 226.998 1165.75 242.514 1230.49 239.215" stroke="white" stroke-width="0.594233" stroke-miterlimit="10"/>
<path d="M-148 440.516C-88.2253 461.223 -38.5558 458.6 0.912078 445.002C61.446 423.909 78.3568 381.128 139.829 345.608C198.113 311.924 229.685 300.88 289.956 292.46C399.732 277.122 480.876 234.617 566.853 193.576C663.486 147.482 698.26 112.901 780.826 106.606C839.662 102.133 887.413 108.4 913.877 112.307C937.58 115.813 942.729 120.59 1004.3 167.002C1068.82 215.677 1079.09 220.84 1096.27 228.778C1124.4 241.796 1167.03 257.133 1231.55 252.771" stroke="white" stroke-width="0.594233" stroke-miterlimit="10"/>
<path d="M-148 455.314C-87.0381 476.863 -40.1709 473.164 -5.20345 461.015C54.7645 440.018 69.1905 396.216 133.272 360.24C186.117 330.574 217.288 326.419 278.043 317.1C394.431 299.251 480.586 254.385 571.836 208.995C674.116 158.097 712.161 120.645 799.615 110.981C860.356 104.3 901.452 113.093 924.106 119.347C943.971 124.869 949.59 130.253 1012.8 180.516C1078.02 232.367 1086.33 237.019 1098.83 243.162C1126.33 256.663 1168.42 271.614 1232.74 266.188" stroke="white" stroke-width="0.594233" stroke-miterlimit="10"/>
<path d="M-148 470.127C-85.8785 492.504 -41.7033 487.741 -11.3328 477.029C48.0277 456.129 59.9275 411.084 126.715 374.874C174.121 349.169 204.878 351.958 266.143 341.742C389.075 321.242 480.31 274.099 576.75 224.401C684.676 168.713 726.104 128.334 818.334 115.344C881.215 106.495 915.478 117.718 934.294 126.387C950.349 133.787 956.382 139.902 1021.26 194.031C1087.18 249.071 1093.46 253.253 1101.33 257.533C1127.93 272.014 1169.75 286.109 1233.86 279.621" stroke="white" stroke-width="0.594233" stroke-miterlimit="10"/>
</g>
</svg>
