<svg width="60" height="60" viewBox="0 0 60 60" fill="none" xmlns="http://www.w3.org/2000/svg">
<path d="M57.4871 9.9408C48.4025 4.21858 41.2482 1.66669 34.2897 1.66669C27.3313 1.66669 20.1772 4.21858 11.0927 9.9408C10.8343 10.1036 10.6776 10.3876 10.6776 10.6929V28.9095C10.6776 29.5054 10.7013 30.1007 10.7464 30.6878C5.43486 32.7835 1.66675 37.967 1.66675 44.0142C1.66675 51.9098 8.0903 58.3334 15.986 58.3334C20.8897 58.3334 25.2252 55.855 27.807 52.0857L33.7712 56.3722C33.9262 56.4836 34.1081 56.5394 34.29 56.5394C34.4719 56.5394 34.6537 56.4837 34.8087 56.3722L49.08 46.1149C54.7691 42.0261 57.9023 35.9158 57.9023 28.9096V10.6929C57.9023 10.3876 57.7455 10.1036 57.4871 9.9408ZM15.986 56.5556C9.07064 56.5556 3.44453 50.9296 3.44453 44.0142C3.44453 37.0989 9.07053 31.4729 15.986 31.4729C22.9013 31.4729 28.5273 37.0989 28.5273 44.0142C28.5273 50.9296 22.9013 56.5556 15.986 56.5556ZM16.5925 28.9095V13.5132C29.927 5.6568 38.6527 5.6568 51.9874 13.5132V28.9095C51.9874 34.0329 49.7883 38.3216 45.6279 41.3118L34.2899 49.4609L30.0972 46.4476C30.2332 45.6565 30.305 44.8436 30.305 44.0142C30.305 42.858 30.1662 41.7338 29.9063 40.6562H42.8573C44.6184 40.6562 46.0512 39.2235 46.0512 37.4624V23.5195C46.0512 21.7584 44.6184 20.3256 42.8573 20.3256H42.602V17.3081C42.602 12.7249 38.8732 8.99613 34.2899 8.99613C29.7065 8.99613 25.9777 12.7249 25.9777 17.3081V20.3256H25.7224C23.9613 20.3256 22.5285 21.7584 22.5285 23.5195V31.2797C20.7407 30.3575 18.7349 29.8014 16.6106 29.7097C16.5986 29.4444 16.5925 29.177 16.5925 28.9095ZM40.8243 20.3256H39.0739V17.3081C39.0739 14.6704 36.9279 12.5244 34.29 12.5244C31.6522 12.5244 29.5062 14.6704 29.5062 17.3081V20.3256H27.7556V17.3081C27.7556 13.7051 30.6869 10.7739 34.29 10.7739C37.8931 10.7739 40.8243 13.7051 40.8243 17.3081V20.3256ZM37.2961 20.3256H31.284V17.3081C31.284 15.6507 32.6324 14.3021 34.29 14.3021C35.9475 14.3021 37.2961 15.6506 37.2961 17.3081V20.3256ZM42.8574 22.1034C43.6382 22.1034 44.2735 22.7386 44.2735 23.5195V37.4625C44.2735 38.2432 43.6383 38.8786 42.8574 38.8786H29.3519C28.337 36.2462 26.5663 33.9866 24.3064 32.3675V23.5195C24.3064 22.7387 24.9416 22.1034 25.7225 22.1034H42.8574ZM56.1245 28.9095C56.1245 35.3279 53.2542 40.9256 48.0424 44.6712L34.29 54.5557L28.7222 50.554C29.0906 49.8395 29.4004 49.0901 29.6457 48.3122L33.7713 51.2774C33.9263 51.3887 34.1082 51.4445 34.2901 51.4445C34.472 51.4445 34.6539 51.3888 34.8089 51.2774L46.6655 42.7554C51.3102 39.4171 53.7653 34.6292 53.7653 28.9095V13.007C53.7653 12.6942 53.6009 12.4044 53.3323 12.2439C45.8862 7.79569 40.0133 5.81202 34.2901 5.81202C34.2897 5.81202 34.2904 5.81202 34.2901 5.81202C28.5671 5.81202 22.6935 7.79591 15.248 12.2439C14.9794 12.4044 14.815 12.6941 14.815 13.007V28.9095C14.815 29.1876 14.8215 29.4655 14.8334 29.7417C14.0323 29.8058 13.2496 29.9364 12.4907 30.1275C12.468 29.7238 12.4556 29.3169 12.4556 28.9095V11.185C28.924 0.922243 39.6556 0.922243 56.1245 11.185V28.9095ZM32.1011 31.9022V33.5465C32.1011 34.7534 33.083 35.7354 34.29 35.7354C35.497 35.7354 36.4787 34.7535 36.4787 33.5465V31.9022C37.4147 31.2134 37.9774 30.1195 37.9774 28.934C37.9774 26.9007 36.3232 25.2465 34.2899 25.2465C32.2566 25.2465 30.6024 26.9007 30.6024 28.934C30.6025 30.1194 31.1652 31.2131 32.1011 31.9022ZM34.29 27.0244C35.343 27.0244 36.1997 27.881 36.1997 28.9341C36.1997 29.646 35.8076 30.2944 35.1765 30.626C34.8842 30.7797 34.7011 31.0827 34.7011 31.4129V33.5466C34.7011 33.7694 34.5129 33.9577 34.2901 33.9577C34.0673 33.9577 33.879 33.7695 33.879 33.5466V31.4129C33.879 31.0827 33.696 30.7797 33.4036 30.626C32.7724 30.2944 32.3804 29.646 32.3804 28.9341C32.3803 27.881 33.237 27.0244 34.29 27.0244ZM19.1515 42.6727C20.2299 41.7675 20.9169 40.4106 20.9169 38.8959C20.9169 36.177 18.7049 33.965 15.986 33.965C13.2671 33.965 11.0551 36.177 11.0551 38.8959C11.0551 40.4107 11.7422 41.7675 12.8204 42.6727C9.77175 43.9236 7.6183 46.9227 7.6183 50.4167C7.6183 50.9076 8.0163 51.3056 8.50719 51.3056H23.4646C23.9555 51.3056 24.3535 50.9076 24.3535 50.4167C24.3535 46.9227 22.2002 43.9236 19.1515 42.6727ZM12.8329 38.8958C12.8329 37.1572 14.2473 35.7427 15.986 35.7427C17.7245 35.7427 19.1391 37.1571 19.1391 38.8958C19.1391 40.6341 17.7251 42.0484 15.987 42.0489C15.9866 42.0489 15.9863 42.0489 15.9859 42.0489C15.9855 42.0489 15.9852 42.0489 15.9849 42.0489C14.2467 42.0484 12.8329 40.6341 12.8329 38.8958ZM9.45586 49.5278C9.89108 46.3134 12.6531 43.8274 15.9849 43.8268H15.986C15.986 43.8268 15.9867 43.8268 15.9871 43.8268C19.3189 43.8274 22.0807 46.3134 22.5161 49.5278H9.45586Z" fill="white"/>
</svg>
