<svg width="1008" height="294" viewBox="0 0 1008 294" fill="none" xmlns="http://www.w3.org/2000/svg">
<g clip-path="url(#clip0_640_2046)">
<g opacity="0.1">
<path d="M1153.43 151.546C1063.66 138.393 996.059 147.345 950.607 158.141C904.646 169.06 869.742 184.654 812.727 184.124C749.82 183.637 712.167 168.512 697.509 161.523C677.189 151.826 679.265 148.937 646.773 129.854C584.358 93.1953 569.398 99.546 542.482 78.6163C497.853 43.9195 520.913 12.4253 477.653 -38.5508C446.329 -75.4765 388.835 -112.449 328.5 -110.167C271.682 -108.015 257.128 -72.7524 199.717 -80.6469C176.135 -83.8892 158.042 -93.1095 121.87 -111.547C75.4971 -135.112 45.942 -157.734 33.9347 -166.061C-1.63067 -190.75 -62.6058 -215.28 -173.019 -208.623" stroke="white" stroke-width="0.594233" stroke-miterlimit="10"/>
<path d="M1156.78 139.825C1070.13 126.335 1001.51 132.71 952.19 143.385C912.069 152.292 880.124 164.861 839.036 169.587C830.051 170.612 820.645 171.439 810.657 171.719C747.725 173.467 709.415 161.831 693.541 156.473C672.25 149.299 672.807 146.906 640.943 128.296C618.481 115.194 602.239 106.915 589.54 101.008C567.952 90.9726 556.667 88.0022 540.886 74.6998C534.992 69.7642 529.685 64.166 525.072 58.0158C503.732 29.5831 511.435 1.63975 474.399 -38.5163C442.162 -73.4717 384.461 -107.671 325.119 -105.271C320.417 -105.079 315.728 -104.648 311.069 -103.982C264.053 -97.235 247.489 -69.9535 197.013 -76.8271C191.692 -77.544 186.425 -78.6153 181.247 -80.0338C163.832 -84.7444 146.704 -93.3574 119.614 -107.155C74.7509 -130.085 45.6409 -152.305 32.4042 -161.5C22.6998 -168.194 12.4508 -174.063 1.7651 -179.045C-35.1862 -196.388 -89.9466 -210.058 -172.191 -206.943" stroke="white" stroke-width="0.594233" stroke-miterlimit="10"/>
<path d="M1160.38 127.057C1076.85 113.259 1007.19 116.869 953.991 127.689C911.749 136.271 878.298 149.524 837.749 155.099C828.49 156.386 818.913 157.641 808.801 158.275C745.841 162.27 706.636 155.387 689.773 150.379C668.051 143.899 666.526 143.813 635.339 125.701C613.507 113.001 597.476 104.119 585.18 97.6391C564.455 86.7565 554.117 83.128 539.574 69.7455C534.042 64.6076 529.041 58.9258 524.646 52.7862C504.172 24.7113 509.087 -2.09583 471.372 -39.5755C438.219 -72.5473 380.311 -103.974 321.962 -101.456C317.011 -101.193 312.408 -100.848 308.013 -100.172C259.566 -93.4322 243.16 -67.5596 194.537 -74.1716C189.254 -74.8665 184.024 -75.9104 178.879 -77.2963C161.147 -81.9817 144.017 -90.4674 117.611 -104.035C74.2322 -126.278 45.6036 -148.132 31.0926 -158.062C21.465 -164.699 11.32 -170.552 0.755586 -175.565C-35.8023 -193.016 -90.091 -207.553 -171.081 -206.357" stroke="white" stroke-width="0.594233" stroke-miterlimit="10"/>
<path d="M1164.17 113.411C1083.77 99.2511 1013.07 100.279 955.998 111.048C911.663 119.425 876.682 133.286 836.696 139.729C827.15 141.275 817.392 142.941 807.179 143.949C744.198 150.164 704.792 145.36 686.236 143.417C663.283 141.002 660.475 139.851 629.952 122.234C608.717 109.957 592.9 100.459 580.94 93.3905C561.089 81.6768 551.678 77.3571 538.369 63.9079C533.249 58.573 528.588 52.8161 524.435 46.6983C504.824 18.9946 506.868 -6.68151 468.576 -41.4463C434.453 -72.447 376.396 -101.102 319.037 -98.4529C314.126 -98.1801 309.55 -97.8289 305.191 -97.1865C255.326 -90.3809 239.05 -65.9804 192.275 -72.19C187.026 -72.864 181.828 -73.8815 176.712 -75.2359C158.659 -79.8827 141.481 -88.2805 115.782 -101.541C73.9119 -123.079 45.7347 -144.558 29.988 -155.329C20.4099 -161.888 10.3558 -167.723 -0.0904493 -172.786C-36.2549 -190.343 -90.0688 -205.762 -169.793 -206.468" stroke="white" stroke-width="0.594233" stroke-miterlimit="10"/>
<path d="M1167.98 99.7406C1090.69 85.2429 1018.98 83.6685 958.023 94.3954C911.578 102.579 875.076 117.064 835.633 124.342C825.813 126.15 815.885 128.245 805.546 129.605C742.553 138.001 702.729 136.572 682.695 136.411C659.025 136.224 654.475 135.858 624.562 118.723C603.878 106.815 588.347 96.7604 576.74 89.1507C557.76 76.6194 549.295 71.5847 537.205 58.0792C532.506 52.559 528.182 46.7305 524.261 40.6327C505.494 13.3241 504.669 -11.2346 465.806 -43.3683C430.711 -72.3845 372.52 -98.2785 316.141 -95.5141C311.283 -95.2287 306.735 -94.8713 302.395 -94.2526C251.101 -87.3974 235.014 -64.5972 190.055 -70.3269C184.843 -70.9996 179.678 -71.9904 174.587 -73.2939C156.243 -77.9093 139.093 -86.187 113.996 -99.1662C73.6126 -120.031 45.9033 -141.146 28.9116 -152.717C19.3995 -159.219 9.44038 -165.04 -0.891633 -170.139C-36.6729 -187.819 -90.0184 -204.093 -168.484 -206.731" stroke="white" stroke-width="0.594233" stroke-miterlimit="10"/>
<path d="M1170.62 90.9726C1096.44 76.1371 1023.71 71.9436 958.879 82.6321C910.335 90.6388 872.29 105.784 833.402 113.844C823.319 115.931 813.205 118.393 802.746 120.151C739.768 130.733 699.501 132.603 678.021 134.33C653.641 136.274 647.243 136.781 618.038 120.138C601.914 110.928 586.346 100.777 571.415 89.7388C553.263 76.394 545.777 70.6237 534.929 57.1385C530.197 51.2303 526.73 45.3052 522.855 39.4269C504.919 12.5671 501.234 -10.9714 461.825 -40.3974C425.714 -67.425 367.42 -90.5648 312.033 -87.6824C307.216 -87.3876 302.695 -87.0239 298.388 -86.4259C245.661 -79.5644 229.709 -58.136 186.61 -63.5739C181.438 -64.2356 176.311 -65.2035 171.254 -66.4724C152.599 -71.0895 135.441 -79.2131 111.029 -91.8483C72.137 -111.997 44.8886 -132.777 26.6652 -145.147C17.2092 -151.589 7.33459 -157.395 -2.89301 -162.525C-38.2777 -180.325 -91.135 -197.478 -168.349 -202.021" stroke="white" stroke-width="0.594233" stroke-miterlimit="10"/>
<path d="M1172.72 84.7716C1101.66 69.6283 1027.9 62.8293 959.19 73.4493C908.548 81.2786 868.98 97.118 830.642 105.859C820.279 108.235 810.004 111.085 799.417 113.21C736.396 125.922 695.676 131.074 672.756 134.719C647.723 138.737 639.475 140.188 610.921 124.036C594.922 114.985 579.724 104.586 565.492 92.9519C548.215 78.8329 541.661 72.2875 532.054 58.7088C527.783 52.7095 524.726 46.6674 520.904 40.7447C503.81 14.223 497.192 -8.04298 457.299 -34.9029C420.138 -59.9213 361.76 -80.3306 307.364 -77.3168C302.6 -77.0095 298.119 -76.6364 293.819 -76.0652C239.668 -69.2379 223.821 -49.2309 182.641 -54.3916C177.503 -55.0312 172.407 -55.9727 167.38 -57.2112C148.434 -61.7968 131.248 -69.7994 107.53 -82.1879C70.1392 -101.661 43.3555 -122.063 23.8798 -135.263C14.4844 -141.638 4.70363 -147.425 -5.40633 -152.592C-40.408 -170.516 -92.7904 -188.55 -168.755 -194.985" stroke="white" stroke-width="0.594233" stroke-miterlimit="10"/>
<path d="M1174.8 78.4656C1106.87 62.9608 1032.11 53.6163 959.484 64.1616C906.753 71.8301 865.67 88.3935 827.862 97.8959C817.213 100.588 806.75 103.819 796.054 106.288C733.024 121.11 691.836 129.484 667.496 135.151C641.674 141.153 631.701 143.62 603.811 127.963C587.924 118.994 573.092 108.272 559.594 95.9989C543.213 81.1389 537.589 73.7616 529.188 60.1803C525.421 54.086 522.737 47.9608 518.991 41.9565C502.705 15.8639 493.138 -5.24646 452.781 -29.5072C414.551 -52.4926 356.133 -70.1756 302.773 -67.0477C298.05 -66.731 293.596 -66.3516 289.325 -65.7877C233.729 -58.9003 218.09 -40.3332 178.691 -45.1072C173.593 -45.7371 168.535 -46.6511 163.539 -47.8448C144.259 -52.3381 127.088 -60.2806 104.057 -72.3954C68.1443 -91.1552 41.8482 -111.218 21.1108 -125.207C11.7787 -131.532 2.08875 -137.311 -7.91047 -142.517C-42.5281 -160.507 -94.4358 -179.423 -169.126 -187.801" stroke="white" stroke-width="0.594233" stroke-miterlimit="10"/>
<path d="M1176.89 72.1368C1112.08 56.2941 1036.3 44.3741 959.797 54.8509C904.964 62.3555 862.362 79.6565 825.091 89.8368C814.192 92.8107 803.537 96.3801 792.721 99.3024C729.667 116.231 687.986 127.821 662.238 135.513C635.657 143.493 623.94 146.999 596.701 131.834C580.93 122.953 566.453 111.948 553.677 99.1275C538.087 83.4881 533.516 75.307 526.32 61.7232C523.046 55.5171 520.703 49.3296 517.047 43.2468C501.57 17.5698 489.073 -2.33836 448.261 -24.0402C408.925 -44.9586 350.493 -59.9658 298.083 -56.7158C293.401 -56.3897 288.973 -56.0041 284.739 -55.4742C227.705 -48.6241 212.232 -31.436 174.667 -35.8675C169.605 -36.4879 164.578 -37.3754 159.61 -38.5263C140.02 -42.9644 122.789 -50.8356 100.466 -62.6437C66.0647 -80.7111 40.2263 -100.426 18.2438 -115.216C8.98054 -121.496 -0.612066 -127.276 -10.4929 -132.53C-44.718 -150.684 -96.1634 -170.428 -169.599 -180.724" stroke="white" stroke-width="0.594233" stroke-miterlimit="10"/>
<path d="M1178.99 65.8346C1117.28 49.6945 1040.45 35.2061 960.068 45.601C903.075 52.9427 859.032 71.0134 822.278 81.8384C811.106 85.1315 800.272 89.0419 789.342 92.3344C726.287 111.332 684.101 126.122 656.943 135.909C629.566 145.787 616.132 150.396 589.557 135.726C573.9 126.889 559.783 115.566 547.759 102.199C533.004 85.833 529.444 76.7818 523.45 63.2089C520.67 56.8911 518.706 50.664 515.06 44.4706C500.364 19.2164 484.89 0.584832 443.67 -18.6325C403.222 -37.457 344.796 -49.8122 293.366 -46.4473C288.737 -46.1087 284.336 -45.7168 280.137 -45.2779C221.677 -38.4485 206.355 -22.6424 170.657 -26.7522C165.617 -27.3378 160.613 -28.2012 155.668 -29.3385C135.793 -33.8289 118.582 -41.4828 96.8637 -52.9657C63.9603 -70.3438 38.593 -89.7077 15.352 -105.302C6.95724 -110.944 -2.44183 -116.777 -13.1355 -122.53C-46.9672 -140.79 -97.9379 -161.415 -170.108 -173.614" stroke="white" stroke-width="0.594233" stroke-miterlimit="10"/>
<path d="M1181.04 59.7213C1122.51 43.2456 1044.65 26.1785 960.367 36.4718C901.336 43.6787 855.739 62.5211 819.49 73.9742C808.058 77.5895 797.036 81.8244 785.984 85.514C722.876 106.569 680.161 124.538 651.691 136.429C623.498 148.286 608.379 153.919 582.455 139.741C566.893 130.94 553.115 119.306 541.83 105.439C527.887 88.3263 525.448 78.4167 520.57 64.8627C518.284 58.4332 516.673 52.147 513.157 45.8845C499.235 21.08 480.817 3.64748 439.188 -13.0284C397.56 -29.7043 339.192 -39.4519 288.755 -35.969C284.166 -35.621 279.792 -35.2228 275.62 -34.7776C215.72 -27.9721 200.55 -13.548 166.662 -17.3353C161.67 -17.9001 156.712 -18.7385 151.811 -19.8467C131.585 -24.2913 114.407 -31.8386 93.4357 -43.0622C62.0136 -59.7407 37.1338 -78.7642 12.6312 -95.1484C4.27048 -100.754 -5.05114 -106.555 -15.5947 -112.344C-49.033 -130.711 -99.532 -152.204 -170.443 -166.335" stroke="white" stroke-width="0.594233" stroke-miterlimit="10"/>
<path d="M1183.05 53.6848C1127.6 36.835 1048.79 17.2618 960.6 27.4401C899.434 34.4467 852.4 54.1593 816.669 66.1868C804.962 70.1347 793.754 74.6806 782.554 78.761C719.415 101.892 676.168 122.998 646.38 137.077C617.353 150.751 600.498 157.568 575.335 143.893C558.628 134.811 544.786 120.855 535.897 108.818C522.746 90.9835 521.314 80.1603 517.672 66.6535C515.907 60.1186 514.636 53.7699 511.213 47.4155C498.045 23.0846 476.707 6.92771 434.659 -7.28027C391.924 -21.7619 333.544 -28.961 284.099 -25.36C279.564 -24.9995 275.218 -24.595 271.059 -24.1467C209.728 -17.3484 194.725 -4.30328 162.717 -7.76567C157.759 -8.31367 152.833 -9.12568 147.961 -10.1983C127.448 -14.5679 110.251 -22.0346 89.8834 -32.9899C59.9591 -48.9792 35.5907 -67.6425 9.82957 -84.8303C1.49978 -90.3862 -7.73794 -96.182 -18.1242 -101.976C-51.1794 -120.467 -101.207 -142.828 -170.859 -158.835" stroke="white" stroke-width="0.594233" stroke-miterlimit="10"/>
<path d="M1185.06 47.7323C1132.73 30.5313 1052.92 8.59985 960.826 18.5058C897.624 25.5483 849.053 45.895 813.804 58.5309C801.845 62.831 790.413 67.6652 779.147 72.1552C715.943 97.2701 672.124 121.616 641.044 137.775C611.155 153.318 592.732 161.272 568.109 148.077C551.977 139.385 538.341 124.909 529.871 112.233C517.512 93.6758 517.231 81.987 514.694 68.4826C513.409 61.8328 512.5 55.4549 509.155 49.0055C496.758 25.0808 472.438 10.2843 430.012 -1.57364C386.094 -13.8363 327.777 -18.5116 279.323 -14.7791C274.826 -14.4192 270.51 -14.0074 266.377 -13.5439C203.598 -6.79944 188.754 4.89369 158.6 1.74989C153.679 1.22701 148.79 0.442367 143.952 -0.600727C123.132 -4.92865 105.913 -12.3012 86.2131 -22.9591C57.7969 -38.2426 33.8884 -56.6286 6.84273 -74.5693C-1.44986 -80.1024 -10.5998 -85.8494 -20.8526 -91.6692C-53.5111 -110.28 -103.067 -133.51 -171.458 -151.462" stroke="white" stroke-width="0.594233" stroke-miterlimit="10"/>
<path d="M1187.05 41.8745C1137.84 24.3523 1057 -0.157831 961.029 9.66622C895.725 16.5449 845.662 37.7626 810.927 50.9294C798.721 55.5549 787.101 60.7136 775.7 65.5975C712.438 92.7258 667.994 120.243 635.696 138.584C604.916 156.004 584.857 165.135 560.956 152.435C545.383 144.142 531.943 129.131 523.924 115.795C512.33 96.5085 513.207 83.9272 511.813 70.4481C511.092 63.6888 510.453 57.2463 507.211 50.7216C495.463 27.2318 468.491 12.4409 425.382 4.30753C380.059 -4.2425 322.027 -7.88767 274.552 -4.04029C270.1 -3.66988 265.816 -3.25081 261.7 -2.78309C197.48 3.8237 182.799 14.2652 154.499 11.44C149.613 10.9303 144.757 10.1675 139.949 9.15473C118.825 4.85512 101.537 -2.4058 82.5663 -12.7238C55.7173 -27.3727 32.2449 -45.5012 3.9353 -64.1617C-4.32322 -69.6584 -13.3924 -75.3867 -23.4847 -81.2258C-55.7602 -99.9601 -104.844 -124.058 -171.966 -143.925" stroke="white" stroke-width="0.594233" stroke-miterlimit="10"/>
<path d="M1189.08 36.0954C1142.97 18.2622 1061.12 -8.85028 961.271 0.905323C893.864 7.62004 842.392 29.7142 808.088 43.4635C795.591 48.4319 783.79 53.8747 772.283 59.2158C708.926 88.3916 663.969 119.021 630.357 139.536C598.639 158.793 576.937 169.015 553.67 156.817C538.669 148.927 525.421 133.394 517.84 119.394C507.006 99.4061 509.081 85.9417 508.745 72.4824C508.561 65.6074 508.216 59.12 505.069 52.4899C494.133 29.4727 464.003 17.4046 420.746 10.2714C374.591 2.61875 316.285 2.82213 269.803 6.78755C265.457 7.19199 261.11 7.59642 257.046 8.06666C191.395 14.6662 176.85 23.736 150.406 21.2159C145.558 20.7321 140.738 19.9967 135.965 19.0126C114.533 14.7548 97.2908 7.60363 78.9403 -2.45643C53.5062 -16.3645 30.543 -34.0624 1.00406 -53.5906C-7.23384 -59.0542 -16.2515 -64.6996 -26.2081 -70.6346C-58.1058 -89.4085 -106.716 -114.445 -172.516 -136.215" stroke="white" stroke-width="0.594233" stroke-miterlimit="10"/>
<path d="M1190.97 30.3562C1147.99 12.1615 1065.14 -17.4965 961.379 -7.82906C891.816 -1.29079 838.959 21.7564 805.163 36.0066C792.463 41.3533 780.392 47.0449 768.797 52.7623C705.309 83.7786 659.804 117.795 625.034 140.479C592.426 161.669 569.188 173.007 546.484 161.252C532.056 153.765 518.973 137.703 511.841 123.057C501.771 102.283 505.052 88.0224 505.781 74.5562C506.178 67.5613 506.097 61.0362 503.056 54.3174C492.836 31.7509 459.757 21.1497 416.144 16.2725C368.87 10.9248 310.55 13.5628 265.071 17.6629C260.725 18.0673 256.472 18.4937 252.433 18.8564C185.339 25.4456 170.96 33.1933 146.357 30.9887C141.514 30.4971 136.701 29.7537 131.936 28.7617C112.039 24.9078 92.91 17.8158 75.3098 7.76841C51.3736 -5.45034 28.8814 -22.7976 -1.91609 -43.1294C-10.1231 -48.5433 -19.0372 -54.207 -28.8159 -60.1147C-74.5928 -87.4721 -122.872 -110.405 -173 -128.602" stroke="white" stroke-width="0.594233" stroke-miterlimit="10"/>
<path d="M1192.92 24.6721C1153.05 6.13964 1069.18 -26.0939 961.541 -16.4949C889.93 -10.108 835.614 13.7897 802.201 28.5828C653.877 94.3291 589.18 191.288 539.189 165.732C525.333 158.647 512.417 142.057 505.749 126.754C491.504 94.0922 509.491 76.03 500.936 56.1759C479.964 7.48838 331.265 21.7496 247.695 29.7577C166.212 37.5718 161.507 45.1077 127.959 38.7065C69.3919 27.5657 44.6661 -2.76167 -31.5053 -49.4873C-76.8131 -77.1906 -124.35 -101.071 -173.623 -120.881" stroke="white" stroke-width="0.594233" stroke-miterlimit="10"/>
<path d="M1193.81 20.8275C1153.03 1.21484 1071.6 -29.3434 968.682 -20.1315C897.631 -13.7134 845.199 10.9779 809.445 26.3879C666.644 87.8366 605.958 176.29 553.922 155.005C533.59 146.695 513.728 134.908 501.997 121.202C478.949 94.2568 493.552 78.3684 481.232 58.2465C454.267 14.1721 316.279 24.4378 236.922 31.1596C159.599 37.7886 155.153 43.7265 120.336 34.1946C62.4801 18.3578 38.5021 -8.97458 -33.14 -53.4823C-77.8398 -81.242 -125.054 -104.732 -174.157 -123.641" stroke="white" stroke-width="0.594233" stroke-miterlimit="10"/>
<path d="M1194.75 16.8213C1126.85 -16.4166 1051.17 -30.5014 975.858 -23.9161C905.37 -17.4802 854.897 8.05035 816.725 24.0448C679.555 81.4621 621.867 162.705 568.675 144.128C541.689 134.691 515.836 127.872 498.282 115.489C468.154 94.2926 478.112 80.8795 461.566 60.1555C429.949 20.5958 301.328 26.9778 226.169 32.4102C153.127 37.8824 148.896 42.3536 112.734 29.5314C55.6717 9.31535 32.4042 -15.4701 -34.7368 -57.6388C-78.8174 -85.4403 -125.695 -108.537 -174.598 -126.551" stroke="white" stroke-width="0.594233" stroke-miterlimit="10"/>
<path d="M1196.41 9.69493C1130.64 -23.2542 1057.02 -37.2823 983.748 -30.8241C913.832 -24.3538 865.305 2.01285 824.731 18.5815C693.394 72.1986 640.285 136.591 584.17 130.133C549.066 126.091 519.205 117.43 495.278 106.666C459.121 90.4147 463.792 80.3478 442.611 58.9546C407.547 23.5387 287.109 26.257 216.158 30.5438C147.32 34.6997 143.392 37.9939 105.869 21.7647C49.5713 -2.58242 27.0406 -25.0557 -35.6231 -64.9053C-79.0855 -92.7697 -125.642 -115.484 -174.353 -132.589" stroke="white" stroke-width="0.594233" stroke-miterlimit="10"/>
<path d="M1198.94 -1.15438C1135.31 -33.8044 1063.74 -47.7624 992.509 -41.4115C923.15 -34.8966 876.581 -7.69065 833.595 9.43566C708.137 59.4191 657.025 116.949 600.509 112.452C558.525 109.103 520.534 110.086 493.146 94.1633C455.458 72.2541 454.139 71.0396 424.528 54.0742C392.996 16.0937 273.752 21.897 206.991 24.9916C142.377 27.9347 138.734 30.0624 99.852 10.2987C44.3058 -17.9414 22.5612 -38.3746 -35.6376 -75.8512C-78.4853 -103.774 -124.728 -126.102 -173.24 -142.294" stroke="white" stroke-width="0.594233" stroke-miterlimit="10"/>
<path d="M1201.52 -12.2597C1140.04 -44.6209 1070.53 -58.548 1001.33 -52.3688C932.532 -45.8361 887.926 -17.7474 842.518 -0.079977C723.015 46.4295 673.784 97.7075 617 94.424C568.052 91.5778 525.9 95.3332 491.074 81.2775C446.168 63.1573 441.376 65.0456 406.505 48.8107C372.345 13.5913 260.468 17.2842 197.976 19.0916C137.585 20.8219 134.183 21.9144 93.9871 -1.51509C39.0677 -33.4788 18.24 -52.0682 -35.5137 -87.148C-77.7474 -115.13 -123.682 -137.076 -171.987 -152.35" stroke="white" stroke-width="0.594233" stroke-miterlimit="10"/>
<path d="M1204.16 -23.5802C1144.83 -55.615 1077.39 -69.4847 1010.23 -63.4615C941.999 -56.8976 899.383 -27.9199 851.528 -9.73116C737.996 33.4212 690.573 78.77 633.405 76.2194C577.668 73.7329 532.566 71.8397 489.088 68.2696C435.4 63.8651 428.694 58.9429 388.568 43.425C351.731 10.8704 247.231 12.4696 188.874 13.0154C132.707 13.5328 129.528 13.6707 88.0356 -13.5052C33.8297 -49.0164 13.8717 -65.9857 -35.406 -98.619C-77.0307 -126.655 -122.664 -148.22 -170.751 -162.58" stroke="white" stroke-width="0.594233" stroke-miterlimit="10"/>
<path d="M1206.84 -35.0483C1160.16 -61.1935 1093.71 -81.8252 1019.14 -74.7246C951.454 -68.2733 910.844 -38.2327 860.549 -19.5495C753.056 20.3752 707.353 59.9872 649.914 57.8696C587.292 55.5502 536.991 55.8331 487.099 55.0914C427.343 54.2197 412.959 59.9818 370.627 37.869C326.766 14.9603 234.041 7.45372 179.877 6.79383C127.93 6.11186 124.937 5.32932 82.1856 -25.6271C28.4766 -64.6087 9.60079 -80.0783 -35.3313 -110.253C-63.264 -129.01 -105.945 -154.975 -169.548 -172.973" stroke="white" stroke-width="0.594233" stroke-miterlimit="10"/>
<path d="M1209.56 -46.7179C1161.89 -73.9289 1097.95 -92.8997 1028.1 -86.1727C960.978 -79.7036 922.367 -48.6871 869.615 -29.556C768.209 7.2375 724.329 41.2784 666.454 39.3285C596.974 36.9984 541.358 39.5295 485.167 41.7283C419.205 44.3145 400.709 53.6685 352.744 32.1281C307.035 11.5528 220.883 2.36045 170.911 0.381095C123.157 -1.50652 120.225 -3.04013 76.3694 -37.9536C23.1355 -80.3115 5.4135 -94.4066 -35.1451 -122.06C-62.6154 -140.794 -104.611 -166.599 -168.231 -183.552" stroke="white" stroke-width="0.594233" stroke-miterlimit="10"/>
<path d="M1212.31 -58.5209C1163.63 -86.8744 1102.22 -104.108 1037.1 -97.7676C970.537 -91.2808 933.947 -59.2686 878.714 -39.7094C783.418 -5.95708 741.307 22.5571 683.042 20.6436C606.671 18.1392 545.701 23.023 483.27 28.2182C410.996 34.2239 388.553 46.8959 334.896 26.2402C287.287 7.91545 207.775 -2.94696 161.992 -6.17543C118.506 -9.22299 115.545 -11.543 70.6011 -50.4239C17.7489 -96.1231 1.28338 -108.919 -34.9247 -134.013C-61.9428 -152.741 -103.213 -178.434 -166.882 -194.265" stroke="white" stroke-width="0.594233" stroke-miterlimit="10"/>
<path d="M1215.1 -70.501C1165.49 -99.8809 1106.51 -115.482 1046.13 -109.526C980.131 -103.008 945.58 -69.9536 887.851 -50.0263C798.703 -19.2355 757.747 10.526 699.654 1.79198C617.292 -10.5852 550.045 6.33004 481.41 14.5445C402.775 23.9437 370.51 52.4845 317.085 20.1888C272.468 -6.83664 194.741 -8.3248 153.098 -12.8987C113.862 -17.1528 110.85 -20.1652 64.8538 -63.0475C12.3306 -112.044 -2.76958 -123.643 -34.6665 -146.13C-61.2158 -164.862 -101.798 -190.408 -165.493 -205.154" stroke="white" stroke-width="0.594233" stroke-miterlimit="10"/>
<path d="M1217.98 -82.8699C1167.39 -113.343 1110.91 -127.216 1055.26 -121.757C989.834 -115.205 957.337 -81.0481 897.098 -60.8128C814.055 -32.9224 775.075 -9.6319 716.389 -17.526C627.048 -29.5169 554.448 -10.8584 479.647 0.398204C394.596 13.1784 359.925 43.5257 299.371 13.6647C251.341 -10.0312 181.743 -14.2882 144.327 -20.0883C109.318 -25.5118 106.144 -29.2282 59.2327 -76.1509C6.96189 -128.419 -6.70363 -138.876 -34.3122 -158.72C-60.3762 -177.466 -100.276 -202.839 -164.01 -216.503" stroke="white" stroke-width="0.594233" stroke-miterlimit="10"/>
<path d="M1221.05 -96.0184C1169.49 -127.581 1115.51 -139.779 1064.55 -134.617C999.684 -128.033 969.269 -92.7112 906.493 -72.2309C829.692 -47.1663 792.563 -30.4183 733.258 -37.4788C636.879 -48.9552 558.974 -28.6982 478.047 -14.3901C386.505 1.79573 349.325 33.1175 281.82 6.49867C230.49 -13.7422 168.944 -20.8003 135.69 -27.9127C104.931 -34.4858 101.552 -38.9021 53.7455 -89.8891C1.69385 -145.409 -10.5047 -154.801 -33.794 -171.951C-59.3633 -190.753 -98.6702 -215.931 -162.364 -228.493" stroke="white" stroke-width="0.594233" stroke-miterlimit="10"/>
<path d="M1224.16 -109.397C1171.63 -142.052 1120.14 -152.549 1073.91 -147.787C1009.6 -141.159 981.291 -104.581 915.959 -83.9596C845.346 -61.6628 810.158 -51.4791 750.212 -57.739C646.816 -68.5405 563.543 -46.8414 476.516 -29.4755C378.405 -9.91635 338.615 21.7754 264.338 -0.964558C209.827 -17.6519 156.195 -27.5858 127.138 -36.0446C100.638 -43.7374 96.9799 -48.8423 48.3439 -103.935C-3.57238 -162.712 -14.0741 -171.113 -33.2036 -185.493C-58.242 -204.384 -96.8416 -229.312 -160.645 -240.794" stroke="white" stroke-width="0.594233" stroke-miterlimit="10"/>
<path d="M1227.56 -123.957C1174.04 -157.691 1125.07 -166.41 1083.55 -162.126C1019.81 -155.322 993.628 -117.496 925.698 -96.8563C861.29 -77.2808 828.035 -73.6912 767.426 -79.1703C657.034 -89.1499 568.36 -66.1723 475.312 -45.7164C370.738 -22.7587 329.023 3.02677 247.183 -9.58317C188.867 -18.5815 143.785 -35.5236 118.899 -45.3351C96.6106 -54.1299 92.6799 -59.9505 43.2519 -119.126C-8.53928 -181.176 -17.3701 -188.536 -32.2933 -200.164C-56.7384 -219.228 -94.7737 -243.841 -158.603 -254.238" stroke="white" stroke-width="0.594233" stroke-miterlimit="10"/>
<path d="M1230.92 -138.368C1176.44 -173.192 1129.95 -180.227 1093.14 -176.332C1029.97 -169.495 1005.98 -130.11 935.405 -109.618C877.206 -92.7207 845.905 -95.749 784.621 -100.464C667.219 -109.497 573.129 -85.3582 473.959 -61.8642C362.796 -35.5095 317.242 -7.67014 229.878 -18.1088C169.206 -25.3885 131.177 -43.2806 110.534 -54.5128C92.4412 -64.3995 88.1913 -70.9181 38.0377 -134.217C-13.7051 -199.517 -20.7427 -205.934 -31.5291 -214.755C-55.246 -234.146 -92.8448 -258.26 -156.714 -267.574" stroke="white" stroke-width="0.594233" stroke-miterlimit="10"/>
<path d="M1234.28 -152.794C1178.86 -188.688 1134.75 -194.076 1102.74 -190.537C1040.19 -183.655 1018.38 -142.487 945.112 -122.381C893.11 -108.107 863.788 -117.804 801.803 -121.761C677.427 -129.699 577.872 -104.494 472.669 -77.9838C354.92 -48.2453 305.408 -18.3234 212.637 -26.6061C149.389 -32.2607 118.567 -50.968 102.21 -63.6819C88.2539 -74.5323 83.7667 -81.8575 32.8637 -149.3C-18.841 -217.865 -24.0088 -223.364 -30.7008 -229.318C-53.3214 -249.459 -90.8455 -272.677 -154.754 -280.91" stroke="white" stroke-width="0.594233" stroke-miterlimit="10"/>
</g>
</g>
<defs>
<clipPath id="clip0_640_2046">
<rect width="1102.31" height="348.994" fill="white" transform="translate(1090.15 293.032) rotate(-171.155)"/>
</clipPath>
</defs>
</svg>
