<svg width="836" height="419" viewBox="0 0 836 419" fill="none" xmlns="http://www.w3.org/2000/svg">
<g opacity="0.2">
<path d="M106.869 -211.215C167.058 -188.528 215.238 -184.504 248.354 -185.108C281.843 -185.72 308.378 -191.243 347.791 -182.252C391.292 -172.401 415.085 -156.229 424.181 -149.171C436.79 -139.381 434.915 -137.694 454.535 -119.561C492.224 -84.7286 503.547 -86.8649 519.026 -68.2964C544.692 -37.5127 523.956 -19.1851 546.21 22.6676C562.323 52.9828 596.556 87.2883 638.694 94.8331C678.376 101.936 693.791 79.7116 732.364 93.8629C748.208 99.6755 759.346 108.799 781.613 127.041C810.171 150.377 827.221 170.517 834.279 178.101C855.181 200.581 893.707 226.795 971.194 238.884" stroke="url(#paint0_radial_601_2442)" stroke-miterlimit="10"/>
<path d="M102.771 -203.603C160.753 -181.152 209.247 -175.191 245.025 -175.125C274.163 -175.227 298.192 -179.102 327.368 -176.161C333.746 -175.512 340.387 -174.662 347.347 -173.346C391.203 -165.038 415.98 -151.184 426.165 -145.072C439.828 -136.883 439.08 -135.309 458.337 -117.599C471.914 -105.127 481.913 -96.9355 489.815 -90.9226C503.251 -80.7065 510.619 -76.9422 519.538 -65.3412C522.875 -61.0309 525.704 -56.3505 527.969 -51.3927C538.451 -28.4704 528.889 -10.2797 548.469 23.1368C565.512 52.2254 600.307 84.6416 641.775 91.9544C645.061 92.532 648.375 92.943 651.702 93.186C685.29 95.6237 700.89 79.2317 734.814 91.6271C738.391 92.9284 741.877 94.4671 745.25 96.2328C756.6 102.13 767.162 110.686 783.839 124.341C811.447 147.009 828.25 166.803 836.028 175.174C841.738 181.279 847.949 186.894 854.598 191.961C877.57 209.563 913.434 227.314 970.874 237.595" stroke="url(#paint1_radial_601_2442)" stroke-miterlimit="10"/>
<path d="M98.3473 -195.303C154.122 -173.112 202.92 -165.076 241.404 -164.526C271.963 -164.082 297.138 -168.203 326.068 -165.931C332.676 -165.422 339.5 -164.843 346.6 -163.753C390.815 -156.998 416.93 -146.3 427.854 -140.281C441.92 -132.508 442.964 -132.217 461.827 -114.954C475.029 -102.856 484.79 -94.2788 492.327 -87.9304C505.036 -77.2578 511.648 -73.1808 519.698 -61.7115C522.753 -57.3158 525.358 -52.6238 527.473 -47.7064C537.409 -25.1629 529.95 -7.33766 550.406 24.3279C568.384 52.181 603.742 82.708 644.539 89.7888C648.009 90.3552 651.249 90.8124 654.396 91.0086C688.974 93.6677 704.251 78.2276 736.931 90.1616C740.485 91.4419 743.95 92.9561 747.304 94.6942C758.878 100.622 769.46 109.09 785.699 122.482C812.382 144.45 828.908 163.917 837.457 172.991C843.122 179.044 849.264 184.633 855.824 189.703C878.507 207.32 913.913 225.601 970.194 237.021" stroke="url(#paint2_radial_601_2442)" stroke-miterlimit="10"/>
<path d="M93.6575 -186.423C147.208 -164.455 196.338 -154.474 237.496 -153.301C269.473 -152.399 295.801 -156.709 324.472 -155.125C331.318 -154.752 338.329 -154.43 345.557 -153.583C390.122 -148.363 416.691 -139.075 429.25 -134.923C444.784 -129.778 446.555 -128.557 465.033 -111.737C477.885 -100.021 487.405 -91.0502 494.621 -84.3452C506.599 -73.2292 512.465 -68.8135 519.649 -57.4848C522.389 -53.015 524.747 -48.3224 526.698 -43.4566C536.092 -21.3009 530.793 -3.82463 552.059 26.0475C571.006 52.6819 606.887 81.3117 647.019 88.1517C650.463 88.7055 653.685 89.1543 656.802 89.3687C692.372 92.1964 707.336 77.7563 738.797 89.132C742.33 90.3927 745.777 91.8838 749.116 93.5956C760.918 99.5448 771.547 107.96 787.342 121.032C813.087 142.283 829.357 161.423 838.635 171.266C844.277 177.257 850.359 182.82 856.829 187.907C879.224 205.538 914.168 224.358 969.284 236.904" stroke="url(#paint3_radial_601_2442)" stroke-miterlimit="10"/>
<path d="M88.9497 -177.529C140.294 -155.798 189.729 -143.861 233.574 -142.072C266.983 -140.716 294.458 -145.229 322.88 -144.305C329.955 -144.072 337.149 -144.021 344.517 -143.4C389.42 -139.688 416.789 -132.675 430.642 -129.533C447.01 -125.824 450.106 -124.882 468.234 -108.489C480.761 -97.1126 489.998 -87.7988 496.887 -80.7722C508.138 -69.2215 513.241 -64.4537 519.573 -53.2702C521.993 -48.7358 524.106 -44.0445 525.9 -39.2277C534.769 -17.4732 531.626 -0.337136 553.685 27.7989C573.607 53.2057 609.998 79.9429 649.469 86.5552C652.876 87.0922 656.081 87.5325 659.181 87.7604C695.748 90.7699 710.339 77.4097 740.615 88.1784C744.123 89.4326 747.551 90.9002 750.88 92.573C762.889 98.5443 773.516 106.872 788.938 119.658C813.754 140.219 829.755 159.035 839.774 169.621C845.38 175.562 851.398 181.101 857.783 186.195C879.894 203.854 914.384 223.195 968.337 236.89" stroke="url(#paint4_radial_601_2442)" stroke-miterlimit="10"/>
<path d="M85.795 -171.854C134.932 -150.359 184.677 -136.454 231.201 -134.052C266.037 -132.256 294.681 -136.993 322.837 -136.694C330.137 -136.615 337.515 -136.791 345.026 -136.427C390.25 -134.231 418.424 -129.436 433.564 -127.384C450.746 -125.043 455.254 -124.427 472.967 -108.481C482.742 -99.6631 491.99 -90.2775 500.664 -80.3732C511.219 -68.3841 515.532 -63.2549 521.006 -52.2734C523.39 -47.4652 524.896 -42.8367 526.69 -38.1789C535.052 -16.8609 534.045 0.00102852 556.891 26.3441C577.817 50.5272 614.697 75.3722 653.498 81.7525C656.879 82.2769 660.066 82.7089 663.139 82.946C700.7 86.1679 714.99 73.7374 744.022 84.0228C747.504 85.2632 750.909 86.7092 754.22 88.353C766.444 94.3726 777.1 102.595 792.099 115.039C815.991 134.878 831.722 153.393 842.474 164.717C848.05 170.61 854.012 176.125 860.32 181.225C882.138 198.907 916.157 218.782 968.954 233.608" stroke="url(#paint5_radial_601_2442)" stroke-miterlimit="10"/>
<path d="M83.4072 -167.879C130.337 -146.642 180.397 -130.778 229.599 -127.742C265.862 -125.505 295.666 -130.492 323.544 -130.748C331.081 -130.827 338.629 -131.247 346.285 -131.118C391.861 -130.392 420.846 -127.802 437.273 -126.86C455.22 -125.857 461.153 -125.615 478.489 -110.108C488.202 -101.419 497.157 -91.917 505.255 -81.7058C515.087 -69.3128 518.637 -63.7877 523.238 -52.9291C525.289 -48.1275 526.493 -43.4799 528.244 -38.7993C536.073 -17.843 537.29 -1.41887 560.861 23.22C582.818 46.1701 620.168 69.1365 658.303 75.276C661.649 75.7836 664.809 76.2029 667.874 76.4577C706.416 79.9186 720.419 68.4569 748.162 78.2598C751.625 79.4799 755.012 80.9028 758.307 82.5211C770.737 88.5629 781.431 96.7054 795.986 108.874C818.941 128.017 834.408 146.201 845.901 158.29C851.445 164.126 857.345 169.614 863.566 174.722C885.1 192.432 918.657 212.846 970.303 228.793" stroke="url(#paint6_radial_601_2442)" stroke-miterlimit="10"/>
<path d="M81.0132 -163.826C125.719 -142.813 176.092 -125.033 227.991 -121.353C265.677 -118.69 296.639 -123.949 324.265 -124.813C332.048 -125.067 339.784 -125.723 347.567 -125.815C393.468 -126.549 423.264 -126.121 440.982 -126.365C459.776 -126.617 467.057 -126.817 484.007 -111.754C493.655 -103.138 502.307 -93.4684 509.801 -82.9253C518.901 -70.1545 521.68 -64.194 525.445 -53.5159C527.133 -48.7246 528.065 -44.076 529.752 -39.3504C537.087 -18.8134 540.521 -2.74382 564.806 20.1648C587.811 41.8684 625.601 62.9524 663.035 68.8561C666.355 69.3511 669.498 69.762 672.541 70.0172C712.093 73.6553 725.734 63.1595 752.302 72.4251C755.738 73.6325 759.104 75.0307 762.384 76.6132C775.059 82.6414 785.752 90.7401 799.873 102.615C821.911 121.041 837.092 138.915 849.34 151.742C854.848 157.534 860.686 163.003 866.825 168.121C888.082 185.819 921.177 206.772 971.646 223.871" stroke="url(#paint7_radial_601_2442)" stroke-miterlimit="10"/>
<path d="M78.6011 -159.757C121.1 -138.981 171.787 -119.263 226.365 -114.949C265.482 -111.854 297.608 -117.395 324.964 -118.81C332.963 -119.221 340.884 -120.082 348.818 -120.47C395.054 -122.66 425.679 -124.384 444.677 -125.818C464.296 -127.325 472.943 -127.982 489.517 -113.357C499.098 -104.82 507.461 -95.0079 514.372 -84.1951C522.805 -71.0041 524.734 -64.6459 527.664 -54.1483C528.993 -49.3544 529.68 -44.7141 531.293 -39.9476C538.13 -19.8211 543.776 -4.14094 568.763 17.0639C592.846 37.503 631.051 56.7356 667.845 62.4112C671.138 62.8936 674.263 63.296 677.276 63.5694C717.819 67.4506 731.136 57.8849 756.486 66.6361C759.899 67.8315 763.246 69.2064 766.514 70.7551C779.412 76.7921 790.157 84.8504 803.834 96.4058C824.93 114.124 839.846 131.688 852.836 145.257C858.303 151.008 864.073 156.462 870.123 161.597C891.084 179.348 923.733 200.805 973.043 219.044" stroke="url(#paint8_radial_601_2442)" stroke-miterlimit="10"/>
<path d="M76.1994 -155.709C116.504 -135.196 167.527 -113.541 224.78 -108.584C265.367 -105.049 298.608 -110.905 325.704 -112.845C333.941 -113.436 342.036 -114.506 350.106 -115.134C396.655 -118.756 428.114 -122.62 448.406 -125.292C468.863 -127.994 478.866 -129.154 495.055 -114.973C504.564 -106.484 512.63 -96.5059 518.937 -85.4286C526.681 -71.8606 527.779 -65.0526 529.878 -54.7444C530.848 -49.9478 531.267 -45.3372 532.855 -40.4959C539.215 -20.7802 547.116 -5.53413 572.762 14.0116C597.932 33.1684 636.534 50.5632 672.667 56.011C675.925 56.4766 679.032 56.8707 682.007 57.2017C723.534 61.313 736.538 52.6817 760.643 60.9276C764.046 62.0955 767.382 63.4504 770.635 64.9861C783.723 71.1026 794.487 79.0072 807.794 90.246C827.957 107.26 842.6 124.51 856.34 138.826C861.301 144.004 866.929 149.466 873.467 155.068C894.139 172.834 926.326 194.829 974.471 214.194" stroke="url(#paint9_radial_601_2442)" stroke-miterlimit="10"/>
<path d="M73.8542 -151.784C111.904 -131.519 163.25 -107.922 223.19 -102.304C265.169 -98.3682 299.603 -104.524 326.444 -106.974C334.909 -107.75 343.185 -109.016 351.398 -109.9C398.296 -114.94 430.602 -120.926 452.121 -124.857C473.443 -128.806 484.767 -130.421 500.58 -116.679C510.028 -108.229 517.812 -98.0868 523.532 -86.7748C530.601 -72.8126 530.792 -65.5796 532.121 -55.4532C532.732 -50.6539 532.897 -46.0559 534.385 -41.1862C540.277 -21.8992 550.399 -7.03834 576.712 10.8088C603.025 28.6559 641.981 44.2357 677.444 49.4515C680.675 49.9044 683.765 50.2901 686.722 50.6127C729.244 54.9584 741.933 47.2614 764.833 55.0101C768.206 56.1564 771.513 57.487 774.74 58.9958C788.078 65.1336 798.836 72.9596 811.665 83.9057C830.907 100.211 845.264 117.151 859.758 132.206C864.702 137.353 870.281 142.781 876.709 148.386C897.093 166.166 928.822 188.691 975.803 209.204" stroke="url(#paint10_radial_601_2442)" stroke-miterlimit="10"/>
<path d="M71.5465 -147.909C107.408 -127.851 159.04 -102.373 221.664 -96.0857C265.093 -91.6879 300.653 -98.2288 327.222 -101.156C335.928 -102.12 344.38 -103.573 352.754 -104.706C399.988 -111.179 433.136 -119.258 455.899 -124.504C478.074 -129.586 490.78 -131.759 506.141 -118.481C516.341 -109.663 523.818 -97.9024 528.154 -88.2206C534.566 -73.8777 533.921 -66.1642 534.401 -56.2575C534.636 -51.4639 534.555 -46.8742 535.966 -41.9548C541.407 -23.1098 553.743 -8.69106 580.72 7.51C608.132 24.0046 647.482 37.821 682.275 42.8048C685.471 43.241 688.543 43.6182 691.491 43.9366C735.002 48.5036 747.368 41.7367 769.015 48.976C772.367 50.1055 775.656 51.413 778.868 52.8928C792.416 59.022 803.199 66.795 815.65 77.4639C833.96 93.0653 848.017 109.678 863.261 125.48C868.191 130.589 873.713 136 880.031 141.585C900.131 159.392 931.402 182.448 977.227 204.07" stroke="url(#paint11_radial_601_2442)" stroke-miterlimit="10"/>
<path d="M69.2518 -144.088C102.902 -124.258 154.867 -96.9959 220.155 -89.9292C264.999 -85.2484 301.72 -91.9961 328.047 -95.4175C336.981 -96.5873 345.631 -98.2069 354.114 -99.613C401.693 -107.45 435.727 -117.687 459.7 -124.179C482.754 -130.425 496.718 -133.148 511.778 -120.284C521.638 -111.823 528.894 -99.7341 532.844 -89.6726C538.598 -74.949 537.024 -66.81 536.739 -57.0721C536.623 -52.2716 536.289 -47.7163 537.63 -42.7431C542.599 -24.2959 557.207 -10.3684 584.801 4.26194C613.367 19.3985 653.055 31.457 687.183 36.2001C690.352 36.6309 693.404 36.9983 696.337 37.3024C740.842 42.1256 752.893 36.2712 773.305 43.0095C776.634 44.1159 779.902 45.3989 783.095 46.853C796.862 52.9999 807.675 60.711 819.708 71.0729C837.08 85.9572 850.86 102.309 866.881 118.826C871.788 123.913 877.257 129.278 883.478 134.86C903.285 152.691 934.098 176.276 978.756 199.055" stroke="url(#paint12_radial_601_2442)" stroke-miterlimit="10"/>
<path d="M66.9894 -140.332C98.4282 -120.752 150.716 -91.548 218.679 -83.8379C264.954 -78.7256 302.841 -85.8509 328.892 -89.7178C338.046 -91.0758 346.876 -92.8916 355.511 -94.5502C403.435 -103.773 438.382 -116.112 463.528 -123.932C487.483 -131.343 502.758 -134.634 517.393 -122.222C526.926 -114.122 533.966 -101.692 537.503 -91.2411C542.617 -76.1284 540.107 -67.5462 539.034 -57.9986C538.511 -53.2075 537.979 -48.6483 539.238 -43.6385C543.823 -25.5908 560.268 -11.2662 588.899 0.88767C619 13.6649 658.646 24.9669 692.113 29.4822C695.253 29.899 698.284 30.2566 701.205 30.5551C746.689 35.6917 758.437 30.6795 777.612 36.9167C780.92 38.0088 784.168 39.2716 787.345 40.7002C801.327 46.8734 812.204 54.5176 823.784 64.5339C840.166 78.7416 853.683 94.8488 870.47 112.056C875.359 117.113 880.775 122.452 886.882 128.023C906.405 145.882 936.76 169.997 980.249 193.911" stroke="url(#paint13_radial_601_2442)" stroke-miterlimit="10"/>
<path d="M64.711 -136.637C93.9514 -117.311 146.545 -86.1513 217.186 -77.8067C264.893 -72.2629 303.888 -79.7822 329.729 -84.1177C339.137 -85.669 348.134 -87.6544 356.913 -89.6136C405.211 -100.241 440.984 -114.657 467.37 -123.784C492.253 -132.326 508.831 -136.124 523.103 -124.156C532.3 -116.422 539.128 -103.659 542.261 -92.815C546.743 -77.3308 543.269 -68.3182 541.467 -58.9444C540.554 -54.1544 539.812 -49.6086 540.989 -44.5402C545.083 -26.9426 564.128 -14.0264 593.012 -2.54297C623.825 9.73862 664.243 18.4161 697.04 22.6995C700.112 23.0767 703.184 23.454 706.07 23.743C752.543 29.1009 763.99 25.0184 781.926 30.7635C785.211 31.8319 788.438 33.0703 791.595 34.4737C805.797 40.6645 816.659 48.2258 827.848 57.9695C843.362 71.4501 856.592 87.1821 874.099 105.176C878.979 110.207 884.371 115.481 890.371 121.098C909.626 138.927 939.511 163.621 981.796 188.653" stroke="url(#paint14_radial_601_2442)" stroke-miterlimit="10"/>
<path d="M62.5329 -132.947C89.5492 -113.844 142.456 -80.769 215.79 -71.7726C264.963 -65.7805 305.061 -73.7506 330.627 -78.5097C340.232 -80.2926 349.454 -82.4094 358.351 -84.616C407.018 -96.4981 443.684 -113.178 471.199 -123.632C496.99 -133.378 514.802 -137.717 528.75 -126.141C537.612 -118.772 544.245 -105.668 546.97 -94.4444C550.804 -78.5316 546.374 -69.1499 543.833 -59.9323C542.5 -55.1472 541.569 -50.6151 542.659 -45.5013C546.325 -28.3243 567.635 -15.978 597.107 -6.00344C629.044 4.85069 669.84 11.844 701.962 15.8823C705.034 16.2596 708.044 16.6074 710.897 16.9671C758.367 22.5505 769.499 19.3585 786.208 24.6068C789.488 25.6797 792.71 26.9227 795.86 28.3305C809.059 34.0092 821.237 41.8149 831.909 51.4364C846.49 64.213 859.446 79.6308 877.703 98.3722C882.569 103.364 887.887 108.635 893.767 114.206C921.338 140.079 951.312 163.266 983.282 183.453" stroke="url(#paint15_radial_601_2442)" stroke-miterlimit="10"/>
<path d="M60.3238 -129.304C85.1334 -110.438 138.355 -75.4249 214.366 -65.7939C264.936 -59.3872 306.174 -67.7256 331.556 -72.9189C444.24 -96.0267 503.719 -153.403 534.481 -128.14C543.007 -121.137 549.445 -107.692 551.749 -96.0831C556.677 -71.3045 541.485 -61.5137 544.409 -46.4673C551.571 -9.57078 656.729 3.04082 715.827 10.1332C773.451 17.0444 777.849 12.536 800.119 22.0439C839.002 38.6189 851.543 63.3657 897.238 107.252C924.431 133.294 953.748 157.025 984.882 178.199" stroke="url(#paint16_radial_601_2442)" stroke-miterlimit="10"/>
<path d="M59.1216 -126.776C84.4084 -107.022 136.19 -73.5393 208.87 -64.3548C259.056 -58.0544 299.109 -67.2275 326.206 -72.494C434.414 -93.4603 489.829 -145.551 522.654 -122.938C535.48 -114.106 547.455 -102.938 553.509 -91.6698C565.398 -69.5195 552.88 -60.7227 558.37 -44.9213C570.382 -10.3137 667.516 3.44548 723.502 10.7918C778.064 17.8947 782.042 14.454 804.717 26.3225C842.397 46.0427 854.872 68.6017 897.766 110.267C924.53 136.256 953.681 159.668 984.834 180.192" stroke="url(#paint17_radial_601_2442)" stroke-miterlimit="10"/>
<path d="M57.8685 -124.143C99.8734 -90.8502 150.165 -69.6479 203.327 -62.8191C253.126 -56.6161 291.949 -66.6668 320.809 -71.9725C424.507 -90.998 476.754 -138.548 510.789 -117.635C528.055 -107.017 544.931 -98.3837 555.217 -87.1511C572.881 -67.9121 563.954 -60.1273 572.28 -43.2698C588.198 -11.0857 678.256 3.94673 731.138 11.5512C782.561 18.8079 786.168 16.3508 809.277 30.7018C845.745 53.3353 858.114 74.0227 898.243 113.387C924.572 139.311 953.549 162.4 984.699 182.274" stroke="url(#paint18_radial_601_2442)" stroke-miterlimit="10"/>
<path d="M55.6411 -119.458C96.2106 -86.6887 145.087 -65.8363 196.818 -59.2278C246.225 -53.1353 283.827 -64.0594 314.438 -69.3996C413.521 -86.6749 460.048 -123.246 497.94 -110.285C521.645 -102.176 541.019 -91.6608 555.965 -80.5857C578.552 -63.8604 573.794 -57.5936 585.23 -39.5716C604.161 -9.73659 687.997 6.59616 737.792 14.3578C786.103 21.8903 789.322 20.2027 812.859 37.1195C848.172 62.4988 860.38 81.4732 897.759 118.554C923.65 144.428 952.463 167.203 983.617 186.419" stroke="url(#paint19_radial_601_2442)" stroke-miterlimit="10"/>
<path d="M52.2486 -112.325C91.3819 -80.0859 138.848 -59.5926 189.148 -53.2185C238.176 -47.2411 274.548 -59.0428 306.914 -64.4044C401.376 -80.052 445.481 -112.171 483.948 -100.509C512.523 -91.8387 538.987 -86.7739 555.55 -71.6022C578.342 -50.7262 579.072 -49.6855 597.017 -33.4553C613.115 -2.37806 696.59 11.6371 743.302 19.5908C788.504 27.3247 791.349 26.4018 815.292 45.9724C849.497 73.9347 861.468 91.3771 896.113 126.139C921.57 151.96 950.223 174.421 981.378 192.974" stroke="url(#paint20_radial_601_2442)" stroke-miterlimit="10"/>
<path d="M48.7757 -105.024C86.4674 -73.3091 132.512 -53.1484 181.382 -46.9622C230.023 -41.0822 265.168 -53.7923 299.294 -59.1623C389.105 -73.3042 430.961 -101.378 469.798 -90.5149C503.273 -81.1402 533.039 -77.3662 555.036 -62.3629C583.401 -43.0196 587.006 -43.6028 608.705 -27.0833C627.04 2.47892 705.093 16.8417 748.653 25.0414C790.746 32.9767 793.268 32.7343 817.567 55.0429C850.774 85.4897 862.39 101.516 894.318 133.945C919.34 159.715 947.839 181.864 978.989 199.75" stroke="url(#paint21_radial_601_2442)" stroke-miterlimit="10"/>
<path d="M45.2374 -97.5827C81.4883 -66.4198 126.107 -46.6121 173.535 -40.6273C221.794 -34.8536 255.695 -48.4805 291.594 -53.8416C376.762 -66.5611 416.47 -90.8008 455.683 -80.3877C493.914 -70.2356 524.869 -62.1027 554.446 -53.054C590.968 -41.883 594.868 -37.4593 620.316 -20.6415C640.908 7.47962 713.535 22.177 754.04 30.6251C793.024 38.7617 795.247 39.147 819.878 64.2465C852.054 97.0427 863.312 111.815 892.51 141.873C917.102 167.588 945.45 189.428 976.587 206.648" stroke="url(#paint22_radial_601_2442)" stroke-miterlimit="10"/>
<path d="M41.6506 -90.0432C70.0299 -64.873 112.936 -40.532 165.663 -34.1722C213.523 -28.4038 246.196 -43.0703 283.859 -48.4049C364.356 -59.8022 402.005 -80.3281 441.471 -70.174C484.497 -59.0962 519.382 -51.6844 553.829 -43.6247C595.089 -33.9831 605.924 -35.7989 631.902 -14.0795C658.819 8.42269 721.912 27.6465 759.33 36.2955C795.21 44.6247 797.164 45.6194 822.095 73.528C853.403 108.653 864.138 122.223 890.697 149.92C907.209 167.138 932.846 191.578 974.181 213.665" stroke="url(#paint23_radial_601_2442)" stroke-miterlimit="10"/>
<path d="M38.0012 -82.3692C66.9014 -56.3118 108.324 -33.5001 157.724 -27.5957C205.196 -21.9248 236.633 -37.5695 276.066 -42.8427C351.872 -52.9917 387.416 -69.9344 427.209 -59.8305C474.984 -47.708 513.891 -41.0496 553.146 -34.0741C599.228 -25.8891 613.454 -29.5711 643.42 -7.39612C671.97 13.7692 730.255 33.1665 764.57 42.0956C797.363 50.6257 799.162 52.1313 824.259 82.948C854.727 120.34 864.871 132.783 888.782 158.072C904.977 175.204 930.163 199.43 971.667 220.795" stroke="url(#paint24_radial_601_2442)" stroke-miterlimit="10"/>
<path d="M34.3106 -74.609C63.7373 -47.6076 103.671 -26.382 149.739 -20.9242C196.824 -15.3507 227.011 -31.9908 268.228 -37.1854C339.342 -46.1518 372.824 -59.534 412.894 -49.3961C465.415 -36.1107 508.386 -30.2722 552.417 -24.4284C603.387 -17.6575 620.85 -23.0407 654.893 -0.61765C685.099 19.2761 738.532 38.8259 769.757 47.9867C799.418 56.6748 801.118 58.7296 826.369 92.459C856.067 132.107 865.537 143.461 886.822 166.319C902.704 183.378 927.406 207.417 969.113 228.012" stroke="url(#paint25_radial_601_2442)" stroke-miterlimit="10"/>
<path d="M30.5657 -66.7349C60.4863 -38.8808 98.9765 -19.1547 141.703 -14.1477C188.406 -8.68047 217.338 -26.351 260.339 -31.423C326.747 -39.2679 359.617 -53.6887 398.536 -38.8525C453.715 -17.8223 502.853 -19.3685 551.638 -14.6778C607.528 -9.29531 634.194 -24.1849 666.315 6.26577C693.133 31.7337 746.748 44.5204 774.901 53.9869C801.436 62.8679 803.067 65.41 828.441 102.07C857.413 143.953 866.118 154.271 884.811 174.671C900.368 191.662 924.615 215.495 966.504 235.343" stroke="url(#paint26_radial_601_2442)" stroke-miterlimit="10"/>
<path d="M26.699 -58.6035C57.1322 -29.8444 94.1598 -11.6918 133.53 -7.05645C179.841 -1.69974 207.517 -20.4443 252.303 -25.3502C314.044 -32.1093 344.567 -42.3467 384.024 -28.0027C444.095 -6.18445 497.205 -8.12848 550.721 -4.61239C611.566 -0.60155 640.172 -16.3787 677.6 13.464C707.285 37.1418 754.851 50.6168 779.891 60.2934C803.32 69.3451 804.957 72.3993 830.354 111.997C858.656 156.108 866.54 165.417 882.663 183.338C897.881 200.266 921.681 223.876 963.762 242.979" stroke="url(#paint27_radial_601_2442)" stroke-miterlimit="10"/>
<path d="M22.5875 -49.9598C53.5244 -20.3001 89.0726 -3.68568 125.15 0.445467C171.077 5.6959 197.488 -14.1708 244.069 -18.8625C301.058 -24.6086 329.309 -30.594 369.321 -16.7337C434.344 5.79246 491.371 3.54361 549.592 5.87249C615.449 8.50621 645.94 -7.56639 688.673 21.0816C721.167 42.8653 762.731 57.0628 784.69 67.019C805.001 76.2241 806.674 79.7942 832.077 122.342C859.735 168.672 866.764 177.023 880.302 192.425C895.17 209.315 918.589 232.701 960.808 251.035" stroke="url(#paint28_radial_601_2442)" stroke-miterlimit="10"/>
<path d="M18.4033 -41.1636C49.8528 -10.599 83.93 4.45961 116.671 8.15302C162.22 13.2883 187.364 -7.7661 235.737 -12.1691C288.021 -16.9338 313.935 -18.6659 354.512 -5.26329C424.498 17.8568 485.462 15.4209 548.369 16.5542C619.287 17.8449 651.642 1.91066 699.653 28.8961C734.887 48.6995 770.535 63.6921 789.382 73.9461C806.575 83.2826 808.337 87.372 833.693 132.889C860.765 181.455 866.768 188.862 877.844 201.717C892.331 218.588 915.297 241.694 957.756 259.297" stroke="url(#paint29_radial_601_2442)" stroke-miterlimit="10"/>
<path d="M13.8512 -31.5921C45.8174 -0.131382 78.4181 13.3146 107.829 16.627C153.01 21.5551 176.866 -0.686667 227.041 -4.70931C274.616 -8.52747 298.193 -5.98439 339.347 6.97778C414.304 30.5866 479.202 28.0819 546.748 27.9855C622.656 27.8995 655.451 16.3477 710.233 37.4602C749.266 52.5131 777.931 71.0669 793.685 81.627C807.793 91.09 809.636 95.7162 834.923 144.181C861.413 194.995 866.417 201.429 874.995 211.741C889.044 228.643 911.668 251.444 954.309 268.3" stroke="url(#paint30_radial_601_2442)" stroke-miterlimit="10"/>
<path d="M9.34441 -22.1159C41.8143 10.2455 72.9486 22.1486 99.0366 25.0187C143.826 29.8363 166.401 6.18377 218.386 2.66397C261.255 -0.238409 282.478 6.5933 324.215 19.1281C404.171 43.1418 472.996 40.6518 545.242 39.377C626.228 37.9344 661.993 25.5405 720.929 45.9844C761.855 60.2032 785.49 78.3483 798.09 89.2507C809.127 98.8355 811.085 103.994 836.252 155.425C862.217 208.482 866.121 213.992 872.258 221.733C885.754 238.752 908.151 261.142 950.983 277.253" stroke="url(#paint31_radial_601_2442)" stroke-miterlimit="10"/>
<path d="M4.83455 -12.633C37.7947 20.6118 67.5291 31.0146 90.2366 33.4041C134.608 38.0986 155.944 12.8813 209.733 10.0352C247.912 8.01322 266.756 19.1648 309.093 31.2806C394.045 55.5899 466.817 53.1884 543.698 50.7366C629.758 47.9463 668.58 34.7084 731.587 54.4768C774.543 67.9595 793.063 85.5793 802.47 96.8598C810.496 106.486 812.496 112.239 837.556 166.654C863 221.967 865.748 226.558 869.483 231.694C882.105 249.067 904.586 270.825 947.609 286.193" stroke="url(#paint32_radial_601_2442)" stroke-miterlimit="10"/>
</g>
<defs>
<radialGradient id="paint0_radial_601_2442" cx="0" cy="0" r="1" gradientUnits="userSpaceOnUse" gradientTransform="translate(553.416 -16.4089) rotate(115.436) scale(67.5289 486.93)">
<stop offset="0.530015" stop-color="#8E72DA"/>
<stop offset="1" stop-color="#C981B3"/>
</radialGradient>
<radialGradient id="paint1_radial_601_2442" cx="0" cy="0" r="1" gradientUnits="userSpaceOnUse" gradientTransform="translate(552.53 -16.0293) rotate(115.436) scale(63.1311 486.725)">
<stop offset="0.530015" stop-color="#8E72DA"/>
<stop offset="1" stop-color="#C981B3"/>
</radialGradient>
<radialGradient id="paint2_radial_601_2442" cx="0" cy="0" r="1" gradientUnits="userSpaceOnUse" gradientTransform="translate(551.632 -15.6441) rotate(115.436) scale(59.5459 486.51)">
<stop offset="0.530015" stop-color="#8E72DA"/>
<stop offset="1" stop-color="#C981B3"/>
</radialGradient>
<radialGradient id="paint3_radial_601_2442" cx="0" cy="0" r="1" gradientUnits="userSpaceOnUse" gradientTransform="translate(550.726 -15.2439) rotate(115.436) scale(56.9724 486.284)">
<stop offset="0.530015" stop-color="#8E72DA"/>
<stop offset="1" stop-color="#C981B3"/>
</radialGradient>
<radialGradient id="paint4_radial_601_2442" cx="0" cy="0" r="1" gradientUnits="userSpaceOnUse" gradientTransform="translate(549.844 -14.8956) rotate(115.436) scale(54.9603 486.069)">
<stop offset="0.530015" stop-color="#8E72DA"/>
<stop offset="1" stop-color="#C981B3"/>
</radialGradient>
<radialGradient id="paint5_radial_601_2442" cx="0" cy="0" r="1" gradientUnits="userSpaceOnUse" gradientTransform="translate(548.959 -14.5046) rotate(115.436) scale(56.8349 485.849)">
<stop offset="0.530015" stop-color="#8E72DA"/>
<stop offset="1" stop-color="#C981B3"/>
</radialGradient>
<radialGradient id="paint6_radial_601_2442" cx="0" cy="0" r="1" gradientUnits="userSpaceOnUse" gradientTransform="translate(548.051 -14.1094) rotate(115.436) scale(60.7038 485.648)">
<stop offset="0.530015" stop-color="#8E72DA"/>
<stop offset="1" stop-color="#C981B3"/>
</radialGradient>
<radialGradient id="paint7_radial_601_2442" cx="0" cy="0" r="1" gradientUnits="userSpaceOnUse" gradientTransform="translate(547.149 -13.7525) rotate(115.436) scale(64.6821 485.408)">
<stop offset="0.530015" stop-color="#8E72DA"/>
<stop offset="1" stop-color="#C981B3"/>
</radialGradient>
<radialGradient id="paint8_radial_601_2442" cx="0" cy="0" r="1" gradientUnits="userSpaceOnUse" gradientTransform="translate(546.282 -13.3758) rotate(115.436) scale(68.7214 485.218)">
<stop offset="0.530015" stop-color="#8E72DA"/>
<stop offset="1" stop-color="#C981B3"/>
</radialGradient>
<radialGradient id="paint9_radial_601_2442" cx="0" cy="0" r="1" gradientUnits="userSpaceOnUse" gradientTransform="translate(545.412 -12.9693) rotate(115.436) scale(72.8873 485.037)">
<stop offset="0.530015" stop-color="#8E72DA"/>
<stop offset="1" stop-color="#C981B3"/>
</radialGradient>
<radialGradient id="paint10_radial_601_2442" cx="0" cy="0" r="1" gradientUnits="userSpaceOnUse" gradientTransform="translate(544.484 -12.6169) rotate(115.436) scale(77.1789 484.782)">
<stop offset="0.530015" stop-color="#8E72DA"/>
<stop offset="1" stop-color="#C981B3"/>
</radialGradient>
<radialGradient id="paint11_radial_601_2442" cx="0" cy="0" r="1" gradientUnits="userSpaceOnUse" gradientTransform="translate(543.569 -12.2509) rotate(115.436) scale(81.6214 484.532)">
<stop offset="0.530015" stop-color="#8E72DA"/>
<stop offset="1" stop-color="#C981B3"/>
</radialGradient>
<radialGradient id="paint12_radial_601_2442" cx="0" cy="0" r="1" gradientUnits="userSpaceOnUse" gradientTransform="translate(542.708 -11.8429) rotate(115.436) scale(86.1535 484.361)">
<stop offset="0.530015" stop-color="#8E72DA"/>
<stop offset="1" stop-color="#C981B3"/>
</radialGradient>
<radialGradient id="paint13_radial_601_2442" cx="0" cy="0" r="1" gradientUnits="userSpaceOnUse" gradientTransform="translate(541.819 -11.4775) rotate(115.436) scale(90.8123 484.146)">
<stop offset="0.530015" stop-color="#8E72DA"/>
<stop offset="1" stop-color="#C981B3"/>
</radialGradient>
<radialGradient id="paint14_radial_601_2442" cx="0" cy="0" r="1" gradientUnits="userSpaceOnUse" gradientTransform="translate(540.908 -11.1126) rotate(115.436) scale(95.5441 483.95)">
<stop offset="0.530015" stop-color="#8E72DA"/>
<stop offset="1" stop-color="#C981B3"/>
</radialGradient>
<radialGradient id="paint15_radial_601_2442" cx="0" cy="0" r="1" gradientUnits="userSpaceOnUse" gradientTransform="translate(540.019 -10.7257) rotate(115.436) scale(100.341 483.696)">
<stop offset="0.530015" stop-color="#8E72DA"/>
<stop offset="1" stop-color="#C981B3"/>
</radialGradient>
<radialGradient id="paint16_radial_601_2442" cx="0" cy="0" r="1" gradientUnits="userSpaceOnUse" gradientTransform="translate(539.147 -10.3365) rotate(115.436) scale(105.192 483.505)">
<stop offset="0.530015" stop-color="#8E72DA"/>
<stop offset="1" stop-color="#C981B3"/>
</radialGradient>
<radialGradient id="paint17_radial_601_2442" cx="0" cy="0" r="1" gradientUnits="userSpaceOnUse" gradientTransform="translate(536.665 -4.17318) rotate(115.436) scale(101.629 483.911)">
<stop offset="0.530015" stop-color="#8E72DA"/>
<stop offset="1" stop-color="#C981B3"/>
</radialGradient>
<radialGradient id="paint18_radial_601_2442" cx="0" cy="0" r="1" gradientUnits="userSpaceOnUse" gradientTransform="translate(534.165 1.98302) rotate(115.436) scale(98.1811 484.298)">
<stop offset="0.530015" stop-color="#8E72DA"/>
<stop offset="1" stop-color="#C981B3"/>
</radialGradient>
<radialGradient id="paint19_radial_601_2442" cx="0" cy="0" r="1" gradientUnits="userSpaceOnUse" gradientTransform="translate(531.679 8.14564) rotate(115.436) scale(96.9944 484.699)">
<stop offset="0.530015" stop-color="#8E72DA"/>
<stop offset="1" stop-color="#C981B3"/>
</radialGradient>
<radialGradient id="paint20_radial_601_2442" cx="0" cy="0" r="1" gradientUnits="userSpaceOnUse" gradientTransform="translate(529.199 14.2824) rotate(115.436) scale(98.5426 485.095)">
<stop offset="0.530015" stop-color="#8E72DA"/>
<stop offset="1" stop-color="#C981B3"/>
</radialGradient>
<radialGradient id="paint21_radial_601_2442" cx="0" cy="0" r="1" gradientUnits="userSpaceOnUse" gradientTransform="translate(526.678 20.4586) rotate(115.436) scale(100.253 485.472)">
<stop offset="0.530015" stop-color="#8E72DA"/>
<stop offset="1" stop-color="#C981B3"/>
</radialGradient>
<radialGradient id="paint22_radial_601_2442" cx="0" cy="0" r="1" gradientUnits="userSpaceOnUse" gradientTransform="translate(524.189 26.6173) rotate(115.436) scale(102.127 485.868)">
<stop offset="0.530015" stop-color="#8E72DA"/>
<stop offset="1" stop-color="#C981B3"/>
</radialGradient>
<radialGradient id="paint23_radial_601_2442" cx="0" cy="0" r="1" gradientUnits="userSpaceOnUse" gradientTransform="translate(521.716 32.795) rotate(115.436) scale(104.149 486.289)">
<stop offset="0.530015" stop-color="#8E72DA"/>
<stop offset="1" stop-color="#C981B3"/>
</radialGradient>
<radialGradient id="paint24_radial_601_2442" cx="0" cy="0" r="1" gradientUnits="userSpaceOnUse" gradientTransform="translate(519.227 38.952) rotate(115.436) scale(106.279 486.686)">
<stop offset="0.530015" stop-color="#8E72DA"/>
<stop offset="1" stop-color="#C981B3"/>
</radialGradient>
<radialGradient id="paint25_radial_601_2442" cx="0" cy="0" r="1" gradientUnits="userSpaceOnUse" gradientTransform="translate(516.737 45.1109) rotate(115.436) scale(108.521 487.082)">
<stop offset="0.530015" stop-color="#8E72DA"/>
<stop offset="1" stop-color="#C981B3"/>
</radialGradient>
<radialGradient id="paint26_radial_601_2442" cx="0" cy="0" r="1" gradientUnits="userSpaceOnUse" gradientTransform="translate(514.246 51.2714) rotate(115.436) scale(110.857 487.478)">
<stop offset="0.530015" stop-color="#8E72DA"/>
<stop offset="1" stop-color="#C981B3"/>
</radialGradient>
<radialGradient id="paint27_radial_601_2442" cx="0" cy="0" r="1" gradientUnits="userSpaceOnUse" gradientTransform="translate(511.751 57.4522) rotate(115.436) scale(113.474 487.88)">
<stop offset="0.530015" stop-color="#8E72DA"/>
<stop offset="1" stop-color="#C981B3"/>
</radialGradient>
<radialGradient id="paint28_radial_601_2442" cx="0" cy="0" r="1" gradientUnits="userSpaceOnUse" gradientTransform="translate(509.269 63.5922) rotate(115.436) scale(116.701 488.276)">
<stop offset="0.530015" stop-color="#8E72DA"/>
<stop offset="1" stop-color="#C981B3"/>
</radialGradient>
<radialGradient id="paint29_radial_601_2442" cx="0" cy="0" r="1" gradientUnits="userSpaceOnUse" gradientTransform="translate(506.777 69.7535) rotate(115.436) scale(120.073 488.673)">
<stop offset="0.530015" stop-color="#8E72DA"/>
<stop offset="1" stop-color="#C981B3"/>
</radialGradient>
<radialGradient id="paint30_radial_601_2442" cx="0" cy="0" r="1" gradientUnits="userSpaceOnUse" gradientTransform="translate(504.269 75.9058) rotate(115.436) scale(124.278 489.049)">
<stop offset="0.530015" stop-color="#8E72DA"/>
<stop offset="1" stop-color="#C981B3"/>
</radialGradient>
<radialGradient id="paint31_radial_601_2442" cx="0" cy="0" r="1" gradientUnits="userSpaceOnUse" gradientTransform="translate(501.8 82.0776) rotate(115.436) scale(128.407 489.47)">
<stop offset="0.530015" stop-color="#8E72DA"/>
<stop offset="1" stop-color="#C981B3"/>
</radialGradient>
<radialGradient id="paint32_radial_601_2442" cx="0" cy="0" r="1" gradientUnits="userSpaceOnUse" gradientTransform="translate(499.309 88.2369) rotate(115.436) scale(132.542 489.867)">
<stop offset="0.530015" stop-color="#8E72DA"/>
<stop offset="1" stop-color="#C981B3"/>
</radialGradient>
</defs>
</svg>
