<svg width="48" height="48" viewBox="0 0 48 48" fill="none" xmlns="http://www.w3.org/2000/svg">
<g clip-path="url(#clip0_647_4723)">
<path d="M39.6098 25.37C39.224 25.37 38.9112 25.6827 38.9112 26.0685C38.9112 26.5576 38.5134 26.9555 38.0243 26.9555C37.5353 26.9555 37.1373 26.5576 37.1373 26.0685C37.1373 25.6827 36.8245 25.37 36.4388 25.37C36.053 25.37 35.7402 25.6827 35.7402 26.0685C35.7402 27.328 36.7649 28.3526 38.0243 28.3526C39.2836 28.3526 40.3083 27.3279 40.3083 26.0685C40.3083 25.6826 39.9955 25.37 39.6098 25.37Z" fill="white"/>
<path d="M46.1666 25.484L44.2005 24.8542C43.9487 24.7735 43.7502 24.5725 43.6697 24.3165C43.2553 22.999 42.63 21.7621 41.8111 20.6401C41.4379 20.1287 41.0228 19.6404 40.5695 19.1755C40.8595 17.903 41.0172 16.4629 40.9968 15.2188C40.9675 13.4389 40.6118 12.395 39.9095 12.0271C39.5312 11.8288 38.3799 11.2261 32.1487 14.0786C32.0011 14.1461 31.8633 14.2292 31.7357 14.3245C31.3156 14.2116 30.8862 14.1072 30.4542 14.0134C30.4022 14.0021 30.3486 13.9921 30.2962 13.981C30.8011 12.8779 31.0959 11.6799 31.1513 10.4431C31.1686 10.0576 30.8702 9.73121 30.4847 9.71405C30.1002 9.69493 29.7728 9.99512 29.7556 10.3806C29.6646 12.4141 28.821 14.3275 27.3804 15.7681C26.5197 16.6289 25.5119 17.2541 24.4378 17.6478C22.5751 17.3865 20.6778 17.3865 18.8151 17.6478C17.7409 17.2541 16.7332 16.6289 15.8724 15.7681C14.3355 14.2312 13.489 12.1877 13.489 10.0141C13.489 7.84046 14.3355 5.79709 15.8724 4.26015C17.4094 2.72312 19.4529 1.87665 21.6264 1.87665C23.7999 1.87665 25.8435 2.72312 27.3804 4.26015C27.9981 4.87777 28.5084 5.58259 28.8974 6.3548C29.0709 6.69943 29.491 6.83818 29.8356 6.66455C30.1802 6.49112 30.3188 6.07102 30.1453 5.72649C29.6894 4.82096 29.0916 3.9953 28.3685 3.27212C26.5676 1.47127 24.1733 0.479492 21.6265 0.479492C19.0798 0.479492 16.6854 1.47127 14.8846 3.27212C13.0837 5.07305 12.092 7.46734 12.092 10.0141C12.092 12.5608 13.0837 14.9551 14.8846 16.756C15.4041 17.2755 15.9692 17.7222 16.5669 18.0964C16.5671 18.0964 16.5673 18.0963 16.5675 18.0963C16.1332 18.2092 15.7021 18.336 15.2758 18.4785C14.9099 18.6008 14.7125 18.9965 14.8348 19.3625C14.9571 19.7284 15.353 19.9259 15.7188 19.8036C19.5284 18.53 23.7247 18.53 27.5343 19.8036C27.6078 19.8282 27.6824 19.8398 27.7558 19.8398C28.048 19.8398 28.3205 19.6549 28.4182 19.3625C28.5406 18.9966 28.3432 18.6008 27.9773 18.4785C27.551 18.336 27.1199 18.2091 26.6856 18.0963C26.6857 18.0963 26.6859 18.0964 26.6861 18.0964C27.284 17.7222 27.849 17.2755 28.3685 16.756C28.828 16.2964 29.2337 15.7946 29.5859 15.2612C29.7785 15.2986 29.9696 15.3378 30.158 15.3787C30.4088 15.4332 30.6586 15.4917 30.9061 15.5531C30.8983 15.5835 30.8903 15.6137 30.8839 15.6446C30.5432 17.2613 30.5653 18.6912 30.9496 19.8943C31.295 20.9757 31.9183 21.8518 32.8021 22.4984C33.8438 23.2604 35.1013 23.5895 36.2405 23.5895C37.0978 23.5895 37.8882 23.403 38.4687 23.0742C39.1253 22.7023 39.6755 21.9186 40.1109 20.7421C40.3122 20.977 40.503 21.2176 40.6828 21.464C41.4119 22.4628 41.9685 23.5636 42.3371 24.7357C42.5536 25.4241 43.091 25.9658 43.7745 26.1849L45.7406 26.8147C46.2565 26.98 46.6031 27.4548 46.6031 27.9965V31.2567C46.6031 31.7984 46.2565 32.2732 45.7406 32.4385L42.5729 33.4532C42.0661 33.6156 41.6372 33.9639 41.3652 34.434C40.1207 36.5848 38.164 38.3646 35.5492 39.7241C35.2472 39.8813 35.0379 40.1625 34.9749 40.4957L33.9604 45.8678C33.9323 46.0158 33.8027 46.1232 33.652 46.1232H30.3533C30.2026 46.1232 30.0729 46.0157 30.0449 45.8678L29.483 42.8988C29.3723 42.3147 28.8245 41.9266 28.2348 42.016C26.8138 42.2309 25.3496 42.3397 23.8831 42.3397C22.792 42.3397 21.7149 42.2789 20.6815 42.1588C20.1101 42.0931 19.5778 42.4826 19.471 43.0468L18.937 45.8678C18.909 46.0158 18.7793 46.1232 18.6287 46.1232H15.3299C15.1792 46.1232 15.0496 46.0157 15.0212 45.8656L14.0443 40.7916C13.9814 40.4647 13.7761 40.1867 13.4807 40.029C9.02344 37.6495 6.6675 33.6741 6.6675 28.5329C6.6675 25.9352 7.23581 23.6383 8.35659 21.7055C9.40247 19.9019 10.93 18.4106 12.8968 17.2729C13.2307 17.0797 13.3448 16.6524 13.1517 16.3184C12.9586 15.9844 12.5313 15.8705 12.1973 16.0635C8.38359 18.2696 6.08344 21.6731 5.45016 25.9959V25.9958C5.38294 25.9897 5.31563 25.9839 5.24859 25.977C5.26078 25.5106 5.17641 25.0399 4.99266 24.5832C4.58738 23.5757 3.75487 22.8486 2.87166 22.7308C2.17566 22.6376 1.51331 22.9331 1.05366 23.5404C0.387188 24.4211 0.495844 25.118 0.70425 25.5476C1.05609 26.2726 1.9605 26.7854 3.46134 27.1078C3.42009 27.1696 3.37472 27.2316 3.32503 27.294C2.43825 28.4061 1.3935 28.652 0.715125 28.6752C0.318 28.6886 0 29.0074 0 29.4048V29.4082C0 29.8002 0.309281 30.1199 0.700875 30.1378C0.751031 30.1401 0.803438 30.1413 0.858 30.1413C1.71638 30.1413 3.09403 29.8247 4.41759 28.1651C4.62656 27.9032 4.79681 27.6268 4.92769 27.3412C5.0595 27.3561 5.18616 27.3689 5.30747 27.3801C5.30747 27.3798 5.30747 27.3796 5.30756 27.3794C5.28375 27.7579 5.27053 28.142 5.27053 28.5329C5.27053 31.4417 5.964 34.0353 7.33153 36.2419C8.59247 38.2763 10.3978 39.9421 12.6992 41.1947L13.6489 46.1275C13.8016 46.9345 14.5086 47.5202 15.3299 47.5202H18.6287C19.45 47.5202 20.157 46.9345 20.3097 46.1275L20.7925 43.5767C21.7953 43.683 22.8335 43.7368 23.883 43.7368C25.323 43.7368 26.7613 43.6365 28.1631 43.4385L28.672 46.1277C28.8248 46.9347 29.5318 47.5203 30.3531 47.5203H33.6518C34.4732 47.5203 35.1802 46.9346 35.333 46.1273L36.3208 40.8969C39.1116 39.4212 41.2151 37.4826 42.5743 35.1336C42.6723 34.9643 42.8231 34.8401 42.999 34.7837L46.1666 33.7691C47.2632 33.4176 48 32.408 48 31.2565V27.9963C48 26.8449 47.2632 25.8353 46.1666 25.484ZM39.4948 17.1818C39.2259 19.4811 38.5047 21.448 37.78 21.8584C36.9563 22.325 35.0546 22.4151 33.6268 21.3706C32.1973 20.325 31.7215 18.4445 32.2507 15.9326C32.3039 15.6803 32.4832 15.462 32.7302 15.3489C36.2274 13.748 38.2437 13.2244 38.9928 13.2244C39.1058 13.2244 39.19 13.2363 39.2461 13.2583C39.4711 13.4981 39.7662 14.8613 39.4948 17.1818ZM1.96134 24.9376C1.88906 24.7885 2.05969 24.5265 2.16788 24.3834C2.33934 24.1569 2.49731 24.1106 2.61666 24.1106C2.64188 24.1106 2.66541 24.1126 2.68697 24.1156C3.00816 24.1584 3.45816 24.5118 3.69656 25.1044C3.75272 25.2439 3.82566 25.475 3.84272 25.7632C2.87569 25.5629 2.12437 25.274 1.96134 24.9376Z" fill="white"/>
<path d="M22.3057 9.21353V6.71378C23.1677 6.77537 23.488 7.1694 23.7835 7.1694C24.1529 7.1694 24.3253 6.7015 24.3253 6.4675C24.3253 5.86403 23.143 5.60547 22.3057 5.58081V5.24818C22.3057 5.10043 22.1209 4.96497 21.9362 4.96497C21.7268 4.96497 21.579 5.10043 21.579 5.24818V5.60528C20.4091 5.72847 19.2392 6.34422 19.2392 7.89587C19.2392 9.47219 20.4707 9.91553 21.579 10.3096V13.2035C20.3229 13.105 19.9904 12.243 19.584 12.243C19.2761 12.243 19.0176 12.6494 19.0176 12.945C19.0176 13.5483 20.052 14.3734 21.579 14.3981V14.7798C21.579 14.9276 21.7269 15.0631 21.9362 15.0631C22.121 15.0631 22.3057 14.9276 22.3057 14.7798V14.3612C23.6357 14.1764 24.547 13.339 24.547 11.8243C24.547 10.1495 23.377 9.60756 22.3057 9.21353ZM21.6529 8.97962C21.0002 8.73334 20.4707 8.47478 20.4707 7.77287C20.4707 7.13247 20.9633 6.82459 21.6529 6.73843V8.97962ZM22.2317 13.1789V10.5805C22.8351 10.8391 23.3154 11.1839 23.3154 11.9597C23.3154 12.6617 22.8967 13.0558 22.2317 13.1789Z" fill="white"/>
</g>
<defs>
<clipPath id="clip0_647_4723">
<rect width="48" height="48" fill="white"/>
</clipPath>
</defs>
</svg>
