<svg width="710" height="341" viewBox="0 0 710 341" fill="none" xmlns="http://www.w3.org/2000/svg">
<g opacity="0.1">
<path d="M-215.884 143.476C-158.752 126.356 -120.844 103.179 -96.6529 84.9912C-72.1907 66.5984 -55.5957 48.6486 -21.4312 33.5083C16.2376 16.7493 42.8096 14.8081 53.4525 14.6522C68.2093 14.4412 67.7543 16.579 92.3209 18.1923C139.512 21.2928 146.716 13.7809 168.457 17.9105C204.503 24.7542 199.29 48.1697 238.937 64.2619C267.649 75.9217 311.99 80.5246 347.372 62.9521C380.691 46.4023 379.806 23.2336 416.205 12.002C431.157 7.38819 444.455 7.52008 471.042 7.78578C505.108 8.0869 528.883 12.4252 538.307 13.7165C566.229 17.5555 609.27 14.4313 673.347 -19.0793" stroke="white" stroke-width="0.594233" stroke-miterlimit="10"/>
<path d="M-214.708 150.776C-159.342 134.682 -120.128 112.636 -93.5953 93.467C-72.0725 77.7522 -56.4221 62.2524 -33.1874 48.5554C-28.1044 45.5653 -22.7161 42.5687 -16.8326 39.7129C20.2445 21.729 46.2617 17.7068 57.188 16.3328C71.8392 14.4828 72.1558 15.9388 96.2202 17.4643C113.178 18.5306 125.117 18.6498 134.297 18.435C149.902 18.0652 157.442 16.6309 170.469 19.6146C175.326 20.7109 180.011 22.3278 184.433 24.4332C204.883 34.1635 207.87 51.4867 240.866 63.3626C269.589 73.701 313.3 76.736 348.058 59.3679C350.811 57.9902 353.493 56.4864 356.092 54.8622C382.315 38.4592 384.795 19.0989 416.779 9.18732C420.149 8.13829 423.583 7.29709 427.057 6.66933C438.727 4.52545 451.285 4.587 471.194 4.78028C504.186 5.14358 527.586 9.38345 537.98 10.8152C545.587 11.84 553.296 12.2669 561.024 12.0915C587.779 11.5496 624.164 4.18464 672.394 -19.7714" stroke="white" stroke-width="0.594233" stroke-miterlimit="10"/>
<path d="M-213.393 158.713C-159.804 143.631 -119.218 122.811 -90.4125 102.514C-67.5358 86.402 -51.1724 70.1217 -28.4898 56.1079C-23.3146 52.9007 -17.9406 49.6246 -12.0785 46.5421C24.4052 27.3251 49.6666 20.4691 61.0878 18.6362C75.808 16.2914 76.7413 15.9257 100.266 17.3629C116.74 18.3804 128.716 18.8855 137.811 19.0918C153.131 19.418 160.284 18.5989 172.594 21.9613C177.289 23.266 181.816 25.011 186.104 27.1699C205.94 36.9395 210.282 52.8885 242.958 63.1208C271.689 72.1296 314.771 73.5966 348.904 56.4329C351.787 54.9492 354.44 53.5156 356.879 51.9571C383.958 35.171 386.726 16.6219 417.534 7.069C420.875 6.01842 424.279 5.17212 427.725 4.53565C439.577 2.29207 452.101 2.28386 471.54 2.53658C503.461 2.9274 526.474 7.09723 537.828 8.58576C545.373 9.59957 553.015 10.046 560.68 9.92082C587.229 9.54363 623.569 2.77973 671.57 -19.7903" stroke="white" stroke-width="0.594233" stroke-miterlimit="10"/>
<path d="M-211.947 167.179C-160.129 153.142 -118.22 133.447 -87.09 112.131C-62.9091 95.564 -45.7971 78.5384 -23.6862 64.2035C-18.4099 60.7772 -13.0396 57.2278 -7.21849 53.9143C28.6754 33.4807 53.4926 25.4362 65.0919 21.4743C79.4433 16.5798 81.431 16.4474 104.425 17.7944C120.428 18.7429 132.444 19.6421 141.499 20.2599C156.522 21.2758 163.31 21.0844 174.901 24.8172C179.404 26.341 183.748 28.219 187.886 30.4313C207.106 40.232 212.855 54.7872 245.138 63.3831C273.912 71.0545 316.332 70.9695 349.839 54.0019C352.695 52.524 355.33 51.0943 357.757 49.5642C385.665 32.3581 388.754 14.6471 418.35 5.37487C421.665 4.32204 425.043 3.47001 428.463 2.82425C440.496 0.47277 453.026 0.403437 471.958 0.680494C502.787 1.09453 525.43 5.18227 537.749 6.79492C545.244 7.77956 552.827 8.24079 560.434 8.17481C586.778 7.96232 623.073 1.80766 670.836 -19.3826" stroke="white" stroke-width="0.594233" stroke-miterlimit="10"/>
<path d="M-210.514 175.667C-160.461 162.657 -117.243 144.108 -83.782 121.762C-58.2898 104.73 -40.4399 86.9528 -18.8793 72.3093C-13.5108 68.6659 -8.15492 64.8369 -2.35518 61.2968C32.9542 39.671 57.1048 29.6727 69.1027 24.3391C83.2777 18.0352 86.0919 17.0034 108.591 18.2525C124.164 19.1488 136.161 20.4291 145.152 21.4377C159.878 23.1352 166.295 23.5898 177.175 27.6829C181.477 29.4217 185.639 31.4299 189.633 33.6943C208.242 43.5079 215.4 56.6773 247.309 63.6839C276.125 70.0099 317.875 68.3829 350.766 51.6178C353.587 50.1476 356.204 48.7218 358.626 47.2099C387.373 29.59 390.784 12.8028 419.166 3.76027C422.458 2.71675 425.809 1.85918 429.201 1.19236C441.399 -1.25497 453.879 -1.38202 472.377 -1.09606C502.136 -0.646326 524.4 3.36943 537.679 5.08165C545.119 6.05275 552.642 6.53224 560.191 6.51651C586.339 6.47495 622.587 0.913185 670.123 -18.8829" stroke="white" stroke-width="0.594233" stroke-miterlimit="10"/>
<path d="M-209.707 181.16C-161.419 169.176 -116.882 151.78 -81.0984 128.406C-54.3055 110.903 -35.7143 92.3474 -14.6968 77.4279C-9.24688 73.5613 -3.88044 69.4815 1.88368 65.6922C36.5908 42.8781 60.1104 30.961 72.459 24.2062C86.4789 16.5483 90.1586 14.5401 112.102 15.713C124.222 16.3721 136.266 17.6944 148.172 19.6732C162.625 22.0382 168.657 23.1591 178.79 27.5775C183.217 29.5187 186.894 31.8117 190.801 33.9688C208.793 43.7624 217.38 55.6015 248.881 60.9838C277.763 65.9502 318.827 62.7934 351.094 46.2326C353.888 44.7682 356.487 43.3463 358.895 41.8546C388.495 23.8435 392.198 7.84098 419.391 -0.8573C422.656 -1.89602 425.979 -2.75589 429.34 -3.43238C441.725 -5.96306 454.167 -6.17623 472.163 -5.89241C500.838 -5.42957 522.736 -1.47135 536.967 0.342374C544.358 1.29669 551.826 1.79036 559.321 1.82014C585.265 1.95145 621.46 -2.99914 668.766 -21.4173" stroke="white" stroke-width="0.594233" stroke-miterlimit="10"/>
<path d="M-209.279 185.111C-162.769 174.139 -116.915 157.887 -78.7957 133.5C-50.7023 115.525 -31.3909 96.1795 -10.8864 81.0375C-5.34788 76.9374 0.00953685 72.6026 5.75046 68.5785C39.905 44.591 62.8043 30.7614 75.4911 22.571C89.3382 13.6056 93.8657 10.5821 115.287 11.6629C127.29 12.2689 139.181 13.827 150.83 16.3201C164.971 19.3442 170.658 21.1399 180.076 25.9451C184.253 28.0606 187.717 30.5284 191.604 32.724C209.002 42.5613 218.994 52.9127 250.087 56.7644C279.051 60.3511 319.423 55.6827 351.063 39.3181C353.822 37.8614 356.395 36.4452 358.806 34.97C389.265 16.5921 393.291 1.3931 419.263 -6.93687C422.503 -7.97852 425.799 -8.84413 429.135 -9.52923C441.684 -12.1558 454.111 -12.4425 471.626 -12.1055C499.221 -11.6051 520.74 -7.727 535.943 -5.79928C543.28 -4.86564 550.686 -4.35649 558.121 -4.27473C583.871 -3.97248 620.022 -8.31383 667.096 -25.3624" stroke="white" stroke-width="0.594233" stroke-miterlimit="10"/>
<path d="M-208.805 189.112C-164.066 179.184 -116.919 164.048 -76.4475 138.643C-47.064 120.191 -27.0449 100.04 -7.0642 84.6268C-1.44058 80.2769 3.92561 75.6832 9.63803 71.4425C43.2259 46.3018 65.5296 30.5886 78.5155 20.911C92.2945 10.6498 97.5758 6.60565 118.467 7.59626C130.381 8.18801 142.14 10.0211 153.526 13.0613C167.333 16.7318 172.691 19.2331 181.389 24.3659C185.291 26.6698 188.555 29.2839 192.419 31.5445C209.219 41.3663 220.656 50.2896 251.321 52.5983C280.371 54.787 320.028 48.6209 351.018 32.4747C353.751 31.0238 356.306 29.6115 358.701 28.1482C390.006 9.34649 394.299 -5.01104 419.103 -13.0699C422.316 -14.106 425.583 -14.9766 428.888 -15.6777C441.611 -18.4448 454.013 -18.7604 471.043 -18.3866C497.563 -17.875 518.699 -14.0506 534.869 -12.0334C542.154 -11.11 549.505 -10.5806 556.884 -10.4476C582.423 -10.0052 618.529 -13.7374 665.37 -29.3816" stroke="white" stroke-width="0.594233" stroke-miterlimit="10"/>
<path d="M-208.341 193.132C-165.367 184.231 -116.915 170.224 -74.1081 143.807C-43.4258 124.875 -22.7008 103.911 -3.22417 88.2727C2.4721 83.7015 7.86121 78.8714 13.522 74.3507C46.552 48.055 68.2779 30.4542 81.5542 19.2915C95.2491 7.74638 101.289 2.66337 121.658 3.56187C133.479 4.13714 145.104 6.22091 156.207 9.75477C169.754 14.0645 174.701 17.2888 182.682 22.7492C186.319 25.2477 189.396 27.988 193.229 30.3155C209.432 40.1298 222.292 47.6044 252.534 48.3946C281.683 49.157 320.622 41.5279 351.013 25.572C353.718 24.1269 356.255 22.7185 358.638 21.2836C390.811 2.11329 395.379 -11.4475 418.997 -19.1968C422.186 -20.2285 425.426 -21.1048 428.703 -21.8218C441.597 -24.7031 454.014 -25.0736 470.539 -24.6754C495.969 -24.1324 516.737 -20.3738 533.868 -18.257C541.1 -17.3393 548.392 -16.7834 555.714 -16.5917C581.063 -15.9539 617.118 -19.1094 663.731 -33.3676" stroke="white" stroke-width="0.594233" stroke-miterlimit="10"/>
<path d="M-207.874 197.133C-166.671 189.235 -116.898 176.345 -71.7544 148.923C-39.7395 129.495 -18.3636 107.722 0.63019 91.8717C6.40265 87.0526 11.8058 81.9882 17.4346 77.2346C49.9032 49.8102 71.062 30.3282 84.6107 17.6413C98.2659 4.84552 105.032 -1.30329 124.87 -0.494975C136.611 0.0867685 148.107 2.4414 158.909 6.47681C172.155 11.4089 176.736 15.3813 183.995 21.1611C187.369 23.8541 190.231 26.7182 194.087 29.1092C209.71 38.9042 224 44.877 253.811 44.2016C283.055 43.5213 321.27 34.4475 351.046 18.6941C353.716 17.2567 356.235 15.8521 358.622 14.4765C391.652 -5.06875 396.504 -17.8347 418.92 -25.2542C422.087 -26.2989 425.307 -27.1823 428.566 -27.9004C441.645 -30.8304 453.991 -31.3139 470.067 -30.9294C494.416 -30.357 514.808 -26.6621 532.908 -24.4477C539.448 -23.6428 546.64 -23.0052 554.582 -22.7622C579.725 -21.9596 615.736 -24.5059 662.11 -37.3843" stroke="white" stroke-width="0.594233" stroke-miterlimit="10"/>
<path d="M-207.447 201.023C-168.052 194.168 -116.966 182.407 -69.4655 153.983C-36.198 134.078 -14.1037 111.463 4.41787 95.4071C10.2576 90.342 15.6855 85.0495 21.2787 80.0466C53.2213 51.4859 73.8326 30.127 87.5935 15.9376C101.198 1.84209 108.691 -5.32152 128.008 -4.60532C139.682 -4.01712 151.061 -1.40143 161.557 3.10683C174.521 8.6656 178.666 13.4096 185.255 19.4809C188.364 22.3685 191.031 25.3607 194.829 27.8244C209.867 37.5836 225.589 42.1058 254.954 39.934C284.319 37.7623 321.792 27.2823 350.943 11.7333C353.587 10.3017 356.088 8.90095 358.457 7.52917C392.353 -12.3928 397.49 -24.364 418.738 -31.4696C421.871 -32.5126 425.056 -33.3971 428.281 -34.119C441.557 -37.1689 453.855 -37.702 469.414 -37.2566C492.69 -36.6648 512.699 -33.0237 531.766 -30.7198C538.276 -29.9254 545.412 -29.2845 553.275 -28.9812C578.212 -28.014 614.177 -29.9593 660.325 -41.4434" stroke="white" stroke-width="0.594233" stroke-miterlimit="10"/>
<path d="M-207.008 204.861C-169.348 199.043 -117.008 188.388 -67.1498 158.972C-32.5532 138.598 -9.83826 115.12 8.21826 98.8909C14.1324 93.5698 19.5869 88.0574 25.1621 82.8014C56.5593 53.1 76.6372 29.8867 90.5908 14.1477C104.2 -1.1653 112.408 -9.4438 131.133 -8.79609C143.567 -8.3649 155.614 -4.50001 164.185 -0.341628C176.872 5.82555 180.664 11.3402 186.502 17.7204C189.329 20.8064 191.81 23.9248 195.578 26.4635C210.038 36.1686 227.155 39.205 256.1 35.574C285.531 31.9061 322.32 20.0329 350.846 4.68825C353.454 3.26436 355.938 1.86749 358.298 0.49763C393.049 -19.8074 398.461 -30.9818 418.5 -37.7556C421.607 -38.7987 424.766 -39.6888 427.965 -40.4224C441.391 -43.5908 453.678 -44.1729 468.805 -43.7105C491 -43.0892 510.605 -39.5061 530.641 -37.1045C537.12 -36.3289 544.205 -35.6682 551.975 -35.3192C576.717 -34.181 612.636 -35.5252 658.542 -45.646" stroke="white" stroke-width="0.594233" stroke-miterlimit="10"/>
<path d="M-206.592 208.651C-170.696 203.868 -117.122 194.229 -64.8593 163.905C-29.0579 142.96 -5.59801 118.72 12.0058 102.29C17.9749 96.7088 23.4842 90.9788 28.9883 85.4813C59.8863 54.6806 79.4254 29.5456 93.5859 12.3224C107.202 -4.24274 116.037 -13.5658 134.31 -13.0338C146.295 -12.6592 158.36 -8.45553 166.854 -3.83514C179.265 2.94045 182.605 9.23875 187.783 15.9167C190.355 19.1953 192.628 22.4274 196.374 25.0393C210.265 34.7313 228.792 36.2188 257.325 31.204C286.859 26.0058 322.925 12.7735 350.825 -2.37492C353.411 -3.78821 355.874 -5.18059 358.215 -6.55204C393.844 -27.2194 399.528 -37.6134 418.374 -44.0594C421.452 -45.106 424.583 -46.0012 427.752 -46.7415C441.35 -50.0158 453.626 -50.6553 468.273 -50.1743C489.377 -49.5298 508.632 -45.9734 529.639 -43.5089C536.089 -42.7357 543.109 -42.0778 550.806 -41.6787C575.344 -40.3676 611.218 -41.1108 656.898 -49.8291" stroke="white" stroke-width="0.594233" stroke-miterlimit="10"/>
<path d="M-206.189 212.384C-172.069 208.621 -117.181 200.11 -62.5815 168.781C-25.4813 147.357 -1.36695 122.237 15.786 105.657C21.8135 99.8314 27.3476 93.8734 32.825 88.1246C63.2112 56.2102 82.2631 29.1766 96.5576 10.4336C110.196 -7.39566 119.687 -17.8038 137.396 -17.3461C148.939 -17.0381 161.032 -12.4894 169.436 -7.38677C181.588 -0.00663307 184.479 7.0917 188.97 14.065C191.234 17.556 193.364 20.8964 197.069 23.5772C210.454 33.2078 230.562 33.9746 258.492 26.7436C287.856 19.1409 323.473 5.42375 350.757 -9.52223C353.313 -10.9291 355.756 -12.317 358.085 -13.6858C394.612 -34.6684 400.538 -44.3354 418.192 -50.4535C421.246 -51.4979 424.35 -52.3961 427.493 -53.1447C441.265 -56.5168 453.551 -57.2357 467.671 -56.7429C487.668 -56.0203 506.593 -52.4863 528.55 -49.9713C534.969 -49.2087 541.936 -48.5392 549.542 -48.0862C573.885 -46.6042 609.713 -46.7463 655.157 -54.0767" stroke="white" stroke-width="0.594233" stroke-miterlimit="10"/>
<path d="M-205.834 216.083C-173.482 213.331 -117.286 205.966 -60.3515 173.623C-21.9524 151.72 2.76491 125.741 19.5025 108.96C25.6115 102.868 31.1756 96.7066 36.5925 90.6798C66.4795 57.6232 84.9926 28.7536 99.4816 8.46917C113.181 -10.6156 123.357 -22.0636 140.551 -21.7081C151.643 -21.4648 163.763 -16.5793 172.086 -10.9964C183.976 -3.02804 186.392 4.87611 190.245 12.125C192.22 15.8245 194.187 19.269 197.864 22.033C210.636 31.6255 231.889 30.0529 259.637 22.2364C289.254 13.9189 323.99 -1.9709 350.649 -16.7125C353.133 -18.1094 355.617 -19.5063 357.915 -20.8626C395.297 -42.2282 401.515 -51.1105 417.977 -56.8926C421.002 -57.9409 424.078 -58.8443 427.192 -59.5991C441.136 -63.0772 453.365 -63.8437 467.045 -63.3236C485.996 -62.6222 504.501 -59.1852 527.427 -56.5297C533.825 -55.7796 540.738 -55.1414 548.29 -54.5993C572.418 -52.9935 608.218 -52.4955 653.389 -58.4302" stroke="white" stroke-width="0.594233" stroke-miterlimit="10"/>
<path d="M-205.403 219.726C-174.822 218.018 -117.333 211.769 -58.0443 178.417C-18.3109 156.026 6.97383 129.153 23.273 112.236C29.3996 105.884 35.0577 99.513 40.4248 93.2571C69.8906 59.1613 87.8117 28.2959 102.403 6.51583C116.109 -13.8639 126.898 -26.3362 143.636 -26.07C154.277 -25.8914 166.442 -20.6729 174.673 -14.616C186.32 -6.01231 188.232 2.65244 191.452 10.1933C193.113 14.1153 194.932 17.6518 198.57 20.4928C210.792 30.0336 233.408 26.8627 260.755 17.7197C290.415 7.84251 324.498 -9.37898 350.522 -23.9225C353.006 -25.3193 355.428 -26.7027 357.74 -27.9936C395.986 -49.7442 402.463 -57.8605 417.743 -63.3167C420.766 -64.3591 423.839 -65.2563 426.952 -66.0049C439.87 -69.2877 453.209 -70.597 466.438 -69.8808C484.308 -69.1499 502.437 -65.7767 526.331 -63.0236C532.697 -62.2922 539.554 -61.6159 546.992 -61.0406C581.731 -58.5099 616.763 -59.0694 651.613 -62.7116" stroke="white" stroke-width="0.594233" stroke-miterlimit="10"/>
<path d="M-205.028 223.354C-176.212 222.673 -117.418 217.553 -55.794 183.188C-14.7973 160.325 11.1277 132.594 27.0506 115.484C97.7127 39.4898 110.003 -30.894 146.769 -30.4861C156.959 -30.3722 169.169 -24.8208 177.3 -18.2796C194.665 -4.32309 188.833 10.3948 199.326 18.9066C225.053 39.7824 309.911 -8.23655 357.604 -35.2197C404.104 -61.5323 404.866 -66.9151 426.621 -72.5033C464.592 -82.2776 487.576 -72.4303 545.708 -67.5629C580.261 -64.7167 615.108 -64.5585 649.885 -67.0899" stroke="white" stroke-width="0.594233" stroke-miterlimit="10"/>
<path d="M-204.516 225.692C-174.856 225.349 -117.975 219.977 -59.0657 187.102C-18.4114 164.374 6.17371 136.719 23.3259 118.64C91.8586 46.4842 104.065 -18.176 140.891 -20.651C155.279 -21.6212 170.329 -20.5683 181.049 -16.2691C202.114 -7.81201 197.712 4.80454 210.524 12.4437C238.575 29.1817 318.126 -13.7595 363.654 -38.9013C407.994 -63.4419 409.035 -67.8831 432.397 -72.1074C471.217 -79.1281 492.943 -70.7118 547.77 -65.8282C581.976 -62.7867 616.523 -62.754 650.955 -65.7305" stroke="white" stroke-width="0.594233" stroke-miterlimit="10"/>
<path d="M-203.981 228.129C-154.446 227.88 -105.465 215.08 -62.3148 191.108C-22.0012 168.522 1.18729 140.94 19.6239 121.887C85.8904 53.4542 98.2646 -6.46219 135.045 -10.7264C153.709 -12.8837 170.986 -16.1615 184.821 -14.1589C208.551 -10.7531 206.249 -0.743513 221.746 6.08045C251.348 19.0973 326.364 -19.191 369.737 -42.4933C411.835 -65.2445 413.147 -68.8279 438.205 -71.6219C477.74 -76.0396 498.35 -68.82 549.857 -63.9938C583.704 -60.7619 617.944 -60.8524 652.013 -64.2636" stroke="white" stroke-width="0.594233" stroke-miterlimit="10"/>
<path d="M-203.043 232.465C-154.861 232.636 -107.122 220.362 -65.153 197.01C-25.1908 174.561 -3.3901 147.05 16.3238 127.034C80.1413 62.2515 94.356 12.7631 129.592 1.09902C151.636 -6.19661 171.804 -9.55486 189.003 -10.1599C214.988 -11.0825 214.933 -4.32857 233.377 1.60596C263.911 11.4304 335.038 -22.6456 376.212 -44.1845C416.159 -65.0799 417.609 -67.9396 444.403 -69.2438C484.603 -71.2019 504.146 -65.0437 552.352 -60.2706C585.848 -56.8371 619.792 -57.0495 653.5 -60.9037" stroke="white" stroke-width="0.594233" stroke-miterlimit="10"/>
<path d="M-201.605 239.067C-154.78 239.654 -108.285 227.896 -67.5049 205.156C-27.8869 182.833 -7.4829 155.394 13.519 134.421C74.8146 73.2116 89.7006 28.0061 124.644 15.1637C150.605 5.62827 173.007 -5.18911 193.671 -3.91783C222.104 -2.16904 223.221 -1.86359 245.494 -0.625426C274.617 11.5534 344.194 -23.8817 383.191 -43.6365C420.947 -62.7276 422.543 -64.8737 451.108 -64.6182C491.916 -64.25 510.436 -58.9917 555.334 -54.3043C588.479 -50.6729 622.131 -51.0104 655.472 -55.3088" stroke="white" stroke-width="0.594233" stroke-miterlimit="10"/>
<path d="M-200.131 245.82C-154.663 246.829 -109.404 235.612 -69.7888 213.514C-30.5114 191.334 -11.5183 163.945 10.7822 142.022C69.4673 84.3178 84.9268 43.0311 119.701 29.4544C149.681 17.76 173.813 4.30463 198.408 2.545C230.122 0.273842 232.468 -2.05268 257.682 -2.63607C287.623 7.32581 353.377 -24.9648 390.176 -42.8624C425.741 -60.1492 427.475 -61.6655 457.818 -59.7666C499.263 -57.1982 516.736 -52.6971 558.33 -48.1139C591.125 -44.2838 624.49 -44.7469 657.459 -49.4898" stroke="white" stroke-width="0.594233" stroke-miterlimit="10"/>
<path d="M-198.633 252.708C-154.538 254.122 -110.53 243.434 -72.0931 221.975C-33.1581 199.929 -15.5937 172.594 8.02495 149.724C64.0586 95.4666 80.0489 57.9023 114.853 43.8223C148.786 30.0945 176.212 18.9212 203.124 9.10183C236.355 -3.0255 241.692 -2.15593 269.847 -4.5527C300.662 3.23168 362.583 -25.9208 397.256 -42.0112C430.631 -57.4937 432.49 -58.4292 464.623 -54.8379C506.605 -50.1418 523.119 -46.2889 561.379 -41.8285C593.825 -37.8044 626.907 -38.3935 659.498 -43.5759" stroke="white" stroke-width="0.594233" stroke-miterlimit="10"/>
<path d="M-197.121 259.687C-162.172 261.312 -116.924 254.581 -74.355 230.528C-35.7181 208.693 -19.6391 181.321 5.30116 157.521C58.6071 106.658 75.1281 72.6877 109.976 58.2983C147.972 42.616 177.91 28.849 207.882 15.7514C243.775 0.0553732 250.794 -6.97951 282.054 -6.37659C314.443 -5.75359 371.809 -26.7537 404.307 -41.0519C435.489 -54.7382 437.488 -55.1214 471.398 -49.8092C514.025 -43.0861 529.487 -39.7581 564.487 -35.4624C586.244 -32.7929 618.759 -30.1839 661.595 -37.5813" stroke="white" stroke-width="0.594233" stroke-miterlimit="10"/>
<path d="M-195.576 266.788C-159.75 268.729 -116.447 261.769 -76.5947 239.199C-38.2985 217.506 -23.6766 190.142 2.6085 165.433C53.1316 117.925 70.0769 87.4865 105.14 72.8876C147.231 55.3552 179.73 38.9238 212.662 22.5181C251.32 3.25666 259.817 -6.84966 294.283 -8.08336C327.142 -9.23294 381.043 -27.5349 411.399 -39.9792C440.406 -51.8733 442.571 -51.8302 478.215 -44.6591C521.475 -35.9662 535.875 -33.0756 567.581 -28.9715C589.056 -26.1892 621.118 -23.4819 663.681 -31.4536" stroke="white" stroke-width="0.594233" stroke-miterlimit="10"/>
<path d="M-194.011 273.967C-157.273 276.257 -115.95 269.035 -78.8127 247.954C-40.8572 226.403 -27.7118 199.044 -0.0624205 173.43C47.6406 129.234 65.0296 102.288 100.316 87.5635C146.566 68.2614 181.621 49.0981 217.464 29.3695C258.959 6.5354 268.912 -6.44892 306.535 -9.70544C339.916 -12.5963 390.308 -28.1905 418.503 -38.82C445.279 -48.9265 447.675 -48.4625 485.044 -39.4223C528.983 -28.8039 542.281 -26.2818 570.696 -22.3959C591.9 -19.4946 623.499 -16.6522 665.786 -25.2494" stroke="white" stroke-width="0.594233" stroke-miterlimit="10"/>
<path d="M-192.426 281.256C-154.85 283.853 -115.427 276.401 -81.0123 256.812C-43.3992 235.396 -31.7535 208.02 -2.71497 181.53C42.1236 140.613 58.4848 113.299 95.5194 102.34C148.024 86.8009 183.559 59.3778 222.284 36.3238C266.654 9.91754 278.162 -14.3787 318.804 -11.2246C352.762 -8.5611 399.545 -28.7845 425.635 -37.5597C450.201 -45.8581 452.816 -45.0304 491.899 -34.0927C536.537 -21.5874 548.695 -19.3486 573.83 -15.7174C594.756 -12.6869 625.904 -9.73802 667.912 -18.9342" stroke="white" stroke-width="0.594233" stroke-miterlimit="10"/>
<path d="M-190.796 288.781C-152.34 291.708 -114.871 283.987 -83.1481 265.952C-45.8863 244.672 -35.7651 217.251 -5.31254 189.914C36.6704 152.23 53.6087 128.98 90.769 117.403C147.333 99.7645 185.589 69.9419 227.168 43.5603C274.449 13.5741 286.901 -12.3583 331.138 -12.4616C366.228 -12.5373 408.912 -29.0508 432.812 -36.0134C455.174 -42.5302 458.076 -41.3624 498.802 -28.469C544.177 -14.1108 555.169 -12.1067 577.028 -8.75675C597.668 -5.58706 628.362 -2.5479 670.1 -12.345" stroke="white" stroke-width="0.594233" stroke-miterlimit="10"/>
<path d="M-189.053 296.783C-149.725 300.043 -114.202 292.086 -85.1978 275.481C-48.2785 254.336 -39.7155 226.842 -7.81522 198.685C31.2091 164.232 48.8186 145.051 86.1224 132.852C146.746 113.028 187.734 80.8979 232.14 51.1943C282.37 17.594 296.055 -9.54876 343.559 -13.301C379.681 -16.1539 418.32 -28.9608 440.094 -34.0816C460.231 -38.821 463.446 -37.3271 505.809 -22.4596C551.935 -6.26893 561.763 -4.4485 580.314 -1.39846C600.674 1.93501 630.961 5.02827 672.376 -5.3581" stroke="white" stroke-width="0.594233" stroke-miterlimit="10"/>
<path d="M-187.283 304.921C-147.075 308.512 -113.503 300.302 -87.2113 285.195C-50.6362 264.177 -43.6688 236.567 -10.2816 207.641C25.8018 176.372 44.0346 161.296 81.5031 148.487C146.131 126.396 189.931 92.0266 237.146 59.0049C290.381 21.7871 305.523 -6.26358 356.015 -13.9639C393.07 -19.6156 427.769 -28.7125 447.402 -31.9632C465.303 -34.9396 468.871 -33.1456 512.843 -16.2637C559.773 1.7398 568.319 3.47912 583.636 6.14449C603.703 9.67012 633.501 12.8185 674.688 1.81341" stroke="white" stroke-width="0.594233" stroke-miterlimit="10"/>
<path d="M-185.353 313.779C-144.266 317.693 -112.68 309.196 -89.0657 295.622C-52.8775 274.661 -47.5216 246.949 -12.589 217.309C20.5305 189.204 39.399 178.247 77.0518 164.832C145.63 140.4 192.306 103.872 242.276 67.5353C298.445 26.7154 316.338 1.36432 368.594 -13.907C405.833 -24.7815 437.331 -27.7426 454.844 -29.1269C470.53 -30.3625 474.455 -28.252 520.008 -9.35804C567.751 10.4645 575.018 12.088 587.078 14.3909C606.838 18.1717 636.213 21.3006 677.122 9.69657" stroke="white" stroke-width="0.594233" stroke-miterlimit="10"/>
<path d="M-183.448 322.547C-141.489 326.794 -111.843 318.05 -90.9346 305.964C-55.0977 285.14 -51.4705 257.17 -14.9197 226.896C15.2217 201.931 34.7206 195.111 72.5683 181.098C145.073 154.252 194.666 115.625 247.464 75.9748C306.643 31.5192 326.269 4.00934 381.232 -13.9409C419.411 -26.3904 446.958 -26.9246 462.324 -26.3857C475.803 -25.8906 480.108 -23.4859 527.213 -2.53938C575.809 19.068 581.75 20.6629 590.58 22.5546C609.994 26.7105 638.973 29.6856 679.612 17.4807" stroke="white" stroke-width="0.594233" stroke-miterlimit="10"/>
<path d="M-181.538 331.325C-138.727 335.901 -110.949 326.904 -92.8095 316.312C-57.3505 295.63 -55.5071 267.276 -17.2476 236.485C9.90857 214.628 30.0361 211.981 68.0964 197.364C144.465 168.033 197.029 127.346 252.609 84.4184C314.799 36.3351 336.222 6.61844 393.826 -13.9708C433.101 -28.0037 456.569 -26.143 469.78 -23.6362C481.052 -21.4961 485.718 -18.7157 534.394 4.28765C583.854 27.6861 588.43 29.2866 594.039 30.7224C613.003 35.5845 641.694 38.0911 682.062 25.2852" stroke="white" stroke-width="0.594233" stroke-miterlimit="10"/>
</g>
</svg>
