<svg width="1440" height="342" viewBox="0 0 1440 342" fill="none" xmlns="http://www.w3.org/2000/svg">
<g opacity="0.2">
<path d="M8.86828 332.056C105.811 312.753 171.996 280.714 214.767 254.737C258.017 228.467 288.22 201.74 346.964 182.218C411.743 160.586 455.882 161.409 473.463 162.75C497.84 164.618 496.752 168.029 537.024 174.336C614.383 186.454 627.449 175.307 662.663 185.286C721.047 201.826 708.76 239.155 771.627 271.287C817.154 294.566 889.574 308.702 950.71 285.404C1008.28 263.461 1010.47 225.621 1072.28 212.795C1097.67 207.526 1119.59 209.734 1163.41 214.15C1219.56 219.745 1258.09 230.369 1273.43 233.882C1318.89 244.315 1390.38 245.68 1501.36 200.741" stroke="url(#paint0_radial_647_2806)" stroke-miterlimit="10"/>
<path d="M9.66233 344.115C103.531 326.218 171.691 296.213 218.48 268.991C256.46 246.64 284.719 223.758 325.205 204.947C334.061 200.842 343.421 196.773 353.577 193.007C417.573 169.293 461.125 166.645 479.365 166.046C503.826 165.231 504.119 167.648 543.575 173.737C571.381 178.014 591.057 179.996 606.235 181.023C632.036 182.759 644.7 181.555 665.718 188.363C673.557 190.875 681.032 194.208 687.995 198.298C720.196 217.199 722.395 245.84 774.956 270.114C820.708 291.244 892.337 302.734 952.41 279.675C957.169 277.845 961.829 275.799 966.372 273.545C1012.21 250.778 1019.36 219.64 1073.68 208.301C1079.4 207.099 1085.2 206.244 1091.03 205.743C1110.62 204.003 1131.32 205.985 1164.14 209.283C1218.5 214.818 1256.44 225.225 1273.36 229.113C1285.74 231.921 1298.39 233.77 1311.17 234.643C1355.39 237.77 1416.57 231.236 1499.91 199.474" stroke="url(#paint1_radial_647_2806)" stroke-miterlimit="10"/>
<path d="M10.5853 357.23C101.362 340.714 171.593 312.91 222.309 284.192C262.585 261.397 292.143 237.353 331.768 217.944C340.81 213.499 350.191 208.972 360.347 204.834C423.558 179.025 466.31 171.651 485.439 170.38C510.091 168.769 511.689 168.314 550.269 174.178C577.284 178.303 596.96 180.92 611.932 182.618C637.152 185.445 649.081 185.184 668.858 192.501C676.398 195.328 683.59 198.846 690.324 203.002C721.506 221.875 726.157 248.484 778.448 270.034C824.423 289.001 895.261 297.845 954.272 275.025C959.262 273.042 963.863 271.106 968.133 268.935C1015.45 245.673 1022.93 215.898 1075.26 204.967C1080.94 203.758 1086.69 202.891 1092.47 202.371C1112.38 200.496 1133.04 202.359 1165.06 205.683C1217.66 211.103 1254.96 221.338 1273.46 225.462C1285.75 228.242 1298.28 230.114 1310.95 231.059C1354.8 234.423 1415.81 228.86 1498.55 199.32" stroke="url(#paint2_radial_647_2806)" stroke-miterlimit="10"/>
<path d="M11.6293 371.231C99.3207 356.15 171.557 330.377 226.267 300.348C268.766 277.008 299.676 251.862 338.409 231.845C347.653 227.059 357.071 222.087 367.195 217.567C429.625 189.689 471.831 180.315 491.59 175.605C516.035 169.789 519.335 169.871 557.054 175.509C583.304 179.451 602.983 182.715 617.823 185.078C642.446 188.982 653.674 189.688 672.206 197.5C679.394 200.655 686.264 204.362 692.742 208.583C722.904 227.414 730.095 251.965 781.995 270.793C828.253 287.59 898.242 293.809 956.189 271.214C961.134 269.237 965.705 267.305 969.95 265.178C1018.7 241.356 1026.58 212.994 1076.87 202.338C1082.5 201.121 1088.21 200.24 1093.95 199.702C1114.17 197.678 1134.85 199.443 1166.04 202.731C1216.83 208.024 1253.54 218.07 1273.6 222.541C1285.81 225.266 1298.25 227.153 1310.81 228.186C1354.3 231.788 1415.14 227.21 1497.27 199.879" stroke="url(#paint3_radial_647_2806)" stroke-miterlimit="10"/>
<path d="M12.6616 385.258C97.2792 371.584 171.493 347.872 230.212 316.516C274.947 292.616 307.193 266.358 345.067 245.755C354.496 240.63 363.935 235.201 374.06 230.308C435.713 200.402 477.128 187.749 497.76 180.866C522.136 172.73 526.941 171.473 563.859 176.877C589.408 180.669 608.995 184.551 623.669 187.54C647.693 192.509 658.208 194.211 675.51 202.503C682.333 205.977 688.882 209.869 695.114 214.153C724.267 232.914 733.999 255.42 785.534 271.606C832.073 286.219 901.2 289.828 958.099 267.47C962.984 265.5 967.526 263.572 971.759 261.474C1021.96 237.105 1030.23 210.294 1078.47 199.83C1084.07 198.625 1089.73 197.731 1095.43 197.154C1115.94 194.999 1136.54 196.662 1167.01 199.899C1216.03 205.091 1252.13 214.963 1273.76 219.74C1285.89 222.435 1298.22 224.343 1310.67 225.448C1353.82 229.299 1414.49 225.679 1496.02 200.583" stroke="url(#paint4_radial_647_2806)" stroke-miterlimit="10"/>
<path d="M13.124 394.324C94.6679 382.056 170.876 360.417 233.589 327.737C280.544 303.264 314.135 275.851 351.156 254.718C360.755 249.241 370.251 243.406 380.356 238.102C441.203 206.172 481.879 190.301 503.314 181.158C527.647 170.795 534.034 168.078 570.047 173.275C589.937 176.164 609.597 180.121 628.925 185.125C652.394 191.14 662.169 193.869 678.188 202.578C685.185 206.401 690.889 210.684 696.995 214.78C725.132 233.416 737.432 253.971 788.548 267.451C835.411 279.863 903.648 280.878 959.484 258.76C964.324 256.795 968.836 254.87 973.042 252.803C1024.71 227.925 1033.34 202.435 1079.57 192.353C1085.12 191.152 1090.73 190.25 1096.38 189.653C1117.21 187.39 1137.77 188.908 1167.41 192.066C1214.64 197.116 1250.14 206.84 1273.33 211.924C1285.37 214.585 1297.62 216.508 1309.97 217.679C1352.75 221.781 1413.24 219.147 1494.18 196.26" stroke="url(#paint5_radial_647_2806)" stroke-miterlimit="10"/>
<path d="M13.2149 400.811C91.6668 389.923 169.868 370.344 236.592 336.365C285.767 311.32 320.671 282.728 356.881 261.156C366.663 255.313 376.183 249.06 386.288 243.371C446.408 209.449 486.362 190.372 508.58 178.943C532.835 166.426 540.78 162.184 575.947 167.153C595.652 169.938 615.022 174.255 633.846 180.059C656.696 187.099 665.795 190.874 680.573 200.106C687.131 204.175 692.456 208.711 698.523 212.867C725.673 231.484 740.525 249.829 791.21 260.757C838.424 270.935 905.759 269.387 960.531 247.494C965.311 245.536 969.778 243.617 973.988 241.577C1027.13 216.231 1036.16 192.097 1080.32 182.431C1085.83 181.222 1091.4 180.307 1097.01 179.692C1118.13 177.297 1138.67 178.693 1167.51 181.866C1212.96 186.815 1247.84 196.352 1272.62 201.767C1284.57 204.386 1296.71 206.325 1308.96 207.572C1351.39 211.923 1411.71 210.274 1492.05 189.581" stroke="url(#paint6_radial_647_2806)" stroke-miterlimit="10"/>
<path d="M13.3607 407.392C88.7271 397.939 168.885 380.369 239.65 345.087C291.028 319.458 327.227 289.662 362.615 267.569C372.577 261.332 382.153 254.66 392.244 248.614C451.612 212.73 490.879 190.498 513.826 176.693C538.172 162.057 547.521 156.267 581.827 161.01C601.387 163.758 620.498 168.504 638.8 175.158C660.999 183.201 669.443 188.075 682.984 197.732C689.058 202.066 694.029 206.81 700.048 211.068C726.214 229.571 743.675 245.808 793.897 254.161C841.473 262.076 907.863 257.983 961.529 236.348C966.265 234.396 970.702 232.48 974.884 230.458C1029.49 204.548 1038.83 181.824 1081.02 172.425C1086.48 171.22 1092.01 170.292 1097.57 169.647C1118.99 167.05 1139.5 168.394 1167.54 171.555C1211.2 176.362 1245.47 185.753 1271.82 191.459C1283.7 194.054 1295.74 196.017 1307.89 197.339C1349.95 201.886 1410.1 201.222 1489.83 182.78" stroke="url(#paint7_radial_647_2806)" stroke-miterlimit="10"/>
<path d="M13.4951 414.008C85.7877 405.962 167.921 390.425 242.697 353.844C296.293 327.629 333.784 296.615 368.376 274.082C378.493 267.496 388.144 260.442 398.194 253.933C456.823 216.085 495.435 190.695 519.095 174.516C543.505 157.778 554.27 150.411 587.729 154.925C607.138 157.633 625.986 162.766 643.745 170.181C665.413 179.226 673.067 185.215 685.371 195.298C690.979 199.909 695.623 204.83 701.579 209.193C726.762 227.594 746.798 241.686 796.561 247.504C844.525 253.113 909.961 246.531 962.608 225.116C967.299 223.17 971.706 221.258 975.863 219.279C1031.96 192.9 1041.63 171.514 1081.81 162.44C1087.23 161.239 1092.71 160.299 1098.23 159.623C1119.96 156.865 1140.5 158.123 1167.7 161.247C1209.56 165.942 1243.23 175.171 1271.15 181.183C1282.94 183.761 1294.88 185.758 1306.93 187.167C1348.64 192.004 1408.62 192.271 1487.76 176.05" stroke="url(#paint8_radial_647_2806)" stroke-miterlimit="10"/>
<path d="M13.6265 420.59C82.8404 413.909 166.976 400.389 245.766 362.523C301.639 335.701 340.331 303.467 374.16 280.516C384.441 273.538 394.152 266.105 404.186 259.212C462.067 219.443 500.04 190.906 524.389 172.287C548.93 153.508 561.06 144.514 593.658 148.803C612.934 151.509 631.528 157.064 648.711 165.25C669.785 175.262 676.716 182.414 687.781 192.909C692.922 197.797 697.192 202.888 703.176 207.357C727.405 225.64 750.036 237.502 799.32 240.87C847.668 244.145 912.139 235.104 963.738 213.926C968.37 211.987 972.747 210.078 976.9 208.197C1034.47 181.336 1044.48 161.286 1082.63 152.569C1088.02 151.344 1093.47 150.388 1098.96 149.708C1120.99 146.899 1141.44 147.962 1167.89 150.997C1207.97 155.577 1241.03 164.647 1270.54 170.963C1281.2 173.253 1292.96 175.368 1306.03 176.954C1347.37 182.028 1407.18 183.28 1485.71 169.269" stroke="url(#paint9_radial_647_2806)" stroke-miterlimit="10"/>
<path d="M13.7332 426.986C79.8002 421.734 165.926 410.246 248.76 371.104C306.775 343.692 346.784 310.196 379.867 286.84C390.298 279.471 400.086 271.671 410.1 264.367C467.293 222.669 504.658 190.995 529.593 169.964C554.257 149.061 567.745 138.525 599.497 142.585C618.663 145.292 637.021 151.254 653.627 160.164C674.136 171.154 680.226 179.496 690.139 190.365C694.813 195.531 698.742 200.8 704.618 205.379C727.889 223.516 753.11 233.232 801.894 234.098C850.677 234.964 914.145 223.522 964.681 202.584C969.268 200.65 973.615 198.745 977.738 196.867C1036.79 169.523 1047.15 150.809 1083.32 142.428C1088.65 141.2 1094.05 140.238 1099.48 139.546C1121.86 136.572 1142.23 137.547 1167.83 140.603C1206.13 145.054 1238.57 153.979 1269.66 160.586C1280.27 162.854 1291.94 164.967 1304.86 166.638C1345.85 171.949 1405.48 174.173 1483.42 162.397" stroke="url(#paint10_radial_647_2806)" stroke-miterlimit="10"/>
<path d="M13.8471 433.294C76.8884 429.469 164.908 419.97 251.788 379.566C312.069 351.59 353.238 316.782 385.581 293.075C396.176 285.301 406.042 277.146 416.067 269.427C472.539 225.792 509.316 191.02 534.814 167.495C559.676 144.612 574.519 132.368 605.307 136.228C625.751 138.793 645.015 146.889 658.498 154.941C678.455 166.879 683.842 176.423 692.468 187.682C696.645 193.128 700.247 198.575 706.061 203.272C728.386 221.234 756.145 228.741 804.466 227.169C853.592 225.609 916.15 211.798 965.625 191.098C970.151 189.172 974.469 187.27 978.577 185.395C1039.1 157.555 1049.79 140.179 1083.91 132.157C1089.2 130.925 1094.56 129.95 1099.95 129.235C1122.59 126.09 1142.96 126.984 1167.84 130.003C1204.35 134.34 1236.13 143.11 1268.8 150.021C1279.37 152.254 1290.95 154.391 1303.71 156.124C1344.35 161.684 1403.81 164.878 1481.13 155.285" stroke="url(#paint11_radial_647_2806)" stroke-miterlimit="10"/>
<path d="M13.9349 439.528C73.9041 437.122 163.799 429.463 254.789 387.941C317.146 359.217 359.665 323.281 391.293 299.178C402.019 290.989 412.009 282.488 421.955 274.366C477.777 228.866 513.968 190.886 540.041 164.976C565.111 140.056 581.155 126.206 611.214 129.81C630.925 132.216 650.166 140.866 663.451 149.658C682.856 162.546 687.373 173.297 694.864 184.942C698.589 190.663 701.83 196.264 707.598 201.076C728.986 218.932 759.314 224.129 807.173 220.243C856.712 216.208 918.292 200.077 966.702 179.603C971.19 177.69 975.472 175.793 979.55 173.912C1041.58 145.614 1052.59 129.549 1084.7 121.882C1089.94 120.64 1095.25 119.652 1100.59 118.922C1123.54 115.63 1143.89 116.429 1167.98 119.407C1202.69 123.618 1233.89 132.292 1268.16 139.451C1278.67 141.676 1290.15 143.798 1302.78 145.601C1343.06 151.412 1402.35 155.578 1479.08 148.234" stroke="url(#paint12_radial_647_2806)" stroke-miterlimit="10"/>
<path d="M14.0128 445.664C70.8916 444.653 162.776 439.026 257.779 396.218C322.355 366.908 366.091 329.639 396.999 305.224C407.86 296.646 417.927 287.778 427.869 279.243C483.022 231.854 518.708 190.711 545.242 162.348C570.548 135.373 587.845 119.856 616.985 123.255C635.978 125.486 655.211 134.701 668.271 144.265C687.154 158.098 690.805 170.084 697.114 182.106C700.299 188.127 703.286 193.883 708.976 198.801C729.539 216.481 762.589 220.742 809.802 213.159C859.439 205.185 920.355 188.197 967.717 167.96C972.155 166.054 976.403 164.161 980.461 162.282C1044.02 133.605 1055.32 118.76 1085.41 111.448C1090.61 110.206 1095.87 109.209 1101.17 108.462C1124.42 105.037 1144.8 105.708 1168.02 108.626C1200.89 112.799 1231.55 121.386 1267.38 128.77C1277.85 130.973 1289.23 133.106 1301.71 134.984C1341.63 141.043 1400.76 146.181 1476.88 141.06" stroke="url(#paint13_radial_647_2806)" stroke-miterlimit="10"/>
<path d="M14.0211 451.737C67.8228 452.105 161.685 448.539 260.7 404.432C327.494 374.537 372.36 335.96 402.614 311.155C413.652 302.156 423.801 292.962 433.686 283.964C488.195 234.642 523.283 190.43 550.379 159.587C575.985 130.578 594.575 113.471 622.882 116.626C641.141 118.684 660.365 128.452 673.215 138.786C691.573 153.536 694.314 166.762 699.528 179.138C702.204 185.455 704.905 191.356 710.535 196.405C730.093 213.931 765.401 214.557 812.405 205.993C862.573 196.894 922.376 176.238 968.676 156.24C972.993 154.339 977.311 152.437 981.315 150.574C1046.35 121.402 1058 107.878 1086.07 100.934C1091.23 99.6813 1096.44 98.6719 1101.7 97.91C1125.25 94.3388 1145.54 94.9239 1168.03 97.8202C1199.18 101.802 1229.16 110.168 1266.56 117.926C1277 120.105 1288.3 122.18 1300.67 124.194C1340.22 130.423 1399.2 136.598 1474.65 133.708" stroke="url(#paint14_radial_647_2806)" stroke-miterlimit="10"/>
<path d="M14.1556 457.729C64.8718 459.531 160.691 457.975 263.748 412.578C332.82 382.09 378.764 342.142 408.316 317.051C419.423 307.63 429.761 298.109 439.6 288.732C493.578 237.655 528.003 190.106 555.504 156.844C581.324 125.729 601.087 107.046 628.656 109.988C646.182 111.873 665.427 122.189 678.051 133.281C695.908 149.029 697.697 163.418 701.821 176.173C703.944 182.805 706.388 188.834 711.941 194.003C730.6 211.362 768.406 209.59 814.959 198.808C865.442 187.177 924.38 164.255 969.6 144.485C973.918 142.584 978.131 140.695 982.148 138.94C1048.67 109.272 1060.63 97.0325 1086.69 90.442C1091.84 89.1985 1097.06 88.1987 1102.31 87.4468C1124.14 84.0398 1146.35 83.9076 1168.06 87.0555C1197.42 90.923 1226.79 99.1296 1265.78 107.191C1276.16 109.335 1287.37 111.463 1299.55 113.514C1356.45 122.839 1414.33 127.178 1472.39 126.472" stroke="url(#paint15_radial_647_2806)" stroke-miterlimit="10"/>
<path d="M14.2115 463.69C61.854 466.899 159.648 467.376 266.717 420.68C337.947 389.614 385.082 348.364 414.044 322.903C542.58 209.808 573.943 97.097 634.527 103.27C651.32 104.982 670.586 115.847 682.97 127.712C709.416 153.029 697.478 176.109 713.446 191.535C752.597 229.366 900.145 163.929 983.07 127.16C1063.92 91.3026 1066.03 82.656 1102.8 76.8211C1166.97 66.6028 1203.34 86.0739 1298.46 102.707C1355.02 112.517 1412.47 117.996 1470.24 119.088" stroke="url(#paint16_radial_647_2806)" stroke-miterlimit="10"/>
<path d="M14.6825 467.574C63.6655 471.461 158.343 471.241 260.699 426.563C331.344 395.664 376.256 354.339 407.399 327.484C531.818 220.317 562.14 116.909 623.279 118.399C647.165 118.976 671.826 122.945 688.832 131.549C722.249 148.469 713.001 168.344 732.932 182.697C776.569 214.142 914.562 156.174 993.627 122.077C1070.64 88.7804 1073.05 81.7082 1112.26 78.3338C1177.4 72.7244 1211.91 89.6778 1301.59 105.842C1357.54 115.918 1414.52 121.148 1471.79 121.463" stroke="url(#paint17_radial_647_2806)" stroke-miterlimit="10"/>
<path d="M15.1718 471.621C96.9254 478.638 179.741 465.145 254.698 432.596C324.758 401.878 367.355 360.462 400.77 332.215C520.864 230.767 550.715 135.105 612.061 133.676C643.189 132.962 672.206 130.216 694.713 135.548C733.321 144.647 727.947 160.594 752.436 174.022C799.218 199.643 928.996 148.569 1004.22 117.142C1077.25 86.4224 1079.97 80.7868 1121.75 79.9943C1187.66 78.7285 1220.52 93.5673 1304.73 109.14C1360.06 119.472 1416.55 124.456 1473.29 124.009" stroke="url(#paint18_radial_647_2806)" stroke-miterlimit="10"/>
<path d="M16.045 478.817C95.5012 486.316 176.186 473.492 249.096 441.776C318.555 411.227 358.851 369.718 394.525 340.095C510.004 244.222 541.249 165.808 601.213 152.104C638.726 143.533 672.524 141.09 700.991 142.682C744.001 145.075 742.847 156.059 772.338 168.481C821.159 189.046 943.86 144.245 1015.17 115.359C1084.36 87.3367 1087.21 82.8998 1131.61 84.7923C1198.23 87.6293 1229.5 100.58 1308.27 115.573C1362.99 126.18 1419.01 130.921 1475.23 129.699" stroke="url(#paint19_radial_647_2806)" stroke-miterlimit="10"/>
<path d="M17.3738 489.774C94.5255 497.746 173.077 485.578 243.93 454.678C312.801 424.283 350.782 382.682 388.731 351.696C499.487 261.259 531.164 189.916 590.83 174.25C635.158 162.621 673.817 148.372 707.704 153.538C754.333 160.645 756.127 161.309 792.674 166.662C838.797 190.848 959.155 143.602 1026.6 117.293C1091.89 91.8796 1094.86 88.6259 1141.94 93.3221C1209.2 100.036 1238.92 111.37 1312.25 125.727C1366.35 136.604 1421.92 141.097 1477.59 139.098" stroke="url(#paint20_radial_647_2806)" stroke-miterlimit="10"/>
<path d="M18.7327 500.992C93.5777 509.449 170.005 497.974 238.836 467.945C307.123 437.732 342.769 396.001 383.009 363.661C488.907 278.54 520.913 213.66 580.416 196.774C631.713 182.234 673.642 163.951 714.492 164.772C767.164 165.828 771.402 162.393 813.086 165.222C860.908 185.922 974.465 143.221 1037.99 119.606C1099.38 96.8007 1102.48 94.5925 1152.23 102.23C1220.2 112.621 1248.31 122.565 1316.21 136.257C1369.7 147.405 1424.81 151.651 1479.95 148.872" stroke="url(#paint21_radial_647_2806)" stroke-miterlimit="10"/>
<path d="M20.1196 512.424C92.6372 521.333 166.916 510.532 233.703 481.367C301.403 451.321 334.684 409.463 377.248 375.781C478.229 295.871 510.525 237.13 570.156 219.429C628.294 202.171 675.297 188.096 721.239 176.147C777.967 161.389 786.634 163.604 833.456 163.922C883.063 181.21 989.801 143.041 1049.53 122.049C1107.03 101.852 1110.24 100.608 1162.68 111.268C1231.2 125.202 1257.83 133.948 1320.25 146.941C1373.13 158.352 1427.8 162.35 1482.38 158.8" stroke="url(#paint22_radial_647_2806)" stroke-miterlimit="10"/>
<path d="M21.5228 524.007C78.9188 531.89 154.622 527.715 228.632 494.947C295.808 465.198 326.644 423.058 371.535 388.061C467.482 313.267 500.086 260.455 559.839 242.257C624.988 222.427 676.543 204.507 728.048 187.681C789.73 167.514 802.417 157.116 853.889 162.782C907.221 168.649 1005.16 143.067 1061.02 124.666C1114.62 107.063 1117.97 106.739 1173.08 120.466C1242.34 137.796 1267.32 145.529 1324.38 157.766C1359.85 165.371 1413.07 174.489 1484.9 168.869" stroke="url(#paint23_radial_647_2806)" stroke-miterlimit="10"/>
<path d="M22.952 535.8C81.7449 544.326 154.275 539.489 223.571 508.725C290.163 479.158 318.594 436.813 365.846 400.537C456.674 330.787 489.422 283.786 549.562 265.28C621.757 243.052 677.957 221.179 734.867 199.413C801.671 173.857 817.281 158.682 874.332 161.839C928.716 164.892 1020.52 143.182 1072.55 127.477C1122.28 112.465 1125.84 112.86 1183.51 129.872C1253.5 150.503 1276.8 157.365 1328.46 168.796C1363.45 176.543 1415.91 185.753 1487.38 179.157" stroke="url(#paint24_radial_647_2806)" stroke-miterlimit="10"/>
</g>
<defs>
<radialGradient id="paint0_radial_647_2806" cx="0" cy="0" r="1" gradientUnits="userSpaceOnUse" gradientTransform="translate(749.484 219.934) rotate(83.0884) scale(94.3769 748.726)">
<stop offset="0.530015" stop-color="#8E72DA"/>
<stop offset="1" stop-color="#C981B3"/>
</radialGradient>
<radialGradient id="paint1_radial_647_2806" cx="0" cy="0" r="1" gradientUnits="userSpaceOnUse" gradientTransform="translate(748.634 221.055) rotate(83.0884) scale(88.2307 748.41)">
<stop offset="0.530015" stop-color="#8E72DA"/>
<stop offset="1" stop-color="#C981B3"/>
</radialGradient>
<radialGradient id="paint2_radial_647_2806" cx="0" cy="0" r="1" gradientUnits="userSpaceOnUse" gradientTransform="translate(747.772 222.193) rotate(83.0884) scale(83.2201 748.079)">
<stop offset="0.530015" stop-color="#8E72DA"/>
<stop offset="1" stop-color="#C981B3"/>
</radialGradient>
<radialGradient id="paint3_radial_647_2806" cx="0" cy="0" r="1" gradientUnits="userSpaceOnUse" gradientTransform="translate(746.911 223.356) rotate(83.0884) scale(79.6234 747.733)">
<stop offset="0.530015" stop-color="#8E72DA"/>
<stop offset="1" stop-color="#C981B3"/>
</radialGradient>
<radialGradient id="paint4_radial_647_2806" cx="0" cy="0" r="1" gradientUnits="userSpaceOnUse" gradientTransform="translate(746.04 224.437) rotate(83.0884) scale(76.8113 747.402)">
<stop offset="0.530015" stop-color="#8E72DA"/>
<stop offset="1" stop-color="#C981B3"/>
</radialGradient>
<radialGradient id="paint5_radial_647_2806" cx="0" cy="0" r="1" gradientUnits="userSpaceOnUse" gradientTransform="translate(745.2 225.57) rotate(83.0884) scale(79.4312 747.063)">
<stop offset="0.530015" stop-color="#8E72DA"/>
<stop offset="1" stop-color="#C981B3"/>
</radialGradient>
<radialGradient id="paint6_radial_647_2806" cx="0" cy="0" r="1" gradientUnits="userSpaceOnUse" gradientTransform="translate(744.334 226.726) rotate(83.0884) scale(84.8384 746.755)">
<stop offset="0.530015" stop-color="#8E72DA"/>
<stop offset="1" stop-color="#C981B3"/>
</radialGradient>
<radialGradient id="paint7_radial_647_2806" cx="0" cy="0" r="1" gradientUnits="userSpaceOnUse" gradientTransform="translate(743.444 227.832) rotate(83.0884) scale(90.3984 746.386)">
<stop offset="0.530015" stop-color="#8E72DA"/>
<stop offset="1" stop-color="#C981B3"/>
</radialGradient>
<radialGradient id="paint8_radial_647_2806" cx="0" cy="0" r="1" gradientUnits="userSpaceOnUse" gradientTransform="translate(742.615 228.937) rotate(83.0884) scale(96.0436 746.093)">
<stop offset="0.530015" stop-color="#8E72DA"/>
<stop offset="1" stop-color="#C981B3"/>
</radialGradient>
<radialGradient id="paint9_radial_647_2806" cx="0" cy="0" r="1" gradientUnits="userSpaceOnUse" gradientTransform="translate(741.807 230.078) rotate(83.0884) scale(101.866 745.814)">
<stop offset="0.530015" stop-color="#8E72DA"/>
<stop offset="1" stop-color="#C981B3"/>
</radialGradient>
<radialGradient id="paint10_radial_647_2806" cx="0" cy="0" r="1" gradientUnits="userSpaceOnUse" gradientTransform="translate(740.88 231.198) rotate(83.0884) scale(107.864 745.423)">
<stop offset="0.530015" stop-color="#8E72DA"/>
<stop offset="1" stop-color="#C981B3"/>
</radialGradient>
<radialGradient id="paint11_radial_647_2806" cx="0" cy="0" r="1" gradientUnits="userSpaceOnUse" gradientTransform="translate(739.979 232.327) rotate(83.0884) scale(114.072 745.039)">
<stop offset="0.530015" stop-color="#8E72DA"/>
<stop offset="1" stop-color="#C981B3"/>
</radialGradient>
<radialGradient id="paint12_radial_647_2806" cx="0" cy="0" r="1" gradientUnits="userSpaceOnUse" gradientTransform="translate(739.184 233.462) rotate(83.0884) scale(120.406 744.776)">
<stop offset="0.530015" stop-color="#8E72DA"/>
<stop offset="1" stop-color="#C981B3"/>
</radialGradient>
<radialGradient id="paint13_radial_647_2806" cx="0" cy="0" r="1" gradientUnits="userSpaceOnUse" gradientTransform="translate(738.319 234.571) rotate(83.0884) scale(126.917 744.445)">
<stop offset="0.530015" stop-color="#8E72DA"/>
<stop offset="1" stop-color="#C981B3"/>
</radialGradient>
<radialGradient id="paint14_radial_647_2806" cx="0" cy="0" r="1" gradientUnits="userSpaceOnUse" gradientTransform="translate(737.423 235.692) rotate(83.0884) scale(133.53 744.143)">
<stop offset="0.530015" stop-color="#8E72DA"/>
<stop offset="1" stop-color="#C981B3"/>
</radialGradient>
<radialGradient id="paint15_radial_647_2806" cx="0" cy="0" r="1" gradientUnits="userSpaceOnUse" gradientTransform="translate(736.575 236.824) rotate(83.0884) scale(140.235 743.752)">
<stop offset="0.530015" stop-color="#8E72DA"/>
<stop offset="1" stop-color="#C981B3"/>
</radialGradient>
<radialGradient id="paint16_radial_647_2806" cx="0" cy="0" r="1" gradientUnits="userSpaceOnUse" gradientTransform="translate(735.749 237.948) rotate(83.0884) scale(147.014 743.459)">
<stop offset="0.530015" stop-color="#8E72DA"/>
<stop offset="1" stop-color="#C981B3"/>
</radialGradient>
<radialGradient id="paint17_radial_647_2806" cx="0" cy="0" r="1" gradientUnits="userSpaceOnUse" gradientTransform="translate(737.484 247.074) rotate(83.0884) scale(142.034 744.084)">
<stop offset="0.530015" stop-color="#8E72DA"/>
<stop offset="1" stop-color="#C981B3"/>
</radialGradient>
<radialGradient id="paint18_radial_647_2806" cx="0" cy="0" r="1" gradientUnits="userSpaceOnUse" gradientTransform="translate(739.189 256.207) rotate(83.0884) scale(137.216 744.678)">
<stop offset="0.530015" stop-color="#8E72DA"/>
<stop offset="1" stop-color="#C981B3"/>
</radialGradient>
<radialGradient id="paint19_radial_647_2806" cx="0" cy="0" r="1" gradientUnits="userSpaceOnUse" gradientTransform="translate(740.918 265.335) rotate(83.0884) scale(135.557 745.295)">
<stop offset="0.530015" stop-color="#8E72DA"/>
<stop offset="1" stop-color="#C981B3"/>
</radialGradient>
<radialGradient id="paint20_radial_647_2806" cx="0" cy="0" r="1" gradientUnits="userSpaceOnUse" gradientTransform="translate(742.634 274.426) rotate(83.0884) scale(137.721 745.904)">
<stop offset="0.530015" stop-color="#8E72DA"/>
<stop offset="1" stop-color="#C981B3"/>
</radialGradient>
<radialGradient id="paint21_radial_647_2806" cx="0" cy="0" r="1" gradientUnits="userSpaceOnUse" gradientTransform="translate(744.329 283.597) rotate(83.0884) scale(140.112 746.484)">
<stop offset="0.530015" stop-color="#8E72DA"/>
<stop offset="1" stop-color="#C981B3"/>
</radialGradient>
<radialGradient id="paint22_radial_647_2806" cx="0" cy="0" r="1" gradientUnits="userSpaceOnUse" gradientTransform="translate(746.05 292.725) rotate(83.0884) scale(142.73 747.093)">
<stop offset="0.530015" stop-color="#8E72DA"/>
<stop offset="1" stop-color="#C981B3"/>
</radialGradient>
<radialGradient id="paint23_radial_647_2806" cx="0" cy="0" r="1" gradientUnits="userSpaceOnUse" gradientTransform="translate(747.809 301.859) rotate(83.0884) scale(145.557 747.741)">
<stop offset="0.530015" stop-color="#8E72DA"/>
<stop offset="1" stop-color="#C981B3"/>
</radialGradient>
<radialGradient id="paint24_radial_647_2806" cx="0" cy="0" r="1" gradientUnits="userSpaceOnUse" gradientTransform="translate(749.529 310.987) rotate(83.0884) scale(148.533 748.35)">
<stop offset="0.530015" stop-color="#8E72DA"/>
<stop offset="1" stop-color="#C981B3"/>
</radialGradient>
</defs>
</svg>
