<svg width="383" height="547" viewBox="0 0 383 547" fill="none" xmlns="http://www.w3.org/2000/svg">
<g opacity="0.3" clip-path="url(#clip0_601_2726)">
<path d="M516.651 378.828C450.865 349.688 409.295 315.098 383.366 288.638C357.147 261.88 340.323 236.663 301.847 212.908C259.436 186.632 227.779 180.852 214.989 179.34C197.256 177.249 197.427 180.065 167.559 179.12C110.183 177.308 102.831 166.724 75.9231 169.376C31.3094 173.769 33.4634 204.64 -17.1147 220.529C-53.7443 232.043 -107.951 232.522 -147.466 205.477C-184.676 180.007 -179.53 150.207 -221.386 131.223C-238.578 123.424 -254.616 121.956 -286.68 119.023C-327.757 115.215 -357.151 117.886 -368.728 118.392C-403.029 119.907 -454.31 110.571 -525.573 59.4158" stroke="url(#paint0_radial_601_2726)" stroke-miterlimit="10"/>
<path d="M516.651 378.828C450.865 349.688 409.295 315.098 383.366 288.638C357.147 261.88 340.323 236.663 301.847 212.908C259.436 186.632 227.779 180.852 214.989 179.34C197.256 177.249 197.427 180.065 167.559 179.12C110.183 177.308 102.831 166.724 75.9231 169.376C31.3094 173.769 33.4634 204.64 -17.1147 220.529C-53.7443 232.043 -107.951 232.522 -147.466 205.477C-184.676 180.007 -179.53 150.207 -221.386 131.223C-238.578 123.424 -254.616 121.956 -286.68 119.023C-327.757 115.215 -357.151 117.886 -368.728 118.392C-403.029 119.907 -454.31 110.571 -525.573 59.4158" stroke="url(#paint1_radial_601_2726)" stroke-miterlimit="10"/>
<path d="M513.945 388.108C450.105 360.511 406.764 327.219 378.188 299.204C355.036 276.265 338.919 254.328 313.351 233.783C307.756 229.296 301.795 224.764 295.213 220.352C253.73 192.568 223.107 184.17 210.191 181.05C192.873 176.857 192.235 178.697 162.988 177.701C142.378 176.989 127.98 175.671 116.963 174.263C98.2355 171.863 89.408 169.082 73.1958 171.329C67.154 172.146 61.2267 173.656 55.531 175.829C29.191 185.871 22.5434 207.866 -19.2836 219.131C-55.6926 228.939 -108.866 227.471 -147.664 200.767C-150.738 198.649 -153.702 196.378 -156.545 193.961C-185.237 169.554 -184.814 144.256 -221.585 127.52C-225.458 125.75 -229.445 124.241 -233.519 123.003C-247.194 118.797 -262.328 117.329 -286.337 115.126C-326.132 111.53 -355.058 114.12 -367.826 114.688C-377.168 115.073 -386.526 114.675 -395.801 113.496C-427.926 109.5 -470.446 95.5092 -524.308 58.6409" stroke="url(#paint2_radial_601_2726)" stroke-miterlimit="10"/>
<path d="M513.945 388.108C450.105 360.511 406.764 327.219 378.188 299.204C355.036 276.265 338.919 254.328 313.351 233.783C307.756 229.296 301.795 224.764 295.213 220.352C253.73 192.568 223.107 184.17 210.191 181.05C192.873 176.857 192.235 178.697 162.988 177.701C142.378 176.989 127.98 175.671 116.963 174.263C98.2355 171.863 89.408 169.082 73.1958 171.329C67.154 172.146 61.2267 173.656 55.531 175.829C29.191 185.871 22.5434 207.866 -19.2836 219.131C-55.6926 228.939 -108.866 227.471 -147.664 200.767C-150.738 198.649 -153.702 196.378 -156.545 193.961C-185.237 169.554 -184.814 144.256 -221.585 127.52C-225.458 125.75 -229.445 124.241 -233.519 123.003C-247.194 118.797 -262.328 117.329 -286.337 115.126C-326.132 111.53 -355.058 114.12 -367.826 114.688C-377.168 115.073 -386.526 114.675 -395.801 113.496C-427.926 109.5 -470.446 95.5092 -524.308 58.6409" stroke="url(#paint3_radial_601_2726)" stroke-miterlimit="10"/>
<path d="M510.962 398.192C449.083 372.12 403.874 340.242 372.759 310.49C348.047 286.872 331.209 263.839 306.361 242.953C300.694 238.175 294.799 233.284 288.283 228.582C247.731 199.279 218.518 187.316 205.087 183.543C187.773 178.702 186.713 178.115 158.131 177.072C138.114 176.355 123.603 175.532 112.613 174.678C94.107 173.211 85.6367 171.272 70.2211 174.096C64.3367 175.202 58.5788 176.897 53.0344 179.156C27.4269 189.324 19.3894 209.378 -21.7625 218.561C-57.9472 226.651 -110.087 223.236 -148.169 196.873C-151.38 194.603 -154.322 192.425 -156.985 190.113C-186.639 165.107 -186.705 140.82 -222.123 124.692C-225.961 122.924 -229.912 121.412 -233.95 120.166C-247.827 115.809 -262.908 114.255 -286.362 112.186C-324.87 108.758 -353.318 111.305 -367.253 111.828C-376.518 112.207 -385.8 111.842 -395.007 110.736C-426.913 106.978 -469.483 93.7685 -523.315 58.7176" stroke="url(#paint4_radial_601_2726)" stroke-miterlimit="10"/>
<path d="M510.962 398.192C449.083 372.12 403.874 340.242 372.759 310.49C348.047 286.872 331.209 263.839 306.361 242.953C300.694 238.175 294.799 233.284 288.283 228.582C247.731 199.279 218.518 187.316 205.087 183.543C187.773 178.702 186.713 178.115 158.131 177.072C138.114 176.355 123.603 175.532 112.613 174.678C94.107 173.211 85.6367 171.272 70.2211 174.096C64.3367 175.202 58.5788 176.897 53.0344 179.156C27.4269 189.324 19.3894 209.378 -21.7625 218.561C-57.9472 226.651 -110.087 223.236 -148.169 196.873C-151.38 194.603 -154.322 192.425 -156.985 190.113C-186.639 165.107 -186.705 140.82 -222.123 124.692C-225.961 122.924 -229.912 121.412 -233.95 120.166C-247.827 115.809 -262.908 114.255 -286.362 112.186C-324.87 108.758 -353.318 111.305 -367.253 111.828C-376.518 112.207 -385.8 111.842 -395.007 110.736C-426.913 106.978 -469.483 93.7685 -523.315 58.7176" stroke="url(#paint5_radial_601_2726)" stroke-miterlimit="10"/>
<path d="M507.733 408.948C447.803 384.443 400.803 353.855 367.069 322.501C340.866 298.135 323.258 274.048 299.155 252.818C293.404 247.745 287.562 242.501 281.136 237.506C241.509 206.705 213.04 193.262 199.769 186.718C183.348 178.632 180.978 178.216 153.05 177.122C133.612 176.374 118.984 176.055 107.971 175.736C89.7 175.197 81.559 174.113 66.9434 177.504C61.2525 178.916 55.691 180.806 50.3177 183.152C25.4463 193.436 15.9604 211.517 -24.43 218.636C-60.4318 224.994 -111.5 219.658 -148.863 193.625C-152.042 191.365 -154.963 189.195 -157.617 186.921C-188.194 161.27 -188.796 138.026 -222.804 122.409C-226.61 120.642 -230.528 119.126 -234.533 117.871C-248.61 113.352 -263.686 111.719 -286.535 109.744C-323.733 106.48 -351.72 108.967 -366.839 109.531C-376.038 109.879 -385.251 109.54 -394.4 108.517C-426.087 104.997 -468.712 92.58 -522.498 59.3397" stroke="url(#paint6_radial_601_2726)" stroke-miterlimit="10"/>
<path d="M507.733 408.948C447.803 384.443 400.803 353.855 367.069 322.501C340.866 298.135 323.258 274.048 299.155 252.818C293.404 247.745 287.562 242.501 281.136 237.506C241.509 206.705 213.04 193.262 199.769 186.718C183.348 178.632 180.978 178.216 153.05 177.122C133.612 176.374 118.984 176.055 107.971 175.736C89.7 175.197 81.559 174.113 66.9434 177.504C61.2525 178.916 55.691 180.806 50.3177 183.152C25.4463 193.436 15.9604 211.517 -24.43 218.636C-60.4318 224.994 -111.5 219.658 -148.863 193.625C-152.042 191.365 -154.963 189.195 -157.617 186.921C-188.194 161.27 -188.796 138.026 -222.804 122.409C-226.61 120.642 -230.528 119.126 -234.533 117.871C-248.61 113.352 -263.686 111.719 -286.535 109.744C-323.733 106.48 -351.72 108.967 -366.839 109.531C-376.038 109.879 -385.251 109.54 -394.4 108.517C-426.087 104.997 -468.712 92.58 -522.498 59.3397" stroke="url(#paint7_radial_601_2726)" stroke-miterlimit="10"/>
<path d="M504.51 419.726C446.525 396.764 397.747 367.494 361.386 334.524C333.686 309.396 315.321 284.247 291.936 262.686C286.112 257.322 280.337 251.719 273.976 246.434C235.263 214.166 207.941 198.283 194.431 189.92C178.471 180.035 175.264 178.356 147.95 177.197C129.038 176.435 114.366 176.61 103.361 176.804C85.3286 177.181 77.5202 176.977 63.6979 180.92C58.2112 182.635 52.8455 184.715 47.6368 187.146C23.4983 197.522 12.5602 213.641 -27.1005 218.754C-62.9158 223.37 -112.906 216.126 -149.563 190.43C-152.701 188.185 -155.601 186.022 -158.251 183.772C-189.767 157.483 -190.919 135.392 -223.505 120.222C-227.286 118.469 -231.171 116.949 -235.137 115.67C-249.396 111.008 -264.402 109.306 -286.729 107.396C-322.645 104.31 -350.163 106.751 -366.456 107.325C-375.587 107.662 -384.73 107.354 -393.818 106.404C-425.3 103.128 -467.972 91.4822 -521.731 60.0696" stroke="url(#paint8_radial_601_2726)" stroke-miterlimit="10"/>
<path d="M504.51 419.726C446.525 396.764 397.747 367.494 361.386 334.524C333.686 309.396 315.321 284.247 291.936 262.686C286.112 257.322 280.337 251.719 273.976 246.434C235.263 214.166 207.941 198.283 194.431 189.92C178.471 180.035 175.264 178.356 147.95 177.197C129.038 176.435 114.366 176.61 103.361 176.804C85.3286 177.181 77.5202 176.977 63.6979 180.92C58.2112 182.635 52.8455 184.715 47.6368 187.146C23.4983 197.522 12.5602 213.641 -27.1005 218.754C-62.9158 223.37 -112.906 216.126 -149.563 190.43C-152.701 188.185 -155.601 186.022 -158.251 183.772C-189.767 157.483 -190.919 135.392 -223.505 120.222C-227.286 118.469 -231.171 116.949 -235.137 115.67C-249.396 111.008 -264.402 109.306 -286.729 107.396C-322.645 104.31 -350.163 106.751 -366.456 107.325C-375.587 107.662 -384.73 107.354 -393.818 106.404C-425.3 103.128 -467.972 91.4822 -521.731 60.0696" stroke="url(#paint9_radial_601_2726)" stroke-miterlimit="10"/>
<path d="M502.573 426.723C446.533 405.303 395.963 377.358 356.987 342.775C327.804 316.878 308.683 290.633 286 268.784C280.118 263.121 274.374 257.193 268.1 251.591C230.321 217.863 204.096 199.581 190.415 189.339C174.88 177.726 170.803 174.68 144.171 173.49C129.459 172.848 114.722 173.071 100.037 174.158C82.2159 175.431 74.7534 176.134 61.7735 180.59C56.1003 182.55 51.269 185.057 46.1838 187.361C22.7926 197.787 10.367 212.012 -28.5151 215.079C-64.1714 217.932 -113.066 208.797 -149.007 183.443C-152.114 181.208 -154.994 179.052 -157.63 176.83C-190.104 149.931 -191.745 128.817 -222.961 114.237C-226.71 112.494 -230.56 110.975 -234.489 109.687C-248.957 104.894 -263.904 103.086 -285.625 101.235C-320.237 98.2995 -347.306 100.711 -364.762 101.299C-373.831 101.62 -382.91 101.338 -391.941 100.453C-423.208 97.4254 -465.924 86.5749 -519.649 56.9694" stroke="url(#paint10_radial_601_2726)" stroke-miterlimit="10"/>
<path d="M502.573 426.723C446.533 405.303 395.963 377.358 356.987 342.775C327.804 316.878 308.683 290.633 286 268.784C280.118 263.121 274.374 257.193 268.1 251.591C230.321 217.863 204.096 199.581 190.415 189.339C174.88 177.726 170.803 174.68 144.171 173.49C129.459 172.848 114.722 173.071 100.037 174.158C82.2159 175.431 74.7534 176.134 61.7735 180.59C56.1003 182.55 51.269 185.057 46.1838 187.361C22.7926 197.787 10.367 212.012 -28.5151 215.079C-64.1714 217.932 -113.066 208.797 -149.007 183.443C-152.114 181.208 -154.994 179.052 -157.63 176.83C-190.104 149.931 -191.745 128.817 -222.961 114.237C-226.71 112.494 -230.56 110.975 -234.489 109.687C-248.957 104.894 -263.904 103.086 -285.625 101.235C-320.237 98.2995 -347.306 100.711 -364.762 101.299C-373.831 101.62 -382.91 101.338 -391.941 100.453C-423.208 97.4254 -465.924 86.5749 -519.649 56.9694" stroke="url(#paint11_radial_601_2726)" stroke-miterlimit="10"/>
<path d="M501.357 431.764C447.28 411.869 394.923 385.239 353.313 349.06C322.646 322.394 302.798 295.041 280.772 272.967C274.824 266.992 269.136 260.736 262.931 254.833C226.024 219.659 200.883 198.984 187.048 186.848C171.951 173.568 167.031 169.107 141.044 167.862C126.483 167.166 111.89 167.712 97.4219 169.495C79.8605 171.657 72.6956 173.274 60.5086 178.317C55.1059 180.534 50.5001 183.293 45.4317 185.648C22.7487 196.204 8.8934 208.336 -29.2288 209.477C-64.7396 210.538 -112.536 199.537 -147.757 174.513C-150.823 172.293 -153.671 170.148 -156.315 167.946C-189.759 140.469 -191.931 120.351 -221.741 106.398C-225.458 104.654 -229.275 103.13 -233.172 101.835C-247.822 96.898 -262.736 94.9967 -283.888 93.2737C-317.207 90.5197 -343.804 92.8747 -362.452 93.49C-371.451 93.7914 -380.46 93.5361 -389.428 92.7255C-420.49 89.943 -463.259 79.8844 -516.947 52.0757" stroke="url(#paint12_radial_601_2726)" stroke-miterlimit="10"/>
<path d="M501.357 431.764C447.28 411.869 394.923 385.239 353.313 349.06C322.646 322.394 302.798 295.041 280.772 272.967C274.824 266.992 269.136 260.736 262.931 254.833C226.024 219.659 200.883 198.984 187.048 186.848C171.951 173.568 167.031 169.107 141.044 167.862C126.483 167.166 111.89 167.712 97.4219 169.495C79.8605 171.657 72.6956 173.274 60.5086 178.317C55.1059 180.534 50.5001 183.293 45.4317 185.648C22.7487 196.204 8.8934 208.336 -29.2288 209.477C-64.7396 210.538 -112.536 199.537 -147.757 174.513C-150.823 172.293 -153.671 170.148 -156.315 167.946C-189.759 140.469 -191.931 120.351 -221.741 106.398C-225.458 104.654 -229.275 103.13 -233.172 101.835C-247.822 96.898 -262.736 94.9967 -283.888 93.2737C-317.207 90.5197 -343.804 92.8747 -362.452 93.49C-371.451 93.7914 -380.46 93.5361 -389.428 92.7255C-420.49 89.943 -463.259 79.8844 -516.947 52.0757" stroke="url(#paint13_radial_601_2726)" stroke-miterlimit="10"/>
<path d="M500.087 436.869C447.958 418.541 393.848 393.192 349.583 355.41C317.448 327.969 296.888 299.489 275.541 277.129C269.535 270.821 263.881 264.229 257.749 258.051C221.728 221.457 197.636 198.425 183.702 184.331C168.916 169.387 163.268 163.516 137.936 162.22C123.484 161.516 109 162.434 94.7541 164.956C77.4802 167.993 70.5881 170.562 59.2088 176.116C54.1041 178.61 49.7139 181.582 44.6618 184.024C22.7018 194.634 7.35708 204.744 -29.9774 203.946C-65.3459 203.192 -112.016 190.346 -146.493 165.684C-149.528 163.474 -152.356 161.336 -154.983 159.152C-189.371 131.023 -192.012 111.959 -220.464 98.4995C-224.151 96.7662 -227.931 95.2398 -231.788 93.9276C-246.622 88.7877 -261.501 86.8522 -282.076 85.2364C-314.103 82.6293 -340.228 84.9622 -360.057 85.5739C-368.992 85.8683 -377.937 85.6461 -386.847 84.9085C-417.679 82.333 -460.503 73.0663 -514.156 47.0992" stroke="url(#paint14_radial_601_2726)" stroke-miterlimit="10"/>
<path d="M500.087 436.869C447.958 418.541 393.848 393.192 349.583 355.41C317.448 327.969 296.888 299.489 275.541 277.129C269.535 270.821 263.881 264.229 257.749 258.051C221.728 221.457 197.636 198.425 183.702 184.331C168.916 169.387 163.268 163.516 137.936 162.22C123.484 161.516 109 162.434 94.7541 164.956C77.4802 167.993 70.5881 170.562 59.2088 176.116C54.1041 178.61 49.7139 181.582 44.6618 184.024C22.7018 194.634 7.35708 204.744 -29.9774 203.946C-65.3459 203.192 -112.016 190.346 -146.493 165.684C-149.528 163.474 -152.356 161.336 -154.983 159.152C-189.371 131.023 -192.012 111.959 -220.464 98.4995C-224.151 96.7662 -227.931 95.2398 -231.788 93.9276C-246.622 88.7877 -261.501 86.8522 -282.076 85.2364C-314.103 82.6293 -340.228 84.9622 -360.057 85.5739C-368.992 85.8683 -377.937 85.6461 -386.847 84.9085C-417.679 82.333 -460.503 73.0663 -514.156 47.0992" stroke="url(#paint15_radial_601_2726)" stroke-miterlimit="10"/>
<path d="M498.818 442.005C448.634 425.22 392.753 401.168 345.855 361.791C312.24 333.57 290.974 303.954 270.273 281.366C264.218 274.763 258.579 267.864 252.558 261.33C217.412 223.314 194.349 197.916 180.326 181.87C165.867 165.278 159.489 157.972 134.801 156.622C120.465 155.909 106.099 157.166 92.1062 160.36C75.0335 164.255 68.5073 167.808 57.9357 173.873C53.115 176.65 48.927 179.809 43.9015 182.341C22.6609 193.015 5.85813 201.079 -30.6994 198.373C-65.9354 195.766 -111.484 181.12 -145.272 156.777C-148.276 154.578 -151.083 152.447 -153.7 150.301C-189.068 121.59 -192.181 103.521 -219.258 90.6067C-222.917 88.8819 -226.664 87.3515 -230.485 86.0221C-245.504 80.7139 -260.393 78.7056 -280.363 77.1835C-311.083 74.7512 -336.754 77.0445 -357.757 77.6664C-366.627 77.9601 -375.506 77.7792 -384.358 77.1245C-414.996 74.8247 -457.86 66.3085 -511.482 42.1588" stroke="url(#paint16_radial_601_2726)" stroke-miterlimit="10"/>
<path d="M498.818 442.005C448.634 425.22 392.753 401.168 345.855 361.791C312.24 333.57 290.974 303.954 270.273 281.366C264.218 274.763 258.579 267.864 252.558 261.33C217.412 223.314 194.349 197.916 180.326 181.87C165.867 165.278 159.489 157.972 134.801 156.622C120.465 155.909 106.099 157.166 92.1062 160.36C75.0335 164.255 68.5073 167.808 57.9357 173.873C53.115 176.65 48.927 179.809 43.9015 182.341C22.6609 193.015 5.85813 201.079 -30.6994 198.373C-65.9354 195.766 -111.484 181.12 -145.272 156.777C-148.276 154.578 -151.083 152.447 -153.7 150.301C-189.068 121.59 -192.181 103.521 -219.258 90.6067C-222.917 88.8819 -226.664 87.3515 -230.485 86.0221C-245.504 80.7139 -260.393 78.7056 -280.363 77.1835C-311.083 74.7512 -336.754 77.0445 -357.757 77.6664C-366.627 77.9601 -375.506 77.7792 -384.358 77.1245C-414.996 74.8247 -457.86 66.3085 -511.482 42.1588" stroke="url(#paint17_radial_601_2726)" stroke-miterlimit="10"/>
<path d="M497.557 447.114C449.329 431.84 391.661 409.068 342.126 368.105C306.993 339.081 285.086 308.339 265.004 285.537C258.901 278.605 253.286 271.401 247.344 264.571C213.074 225.167 191.024 197.41 176.942 179.363C162.751 161.162 155.686 152.391 131.654 150.99C117.413 150.294 103.154 151.917 89.4348 155.796C72.6154 160.531 66.3995 165.095 56.6391 171.661C52.1025 174.722 48.1512 178.067 43.0867 180.679C22.5484 191.398 4.28846 197.348 -31.4928 192.803C-66.5894 188.322 -111.013 171.899 -144.095 147.894C-147.058 145.71 -149.844 143.586 -152.476 141.516C-188.81 112.215 -192.406 95.1366 -218.094 82.7965C-221.723 81.0578 -225.445 79.5206 -229.244 78.192C-244.477 72.7982 -259.26 70.6527 -278.687 69.1683C-308.11 66.9072 -333.318 69.1645 -355.504 69.7931C-363.522 70.0263 -372.295 69.9633 -381.901 69.2985C-412.321 67.2367 -455.239 59.5125 -508.817 37.1734" stroke="url(#paint18_radial_601_2726)" stroke-miterlimit="10"/>
<path d="M497.557 447.114C449.329 431.84 391.661 409.068 342.126 368.105C306.993 339.081 285.086 308.339 265.004 285.537C258.901 278.605 253.286 271.401 247.344 264.571C213.074 225.167 191.024 197.41 176.942 179.363C162.751 161.162 155.686 152.391 131.654 150.99C117.413 150.294 103.154 151.917 89.4348 155.796C72.6154 160.531 66.3995 165.095 56.6391 171.661C52.1025 174.722 48.1512 178.067 43.0867 180.679C22.5484 191.398 4.28846 197.348 -31.4928 192.803C-66.5894 188.322 -111.013 171.899 -144.095 147.894C-147.058 145.71 -149.844 143.586 -152.476 141.516C-188.81 112.215 -192.406 95.1366 -218.094 82.7965C-221.723 81.0578 -225.445 79.5206 -229.244 78.192C-244.477 72.7982 -259.26 70.6527 -278.687 69.1683C-308.11 66.9072 -333.318 69.1645 -355.504 69.7931C-363.522 70.0263 -372.295 69.9633 -381.901 69.2985C-412.321 67.2367 -455.239 59.5125 -508.817 37.1734" stroke="url(#paint19_radial_601_2726)" stroke-miterlimit="10"/>
<path d="M496.347 452.082C450.112 438.38 390.663 416.902 338.466 374.356C301.909 344.561 279.285 312.644 259.808 289.635C253.667 282.376 248.063 274.875 242.208 267.728C208.771 226.922 187.711 196.809 173.638 176.796C159.737 156.923 151.975 146.752 128.587 145.297C114.425 144.618 100.262 146.593 86.8271 151.119C70.2368 156.698 64.4102 162.311 55.4062 169.337C51.1536 172.682 47.4148 176.216 42.408 178.929C22.5792 189.674 2.85083 193.575 -32.1296 187.153C-67.11 180.731 -110.391 162.585 -142.758 138.921C-145.689 136.747 -148.455 134.63 -151.066 132.568C-188.377 102.673 -192.455 86.5863 -216.792 74.7953C-220.38 73.0628 -224.061 71.5285 -227.818 70.1992C-243.267 64.6263 -257.984 62.4228 -276.799 61.0806C-304.933 58.9768 -329.669 61.212 -353.036 61.8369C-361.016 62.0602 -369.723 62.0084 -379.244 61.4311C-409.445 59.6072 -452.414 52.6646 -505.964 32.1533" stroke="url(#paint20_radial_601_2726)" stroke-miterlimit="10"/>
<path d="M496.347 452.082C450.112 438.38 390.663 416.902 338.466 374.356C301.909 344.561 279.285 312.644 259.808 289.635C253.667 282.376 248.063 274.875 242.208 267.728C208.771 226.922 187.711 196.809 173.638 176.796C159.737 156.923 151.975 146.752 128.587 145.297C114.425 144.618 100.262 146.593 86.8271 151.119C70.2368 156.698 64.4102 162.311 55.4062 169.337C51.1536 172.682 47.4148 176.216 42.408 178.929C22.5792 189.674 2.85083 193.575 -32.1296 187.153C-67.11 180.731 -110.391 162.585 -142.758 138.921C-145.689 136.747 -148.455 134.63 -151.066 132.568C-188.377 102.673 -192.455 86.5863 -216.792 74.7953C-220.38 73.0628 -224.061 71.5285 -227.818 70.1992C-243.267 64.6263 -257.984 62.4228 -276.799 61.0806C-304.933 58.9768 -329.669 61.212 -353.036 61.8369C-361.016 62.0602 -369.723 62.0084 -379.244 61.4311C-409.445 59.6072 -452.414 52.6646 -505.964 32.1533" stroke="url(#paint21_radial_601_2726)" stroke-miterlimit="10"/>
<path d="M495.147 456.979C450.819 444.829 389.666 424.625 334.804 380.508C296.73 349.943 273.51 316.835 254.623 293.66C248.438 286.062 242.84 278.274 237.052 270.802C204.472 228.591 184.381 196.15 170.349 174.113C156.656 152.668 148.231 140.969 125.567 139.498C110.517 138.523 95.329 142.028 84.2758 146.34C67.9114 152.738 62.3739 159.39 54.2193 166.907C50.2716 170.543 46.7349 174.263 41.7511 177.076C22.6286 187.823 1.48086 189.634 -32.7373 181.38C-67.5324 173.019 -109.745 153.158 -141.395 129.834C-144.285 127.675 -147.03 125.566 -149.631 123.506C-187.904 93.0122 -192.454 77.9199 -215.392 66.7063C-218.951 64.9769 -222.599 63.4385 -226.321 62.0975C-241.931 56.353 -256.626 54.0875 -274.923 52.8207C-301.761 50.8881 -326.001 53.0981 -350.553 53.7296C-358.49 53.9326 -367.139 53.9126 -376.557 53.4059C-406.553 51.8267 -449.572 45.6656 -503.071 26.9443" stroke="url(#paint22_radial_601_2726)" stroke-miterlimit="10"/>
<path d="M495.147 456.979C450.819 444.829 389.666 424.625 334.804 380.508C296.73 349.943 273.51 316.835 254.623 293.66C248.438 286.062 242.84 278.274 237.052 270.802C204.472 228.591 184.381 196.15 170.349 174.113C156.656 152.668 148.231 140.969 125.567 139.498C110.517 138.523 95.329 142.028 84.2758 146.34C67.9114 152.738 62.3739 159.39 54.2193 166.907C50.2716 170.543 46.7349 174.263 41.7511 177.076C22.6286 187.823 1.48086 189.634 -32.7373 181.38C-67.5324 173.019 -109.745 153.158 -141.395 129.834C-144.285 127.675 -147.03 125.566 -149.631 123.506C-187.904 93.0122 -192.454 77.9199 -215.392 66.7063C-218.951 64.9769 -222.599 63.4385 -226.321 62.0975C-241.931 56.353 -256.626 54.0875 -274.923 52.8207C-301.761 50.8881 -326.001 53.0981 -350.553 53.7296C-358.49 53.9326 -367.139 53.9126 -376.557 53.4059C-406.553 51.8267 -449.572 45.6656 -503.071 26.9443" stroke="url(#paint23_radial_601_2726)" stroke-miterlimit="10"/>
<path d="M493.979 461.824C451.593 451.226 388.774 432.183 331.177 386.596C291.752 355.147 267.769 320.964 249.463 297.585C243.258 289.644 237.632 281.568 231.972 273.793C200.187 230.224 181.083 195.369 167.064 171.39C153.584 148.328 144.586 135.204 122.487 133.639C107.989 132.646 92.7193 136.586 81.6763 141.504C65.5378 148.722 60.4068 156.441 52.9946 164.424C49.3206 168.34 46.0138 172.232 41.0428 175.142C22.6086 185.942 0.0354703 185.58 -33.4423 175.59C-68.0931 165.241 -109.195 143.715 -140.126 120.722C-142.991 118.579 -145.712 116.478 -148.289 114.419C-187.556 83.3487 -192.571 69.2302 -214.131 58.5868C-217.654 56.8565 -221.266 55.3151 -224.952 53.9689C-240.751 48.0665 -255.421 45.7285 -273.144 44.5448C-298.672 42.7766 -322.487 44.9951 -348.218 45.5883C-356.121 45.7918 -364.69 45.7762 -374.03 45.343C-403.81 44.0121 -446.88 38.6327 -500.355 21.7494" stroke="url(#paint24_radial_601_2726)" stroke-miterlimit="10"/>
<path d="M493.979 461.824C451.593 451.226 388.774 432.183 331.177 386.596C291.752 355.147 267.769 320.964 249.463 297.585C243.258 289.644 237.632 281.568 231.972 273.793C200.187 230.224 181.083 195.369 167.064 171.39C153.584 148.328 144.586 135.204 122.487 133.639C107.989 132.646 92.7193 136.586 81.6763 141.504C65.5378 148.722 60.4068 156.441 52.9946 164.424C49.3206 168.34 46.0138 172.232 41.0428 175.142C22.6086 185.942 0.0354703 185.58 -33.4423 175.59C-68.0931 165.241 -109.195 143.715 -140.126 120.722C-142.991 118.579 -145.712 116.478 -148.289 114.419C-187.556 83.3487 -192.571 69.2302 -214.131 58.5868C-217.654 56.8565 -221.266 55.3151 -224.952 53.9689C-240.751 48.0665 -255.421 45.7285 -273.144 44.5448C-298.672 42.7766 -322.487 44.9951 -348.218 45.5883C-356.121 45.7918 -364.69 45.7762 -374.03 45.343C-403.81 44.0121 -446.88 38.6327 -500.355 21.7494" stroke="url(#paint25_radial_601_2726)" stroke-miterlimit="10"/>
<path d="M492.836 466.593C452.409 457.531 387.809 439.782 327.575 392.61C286.671 360.382 262.054 324.983 244.318 301.465C238.085 293.202 232.47 284.829 226.886 276.733C195.913 231.789 177.731 194.543 163.817 168.586C150.533 143.889 140.936 129.283 119.53 127.692C105.575 126.668 90.2108 131.05 79.1916 136.601C63.2583 144.631 58.5267 153.439 51.8915 161.888C48.5497 166.115 45.3969 170.165 40.4628 173.169C22.6486 183.953 -1.70139 182.465 -34.0631 169.689C-68.0859 156.256 -108.562 134.16 -138.786 111.504C-141.617 109.373 -144.314 107.28 -146.877 105.226C-187.17 73.6381 -192.604 60.4284 -212.786 50.3551C-216.28 48.6307 -219.86 47.0886 -223.514 45.7349C-239.504 39.6848 -254.173 37.243 -271.264 36.1395C-295.471 34.6085 -318.885 36.8388 -345.769 37.3802C-353.634 37.5737 -362.14 37.5797 -371.38 37.2273C-400.956 36.1411 -444.077 31.5432 -497.511 16.481" stroke="url(#paint26_radial_601_2726)" stroke-miterlimit="10"/>
<path d="M492.836 466.593C452.409 457.531 387.809 439.782 327.575 392.61C286.671 360.382 262.054 324.983 244.318 301.465C238.085 293.202 232.47 284.829 226.886 276.733C195.913 231.789 177.731 194.543 163.817 168.586C150.533 143.889 140.936 129.283 119.53 127.692C105.575 126.668 90.2108 131.05 79.1916 136.601C63.2583 144.631 58.5267 153.439 51.8915 161.888C48.5497 166.115 45.3969 170.165 40.4628 173.169C22.6486 183.953 -1.70139 182.465 -34.0631 169.689C-68.0859 156.256 -108.562 134.16 -138.786 111.504C-141.617 109.373 -144.314 107.28 -146.877 105.226C-187.17 73.6381 -192.604 60.4284 -212.786 50.3551C-216.28 48.6307 -219.86 47.0886 -223.514 45.7349C-239.504 39.6848 -254.173 37.243 -271.264 36.1395C-295.471 34.6085 -318.885 36.8388 -345.769 37.3802C-353.634 37.5737 -362.14 37.5797 -371.38 37.2273C-400.956 36.1411 -444.077 31.5432 -497.511 16.481" stroke="url(#paint27_radial_601_2726)" stroke-miterlimit="10"/>
<path d="M491.753 471.322C453.279 463.782 386.901 447.351 324.034 398.584C281.649 365.576 256.458 328.994 239.257 305.268C232.973 296.651 227.358 288.011 221.896 279.564C191.726 233.207 174.515 193.657 160.639 165.686C147.502 139.361 137.263 123.328 116.496 121.669C103.095 120.616 87.6389 125.43 76.6331 131.612C60.9122 140.433 56.6109 150.339 50.6943 159.222C47.664 163.755 44.6895 167.959 39.7749 171.074C22.7047 181.884 -2.61245 177.235 -34.6505 163.726C-68.8526 149.339 -107.885 124.546 -137.393 102.231C-140.138 100.122 -142.884 98.0126 -145.411 95.9785C-186.667 63.7909 -192.59 51.5583 -211.397 42.0655C-214.855 40.3396 -218.399 38.7944 -222.017 37.4362C-238.197 31.2281 -252.789 28.7319 -269.354 27.7177C-292.299 26.2883 -315.189 28.4452 -343.264 29.0485C-351.101 29.2286 -359.539 29.2007 -368.728 28.9701C-398.067 28.0701 -441.267 24.302 -494.618 11.075" stroke="url(#paint28_radial_601_2726)" stroke-miterlimit="10"/>
<path d="M491.753 471.322C453.279 463.782 386.901 447.351 324.034 398.584C281.649 365.576 256.458 328.994 239.257 305.268C232.973 296.651 227.358 288.011 221.896 279.564C191.726 233.207 174.515 193.657 160.639 165.686C147.502 139.361 137.263 123.328 116.496 121.669C103.095 120.616 87.6389 125.43 76.6331 131.612C60.9122 140.433 56.6109 150.339 50.6943 159.222C47.664 163.755 44.6895 167.959 39.7749 171.074C22.7047 181.884 -2.61245 177.235 -34.6505 163.726C-68.8526 149.339 -107.885 124.546 -137.393 102.231C-140.138 100.122 -142.884 98.0126 -145.411 95.9785C-186.667 63.7909 -192.59 51.5583 -211.397 42.0655C-214.855 40.3396 -218.399 38.7944 -222.017 37.4362C-238.197 31.2281 -252.789 28.7319 -269.354 27.7177C-292.299 26.2883 -315.189 28.4452 -343.264 29.0485C-351.101 29.2286 -359.539 29.2007 -368.728 28.9701C-398.067 28.0701 -441.267 24.302 -494.618 11.075" stroke="url(#paint29_radial_601_2726)" stroke-miterlimit="10"/>
<path d="M490.595 475.972C454.068 469.999 385.938 454.848 320.413 404.488C276.507 370.687 250.791 332.881 234.141 309.033C227.882 300.078 222.19 291.156 216.829 282.419C187.349 234.773 171.202 192.72 157.466 162.805C144.549 134.807 133.753 117.377 113.55 115.658C100.704 114.578 85.1354 119.816 74.1569 126.621C58.6165 136.292 54.7878 147.243 49.5826 156.581C46.8913 161.439 44.0778 165.78 39.1966 169C22.7982 179.81 -3.87791 172.93 -35.2007 157.758C-69.1785 141.352 -107.191 114.921 -135.969 92.9398C-138.714 90.8305 -141.387 88.7463 -143.944 86.7949C-186.172 54.0039 -192.542 42.7281 -209.982 33.802C-213.438 32.0839 -216.982 30.5468 -220.599 29.1969C-235.577 23.3674 -251.41 20.0336 -267.466 19.3282C-289.115 18.07 -311.54 20.1909 -340.8 20.8009C-348.595 20.9607 -356.971 20.9889 -366.03 20.8152C-408.31 19.8018 -450.398 14.7631 -491.724 5.76746" stroke="url(#paint30_radial_601_2726)" stroke-miterlimit="10"/>
<path d="M490.595 475.972C454.068 469.999 385.938 454.848 320.413 404.488C276.507 370.687 250.791 332.881 234.141 309.033C227.882 300.078 222.19 291.156 216.829 282.419C187.349 234.773 171.202 192.72 157.466 162.805C144.549 134.807 133.753 117.377 113.55 115.658C100.704 114.578 85.1354 119.816 74.1569 126.621C58.6165 136.292 54.7878 147.243 49.5826 156.581C46.8913 161.439 44.0778 165.78 39.1966 169C22.7982 179.81 -3.87791 172.93 -35.2007 157.758C-69.1785 141.352 -107.191 114.921 -135.969 92.9398C-138.714 90.8305 -141.387 88.7463 -143.944 86.7949C-186.172 54.0039 -192.542 42.7281 -209.982 33.802C-213.438 32.0839 -216.982 30.5468 -220.599 29.1969C-235.577 23.3674 -251.41 20.0336 -267.466 19.3282C-289.115 18.07 -311.54 20.1909 -340.8 20.8009C-348.595 20.9607 -356.971 20.9889 -366.03 20.8152C-408.31 19.8018 -450.398 14.7631 -491.724 5.76746" stroke="url(#paint31_radial_601_2726)" stroke-miterlimit="10"/>
<path d="M489.498 480.608C454.917 476.178 385.016 462.324 316.858 410.369C271.513 375.803 245.177 336.809 229.015 312.759C157.303 205.949 154.896 113.574 110.549 109.57C98.2573 108.462 82.5766 114.124 71.6324 121.566C48.2642 137.444 52.6947 157.162 38.5597 166.858C3.90258 190.637 -89.8317 118.192 -142.513 77.4821C-193.877 37.7847 -193.847 30.7419 -219.062 20.8475C-263.066 3.55101 -292.479 13.4313 -363.341 12.5522C-405.453 11.9692 -447.443 7.87996 -488.878 0.327063" stroke="url(#paint32_radial_601_2726)" stroke-miterlimit="10"/>
<path d="M489.498 480.608C454.917 476.178 385.016 462.324 316.858 410.369C271.513 375.803 245.177 336.809 229.015 312.759C157.303 205.949 154.896 113.574 110.549 109.57C98.2573 108.462 82.5766 114.124 71.6324 121.566C48.2642 137.444 52.6947 157.162 38.5597 166.858C3.90258 190.637 -89.8317 118.192 -142.513 77.4821C-193.877 37.7847 -193.847 30.7419 -219.062 20.8475C-263.066 3.55101 -292.479 13.4313 -363.341 12.5522C-405.453 11.9692 -447.443 7.87996 -488.878 0.327063" stroke="url(#paint33_radial_601_2726)" stroke-miterlimit="10"/>
<path d="M488.473 483.565C452.815 479.468 385.263 465.525 320.111 415.827C275.156 381.477 250.419 342.748 232.947 317.295C163.123 215.702 159.81 130.726 115.898 122.993C98.7432 119.968 80.4337 119.473 66.7674 123.702C39.9108 132.024 42.99 148.854 26.2159 157.137C-10.5118 175.288 -98.749 110.052 -149.149 71.986C-198.223 34.8425 -198.694 28.9808 -226.084 20.6491C-271.597 6.80254 -299.241 14.9907 -366.127 14.5397C-407.854 14.2516 -449.463 10.0372 -490.403 1.95234" stroke="url(#paint34_radial_601_2726)" stroke-miterlimit="10"/>
<path d="M488.473 483.565C452.815 479.468 385.263 465.525 320.111 415.827C275.156 381.477 250.419 342.748 232.947 317.295C163.123 215.702 159.81 130.726 115.898 122.993C98.7432 119.968 80.4337 119.473 66.7674 123.702C39.9108 132.024 42.99 148.854 26.2159 157.137C-10.5118 175.288 -98.749 110.052 -149.149 71.986C-198.223 34.8425 -198.694 28.9808 -226.084 20.6491C-271.597 6.80254 -299.241 14.9907 -366.127 14.5397C-407.854 14.2516 -449.463 10.0372 -490.403 1.95234" stroke="url(#paint35_radial_601_2726)" stroke-miterlimit="10"/>
<path d="M487.406 486.648C427.797 480.223 371.067 457.664 323.325 421.401C278.755 387.277 255.687 348.813 236.84 321.946C169.09 225.438 164.739 146.565 121.197 136.528C99.1014 131.444 78.8729 125.083 61.8595 125.964C32.6833 127.437 33.6928 140.642 13.8292 147.542C-24.111 160.699 -107.706 102.028 -155.834 66.6022C-202.525 32.0447 -203.473 27.2572 -233.156 20.5629C-279.988 9.98864 -306.079 16.7694 -368.955 16.6534C-410.285 16.6551 -451.502 12.3196 -491.929 3.71818" stroke="url(#paint36_radial_601_2726)" stroke-miterlimit="10"/>
<path d="M487.406 486.648C427.797 480.223 371.067 457.664 323.325 421.401C278.755 387.277 255.687 348.813 236.84 321.946C169.09 225.438 164.739 146.565 121.197 136.528C99.1014 131.444 78.8729 125.083 61.8595 125.964C32.6833 127.437 33.6928 140.642 13.8292 147.542C-24.111 160.699 -107.706 102.028 -155.834 66.6022C-202.525 32.0447 -203.473 27.2572 -233.156 20.5629C-279.988 9.98864 -306.079 16.7694 -368.955 16.6534C-410.285 16.6551 -451.502 12.3196 -491.929 3.71818" stroke="url(#paint37_radial_601_2726)" stroke-miterlimit="10"/>
<path d="M485.507 492.127C427.453 486.411 372.126 464.683 325.697 429.367C281.526 395.463 260.118 357.261 239.902 328.993C174.458 237.5 166.054 171.862 125.675 152.463C100.414 140.328 76.7182 133.508 56.1136 130.608C24.9837 126.215 23.8607 134.941 0.604361 140.329C-37.8959 149.25 -117.55 96.4963 -163.34 63.6178C-207.766 31.7211 -209.009 27.8508 -241.046 22.8658C-289.112 15.3848 -313.73 20.9267 -372.622 21.149C-413.564 21.4544 -454.404 16.9978 -494.318 7.86906" stroke="url(#paint38_radial_601_2726)" stroke-miterlimit="10"/>
<path d="M485.507 492.127C427.453 486.411 372.126 464.683 325.697 429.367C281.526 395.463 260.118 357.261 239.902 328.993C174.458 237.5 166.054 171.862 125.675 152.463C100.414 140.328 76.7182 133.508 56.1136 130.608C24.9837 126.215 23.8607 134.941 0.604361 140.329C-37.8959 149.25 -117.55 96.4963 -163.34 63.6178C-207.766 31.7211 -209.009 27.8508 -241.046 22.8658C-289.112 15.3848 -313.73 20.9267 -372.622 21.149C-413.564 21.4544 -454.404 16.9978 -494.318 7.86906" stroke="url(#paint39_radial_601_2726)" stroke-miterlimit="10"/>
<path d="M482.616 500.471C426.123 495.459 372.202 474.552 327.098 440.171C283.319 406.472 263.58 368.536 241.982 338.874C178.945 252.304 168.979 192.112 129.161 171.228C99.5766 155.719 74.504 138.995 49.3959 138.09C14.8468 136.844 13.4485 137.101 -13.5921 135.955C-50.8072 148.089 -128.355 93.7713 -171.838 63.4642C-213.944 34.1668 -215.488 31.1996 -249.931 28.0099C-299.139 23.4572 -322.368 27.9635 -377.261 28.4826C-417.815 29.0868 -458.281 24.5046 -497.675 14.8476" stroke="url(#paint40_radial_601_2726)" stroke-miterlimit="10"/>
<path d="M482.616 500.471C426.123 495.459 372.202 474.552 327.098 440.171C283.319 406.472 263.58 368.536 241.982 338.874C178.945 252.304 168.979 192.112 129.161 171.228C99.5766 155.719 74.504 138.995 49.3959 138.09C14.8468 136.844 13.4485 137.101 -13.5921 135.955C-50.8072 148.089 -128.355 93.7713 -171.838 63.4642C-213.944 34.1668 -215.488 31.1996 -249.931 28.0099C-299.139 23.4572 -322.368 27.9635 -377.261 28.4826C-417.815 29.0868 -458.281 24.5046 -497.675 14.8476" stroke="url(#paint41_radial_601_2726)" stroke-miterlimit="10"/>
<path d="M479.657 509.012C424.725 504.713 372.198 484.656 328.382 451.248C284.988 417.775 266.939 380.077 243.944 349.028C183.435 267.305 172.088 212.101 132.602 190.29C98.5588 171.5 71.8664 151.156 42.5579 145.854C4.76756 139.015 2.35115 135.722 -27.9089 131.862C-65.7196 141.034 -139.218 91.2465 -180.381 63.6078C-220.166 36.9095 -221.986 34.7386 -258.861 33.4512C-309.223 31.6604 -331.057 35.3181 -381.954 36.1098C-422.121 37.0136 -462.219 32.3047 -501.086 22.1198" stroke="url(#paint42_radial_601_2726)" stroke-miterlimit="10"/>
<path d="M479.657 509.012C424.725 504.713 372.198 484.656 328.382 451.248C284.988 417.775 266.939 380.077 243.944 349.028C183.435 267.305 172.088 212.101 132.602 190.29C98.5588 171.5 71.8664 151.156 42.5579 145.854C4.76756 139.015 2.35115 135.722 -27.9089 131.862C-65.7196 141.034 -139.218 91.2465 -180.381 63.6078C-220.166 36.9095 -221.986 34.7386 -258.861 33.4512C-309.223 31.6604 -331.057 35.3181 -381.954 36.1098C-422.121 37.0136 -462.219 32.3047 -501.086 22.1198" stroke="url(#paint43_radial_601_2726)" stroke-miterlimit="10"/>
<path d="M476.64 517.717C423.29 514.109 372.176 494.889 329.667 462.451C286.662 429.194 270.324 391.742 245.909 359.308C187.985 282.361 175.344 231.898 135.911 209.433C97.4647 187.531 66.4046 169.727 35.7249 153.735C-2.15741 133.985 -8.73763 134.45 -42.2207 127.887C-80.7003 134.139 -150.135 88.8758 -189.056 63.8319C-226.521 39.7328 -228.595 38.296 -267.924 38.9729C-319.307 39.8627 -339.873 42.8017 -386.732 43.8458C-426.514 45.043 -466.248 40.2064 -504.583 29.5006" stroke="url(#paint44_radial_601_2726)" stroke-miterlimit="10"/>
<path d="M476.64 517.717C423.29 514.109 372.176 494.889 329.667 462.451C286.662 429.194 270.324 391.742 245.909 359.308C187.985 282.361 175.344 231.898 135.911 209.433C97.4647 187.531 66.4046 169.727 35.7249 153.735C-2.15741 133.985 -8.73763 134.45 -42.2207 127.887C-80.7003 134.139 -150.135 88.8758 -189.056 63.8319C-226.521 39.7328 -228.595 38.296 -267.924 38.9729C-319.307 39.8627 -339.873 42.8017 -386.732 43.8458C-426.514 45.043 -466.248 40.2064 -504.583 29.5006" stroke="url(#paint45_radial_601_2726)" stroke-miterlimit="10"/>
<path d="M473.584 526.538C431.211 524.33 377.907 510.065 330.879 473.77C288.196 440.821 273.653 403.504 247.81 369.707C192.574 297.478 178.66 251.589 139.228 228.72C96.2337 203.793 62.6057 182.332 28.8187 161.731C-11.6409 137.046 -18.8547 127.1 -56.6058 124.026C-95.7198 120.84 -161.104 86.6618 -197.723 64.1995C-232.863 42.6893 -235.202 41.9484 -276.974 44.6279C-329.491 48.0549 -348.696 50.446 -391.601 51.6791C-418.273 52.4445 -457.887 51.8063 -508.17 36.9789" stroke="url(#paint46_radial_601_2726)" stroke-miterlimit="10"/>
<path d="M473.584 526.538C431.211 524.33 377.907 510.065 330.879 473.77C288.196 440.821 273.653 403.504 247.81 369.707C192.574 297.478 178.66 251.589 139.228 228.72C96.2337 203.793 62.6057 182.332 28.8187 161.731C-11.6409 137.046 -18.8547 127.1 -56.6058 124.026C-95.7198 120.84 -161.104 86.6618 -197.723 64.1995C-232.863 42.6893 -235.202 41.9484 -276.974 44.6279C-329.491 48.0549 -348.696 50.446 -391.601 51.6791C-418.273 52.4445 -457.887 51.8063 -508.17 36.9789" stroke="url(#paint47_radial_601_2726)" stroke-miterlimit="10"/>
<path d="M470.473 535.518C426.989 533.608 376.067 519.289 332.05 485.241C289.752 452.518 276.962 415.392 249.66 380.256C197.183 312.701 182.137 271.318 142.484 248.152C94.8835 220.333 58.6402 195.116 21.8708 169.88C-21.2907 140.252 -29.744 126.158 -71.0325 120.319C-110.4 114.786 -172.087 84.5181 -206.451 64.713C-239.288 45.7845 -241.903 45.5733 -286.09 50.4391C-339.716 56.3309 -357.566 58.2883 -396.47 59.6798C-422.821 60.6256 -461.908 60.1702 -511.76 44.6349" stroke="url(#paint48_radial_601_2726)" stroke-miterlimit="10"/>
<path d="M470.473 535.518C426.989 533.608 376.067 519.289 332.05 485.241C289.752 452.518 276.962 415.392 249.66 380.256C197.183 312.701 182.137 271.318 142.484 248.152C94.8835 220.333 58.6402 195.116 21.8708 169.88C-21.2907 140.252 -29.744 126.158 -71.0325 120.319C-110.4 114.786 -172.087 84.5181 -206.451 64.713C-239.288 45.7845 -241.903 45.5733 -286.09 50.4391C-339.716 56.3309 -357.566 58.2883 -396.47 59.6798C-422.821 60.6256 -461.908 60.1702 -511.76 44.6349" stroke="url(#paint49_radial_601_2726)" stroke-miterlimit="10"/>
<path d="M467.328 544.593C422.684 543.023 374.193 528.608 333.183 496.818C291.27 464.321 280.257 427.382 251.471 390.909C201.808 327.978 185.612 291.05 145.712 267.693C93.4148 237.077 54.5745 208.019 14.8852 178.134C-31.0645 143.544 -40.7639 125.556 -85.497 116.716C-125.187 108.871 -183.125 82.5314 -215.207 65.3355C-245.671 48.9895 -248.639 49.2933 -295.233 56.3592C-350.015 64.6531 -366.473 66.2706 -401.376 67.7859C-427.422 68.9187 -465.975 68.6947 -515.385 52.3859" stroke="url(#paint50_radial_601_2726)" stroke-miterlimit="10"/>
<path d="M467.328 544.593C422.684 543.023 374.193 528.608 333.183 496.818C291.27 464.321 280.257 427.382 251.471 390.909C201.808 327.978 185.612 291.05 145.712 267.693C93.4148 237.077 54.5745 208.019 14.8852 178.134C-31.0645 143.544 -40.7639 125.556 -85.497 116.716C-125.187 108.871 -183.125 82.5314 -215.207 65.3355C-245.671 48.9895 -248.639 49.2933 -295.233 56.3592C-350.015 64.6531 -366.473 66.2706 -401.376 67.7859C-427.422 68.9187 -465.975 68.6947 -515.385 52.3859" stroke="url(#paint51_radial_601_2726)" stroke-miterlimit="10"/>
<path d="M464.136 553.807C418.429 552.528 372.266 538.051 334.272 508.522C292.748 476.241 283.544 439.466 253.24 401.691C206.449 343.345 191.555 306.068 148.886 287.359C88.395 260.829 50.4309 221.049 7.85635 186.516C-40.9264 146.96 -50.5054 114.178 -100.005 113.242C-141.366 112.496 -194.144 80.6246 -224.016 66.082C-252.139 52.3423 -255.434 53.0887 -304.426 62.393C-360.382 73.0368 -375.417 74.4289 -406.326 76.0195C-432.059 77.3534 -470.088 77.3225 -519.057 60.2749" stroke="url(#paint52_radial_601_2726)" stroke-miterlimit="10"/>
<path d="M464.136 553.807C418.429 552.528 372.266 538.051 334.272 508.522C292.748 476.241 283.544 439.466 253.24 401.691C206.449 343.345 191.555 306.068 148.886 287.359C88.395 260.829 50.4309 221.049 7.85635 186.516C-40.9264 146.96 -50.5054 114.178 -100.005 113.242C-141.366 112.496 -194.144 80.6246 -224.016 66.082C-252.139 52.3423 -255.434 53.0887 -304.426 62.393C-360.382 73.0368 -375.417 74.4289 -406.326 76.0195C-432.059 77.3534 -470.088 77.3225 -519.057 60.2749" stroke="url(#paint53_radial_601_2726)" stroke-miterlimit="10"/>
<path d="M460.839 563.321C414.013 562.361 370.251 547.777 335.225 520.586C294.1 488.524 286.74 451.878 254.882 412.835C210.96 359.015 194.656 326.914 151.945 307.39C86.9344 277.65 46.1158 234.437 0.690535 195.257C-50.9667 150.721 -61.3958 115.71 -114.649 110.126C-156.893 105.705 -205.387 79.1279 -232.942 67.1947C-258.724 56.0268 -262.424 57.1767 -313.739 68.8034C-370.909 81.7481 -384.499 82.981 -411.413 84.6123C-436.826 86.1611 -474.324 86.3026 -522.862 68.5125" stroke="url(#paint54_radial_601_2726)" stroke-miterlimit="10"/>
<path d="M460.839 563.321C414.013 562.361 370.251 547.777 335.225 520.586C294.1 488.524 286.74 451.878 254.882 412.835C210.96 359.015 194.656 326.914 151.945 307.39C86.9344 277.65 46.1158 234.437 0.690535 195.257C-50.9667 150.721 -61.3958 115.71 -114.649 110.126C-156.893 105.705 -205.387 79.1279 -232.942 67.1947C-258.724 56.0268 -262.424 57.1767 -313.739 68.8034C-370.909 81.7481 -384.499 82.981 -411.413 84.6123C-436.826 86.1611 -474.324 86.3026 -522.862 68.5125" stroke="url(#paint55_radial_601_2726)" stroke-miterlimit="10"/>
<path d="M457.337 573.43C409.402 572.793 368.026 558.144 336.022 533.134C295.285 501.289 289.815 464.741 256.357 424.461C215.43 375.176 197.601 348.245 154.827 327.9C85.3125 294.839 41.6104 248.311 -6.63455 204.494C-61.2073 154.929 -72.9078 118.203 -129.453 107.506C-172.45 99.3727 -216.726 78.0789 -242.044 68.7855C-265.46 60.1862 -269.594 61.7186 -323.228 75.6919C-381.626 90.9097 -393.782 92.0489 -416.659 93.7006C-441.764 95.4954 -478.782 95.7568 -526.826 77.2458" stroke="url(#paint56_radial_601_2726)" stroke-miterlimit="10"/>
<path d="M457.337 573.43C409.402 572.793 368.026 558.144 336.022 533.134C295.285 501.289 289.815 464.741 256.357 424.461C215.43 375.176 197.601 348.245 154.827 327.9C85.3125 294.839 41.6104 248.311 -6.63455 204.494C-61.2073 154.929 -72.9078 118.203 -129.453 107.506C-172.45 99.3727 -216.726 78.0789 -242.044 68.7855C-265.46 60.1862 -269.594 61.7186 -323.228 75.6919C-381.626 90.9097 -393.782 92.0489 -416.659 93.7006C-441.764 95.4954 -478.782 95.7568 -526.826 77.2458" stroke="url(#paint57_radial_601_2726)" stroke-miterlimit="10"/>
<path d="M453.771 583.723C404.718 583.405 365.736 568.67 336.734 545.928C296.39 514.288 292.861 477.788 257.749 436.332C219.802 391.52 200.5 369.811 157.635 348.659C83.6974 312.177 37.0036 262.412 -14.0403 213.966C-71.5942 159.361 -84.8889 121.283 -144.338 105.121C-187.966 93.2598 -228.149 77.241 -251.221 70.6254C-272.252 64.5776 -276.865 66.4539 -332.791 82.8295C-392.476 100.289 -403.074 101.481 -421.989 103.034C-446.775 105.113 -483.213 105.506 -530.875 86.2246" stroke="url(#paint58_radial_601_2726)" stroke-miterlimit="10"/>
<path d="M453.771 583.723C404.718 583.405 365.736 568.67 336.734 545.928C296.39 514.288 292.861 477.788 257.749 436.332C219.802 391.52 200.5 369.811 157.635 348.659C83.6974 312.177 37.0036 262.412 -14.0403 213.966C-71.5942 159.361 -84.8889 121.283 -144.338 105.121C-187.966 93.2598 -228.149 77.241 -251.221 70.6254C-272.252 64.5776 -276.865 66.4539 -332.791 82.8295C-392.476 100.289 -403.074 101.481 -421.989 103.034C-446.775 105.113 -483.213 105.506 -530.875 86.2246" stroke="url(#paint59_radial_601_2726)" stroke-miterlimit="10"/>
<path d="M449.892 594.918C399.724 594.909 363.184 580.048 337.137 559.615C297.248 528.098 295.678 491.662 258.83 449.095C223.896 408.732 203.103 392.262 160.122 370.306C81.839 330.315 32.0623 277.409 -21.7149 224.344C-82.1672 164.727 -99.2516 129.796 -159.491 103.643C-202.421 85.0165 -239.831 77.3129 -260.676 73.3681C-279.348 69.8404 -284.447 72.0812 -342.63 90.8595C-403.615 110.567 -412.652 111.767 -427.581 113.254C-452.043 115.7 -487.968 116.12 -535.189 96.0995" stroke="url(#paint60_radial_601_2726)" stroke-miterlimit="10"/>
<path d="M449.892 594.918C399.724 594.909 363.184 580.048 337.137 559.615C297.248 528.098 295.678 491.662 258.83 449.095C223.896 408.732 203.103 392.262 160.122 370.306C81.839 330.315 32.0623 277.409 -21.7149 224.344C-82.1672 164.727 -99.2516 129.796 -159.491 103.643C-202.421 85.0165 -239.831 77.3129 -260.676 73.3681C-279.348 69.8404 -284.447 72.0812 -342.63 90.8595C-403.615 110.567 -412.652 111.767 -427.581 113.254C-452.043 115.7 -487.968 116.12 -535.189 96.0995" stroke="url(#paint61_radial_601_2726)" stroke-miterlimit="10"/>
<path d="M446.05 606.007C394.774 606.32 360.613 591.38 337.562 573.201C298.073 541.903 298.63 505.348 259.945 461.763C228.044 425.821 205.763 414.615 162.653 391.86C80.0673 348.271 27.1479 292.295 -29.4525 234.604C-92.8891 169.923 -111.68 131.991 -174.708 102.047C-218.492 81.271 -251.571 77.1874 -270.17 75.9897C-286.489 74.9681 -292.097 77.542 -352.511 98.7788C-414.838 120.685 -422.273 122.012 -433.24 123.366C-457.351 126.339 -492.773 126.609 -539.562 105.846" stroke="url(#paint62_radial_601_2726)" stroke-miterlimit="10"/>
<path d="M446.05 606.007C394.774 606.32 360.613 591.38 337.562 573.201C298.073 541.903 298.63 505.348 259.945 461.763C228.044 425.821 205.763 414.615 162.653 391.86C80.0673 348.271 27.1479 292.295 -29.4525 234.604C-92.8891 169.923 -111.68 131.991 -174.708 102.047C-218.492 81.271 -251.571 77.1874 -270.17 75.9897C-286.489 74.9681 -292.097 77.542 -352.511 98.7788C-414.838 120.685 -422.273 122.012 -433.24 123.366C-457.351 126.339 -492.773 126.609 -539.562 105.846" stroke="url(#paint63_radial_601_2726)" stroke-miterlimit="10"/>
<path d="M442.206 617.099C389.846 617.731 357.978 602.694 337.999 586.784C298.94 555.717 301.713 518.886 261.062 474.423C232.208 442.861 208.435 436.964 165.176 413.405C78.3738 366.131 22.2387 307.13 -37.1337 244.865C-103.558 175.13 -124.124 134.128 -189.868 100.451C-234.693 77.4961 -263.282 77.0066 -279.632 78.6149C-293.583 79.9888 -299.691 83.0033 -362.36 106.702C-426.042 130.814 -431.834 132.316 -438.842 133.478C-462.535 137.418 -497.528 137.119 -543.886 115.614" stroke="url(#paint64_radial_601_2726)" stroke-miterlimit="10"/>
<path d="M442.206 617.099C389.846 617.731 357.978 602.694 337.999 586.784C298.94 555.717 301.713 518.886 261.062 474.423C232.208 442.861 208.435 436.964 165.176 413.405C78.3738 366.131 22.2387 307.13 -37.1337 244.865C-103.558 175.13 -124.124 134.128 -189.868 100.451C-234.693 77.4961 -263.282 77.0066 -279.632 78.6149C-293.583 79.9888 -299.691 83.0033 -362.36 106.702C-426.042 130.814 -431.834 132.316 -438.842 133.478C-462.535 137.418 -497.528 137.119 -543.886 115.614" stroke="url(#paint65_radial_601_2726)" stroke-miterlimit="10"/>
<rect x="70" y="627" width="583" height="271" transform="rotate(-90 70 627)" fill="url(#paint66_linear_601_2726)"/>
</g>
<defs>
<radialGradient id="paint0_radial_601_2726" cx="0" cy="0" r="1" gradientUnits="userSpaceOnUse" gradientTransform="translate(7.79754 183.741) rotate(109.11) scale(75.5038 544.679)">
<stop offset="0.530015" stop-color="#B4A1E9"/>
<stop offset="0.863132" stop-color="#F1BDE1"/>
<stop offset="0.988132" stop-color="#F1BDE1"/>
</radialGradient>
<radialGradient id="paint1_radial_601_2726" cx="0" cy="0" r="1" gradientUnits="userSpaceOnUse" gradientTransform="translate(7.79754 183.741) rotate(109.11) scale(75.5038 544.679)">
<stop offset="0.530015" stop-color="#8E72DA"/>
<stop offset="1" stop-color="#C981B3"/>
</radialGradient>
<radialGradient id="paint2_radial_601_2726" cx="0" cy="0" r="1" gradientUnits="userSpaceOnUse" gradientTransform="translate(8.20543 184.738) rotate(109.11) scale(70.5867 544.449)">
<stop offset="0.530015" stop-color="#B4A1E9"/>
<stop offset="0.863132" stop-color="#F1BDE1"/>
<stop offset="0.988132" stop-color="#F1BDE1"/>
</radialGradient>
<radialGradient id="paint3_radial_601_2726" cx="0" cy="0" r="1" gradientUnits="userSpaceOnUse" gradientTransform="translate(8.20543 184.738) rotate(109.11) scale(70.5867 544.449)">
<stop offset="0.530015" stop-color="#8E72DA"/>
<stop offset="1" stop-color="#C981B3"/>
</radialGradient>
<radialGradient id="paint4_radial_601_2726" cx="0" cy="0" r="1" gradientUnits="userSpaceOnUse" gradientTransform="translate(8.61957 185.751) rotate(109.11) scale(66.5781 544.209)">
<stop offset="0.530015" stop-color="#B4A1E9"/>
<stop offset="0.863132" stop-color="#F1BDE1"/>
<stop offset="0.988132" stop-color="#F1BDE1"/>
</radialGradient>
<radialGradient id="paint5_radial_601_2726" cx="0" cy="0" r="1" gradientUnits="userSpaceOnUse" gradientTransform="translate(8.61957 185.751) rotate(109.11) scale(66.5781 544.209)">
<stop offset="0.530015" stop-color="#8E72DA"/>
<stop offset="1" stop-color="#C981B3"/>
</radialGradient>
<radialGradient id="paint6_radial_601_2726" cx="0" cy="0" r="1" gradientUnits="userSpaceOnUse" gradientTransform="translate(9.02733 186.782) rotate(109.11) scale(63.7007 543.957)">
<stop offset="0.530015" stop-color="#B4A1E9"/>
<stop offset="0.863132" stop-color="#F1BDE1"/>
<stop offset="0.988132" stop-color="#F1BDE1"/>
</radialGradient>
<radialGradient id="paint7_radial_601_2726" cx="0" cy="0" r="1" gradientUnits="userSpaceOnUse" gradientTransform="translate(9.02733 186.782) rotate(109.11) scale(63.7007 543.957)">
<stop offset="0.530015" stop-color="#8E72DA"/>
<stop offset="1" stop-color="#C981B3"/>
</radialGradient>
<radialGradient id="paint8_radial_601_2726" cx="0" cy="0" r="1" gradientUnits="userSpaceOnUse" gradientTransform="translate(9.45744 187.75) rotate(109.11) scale(61.4509 543.716)">
<stop offset="0.530015" stop-color="#B4A1E9"/>
<stop offset="0.863132" stop-color="#F1BDE1"/>
<stop offset="0.988132" stop-color="#F1BDE1"/>
</radialGradient>
<radialGradient id="paint9_radial_601_2726" cx="0" cy="0" r="1" gradientUnits="userSpaceOnUse" gradientTransform="translate(9.45744 187.75) rotate(109.11) scale(61.4509 543.716)">
<stop offset="0.530015" stop-color="#8E72DA"/>
<stop offset="1" stop-color="#C981B3"/>
</radialGradient>
<radialGradient id="paint10_radial_601_2726" cx="0" cy="0" r="1" gradientUnits="userSpaceOnUse" gradientTransform="translate(9.85673 188.755) rotate(109.11) scale(63.5469 543.47)">
<stop offset="0.530015" stop-color="#B4A1E9"/>
<stop offset="0.863132" stop-color="#F1BDE1"/>
<stop offset="0.988132" stop-color="#F1BDE1"/>
</radialGradient>
<radialGradient id="paint11_radial_601_2726" cx="0" cy="0" r="1" gradientUnits="userSpaceOnUse" gradientTransform="translate(9.85673 188.755) rotate(109.11) scale(63.5469 543.47)">
<stop offset="0.530015" stop-color="#8E72DA"/>
<stop offset="1" stop-color="#C981B3"/>
</radialGradient>
<radialGradient id="paint12_radial_601_2726" cx="0" cy="0" r="1" gradientUnits="userSpaceOnUse" gradientTransform="translate(10.2699 189.782) rotate(109.11) scale(67.8727 543.245)">
<stop offset="0.530015" stop-color="#B4A1E9"/>
<stop offset="0.863132" stop-color="#F1BDE1"/>
<stop offset="0.988132" stop-color="#F1BDE1"/>
</radialGradient>
<radialGradient id="paint13_radial_601_2726" cx="0" cy="0" r="1" gradientUnits="userSpaceOnUse" gradientTransform="translate(10.2699 189.782) rotate(109.11) scale(67.8727 543.245)">
<stop offset="0.530015" stop-color="#8E72DA"/>
<stop offset="1" stop-color="#C981B3"/>
</radialGradient>
<radialGradient id="paint14_radial_601_2726" cx="0" cy="0" r="1" gradientUnits="userSpaceOnUse" gradientTransform="translate(10.7089 190.772) rotate(109.11) scale(72.3209 542.977)">
<stop offset="0.530015" stop-color="#B4A1E9"/>
<stop offset="0.863132" stop-color="#F1BDE1"/>
<stop offset="0.988132" stop-color="#F1BDE1"/>
</radialGradient>
<radialGradient id="paint15_radial_601_2726" cx="0" cy="0" r="1" gradientUnits="userSpaceOnUse" gradientTransform="translate(10.7089 190.772) rotate(109.11) scale(72.3209 542.977)">
<stop offset="0.530015" stop-color="#8E72DA"/>
<stop offset="1" stop-color="#C981B3"/>
</radialGradient>
<radialGradient id="paint16_radial_601_2726" cx="0" cy="0" r="1" gradientUnits="userSpaceOnUse" gradientTransform="translate(11.1049 191.755) rotate(109.11) scale(76.8372 542.763)">
<stop offset="0.530015" stop-color="#B4A1E9"/>
<stop offset="0.863132" stop-color="#F1BDE1"/>
<stop offset="0.988132" stop-color="#F1BDE1"/>
</radialGradient>
<radialGradient id="paint17_radial_601_2726" cx="0" cy="0" r="1" gradientUnits="userSpaceOnUse" gradientTransform="translate(11.1049 191.755) rotate(109.11) scale(76.8372 542.763)">
<stop offset="0.530015" stop-color="#8E72DA"/>
<stop offset="1" stop-color="#C981B3"/>
</radialGradient>
<radialGradient id="paint18_radial_601_2726" cx="0" cy="0" r="1" gradientUnits="userSpaceOnUse" gradientTransform="translate(11.4802 192.761) rotate(109.11) scale(81.4951 542.561)">
<stop offset="0.530015" stop-color="#B4A1E9"/>
<stop offset="0.863132" stop-color="#F1BDE1"/>
<stop offset="0.988132" stop-color="#F1BDE1"/>
</radialGradient>
<radialGradient id="paint19_radial_601_2726" cx="0" cy="0" r="1" gradientUnits="userSpaceOnUse" gradientTransform="translate(11.4802 192.761) rotate(109.11) scale(81.4951 542.561)">
<stop offset="0.530015" stop-color="#8E72DA"/>
<stop offset="1" stop-color="#C981B3"/>
</radialGradient>
<radialGradient id="paint20_radial_601_2726" cx="0" cy="0" r="1" gradientUnits="userSpaceOnUse" gradientTransform="translate(11.9427 193.77) rotate(109.11) scale(86.2935 542.276)">
<stop offset="0.530015" stop-color="#B4A1E9"/>
<stop offset="0.863132" stop-color="#F1BDE1"/>
<stop offset="0.988132" stop-color="#F1BDE1"/>
</radialGradient>
<radialGradient id="paint21_radial_601_2726" cx="0" cy="0" r="1" gradientUnits="userSpaceOnUse" gradientTransform="translate(11.9427 193.77) rotate(109.11) scale(86.2935 542.276)">
<stop offset="0.530015" stop-color="#8E72DA"/>
<stop offset="1" stop-color="#C981B3"/>
</radialGradient>
<radialGradient id="paint22_radial_601_2726" cx="0" cy="0" r="1" gradientUnits="userSpaceOnUse" gradientTransform="translate(12.3857 194.779) rotate(109.11) scale(91.2606 541.997)">
<stop offset="0.530015" stop-color="#B4A1E9"/>
<stop offset="0.863132" stop-color="#F1BDE1"/>
<stop offset="0.988132" stop-color="#F1BDE1"/>
</radialGradient>
<radialGradient id="paint23_radial_601_2726" cx="0" cy="0" r="1" gradientUnits="userSpaceOnUse" gradientTransform="translate(12.3857 194.779) rotate(109.11) scale(91.2606 541.997)">
<stop offset="0.530015" stop-color="#8E72DA"/>
<stop offset="1" stop-color="#C981B3"/>
</radialGradient>
<radialGradient id="paint24_radial_601_2726" cx="0" cy="0" r="1" gradientUnits="userSpaceOnUse" gradientTransform="translate(12.7522 195.779) rotate(109.11) scale(96.328 541.805)">
<stop offset="0.530015" stop-color="#B4A1E9"/>
<stop offset="0.863132" stop-color="#F1BDE1"/>
<stop offset="0.988132" stop-color="#F1BDE1"/>
</radialGradient>
<radialGradient id="paint25_radial_601_2726" cx="0" cy="0" r="1" gradientUnits="userSpaceOnUse" gradientTransform="translate(12.7522 195.779) rotate(109.11) scale(96.328 541.805)">
<stop offset="0.530015" stop-color="#8E72DA"/>
<stop offset="1" stop-color="#C981B3"/>
</radialGradient>
<radialGradient id="paint26_radial_601_2726" cx="0" cy="0" r="1" gradientUnits="userSpaceOnUse" gradientTransform="translate(13.1734 196.769) rotate(109.11) scale(101.537 541.565)">
<stop offset="0.530015" stop-color="#B4A1E9"/>
<stop offset="0.863132" stop-color="#F1BDE1"/>
<stop offset="0.988132" stop-color="#F1BDE1"/>
</radialGradient>
<radialGradient id="paint27_radial_601_2726" cx="0" cy="0" r="1" gradientUnits="userSpaceOnUse" gradientTransform="translate(13.1734 196.769) rotate(109.11) scale(101.537 541.565)">
<stop offset="0.530015" stop-color="#8E72DA"/>
<stop offset="1" stop-color="#C981B3"/>
</radialGradient>
<radialGradient id="paint28_radial_601_2726" cx="0" cy="0" r="1" gradientUnits="userSpaceOnUse" gradientTransform="translate(13.6138 197.772) rotate(109.11) scale(106.828 541.346)">
<stop offset="0.530015" stop-color="#B4A1E9"/>
<stop offset="0.863132" stop-color="#F1BDE1"/>
<stop offset="0.988132" stop-color="#F1BDE1"/>
</radialGradient>
<radialGradient id="paint29_radial_601_2726" cx="0" cy="0" r="1" gradientUnits="userSpaceOnUse" gradientTransform="translate(13.6138 197.772) rotate(109.11) scale(106.828 541.346)">
<stop offset="0.530015" stop-color="#8E72DA"/>
<stop offset="1" stop-color="#C981B3"/>
</radialGradient>
<radialGradient id="paint30_radial_601_2726" cx="0" cy="0" r="1" gradientUnits="userSpaceOnUse" gradientTransform="translate(14.0187 198.779) rotate(109.11) scale(112.191 541.061)">
<stop offset="0.530015" stop-color="#B4A1E9"/>
<stop offset="0.863132" stop-color="#F1BDE1"/>
<stop offset="0.988132" stop-color="#F1BDE1"/>
</radialGradient>
<radialGradient id="paint31_radial_601_2726" cx="0" cy="0" r="1" gradientUnits="userSpaceOnUse" gradientTransform="translate(14.0187 198.779) rotate(109.11) scale(112.191 541.061)">
<stop offset="0.530015" stop-color="#8E72DA"/>
<stop offset="1" stop-color="#C981B3"/>
</radialGradient>
<radialGradient id="paint32_radial_601_2726" cx="0" cy="0" r="1" gradientUnits="userSpaceOnUse" gradientTransform="translate(14.4093 199.774) rotate(109.11) scale(117.615 540.847)">
<stop offset="0.530015" stop-color="#B4A1E9"/>
<stop offset="0.863132" stop-color="#F1BDE1"/>
<stop offset="0.988132" stop-color="#F1BDE1"/>
</radialGradient>
<radialGradient id="paint33_radial_601_2726" cx="0" cy="0" r="1" gradientUnits="userSpaceOnUse" gradientTransform="translate(14.4093 199.774) rotate(109.11) scale(117.615 540.847)">
<stop offset="0.530015" stop-color="#8E72DA"/>
<stop offset="1" stop-color="#C981B3"/>
</radialGradient>
<radialGradient id="paint34_radial_601_2726" cx="0" cy="0" r="1" gradientUnits="userSpaceOnUse" gradientTransform="translate(11.5526 206.631) rotate(109.11) scale(113.631 541.302)">
<stop offset="0.530015" stop-color="#B4A1E9"/>
<stop offset="0.863132" stop-color="#F1BDE1"/>
<stop offset="0.988132" stop-color="#F1BDE1"/>
</radialGradient>
<radialGradient id="paint35_radial_601_2726" cx="0" cy="0" r="1" gradientUnits="userSpaceOnUse" gradientTransform="translate(11.5526 206.631) rotate(109.11) scale(113.631 541.302)">
<stop offset="0.530015" stop-color="#8E72DA"/>
<stop offset="1" stop-color="#C981B3"/>
</radialGradient>
<radialGradient id="paint36_radial_601_2726" cx="0" cy="0" r="1" gradientUnits="userSpaceOnUse" gradientTransform="translate(8.71591 213.5) rotate(109.11) scale(109.776 541.734)">
<stop offset="0.530015" stop-color="#B4A1E9"/>
<stop offset="0.863132" stop-color="#F1BDE1"/>
<stop offset="0.988132" stop-color="#F1BDE1"/>
</radialGradient>
<radialGradient id="paint37_radial_601_2726" cx="0" cy="0" r="1" gradientUnits="userSpaceOnUse" gradientTransform="translate(8.71591 213.5) rotate(109.11) scale(109.776 541.734)">
<stop offset="0.530015" stop-color="#8E72DA"/>
<stop offset="1" stop-color="#C981B3"/>
</radialGradient>
<radialGradient id="paint38_radial_601_2726" cx="0" cy="0" r="1" gradientUnits="userSpaceOnUse" gradientTransform="translate(5.86375 220.359) rotate(109.11) scale(108.449 542.183)">
<stop offset="0.530015" stop-color="#B4A1E9"/>
<stop offset="0.863132" stop-color="#F1BDE1"/>
<stop offset="0.988132" stop-color="#F1BDE1"/>
</radialGradient>
<radialGradient id="paint39_radial_601_2726" cx="0" cy="0" r="1" gradientUnits="userSpaceOnUse" gradientTransform="translate(5.86375 220.359) rotate(109.11) scale(108.449 542.183)">
<stop offset="0.530015" stop-color="#8E72DA"/>
<stop offset="1" stop-color="#C981B3"/>
</radialGradient>
<radialGradient id="paint40_radial_601_2726" cx="0" cy="0" r="1" gradientUnits="userSpaceOnUse" gradientTransform="translate(3.02628 227.193) rotate(109.11) scale(110.18 542.627)">
<stop offset="0.530015" stop-color="#B4A1E9"/>
<stop offset="0.863132" stop-color="#F1BDE1"/>
<stop offset="0.988132" stop-color="#F1BDE1"/>
</radialGradient>
<radialGradient id="paint41_radial_601_2726" cx="0" cy="0" r="1" gradientUnits="userSpaceOnUse" gradientTransform="translate(3.02628 227.193) rotate(109.11) scale(110.18 542.627)">
<stop offset="0.530015" stop-color="#8E72DA"/>
<stop offset="1" stop-color="#C981B3"/>
</radialGradient>
<radialGradient id="paint42_radial_601_2726" cx="0" cy="0" r="1" gradientUnits="userSpaceOnUse" gradientTransform="translate(0.190641 234.09) rotate(109.11) scale(112.093 543.048)">
<stop offset="0.530015" stop-color="#B4A1E9"/>
<stop offset="0.863132" stop-color="#F1BDE1"/>
<stop offset="0.988132" stop-color="#F1BDE1"/>
</radialGradient>
<radialGradient id="paint43_radial_601_2726" cx="0" cy="0" r="1" gradientUnits="userSpaceOnUse" gradientTransform="translate(0.190641 234.09) rotate(109.11) scale(112.093 543.048)">
<stop offset="0.530015" stop-color="#8E72DA"/>
<stop offset="1" stop-color="#C981B3"/>
</radialGradient>
<radialGradient id="paint44_radial_601_2726" cx="0" cy="0" r="1" gradientUnits="userSpaceOnUse" gradientTransform="translate(-2.65643 240.951) rotate(109.11) scale(114.188 543.492)">
<stop offset="0.530015" stop-color="#B4A1E9"/>
<stop offset="0.863132" stop-color="#F1BDE1"/>
<stop offset="0.988132" stop-color="#F1BDE1"/>
</radialGradient>
<radialGradient id="paint45_radial_601_2726" cx="0" cy="0" r="1" gradientUnits="userSpaceOnUse" gradientTransform="translate(-2.65643 240.951) rotate(109.11) scale(114.188 543.492)">
<stop offset="0.530015" stop-color="#8E72DA"/>
<stop offset="1" stop-color="#C981B3"/>
</radialGradient>
<radialGradient id="paint46_radial_601_2726" cx="0" cy="0" r="1" gradientUnits="userSpaceOnUse" gradientTransform="translate(-5.53145 247.813) rotate(109.11) scale(116.449 543.962)">
<stop offset="0.530015" stop-color="#B4A1E9"/>
<stop offset="0.863132" stop-color="#F1BDE1"/>
<stop offset="0.988132" stop-color="#F1BDE1"/>
</radialGradient>
<radialGradient id="paint47_radial_601_2726" cx="0" cy="0" r="1" gradientUnits="userSpaceOnUse" gradientTransform="translate(-5.53145 247.813) rotate(109.11) scale(116.449 543.962)">
<stop offset="0.530015" stop-color="#8E72DA"/>
<stop offset="1" stop-color="#C981B3"/>
</radialGradient>
<radialGradient id="paint48_radial_601_2726" cx="0" cy="0" r="1" gradientUnits="userSpaceOnUse" gradientTransform="translate(-8.3775 254.674) rotate(109.11) scale(118.83 544.406)">
<stop offset="0.530015" stop-color="#B4A1E9"/>
<stop offset="0.863132" stop-color="#F1BDE1"/>
<stop offset="0.988132" stop-color="#F1BDE1"/>
</radialGradient>
<radialGradient id="paint49_radial_601_2726" cx="0" cy="0" r="1" gradientUnits="userSpaceOnUse" gradientTransform="translate(-8.3775 254.674) rotate(109.11) scale(118.83 544.406)">
<stop offset="0.530015" stop-color="#8E72DA"/>
<stop offset="1" stop-color="#C981B3"/>
</radialGradient>
<radialGradient id="paint50_radial_601_2726" cx="0" cy="0" r="1" gradientUnits="userSpaceOnUse" gradientTransform="translate(-11.2236 261.532) rotate(109.11) scale(121.337 544.849)">
<stop offset="0.530015" stop-color="#B4A1E9"/>
<stop offset="0.863132" stop-color="#F1BDE1"/>
<stop offset="0.988132" stop-color="#F1BDE1"/>
</radialGradient>
<radialGradient id="paint51_radial_601_2726" cx="0" cy="0" r="1" gradientUnits="userSpaceOnUse" gradientTransform="translate(-11.2236 261.532) rotate(109.11) scale(121.337 544.849)">
<stop offset="0.530015" stop-color="#8E72DA"/>
<stop offset="1" stop-color="#C981B3"/>
</radialGradient>
<radialGradient id="paint52_radial_601_2726" cx="0" cy="0" r="1" gradientUnits="userSpaceOnUse" gradientTransform="translate(-14.0709 268.396) rotate(109.11) scale(123.949 545.292)">
<stop offset="0.530015" stop-color="#B4A1E9"/>
<stop offset="0.863132" stop-color="#F1BDE1"/>
<stop offset="0.988132" stop-color="#F1BDE1"/>
</radialGradient>
<radialGradient id="paint53_radial_601_2726" cx="0" cy="0" r="1" gradientUnits="userSpaceOnUse" gradientTransform="translate(-14.0709 268.396) rotate(109.11) scale(123.949 545.292)">
<stop offset="0.530015" stop-color="#8E72DA"/>
<stop offset="1" stop-color="#C981B3"/>
</radialGradient>
<radialGradient id="paint54_radial_601_2726" cx="0" cy="0" r="1" gradientUnits="userSpaceOnUse" gradientTransform="translate(-16.9316 275.28) rotate(109.11) scale(126.875 545.741)">
<stop offset="0.530015" stop-color="#B4A1E9"/>
<stop offset="0.863132" stop-color="#F1BDE1"/>
<stop offset="0.988132" stop-color="#F1BDE1"/>
</radialGradient>
<radialGradient id="paint55_radial_601_2726" cx="0" cy="0" r="1" gradientUnits="userSpaceOnUse" gradientTransform="translate(-16.9316 275.28) rotate(109.11) scale(126.875 545.741)">
<stop offset="0.530015" stop-color="#8E72DA"/>
<stop offset="1" stop-color="#C981B3"/>
</radialGradient>
<radialGradient id="paint56_radial_601_2726" cx="0" cy="0" r="1" gradientUnits="userSpaceOnUse" gradientTransform="translate(-19.7693 282.116) rotate(109.11) scale(130.483 546.185)">
<stop offset="0.530015" stop-color="#B4A1E9"/>
<stop offset="0.863132" stop-color="#F1BDE1"/>
<stop offset="0.988132" stop-color="#F1BDE1"/>
</radialGradient>
<radialGradient id="paint57_radial_601_2726" cx="0" cy="0" r="1" gradientUnits="userSpaceOnUse" gradientTransform="translate(-19.7693 282.116) rotate(109.11) scale(130.483 546.185)">
<stop offset="0.530015" stop-color="#8E72DA"/>
<stop offset="1" stop-color="#C981B3"/>
</radialGradient>
<radialGradient id="paint58_radial_601_2726" cx="0" cy="0" r="1" gradientUnits="userSpaceOnUse" gradientTransform="translate(-22.6165 288.982) rotate(109.11) scale(134.254 546.628)">
<stop offset="0.530015" stop-color="#B4A1E9"/>
<stop offset="0.863132" stop-color="#F1BDE1"/>
<stop offset="0.988132" stop-color="#F1BDE1"/>
</radialGradient>
<radialGradient id="paint59_radial_601_2726" cx="0" cy="0" r="1" gradientUnits="userSpaceOnUse" gradientTransform="translate(-22.6165 288.982) rotate(109.11) scale(134.254 546.628)">
<stop offset="0.530015" stop-color="#8E72DA"/>
<stop offset="1" stop-color="#C981B3"/>
</radialGradient>
<radialGradient id="paint60_radial_601_2726" cx="0" cy="0" r="1" gradientUnits="userSpaceOnUse" gradientTransform="translate(-25.4424 295.849) rotate(109.11) scale(138.955 547.05)">
<stop offset="0.530015" stop-color="#B4A1E9"/>
<stop offset="0.863132" stop-color="#F1BDE1"/>
<stop offset="0.988132" stop-color="#F1BDE1"/>
</radialGradient>
<radialGradient id="paint61_radial_601_2726" cx="0" cy="0" r="1" gradientUnits="userSpaceOnUse" gradientTransform="translate(-25.4424 295.849) rotate(109.11) scale(138.955 547.05)">
<stop offset="0.530015" stop-color="#8E72DA"/>
<stop offset="1" stop-color="#C981B3"/>
</radialGradient>
<radialGradient id="paint62_radial_601_2726" cx="0" cy="0" r="1" gradientUnits="userSpaceOnUse" gradientTransform="translate(-28.3164 302.707) rotate(109.11) scale(143.572 547.52)">
<stop offset="0.530015" stop-color="#B4A1E9"/>
<stop offset="0.863132" stop-color="#F1BDE1"/>
<stop offset="0.988132" stop-color="#F1BDE1"/>
</radialGradient>
<radialGradient id="paint63_radial_601_2726" cx="0" cy="0" r="1" gradientUnits="userSpaceOnUse" gradientTransform="translate(-28.3164 302.707) rotate(109.11) scale(143.572 547.52)">
<stop offset="0.530015" stop-color="#8E72DA"/>
<stop offset="1" stop-color="#C981B3"/>
</radialGradient>
<radialGradient id="paint64_radial_601_2726" cx="0" cy="0" r="1" gradientUnits="userSpaceOnUse" gradientTransform="translate(-31.1635 309.566) rotate(109.11) scale(148.195 547.964)">
<stop offset="0.530015" stop-color="#B4A1E9"/>
<stop offset="0.863132" stop-color="#F1BDE1"/>
<stop offset="0.988132" stop-color="#F1BDE1"/>
</radialGradient>
<radialGradient id="paint65_radial_601_2726" cx="0" cy="0" r="1" gradientUnits="userSpaceOnUse" gradientTransform="translate(-31.1635 309.566) rotate(109.11) scale(148.195 547.964)">
<stop offset="0.530015" stop-color="#8E72DA"/>
<stop offset="1" stop-color="#C981B3"/>
</radialGradient>
<linearGradient id="paint66_linear_601_2726" x1="361.5" y1="898" x2="361.5" y2="627" gradientUnits="userSpaceOnUse">
<stop stop-color="#FAF9FF"/>
<stop offset="1" stop-color="#FAF9FF" stop-opacity="0"/>
</linearGradient>
<clipPath id="clip0_601_2726">
<rect width="479.753" height="412.662" fill="white" transform="matrix(-0.944892 -0.327383 -0.327383 0.944892 382.042 157.062)"/>
</clipPath>
</defs>
</svg>
