<svg width="99" height="36" viewBox="0 0 99 36" fill="none" xmlns="http://www.w3.org/2000/svg">
<g clip-path="url(#clip0_792_1766)">
<path d="M8.71426 14.1972C7.10023 13.4339 3.31703 13.171 3.16927 15.7206C2.99374 18.8009 6.45446 18.7135 8.71426 18.0971V14.1972ZM2.31939 9.5331L0.440856 7.80233C2.08345 5.98339 4.01914 5.39722 5.95564 5.39722C8.91672 5.39722 11.9407 6.98022 11.9407 10.4124V20.1504C7.3925 21.8224 0 22.1742 0 15.7206C0.0318396 10.9398 5.36946 9.97314 8.71426 11.4386V10.4997C8.2138 7.71579 4.16609 7.53782 2.31939 9.5331Z" fill="#CB177D"/>
<path d="M14.0192 7.12875C16.6309 5.27879 21.7922 4.54729 23.6095 7.62594C25.9256 4.16522 33.4063 5.16123 33.4063 10.6189V20.7969H30.2093V10.7364C30.3848 7.97944 25.2211 8.27171 25.2211 10.6197V20.7977H22.0575V10.5625C22.0575 8.4203 18.9478 8.00965 17.1893 9.15424V20.7961H14.02V7.12875H14.0192Z" fill="#CB177D"/>
<path d="M38.4459 18.2164C40.1767 18.9781 43.8432 18.8891 43.9885 16.2203V10.4712C43.755 8.00726 40.2649 7.59661 38.4459 8.7412V18.2164ZM38.4459 0V5.9834C41.9083 4.31223 47.2459 6.13035 47.2173 10.6189V16.2211C46.7169 22.4682 39.6493 21.9114 35.2203 20.1512V0H38.4459Z" fill="#CB177D"/>
<path d="M57.6852 10.499C57.6852 7.65545 51.9949 7.62524 52.1149 10.5602V12.0232H57.6852V10.499ZM60.3279 18.0082C59.1523 20.0917 56.8656 21.1179 54.8711 21.1179C51.8806 21.1179 48.8575 19.3863 48.8575 15.8962V10.5602C48.8575 7.01049 51.8806 5.3385 54.8711 5.3385C57.8616 5.3385 60.7965 7.01131 60.7965 10.5602V14.6945H52.1149V15.8962C52.0545 18.3903 56.3969 19.0067 57.6289 16.453L60.3287 18.0082H60.3279Z" fill="#CB177D"/>
<path d="M68.7874 20.9431C65.2369 21.4713 62.2187 19.9765 62.2187 15.6348V0.0301514H65.4165V5.6029H68.5523V8.8285H65.4165V15.6038C65.4165 18.0089 67.0306 18.1567 68.7874 18.1567V20.9431Z" fill="#CB177D"/>
<path d="M76.6559 20.9431C73.1062 21.4713 70.0855 19.9765 70.0855 15.6348V0.0301514H73.2825V5.6029H76.1848V8.8285H73.2825V15.6038C73.2825 18.0089 74.8949 18.1567 76.6559 18.1567V20.9431Z" fill="#CB177D"/>
<path d="M86.4927 10.499C86.4927 7.65545 80.8024 7.62524 80.9191 10.5602V12.0232H86.4927V10.499ZM89.1313 18.0082C87.9598 20.0917 85.6722 21.1179 83.6786 21.1179C80.6832 21.1179 77.665 19.3863 77.665 15.8962V10.5602C77.665 7.01049 80.6832 5.3385 83.6786 5.3385C86.674 5.3385 89.5991 7.01131 89.5991 10.5602V14.6945H80.9191V15.8962C80.8596 18.3903 85.1995 19.0067 86.4331 16.453L89.1313 18.0082Z" fill="#CB177D"/>
<path d="M96.8904 5.48544C97.3884 5.48544 97.9452 5.51401 98.6212 5.66096V8.50449C96.95 8.0073 94.2812 8.71104 94.2812 10.7627V20.7962H91.0547V10.7055C91.0547 8.53469 92.2263 6.95169 93.8689 6.12958C94.3097 5.89364 94.8069 5.74668 95.336 5.62912C95.3956 5.62912 95.4519 5.60055 95.5123 5.60055C95.8046 5.51319 96.452 5.48462 96.8904 5.48462" fill="#CB177D"/>
<path d="M36.4735 36H35.2154V25.3958H36.4735V30.0843H42.0152V25.3958H43.2733V36H42.0152V31.3269H36.4735V36Z" fill="#CB177D"/>
<path d="M48.2746 30.0688H53.382V31.3269H48.2746V34.7419H53.8163V36H47.0165V25.3958H53.8163V26.6538H48.2746V30.0688Z" fill="#CB177D"/>
<path d="M65.539 36H64.2213L62.9926 32.5997H58.9041C58.5 33.723 58.0803 34.8766 57.7056 36H56.3724L60.1769 25.3958H61.7043L65.5382 36H65.539ZM62.5583 31.3416C61.9599 29.7088 61.5403 28.4205 60.941 26.7428C60.4022 28.3005 59.9075 29.7382 59.3237 31.3416H62.5583Z" fill="#CB177D"/>
<path d="M68.3196 25.3958H69.5785V34.7419H74.6704V36H68.3196V25.3958Z" fill="#CB177D"/>
<path d="M79.986 26.6538V36H78.7279V26.6538H75.3276V25.3958H83.3855V26.6538H79.9852H79.986Z" fill="#CB177D"/>
<path d="M87.4969 36H86.238V25.3958H87.4969V30.0843H93.0386V25.3958H94.2967V36H93.0386V31.3269H87.4969V36Z" fill="#CB177D"/>
<path d="M96.6316 25.3672C97.2978 25.3672 97.8423 25.8758 97.8423 26.5779C97.8423 27.28 97.2978 27.7837 96.6316 27.7837C95.9654 27.7837 95.425 27.2792 95.425 26.5779C95.425 25.8766 95.9654 25.3672 96.6316 25.3672ZM96.6357 27.6694C97.2349 27.6694 97.7239 27.2163 97.7239 26.5779C97.7239 25.9395 97.2349 25.4815 96.6357 25.4815C96.0364 25.4815 95.5474 25.9387 95.5474 26.5779C95.5474 27.2172 96.0364 27.6694 96.6357 27.6694ZM96.9435 27.2637C96.9084 27.2163 96.8888 27.1771 96.8724 27.1061L96.8292 26.929C96.7933 26.791 96.6749 26.7396 96.5336 26.7396H96.4234V27.2637H96.132V25.8407H96.6879C97.0071 25.8407 97.2129 25.9787 97.2129 26.2824C97.2129 26.5191 97.0472 26.6375 96.8186 26.6489C96.9688 26.6726 97.079 26.7159 97.1263 26.8734L97.181 27.0865C97.2006 27.1535 97.2284 27.2163 97.2676 27.2637H96.9443H96.9435ZM96.4234 26.5142H96.6128C96.8496 26.5142 96.9239 26.4359 96.9239 26.302C96.9239 26.1681 96.8251 26.0807 96.652 26.0807H96.4234V26.5142Z" fill="#CB177D"/>
</g>
<defs>
<clipPath id="clip0_792_1766">
<rect width="98.6212" height="36" fill="white"/>
</clipPath>
</defs>
</svg>
