<svg width="134" height="36" viewBox="0 0 134 36" fill="none" xmlns="http://www.w3.org/2000/svg">
<path fill-rule="evenodd" clip-rule="evenodd" d="M24.2965 10.89C23.8584 10.5251 23.3472 10.1603 22.8359 10.014L21.9597 27.1664L26.1945 15.3427C26.6326 13.517 25.6108 11.9845 24.2965 10.89ZM17.2876 9.86778L19.7699 26.947L22.2523 9.86778C20.7917 9.35745 18.8945 9.28433 17.2876 9.86778ZM15.2433 10.89C13.8559 11.9853 12.9073 13.5178 13.2722 15.2696L17.507 27.0932L16.704 10.014C16.1927 10.1603 15.6083 10.5251 15.2433 10.89ZM6.62903 12.4956C9.47634 17.4587 12.3968 22.859 15.171 27.6028C14.2216 23.4432 13.1999 16.5096 11.74 14.5384C10.06 12.2031 6.62903 12.4956 6.62903 12.4956ZM1.59119 14.9771L13.1991 28.4795L6.04464 12.5687C4.14669 12.6411 2.53979 13.5909 1.59119 14.9771ZM25.9027 18.6264L24.0047 27.8945C26.4871 23.5895 28.9694 19.3561 31.3786 14.9771C29.0418 15.1957 26.7057 16.0717 25.9027 18.6264ZM32.0354 14.9771L25.9027 28.6981L36.7083 16.9476C35.4671 15.6337 33.8602 15.0503 32.0354 14.9771ZM0.058202 21.1079C3.85487 24.0267 7.65077 27.0201 11.4474 29.9389L1.22623 15.4882C0.276874 17.0939 -0.0149427 18.9912 0.058202 21.1079ZM38.0218 18.6264C37.7974 18.1689 37.5016 17.7501 37.1456 17.3856L27.8006 30.0844C31.4613 27.363 35.064 24.5644 38.6062 21.6906C38.6794 20.5961 38.5331 19.5023 38.0218 18.6264ZM0.130585 27.0201L9.98683 31.5437C6.70142 28.2601 3.416 25.1212 0.130585 21.91V27.0201ZM38.6062 27.3118V22.6404L29.2612 31.7646C32.4735 30.303 35.3939 28.8436 38.6062 27.3118ZM0.058202 31.5437C3.0518 32.2011 6.33722 33.0047 9.03824 33.5881L0.058202 27.6759V31.5437ZM38.6062 31.7639V28.1878C35.8321 30.012 32.9116 31.837 30.3561 33.6612L38.6062 31.7639ZM0.058202 35.9965H8.8188L0.058202 32.2742V35.9965ZM38.6062 35.9965V32.5659C35.7589 33.8067 33.2766 34.8289 30.5755 35.9965H38.6062Z" fill="#367CA8"/>
<path fill-rule="evenodd" clip-rule="evenodd" d="M35.6126 10.452C35.7582 5.27026 28.0201 5.19714 28.1663 10.452C28.0932 15.2689 35.8321 15.4882 35.6126 10.452ZM10.7168 7.75183C10.9362 2.49698 2.83161 2.71634 3.12419 7.75183C2.83237 13.0067 11.228 13.0798 10.7168 7.75183ZM19.7699 8.77324C22.8359 8.84636 24.0047 6.65652 24.0771 4.53981C24.2234 1.32855 22.1791 0.0146484 19.7699 0.0146484C17.3607 0.0146484 15.4628 1.40167 15.5352 4.53981C15.6083 6.29244 16.3382 8.70012 19.7699 8.77324ZM63.7208 20.8893H65.4V11.1817H63.7208V20.8893ZM60.5085 18.1153L61.4579 20.8893H63.2095L59.851 11.1817H57.7343L54.887 19.4292L52.1129 15.9254L55.8364 11.1817H53.8645L50.4328 15.7792V11.1817H48.7535V20.8893H50.4328V16.1448L54.01 20.8893H55.9811L56.9305 18.1153H60.5085ZM58.6829 12.7142L60.0696 16.729H57.3686L58.6829 12.7142ZM75.9123 33.2964L74.2338 26.2165H71.2394V35.9965H72.9195V27.6759L75.0369 35.9965H76.7885L78.9059 27.6759V35.9965H80.5113V26.2165H77.6647L75.9123 33.2964ZM84.7476 26.2165L81.389 35.9965H83.0675L83.9437 33.1509H87.521L88.4703 35.9965H90.222L86.8634 26.2165H84.7476ZM84.3811 31.837L85.6954 27.749L87.0821 31.837H84.3811ZM97.0854 33.7336L93.2164 26.2165H90.9527V35.9965H92.5581V28.625L96.4271 35.9965H98.6908V26.2165H97.0854V33.7336ZM129.063 34.5372H125.047V31.837H127.967V30.3761H125.047V27.6759H128.698V26.2165H123.367V35.9965H129.063V34.5372ZM113.657 26.2165H113.365V33.8067L109.496 26.2165H107.233V34.5372H102.122V31.837H105.115V30.3761H102.122V27.6759H105.773V26.2165H100.442V35.9965H108.838V28.5526L112.709 35.9965H114.971V27.6759H117.965V35.9965H119.644V27.6759H122.565L122.492 26.2165H113.657ZM68.8302 31.1065C69.3422 30.5962 69.7796 29.9389 69.7796 28.9898C69.7796 28.1139 69.3422 27.385 68.8302 26.947C68.2466 26.4351 67.4435 26.2165 65.9837 26.2165H63.2095V34.5372H58.0261V31.837H61.0197V30.3761H58.0261V27.6759H61.6765V26.2165H56.3469V35.9965H64.8888V31.837H65.6919C66.4957 33.0778 68.1742 35.9965 68.1742 35.9965H70.1461L67.5167 31.69C68.1011 31.6169 68.466 31.3983 68.8302 31.1065ZM64.8888 30.4507V27.6759H66.2755C67.5913 27.6759 68.1011 28.1878 68.1011 28.9898C68.1011 29.9389 67.5906 30.4507 66.2755 30.4507H64.8888ZM82.4108 16.8014H83.2854C84.0161 17.969 85.6946 20.8893 85.6946 20.8893H87.6665L85.0386 16.6551C85.6223 16.5097 86.0611 16.2903 86.353 15.9986C86.8634 15.5606 87.3023 14.8309 87.3023 13.955C87.3023 13.0067 86.9366 12.3493 86.353 11.9114C85.7678 11.4003 84.9662 11.1817 83.5788 11.1817H80.7307V19.5023H75.5473V16.729H78.5417V15.342H75.5473V12.5687H79.2709V11.1824H73.942V20.8901H82.4108V16.8014ZM82.4108 15.2689V12.5687H83.8706C85.1118 12.5687 85.6223 13.0798 85.6223 13.955C85.6223 14.904 85.1118 15.342 83.8706 15.342H82.4108V15.2689ZM54.3758 26.947C53.7914 26.4351 52.9883 26.2165 51.6008 26.2165H48.7535V35.9965H50.4328V31.9825H51.6008C52.9883 31.9825 53.7914 31.7639 54.3758 31.252C54.8863 30.7417 55.3244 30.0112 55.3244 29.0622C55.3295 28.6619 55.2473 28.2653 55.0835 27.9C54.9197 27.5347 54.6782 27.2095 54.3758 26.947ZM51.8203 30.5239H50.4328V27.6767H51.8203C53.1346 27.6767 53.6458 28.2617 53.6458 29.0629C53.6458 29.9389 53.0615 30.5239 51.8203 30.5239ZM72.8471 18.1153C72.8471 16.729 71.9709 15.8531 70.2916 15.1958C68.9773 14.7578 68.3197 14.3929 68.3197 13.5901C68.3197 13.0059 68.9049 12.3493 70.1453 12.3493C70.9476 12.3493 71.8238 12.6411 72.1888 12.8604V11.4734C71.8238 11.2548 70.9476 11.0354 70.1453 11.0354C68.0279 11.0354 66.6405 12.2031 66.6405 13.7356C66.6405 15.1957 67.7361 15.9978 69.3415 16.582C70.5826 17.02 71.1663 17.4579 71.1663 18.2608C71.1663 19.0636 70.4371 19.6478 69.2691 19.6478C68.3929 19.6478 67.2241 19.3553 66.6412 18.9173V20.4498C67.1517 20.7416 68.1742 21.0348 69.1967 21.0348C71.6791 21.0348 72.8471 19.6485 72.8471 18.1153ZM130.231 33.9522C130.231 33.0047 130.961 32.2742 131.909 32.2742C132.858 32.2742 133.589 33.0047 133.589 33.9522C133.593 34.1737 133.552 34.3938 133.469 34.5992C133.385 34.8045 133.262 34.9911 133.105 35.1478C132.948 35.3045 132.762 35.4281 132.556 35.5112C132.351 35.5943 132.131 35.6353 131.909 35.6317C130.961 35.6325 130.231 34.902 130.231 33.9522ZM131.909 35.9965C133.005 35.9965 133.954 35.1206 133.954 33.9522C133.954 32.7838 133.005 31.9094 131.909 31.9094C130.813 31.9094 129.866 32.7838 129.866 33.9522C129.866 35.1206 130.814 35.9965 131.909 35.9965ZM131.472 34.0984H131.909L132.494 35.1206H132.932L132.201 34.0984C132.567 34.0253 132.858 33.8798 132.858 33.4426C132.858 33.0054 132.567 32.7853 131.982 32.7853H131.108V35.1206H131.473L131.472 34.0984ZM131.472 33.8067V33.0778H131.982C132.201 33.0778 132.494 33.1509 132.494 33.4426C132.494 33.8075 132.201 33.8075 131.909 33.8075L131.472 33.8067Z" fill="#367CA8"/>
</svg>
