<svg width="60" height="60" viewBox="0 0 60 60" fill="none" xmlns="http://www.w3.org/2000/svg">
<path d="M55.3688 16.8769V16.3031C55.3695 15.646 55.2331 14.996 54.9684 14.3946C54.7037 13.7932 54.3164 13.2537 53.8312 12.8105C53.3607 12.3835 52.8067 12.0589 52.2042 11.8572C51.6017 11.6554 50.9639 11.581 50.3312 11.6386L50.1563 11.655V7.3125C50.1556 6.61651 49.8788 5.94924 49.3867 5.45711C48.8945 4.96498 48.2272 4.68819 47.5312 4.6875H23.7188C23.0228 4.68822 22.3555 4.96501 21.8634 5.45714C21.3713 5.94927 21.0945 6.61653 21.0938 7.3125V14.4115L14.9625 15C14.2218 15.0059 13.5137 15.3053 12.9935 15.8325C12.4733 16.3598 12.1834 17.0718 12.1875 17.8125V24.45C10.6274 24.6763 9.20072 25.4562 8.16801 26.6472C7.13529 27.8383 6.56544 29.3611 6.5625 30.9375V35.6438C5.28943 35.7392 4.09932 36.3118 3.23023 37.2469C2.36113 38.1821 1.87712 39.4109 1.875 40.6875V53.0625C1.87671 54.4046 2.41063 55.6913 3.35966 56.6403C4.30869 57.5894 5.59537 58.1233 6.9375 58.125H19.3125C20.6546 58.1233 21.9413 57.5894 22.8903 56.6403C23.8394 55.6913 24.3733 54.4046 24.375 53.0625V50.625H55.35C56.0907 50.6191 56.7988 50.3197 57.319 49.7925C57.8392 49.2652 58.1291 48.5532 58.125 47.8125V19.6875C58.1289 18.9503 57.8414 18.2414 57.3252 17.715C56.8091 17.1886 56.1059 16.8874 55.3688 16.8769ZM50.5088 13.505C50.8818 13.4686 51.2584 13.5116 51.6137 13.631C51.969 13.7505 52.2951 13.9437 52.5705 14.198C52.8623 14.4654 53.095 14.7908 53.254 15.1532C53.413 15.5157 53.4946 15.9073 53.4938 16.3031V16.875H50.1562V13.5382L50.5088 13.505ZM22.9688 7.3125C22.9677 7.21372 22.9864 7.11572 23.0237 7.02425C23.061 6.93278 23.1162 6.84968 23.1861 6.77982C23.2559 6.70997 23.339 6.65476 23.4305 6.61744C23.522 6.58013 23.62 6.56145 23.7188 6.5625H47.5312C47.63 6.56145 47.728 6.58013 47.8195 6.61744C47.911 6.65476 47.9941 6.70997 48.0639 6.77982C48.1338 6.84968 48.189 6.93278 48.2263 7.02425C48.2636 7.11572 48.2823 7.21372 48.2812 7.3125V16.875H46.4062V14.0625C46.4062 13.8139 46.3075 13.5754 46.1317 13.3996C45.9558 13.2238 45.7174 13.125 45.4688 13.125C44.4745 13.124 43.5212 12.7286 42.8182 12.0256C42.1151 11.3225 41.7197 10.3693 41.7188 9.375C41.7188 9.12636 41.62 8.8879 41.4442 8.71209C41.2683 8.53627 41.0299 8.4375 40.7812 8.4375H30.4688C30.2201 8.4375 29.9817 8.53627 29.8058 8.71209C29.63 8.8879 29.5312 9.12636 29.5312 9.375C29.5303 10.3693 29.1349 11.3225 28.4318 12.0256C27.7288 12.7286 26.7755 13.124 25.7812 13.125C25.5326 13.125 25.2942 13.2238 25.1183 13.3996C24.9425 13.5754 24.8438 13.8139 24.8438 14.0625V16.875H22.9688V7.3125ZM35.1562 15.9375C35.1562 15.7521 35.2112 15.5708 35.3142 15.4167C35.4173 15.2625 35.5637 15.1423 35.735 15.0714C35.9063 15.0004 36.0948 14.9818 36.2766 15.018C36.4585 15.0542 36.6256 15.1435 36.7567 15.2746C36.8878 15.4057 36.9771 15.5727 37.0132 15.7546C37.0494 15.9365 37.0308 16.125 36.9599 16.2963C36.8889 16.4676 36.7688 16.614 36.6146 16.717C36.4604 16.82 36.2792 16.875 36.0938 16.875C35.8452 16.8749 35.6068 16.776 35.431 16.6002C35.2552 16.4245 35.1564 16.1861 35.1562 15.9375ZM36.0938 13.125C35.3481 13.1258 34.6332 13.4224 34.1059 13.9497C33.5786 14.4769 33.2821 15.1918 33.2812 15.9375C33.2844 16.2576 33.3429 16.5748 33.454 16.875H26.7188V14.9222C27.8697 14.7254 28.9313 14.1763 29.7569 13.3507C30.5826 12.525 31.1317 11.4635 31.3284 10.3125H39.9216C40.1183 11.4635 40.6674 12.525 41.4931 13.3507C42.3187 14.1763 43.3803 14.7254 44.5312 14.9222V16.875H38.7335C38.8446 16.5748 38.9031 16.2576 38.9062 15.9375C38.9054 15.1918 38.6089 14.4769 38.0816 13.9497C37.5543 13.4224 36.8394 13.1258 36.0938 13.125ZM21.0938 16.2937V16.875H15.0273C15.0359 16.875 15.0425 16.8705 15.0513 16.8704L21.0938 16.2937ZM13.125 26.25C14.3676 26.252 15.5587 26.7465 16.4374 27.6251C17.316 28.5038 17.8105 29.6949 17.8125 30.9375V35.625H15.9375V30.9375C15.934 30.1926 15.6366 29.4793 15.1099 28.9526C14.5832 28.4259 13.8699 28.1285 13.125 28.125C12.3793 28.1258 11.6644 28.4224 11.1372 28.9497C10.6099 29.4769 10.3133 30.1918 10.3125 30.9375V35.625H8.4375V30.9375C8.43896 29.6947 8.93329 28.5033 9.81205 27.6246C10.6908 26.7458 11.8822 26.2515 13.125 26.25ZM14.0625 35.625H12.1875V30.9375C12.1876 30.6889 12.2865 30.4505 12.4623 30.2748C12.638 30.099 12.8764 30.0001 13.125 30C13.2501 29.9997 13.374 30.0251 13.4889 30.0745C13.6039 30.124 13.7075 30.1964 13.7933 30.2874C13.8796 30.3721 13.9479 30.4734 13.9941 30.5851C14.0404 30.6967 14.0636 30.8166 14.0625 30.9375V35.625ZM22.5 53.0625C22.499 53.9076 22.1628 54.7177 21.5653 55.3153C20.9677 55.9128 20.1576 56.249 19.3125 56.25H6.9375C6.09244 56.249 5.28229 55.9128 4.68475 55.3153C4.0872 54.7177 3.75104 53.9076 3.75 53.0625V40.6875C3.75104 39.8424 4.0872 39.0323 4.68475 38.4347C5.28229 37.8372 6.09244 37.501 6.9375 37.5H19.3125C20.1576 37.501 20.9677 37.8372 21.5653 38.4347C22.1628 39.0323 22.499 39.8424 22.5 40.6875V53.0625ZM55.35 48.75H24.375V40.6875C24.3729 39.4109 23.8889 38.1821 23.0198 37.2469C22.1507 36.3118 20.9606 35.7392 19.6875 35.6438V30.9375C19.6867 29.3603 19.1177 27.8362 18.0846 26.6445C17.0515 25.4528 15.6236 24.6732 14.0625 24.4487V19.6875C14.0579 19.4439 14.15 19.2084 14.3187 19.0327C14.4874 18.857 14.7189 18.7553 14.9625 18.75H55.35C55.5936 18.7553 55.8251 18.857 55.9938 19.0327C56.1625 19.2084 56.2547 19.4439 56.25 19.6875V28.125H50.1562C48.6644 28.125 47.2337 28.7176 46.1788 29.7725C45.1239 30.8274 44.5312 32.2582 44.5312 33.75C44.5312 35.2418 45.1239 36.6726 46.1788 37.7275C47.2337 38.7824 48.6644 39.375 50.1562 39.375H56.25V47.8125C56.2547 48.0561 56.1625 48.2916 55.9938 48.4673C55.8251 48.643 55.5936 48.7447 55.35 48.75ZM56.25 30V37.5H50.1562C49.1617 37.5 48.2079 37.1049 47.5046 36.4016C46.8013 35.6984 46.4062 34.7446 46.4062 33.75C46.4062 32.7554 46.8013 31.8016 47.5046 31.0984C48.2079 30.3951 49.1617 30 50.1562 30H56.25ZM16.875 48.75C16.8742 49.4957 16.5776 50.2106 16.0503 50.7378C15.5231 51.2651 14.8082 51.5617 14.0625 51.5625V52.5C14.0625 52.7486 13.9637 52.9871 13.7879 53.1629C13.6121 53.3387 13.3736 53.4375 13.125 53.4375C12.8764 53.4375 12.6379 53.3387 12.4621 53.1629C12.2863 52.9871 12.1875 52.7486 12.1875 52.5V51.5625H11.25C11.0014 51.5625 10.7629 51.4637 10.5871 51.2879C10.4113 51.1121 10.3125 50.8736 10.3125 50.625C10.3125 50.3764 10.4113 50.1379 10.5871 49.9621C10.7629 49.7863 11.0014 49.6875 11.25 49.6875H14.0625C14.3111 49.6875 14.5496 49.5887 14.7254 49.4129C14.9012 49.2371 15 48.9986 15 48.75C15 48.5014 14.9012 48.2629 14.7254 48.0871C14.5496 47.9113 14.3111 47.8125 14.0625 47.8125H12.1875C11.4416 47.8125 10.7262 47.5162 10.1988 46.9887C9.67132 46.4613 9.375 45.7459 9.375 45C9.375 44.2541 9.67132 43.5387 10.1988 43.0113C10.7262 42.4838 11.4416 42.1875 12.1875 42.1875V41.25C12.1875 41.0014 12.2863 40.7629 12.4621 40.5871C12.6379 40.4113 12.8764 40.3125 13.125 40.3125C13.3736 40.3125 13.6121 40.4113 13.7879 40.5871C13.9637 40.7629 14.0625 41.0014 14.0625 41.25V42.1875H15C15.2486 42.1875 15.4871 42.2863 15.6629 42.4621C15.8387 42.6379 15.9375 42.8764 15.9375 43.125C15.9375 43.3736 15.8387 43.6121 15.6629 43.7879C15.4871 43.9637 15.2486 44.0625 15 44.0625H12.1875C11.9389 44.0625 11.7004 44.1613 11.5246 44.3371C11.3488 44.5129 11.25 44.7514 11.25 45C11.25 45.2486 11.3488 45.4871 11.5246 45.6629C11.7004 45.8387 11.9389 45.9375 12.1875 45.9375H14.0625C14.8082 45.9383 15.5231 46.2349 16.0503 46.7622C16.5776 47.2894 16.8742 48.0043 16.875 48.75Z" fill="white" stroke="white" stroke-width="0.1"/>
</svg>
