<svg width="56" height="56" viewBox="0 0 56 56" fill="none" xmlns="http://www.w3.org/2000/svg">
<g clip-path="url(#clip0_1486_5439)">
<path d="M28.0013 0.984703C13.1042 0.984703 0.984375 13.1031 0.984375 27.9985C0.984375 42.8956 13.1042 55.0153 28.0013 55.0153C42.8968 55.0153 55.015 42.8956 55.015 27.9985C55.015 13.1031 42.8967 0.984703 28.0013 0.984703ZM28.0013 53.4836C13.9487 53.4836 2.51606 42.0511 2.51606 27.9985C2.51606 13.9475 13.9486 2.51639 28.0013 2.51639C42.0522 2.51639 53.4834 13.9476 53.4834 27.9985C53.4833 42.0511 42.0521 53.4836 28.0013 53.4836ZM41.1779 27.2326H30.7065C30.4411 26.2968 29.7029 25.5585 28.767 25.2932V18.3251C28.767 17.9022 28.4242 17.5593 28.0012 17.5593C27.5782 17.5593 27.2354 17.9022 27.2354 18.3251V25.293C26.0542 25.6271 25.1861 26.7131 25.1861 27.9985C25.1861 29.5491 26.449 30.8105 28.0012 30.8105C29.2864 30.8105 30.372 29.9437 30.7065 28.7643H41.1779C41.6009 28.7643 41.9438 28.4214 41.9438 27.9985C41.9438 27.5755 41.6009 27.2326 41.1779 27.2326ZM28.0013 29.2788C27.2935 29.2788 26.7179 28.7045 26.7179 27.9985C26.7179 27.2924 27.2937 26.718 28.0013 26.718C28.7073 26.718 29.2818 27.2924 29.2818 27.9985C29.2818 28.7045 28.7073 29.2788 28.0013 29.2788ZM47.2278 39.0178C49.0965 35.77 50.166 32.0067 50.166 27.9985C50.166 23.9904 49.0967 20.2275 47.2282 16.9799C47.2183 16.9583 47.2076 16.9368 47.1954 16.9158C47.1809 16.8907 47.1649 16.8669 47.148 16.8441C43.2998 10.264 36.1586 5.83373 28.0013 5.83373C19.8503 5.83373 12.7139 10.2573 8.86353 16.8291C8.8422 16.8565 8.82186 16.8852 8.80403 16.9162C8.78773 16.9444 8.77417 16.9734 8.76181 17.0027C6.90145 20.2452 5.83669 23.9998 5.83669 27.9986C5.83669 31.9973 6.90134 35.7518 8.7617 38.9943C8.77395 39.0234 8.78752 39.0521 8.8037 39.0802C8.82241 39.1126 8.8433 39.1429 8.86572 39.1715C12.7165 45.7412 19.8518 50.1632 28.0013 50.1632C36.1629 50.1632 43.3072 45.7284 47.1541 39.1427C47.1685 39.1225 47.1831 39.1024 47.1957 39.0806C47.2076 39.06 47.2181 39.039 47.2278 39.0178ZM28.7672 48.6158V45.9435C28.7672 45.5206 28.4243 45.1777 28.0013 45.1777C27.5784 45.1777 27.2355 45.5206 27.2355 45.9435V48.6158C20.2047 48.3579 14.0616 44.5662 10.5334 38.9674L12.8414 37.6376C13.2079 37.4264 13.3338 36.9582 13.1226 36.5917C12.9114 36.2251 12.4432 36.0992 12.0767 36.3105L9.76555 37.6422C8.23637 34.7623 7.36837 31.4801 7.36837 27.9985C7.36837 24.517 8.23637 21.2349 9.76533 18.3552L12.0763 19.6891C12.197 19.7588 12.3285 19.7918 12.4584 19.7918C12.723 19.7918 12.9805 19.6544 13.1223 19.4087C13.3338 19.0424 13.2082 18.5741 12.8419 18.3627L10.5331 17.0301C14.0614 11.4311 20.2046 7.63908 27.2356 7.38117V10.0535C27.2356 10.4765 27.5785 10.8194 28.0014 10.8194C28.4244 10.8194 28.7673 10.4765 28.7673 10.0535V7.38106C35.7978 7.63897 41.9407 11.4305 45.469 17.0289L43.1607 18.3627C42.7945 18.5744 42.6692 19.0428 42.8807 19.4089C43.0227 19.6545 43.2799 19.7917 43.5445 19.7917C43.6744 19.7917 43.8062 19.7585 43.9269 19.6889L46.237 18.3541C47.7662 21.2342 48.6345 24.5165 48.6345 27.9985C48.6345 31.4805 47.7663 34.7631 46.2367 37.6433L43.9263 36.3106C43.5601 36.0993 43.0917 36.2251 42.8804 36.5914C42.669 36.9578 42.7948 37.426 43.1611 37.6374L45.4687 38.9683C41.9403 44.5666 35.7973 48.3579 28.7672 48.6158Z" fill="url(#paint0_linear_1486_5439)" stroke="url(#paint1_linear_1486_5439)" stroke-width="0.2"/>
</g>
<defs>
<linearGradient id="paint0_linear_1486_5439" x1="27.9997" y1="0.984703" x2="27.9997" y2="57.1379" gradientUnits="userSpaceOnUse">
<stop stop-color="#A43499"/>
<stop offset="1" stop-color="#500B7E"/>
</linearGradient>
<linearGradient id="paint1_linear_1486_5439" x1="27.9997" y1="0.984703" x2="27.9997" y2="57.1379" gradientUnits="userSpaceOnUse">
<stop stop-color="#A43499"/>
<stop offset="1" stop-color="#500B7E"/>
</linearGradient>
<clipPath id="clip0_1486_5439">
<rect width="56" height="56" fill="white"/>
</clipPath>
</defs>
</svg>
