<svg width="56" height="56" viewBox="0 0 56 56" fill="none" xmlns="http://www.w3.org/2000/svg">
<g clip-path="url(#clip0_1486_5412)">
<mask id="path-1-outside-1_1486_5412" maskUnits="userSpaceOnUse" x="6.00586" y="-0.999664" width="44" height="58" fill="black">
<rect fill="white" x="6.00586" y="-0.999664" width="44" height="58"/>
<path d="M44.5016 38.3533L39.3868 35.6075C40.8666 34.0666 41.7261 32.0923 41.8836 29.8323L42.3818 22.6129C43.3055 21.9162 43.9037 20.8102 43.9037 19.5669C43.9037 18.5131 43.4741 17.558 42.7809 16.8671L42.9129 14.9659C43.1671 11.2878 41.8556 7.70701 39.22 4.88295C36.3239 1.77998 32.234 0.000335693 27.9987 0.000335693C23.8254 0.000335693 19.6177 1.84374 16.743 4.9314C14.1242 7.74409 12.8261 11.3085 13.0879 14.9685L13.2248 16.8624C12.5286 17.5536 12.0968 18.5107 12.0968 19.567C12.0968 20.8179 12.7023 21.9299 13.6355 22.6258L14.6426 36.6649L11.4987 38.3535C8.68542 39.8646 7.00586 42.6724 7.00586 45.8644V55.2338C7.00586 55.6568 7.34875 55.9997 7.77159 55.9997H48.2286C48.6516 55.9997 48.9944 55.6568 48.9944 55.2338V45.8644C48.9946 42.6743 47.3151 39.8665 44.5016 38.3533ZM40.3556 29.7263C40.2194 31.6806 39.462 33.3771 38.1555 34.6772L37.238 32.951C36.9882 32.482 36.5876 32.1543 36.0862 32.0053C35.5785 31.8496 35.0625 31.9007 34.5945 32.1523L34.5346 32.1845L34.5292 29.9446C36.6855 28.3795 38.2615 26.0619 38.8678 23.3804H40.0904C40.3323 23.3804 40.5688 23.3568 40.7984 23.3135L40.3556 29.7263ZM27.9987 25.6902H22.2692C20.6573 25.6902 19.272 24.7032 18.6861 23.3022C18.4913 22.5408 18.3876 21.7432 18.3876 20.9218V14.0233C21.6209 13.3109 24.4974 11.78 26.619 9.64645C29.3597 12.4065 33.2898 14.1157 37.6101 14.4215V20.9218C37.6101 26.2214 33.2985 30.5329 27.9989 30.5329C24.9675 30.5329 22.26 29.1219 20.497 26.9226C21.0528 27.1156 21.6487 27.2219 22.2694 27.2219H27.9989C28.4218 27.2219 28.7646 26.879 28.7646 26.4561C28.7646 26.0331 28.4217 25.6902 27.9987 25.6902ZM21.4723 29.9475V32.1894L21.4072 32.1545C20.94 31.9005 20.4237 31.8488 19.9211 32.0032C19.4129 32.1543 19.0124 32.482 18.7622 32.9515L17.6459 35.0517L16.1213 35.8706L15.2207 23.3167C15.4445 23.3577 15.6747 23.3803 15.9103 23.3803H17.0888C17.1298 23.5152 17.1765 23.6474 17.2275 23.7776C17.8948 26.2922 19.4212 28.4603 21.4723 29.9475ZM20.1145 33.671C20.1709 33.565 20.2436 33.5053 20.3639 33.4695C20.4799 33.4339 20.5702 33.4428 20.6798 33.5024L26.6476 36.6992C25.695 37.5227 24.9229 38.2302 24.2745 38.8243C23.2972 39.7199 22.2868 40.6456 21.9871 40.6456C21.9851 40.6456 21.9831 40.6456 21.9813 40.6455C21.6952 40.5564 21.0481 39.3175 20.4221 38.1195C20.0611 37.4284 19.6213 36.5866 19.0824 35.6125L20.1145 33.671ZM23.0039 33.0098V30.8804C24.5072 31.6375 26.2039 32.0646 27.9987 32.0646C29.796 32.0646 31.495 31.6363 32.9998 30.8773L33.0048 33.0038L27.9987 35.6854L23.0039 33.0098ZM35.3188 33.5018C35.4279 33.4432 35.5199 33.4337 35.6432 33.4716C35.757 33.5054 35.8297 33.565 35.8858 33.6704L36.918 35.6123C36.3781 36.5876 35.9378 37.43 35.5761 38.1217C34.9504 39.3186 34.3033 40.5564 34.0221 40.6446C33.7225 40.6578 32.7088 39.7263 31.7254 38.8254C31.0763 38.2308 30.3037 37.5233 29.3499 36.6989L35.3188 33.5018ZM42.3722 19.5669C42.3722 20.8251 41.3485 21.8486 40.0903 21.8486H39.1026C39.1279 21.5429 39.1414 21.2339 39.1414 20.9217V17.285H40.0902C41.3485 17.2851 42.3722 18.3087 42.3722 19.5669ZM17.8638 5.97506C20.4542 3.19288 24.2428 1.53202 27.9987 1.53202C31.8109 1.53202 35.4929 3.13426 38.1003 5.92813C40.443 8.43829 41.6095 11.6105 41.3849 14.8601L41.3089 15.9542C40.926 15.8247 40.5164 15.7534 40.0903 15.7534H39.1415V13.6947C39.1415 13.2817 38.814 12.9431 38.4012 12.9293C33.8965 12.7795 29.8114 10.9901 27.1935 8.02004C27.0481 7.8551 26.8388 7.7606 26.619 7.7606C26.399 7.76071 26.1898 7.85521 26.0444 8.02026C23.9815 10.3621 20.9407 12.0042 17.4825 12.6441C17.1194 12.7112 16.856 13.0279 16.856 13.3971V15.7534H15.9103C15.4853 15.7534 15.0767 15.8244 14.6947 15.9532L14.6155 14.8586C14.3845 11.628 15.5381 8.47307 17.8638 5.97506ZM13.6284 19.5669C13.6284 18.3086 14.652 17.2851 15.9103 17.2851H16.856V20.9218C16.856 21.1591 16.8643 21.3945 16.879 21.6281C16.8645 21.687 16.856 21.7482 16.856 21.8116C16.856 21.824 16.8568 21.8362 16.8569 21.8486H15.9103C14.652 21.8488 13.6284 20.8251 13.6284 19.5669ZM47.463 54.468H8.53755V45.8644C8.53755 43.2069 9.88111 40.9611 12.2235 39.7027L17.9055 36.6509C18.3622 37.4848 18.7453 38.2172 19.0648 38.8287C20.1943 40.9905 20.7098 41.977 21.7144 42.1535C21.8103 42.1702 21.9044 42.1786 21.9979 42.1786C22.8807 42.1786 23.6994 41.4285 25.3093 39.9534C26.0275 39.2954 26.8991 38.4967 27.9989 37.5573C29.0999 38.4974 29.9722 39.2964 30.6909 39.9547C32.3004 41.429 33.1186 42.1785 34.0013 42.1785C34.0947 42.1785 34.1888 42.1701 34.2848 42.1534C35.289 41.977 35.8044 40.9911 36.9336 38.8311C37.2535 38.2192 37.637 37.4863 38.0943 36.6518L43.7768 39.7023C46.1195 40.9623 47.4631 43.2082 47.4631 45.8642V54.468H47.463ZM28.7955 41.9269C28.7955 42.3499 28.4527 42.6928 28.0298 42.6928H27.9678C27.5448 42.6928 27.2021 42.3499 27.2021 41.9269C27.2021 41.504 27.545 41.1611 27.9678 41.1611H28.0298C28.4527 41.1611 28.7955 41.504 28.7955 41.9269ZM28.7955 46.4133C28.7955 46.8362 28.4527 47.1791 28.0298 47.1791H27.9678C27.5448 47.1791 27.2021 46.8362 27.2021 46.4133C27.2021 45.9903 27.545 45.6474 27.9678 45.6474H28.0298C28.4527 45.6474 28.7955 45.9902 28.7955 46.4133ZM28.7955 50.8995C28.7955 51.3225 28.4527 51.6654 28.0298 51.6654H27.9678C27.5448 51.6654 27.2021 51.3225 27.2021 50.8995C27.2021 50.4766 27.545 50.1337 27.9678 50.1337H28.0298C28.4527 50.1337 28.7955 50.4766 28.7955 50.8995Z"/>
</mask>
<path d="M44.5016 38.3533L39.3868 35.6075C40.8666 34.0666 41.7261 32.0923 41.8836 29.8323L42.3818 22.6129C43.3055 21.9162 43.9037 20.8102 43.9037 19.5669C43.9037 18.5131 43.4741 17.558 42.7809 16.8671L42.9129 14.9659C43.1671 11.2878 41.8556 7.70701 39.22 4.88295C36.3239 1.77998 32.234 0.000335693 27.9987 0.000335693C23.8254 0.000335693 19.6177 1.84374 16.743 4.9314C14.1242 7.74409 12.8261 11.3085 13.0879 14.9685L13.2248 16.8624C12.5286 17.5536 12.0968 18.5107 12.0968 19.567C12.0968 20.8179 12.7023 21.9299 13.6355 22.6258L14.6426 36.6649L11.4987 38.3535C8.68542 39.8646 7.00586 42.6724 7.00586 45.8644V55.2338C7.00586 55.6568 7.34875 55.9997 7.77159 55.9997H48.2286C48.6516 55.9997 48.9944 55.6568 48.9944 55.2338V45.8644C48.9946 42.6743 47.3151 39.8665 44.5016 38.3533ZM40.3556 29.7263C40.2194 31.6806 39.462 33.3771 38.1555 34.6772L37.238 32.951C36.9882 32.482 36.5876 32.1543 36.0862 32.0053C35.5785 31.8496 35.0625 31.9007 34.5945 32.1523L34.5346 32.1845L34.5292 29.9446C36.6855 28.3795 38.2615 26.0619 38.8678 23.3804H40.0904C40.3323 23.3804 40.5688 23.3568 40.7984 23.3135L40.3556 29.7263ZM27.9987 25.6902H22.2692C20.6573 25.6902 19.272 24.7032 18.6861 23.3022C18.4913 22.5408 18.3876 21.7432 18.3876 20.9218V14.0233C21.6209 13.3109 24.4974 11.78 26.619 9.64645C29.3597 12.4065 33.2898 14.1157 37.6101 14.4215V20.9218C37.6101 26.2214 33.2985 30.5329 27.9989 30.5329C24.9675 30.5329 22.26 29.1219 20.497 26.9226C21.0528 27.1156 21.6487 27.2219 22.2694 27.2219H27.9989C28.4218 27.2219 28.7646 26.879 28.7646 26.4561C28.7646 26.0331 28.4217 25.6902 27.9987 25.6902ZM21.4723 29.9475V32.1894L21.4072 32.1545C20.94 31.9005 20.4237 31.8488 19.9211 32.0032C19.4129 32.1543 19.0124 32.482 18.7622 32.9515L17.6459 35.0517L16.1213 35.8706L15.2207 23.3167C15.4445 23.3577 15.6747 23.3803 15.9103 23.3803H17.0888C17.1298 23.5152 17.1765 23.6474 17.2275 23.7776C17.8948 26.2922 19.4212 28.4603 21.4723 29.9475ZM20.1145 33.671C20.1709 33.565 20.2436 33.5053 20.3639 33.4695C20.4799 33.4339 20.5702 33.4428 20.6798 33.5024L26.6476 36.6992C25.695 37.5227 24.9229 38.2302 24.2745 38.8243C23.2972 39.7199 22.2868 40.6456 21.9871 40.6456C21.9851 40.6456 21.9831 40.6456 21.9813 40.6455C21.6952 40.5564 21.0481 39.3175 20.4221 38.1195C20.0611 37.4284 19.6213 36.5866 19.0824 35.6125L20.1145 33.671ZM23.0039 33.0098V30.8804C24.5072 31.6375 26.2039 32.0646 27.9987 32.0646C29.796 32.0646 31.495 31.6363 32.9998 30.8773L33.0048 33.0038L27.9987 35.6854L23.0039 33.0098ZM35.3188 33.5018C35.4279 33.4432 35.5199 33.4337 35.6432 33.4716C35.757 33.5054 35.8297 33.565 35.8858 33.6704L36.918 35.6123C36.3781 36.5876 35.9378 37.43 35.5761 38.1217C34.9504 39.3186 34.3033 40.5564 34.0221 40.6446C33.7225 40.6578 32.7088 39.7263 31.7254 38.8254C31.0763 38.2308 30.3037 37.5233 29.3499 36.6989L35.3188 33.5018ZM42.3722 19.5669C42.3722 20.8251 41.3485 21.8486 40.0903 21.8486H39.1026C39.1279 21.5429 39.1414 21.2339 39.1414 20.9217V17.285H40.0902C41.3485 17.2851 42.3722 18.3087 42.3722 19.5669ZM17.8638 5.97506C20.4542 3.19288 24.2428 1.53202 27.9987 1.53202C31.8109 1.53202 35.4929 3.13426 38.1003 5.92813C40.443 8.43829 41.6095 11.6105 41.3849 14.8601L41.3089 15.9542C40.926 15.8247 40.5164 15.7534 40.0903 15.7534H39.1415V13.6947C39.1415 13.2817 38.814 12.9431 38.4012 12.9293C33.8965 12.7795 29.8114 10.9901 27.1935 8.02004C27.0481 7.8551 26.8388 7.7606 26.619 7.7606C26.399 7.76071 26.1898 7.85521 26.0444 8.02026C23.9815 10.3621 20.9407 12.0042 17.4825 12.6441C17.1194 12.7112 16.856 13.0279 16.856 13.3971V15.7534H15.9103C15.4853 15.7534 15.0767 15.8244 14.6947 15.9532L14.6155 14.8586C14.3845 11.628 15.5381 8.47307 17.8638 5.97506ZM13.6284 19.5669C13.6284 18.3086 14.652 17.2851 15.9103 17.2851H16.856V20.9218C16.856 21.1591 16.8643 21.3945 16.879 21.6281C16.8645 21.687 16.856 21.7482 16.856 21.8116C16.856 21.824 16.8568 21.8362 16.8569 21.8486H15.9103C14.652 21.8488 13.6284 20.8251 13.6284 19.5669ZM47.463 54.468H8.53755V45.8644C8.53755 43.2069 9.88111 40.9611 12.2235 39.7027L17.9055 36.6509C18.3622 37.4848 18.7453 38.2172 19.0648 38.8287C20.1943 40.9905 20.7098 41.977 21.7144 42.1535C21.8103 42.1702 21.9044 42.1786 21.9979 42.1786C22.8807 42.1786 23.6994 41.4285 25.3093 39.9534C26.0275 39.2954 26.8991 38.4967 27.9989 37.5573C29.0999 38.4974 29.9722 39.2964 30.6909 39.9547C32.3004 41.429 33.1186 42.1785 34.0013 42.1785C34.0947 42.1785 34.1888 42.1701 34.2848 42.1534C35.289 41.977 35.8044 40.9911 36.9336 38.8311C37.2535 38.2192 37.637 37.4863 38.0943 36.6518L43.7768 39.7023C46.1195 40.9623 47.4631 43.2082 47.4631 45.8642V54.468H47.463ZM28.7955 41.9269C28.7955 42.3499 28.4527 42.6928 28.0298 42.6928H27.9678C27.5448 42.6928 27.2021 42.3499 27.2021 41.9269C27.2021 41.504 27.545 41.1611 27.9678 41.1611H28.0298C28.4527 41.1611 28.7955 41.504 28.7955 41.9269ZM28.7955 46.4133C28.7955 46.8362 28.4527 47.1791 28.0298 47.1791H27.9678C27.5448 47.1791 27.2021 46.8362 27.2021 46.4133C27.2021 45.9903 27.545 45.6474 27.9678 45.6474H28.0298C28.4527 45.6474 28.7955 45.9902 28.7955 46.4133ZM28.7955 50.8995C28.7955 51.3225 28.4527 51.6654 28.0298 51.6654H27.9678C27.5448 51.6654 27.2021 51.3225 27.2021 50.8995C27.2021 50.4766 27.545 50.1337 27.9678 50.1337H28.0298C28.4527 50.1337 28.7955 50.4766 28.7955 50.8995Z" fill="url(#paint0_linear_1486_5412)"/>
<path d="M44.5016 38.3533L39.3868 35.6075C40.8666 34.0666 41.7261 32.0923 41.8836 29.8323L42.3818 22.6129C43.3055 21.9162 43.9037 20.8102 43.9037 19.5669C43.9037 18.5131 43.4741 17.558 42.7809 16.8671L42.9129 14.9659C43.1671 11.2878 41.8556 7.70701 39.22 4.88295C36.3239 1.77998 32.234 0.000335693 27.9987 0.000335693C23.8254 0.000335693 19.6177 1.84374 16.743 4.9314C14.1242 7.74409 12.8261 11.3085 13.0879 14.9685L13.2248 16.8624C12.5286 17.5536 12.0968 18.5107 12.0968 19.567C12.0968 20.8179 12.7023 21.9299 13.6355 22.6258L14.6426 36.6649L11.4987 38.3535C8.68542 39.8646 7.00586 42.6724 7.00586 45.8644V55.2338C7.00586 55.6568 7.34875 55.9997 7.77159 55.9997H48.2286C48.6516 55.9997 48.9944 55.6568 48.9944 55.2338V45.8644C48.9946 42.6743 47.3151 39.8665 44.5016 38.3533ZM40.3556 29.7263C40.2194 31.6806 39.462 33.3771 38.1555 34.6772L37.238 32.951C36.9882 32.482 36.5876 32.1543 36.0862 32.0053C35.5785 31.8496 35.0625 31.9007 34.5945 32.1523L34.5346 32.1845L34.5292 29.9446C36.6855 28.3795 38.2615 26.0619 38.8678 23.3804H40.0904C40.3323 23.3804 40.5688 23.3568 40.7984 23.3135L40.3556 29.7263ZM27.9987 25.6902H22.2692C20.6573 25.6902 19.272 24.7032 18.6861 23.3022C18.4913 22.5408 18.3876 21.7432 18.3876 20.9218V14.0233C21.6209 13.3109 24.4974 11.78 26.619 9.64645C29.3597 12.4065 33.2898 14.1157 37.6101 14.4215V20.9218C37.6101 26.2214 33.2985 30.5329 27.9989 30.5329C24.9675 30.5329 22.26 29.1219 20.497 26.9226C21.0528 27.1156 21.6487 27.2219 22.2694 27.2219H27.9989C28.4218 27.2219 28.7646 26.879 28.7646 26.4561C28.7646 26.0331 28.4217 25.6902 27.9987 25.6902ZM21.4723 29.9475V32.1894L21.4072 32.1545C20.94 31.9005 20.4237 31.8488 19.9211 32.0032C19.4129 32.1543 19.0124 32.482 18.7622 32.9515L17.6459 35.0517L16.1213 35.8706L15.2207 23.3167C15.4445 23.3577 15.6747 23.3803 15.9103 23.3803H17.0888C17.1298 23.5152 17.1765 23.6474 17.2275 23.7776C17.8948 26.2922 19.4212 28.4603 21.4723 29.9475ZM20.1145 33.671C20.1709 33.565 20.2436 33.5053 20.3639 33.4695C20.4799 33.4339 20.5702 33.4428 20.6798 33.5024L26.6476 36.6992C25.695 37.5227 24.9229 38.2302 24.2745 38.8243C23.2972 39.7199 22.2868 40.6456 21.9871 40.6456C21.9851 40.6456 21.9831 40.6456 21.9813 40.6455C21.6952 40.5564 21.0481 39.3175 20.4221 38.1195C20.0611 37.4284 19.6213 36.5866 19.0824 35.6125L20.1145 33.671ZM23.0039 33.0098V30.8804C24.5072 31.6375 26.2039 32.0646 27.9987 32.0646C29.796 32.0646 31.495 31.6363 32.9998 30.8773L33.0048 33.0038L27.9987 35.6854L23.0039 33.0098ZM35.3188 33.5018C35.4279 33.4432 35.5199 33.4337 35.6432 33.4716C35.757 33.5054 35.8297 33.565 35.8858 33.6704L36.918 35.6123C36.3781 36.5876 35.9378 37.43 35.5761 38.1217C34.9504 39.3186 34.3033 40.5564 34.0221 40.6446C33.7225 40.6578 32.7088 39.7263 31.7254 38.8254C31.0763 38.2308 30.3037 37.5233 29.3499 36.6989L35.3188 33.5018ZM42.3722 19.5669C42.3722 20.8251 41.3485 21.8486 40.0903 21.8486H39.1026C39.1279 21.5429 39.1414 21.2339 39.1414 20.9217V17.285H40.0902C41.3485 17.2851 42.3722 18.3087 42.3722 19.5669ZM17.8638 5.97506C20.4542 3.19288 24.2428 1.53202 27.9987 1.53202C31.8109 1.53202 35.4929 3.13426 38.1003 5.92813C40.443 8.43829 41.6095 11.6105 41.3849 14.8601L41.3089 15.9542C40.926 15.8247 40.5164 15.7534 40.0903 15.7534H39.1415V13.6947C39.1415 13.2817 38.814 12.9431 38.4012 12.9293C33.8965 12.7795 29.8114 10.9901 27.1935 8.02004C27.0481 7.8551 26.8388 7.7606 26.619 7.7606C26.399 7.76071 26.1898 7.85521 26.0444 8.02026C23.9815 10.3621 20.9407 12.0042 17.4825 12.6441C17.1194 12.7112 16.856 13.0279 16.856 13.3971V15.7534H15.9103C15.4853 15.7534 15.0767 15.8244 14.6947 15.9532L14.6155 14.8586C14.3845 11.628 15.5381 8.47307 17.8638 5.97506ZM13.6284 19.5669C13.6284 18.3086 14.652 17.2851 15.9103 17.2851H16.856V20.9218C16.856 21.1591 16.8643 21.3945 16.879 21.6281C16.8645 21.687 16.856 21.7482 16.856 21.8116C16.856 21.824 16.8568 21.8362 16.8569 21.8486H15.9103C14.652 21.8488 13.6284 20.8251 13.6284 19.5669ZM47.463 54.468H8.53755V45.8644C8.53755 43.2069 9.88111 40.9611 12.2235 39.7027L17.9055 36.6509C18.3622 37.4848 18.7453 38.2172 19.0648 38.8287C20.1943 40.9905 20.7098 41.977 21.7144 42.1535C21.8103 42.1702 21.9044 42.1786 21.9979 42.1786C22.8807 42.1786 23.6994 41.4285 25.3093 39.9534C26.0275 39.2954 26.8991 38.4967 27.9989 37.5573C29.0999 38.4974 29.9722 39.2964 30.6909 39.9547C32.3004 41.429 33.1186 42.1785 34.0013 42.1785C34.0947 42.1785 34.1888 42.1701 34.2848 42.1534C35.289 41.977 35.8044 40.9911 36.9336 38.8311C37.2535 38.2192 37.637 37.4863 38.0943 36.6518L43.7768 39.7023C46.1195 40.9623 47.4631 43.2082 47.4631 45.8642V54.468H47.463ZM28.7955 41.9269C28.7955 42.3499 28.4527 42.6928 28.0298 42.6928H27.9678C27.5448 42.6928 27.2021 42.3499 27.2021 41.9269C27.2021 41.504 27.545 41.1611 27.9678 41.1611H28.0298C28.4527 41.1611 28.7955 41.504 28.7955 41.9269ZM28.7955 46.4133C28.7955 46.8362 28.4527 47.1791 28.0298 47.1791H27.9678C27.5448 47.1791 27.2021 46.8362 27.2021 46.4133C27.2021 45.9903 27.545 45.6474 27.9678 45.6474H28.0298C28.4527 45.6474 28.7955 45.9902 28.7955 46.4133ZM28.7955 50.8995C28.7955 51.3225 28.4527 51.6654 28.0298 51.6654H27.9678C27.5448 51.6654 27.2021 51.3225 27.2021 50.8995C27.2021 50.4766 27.545 50.1337 27.9678 50.1337H28.0298C28.4527 50.1337 28.7955 50.4766 28.7955 50.8995Z" stroke="url(#paint1_linear_1486_5412)" stroke-width="0.4" mask="url(#path-1-outside-1_1486_5412)"/>
</g>
<defs>
<linearGradient id="paint0_linear_1486_5412" x1="28.0001" y1="0.000335693" x2="28.0001" y2="58.1997" gradientUnits="userSpaceOnUse">
<stop stop-color="#A43499"/>
<stop offset="1" stop-color="#500B7E"/>
</linearGradient>
<linearGradient id="paint1_linear_1486_5412" x1="28.0001" y1="0.000335693" x2="28.0001" y2="58.1997" gradientUnits="userSpaceOnUse">
<stop stop-color="#A43499"/>
<stop offset="1" stop-color="#500B7E"/>
</linearGradient>
<clipPath id="clip0_1486_5412">
<rect width="56" height="56" fill="white"/>
</clipPath>
</defs>
</svg>
