<svg width="56" height="56" viewBox="0 0 56 56" fill="none" xmlns="http://www.w3.org/2000/svg">
<g clip-path="url(#clip0_1486_5447)">
<path d="M55.3642 33.1164L49.0006 17.3939C48.8054 16.9103 48.4406 16.537 47.957 16.3333C47.4733 16.1382 46.9388 16.1467 46.4636 16.3588L41.5085 18.5648C40.6685 18.9212 40.2188 19.8376 40.397 20.7115L39.0818 21.4497C38.6406 21.7042 38.106 21.7976 37.5885 21.7297L28.4503 20.3806C26.8551 20.1515 25.2176 20.6776 24.0636 21.7891L23.3933 22.4339H18.3194C18.0903 22.4339 17.8612 22.3491 17.6915 22.1964L17.2418 21.8145C17.5557 21.0424 17.3436 20.143 16.6648 19.6085L12.8297 16.5794C12.4224 16.257 11.9133 16.1127 11.3957 16.1891C10.8866 16.257 10.42 16.537 10.1145 16.9442L0.874527 29.4679C0.263618 30.2909 0.40786 31.4448 1.22241 32.0982L5.04907 35.1188C5.39695 35.3903 5.80422 35.5261 6.22847 35.5261C6.31332 35.5261 6.40665 35.5176 6.4915 35.5091C7.00059 35.4412 7.45877 35.1697 7.76422 34.7455L7.79816 34.703L8.34968 35.1188C8.6721 35.3479 8.85877 35.7382 8.85877 36.1455V38.4279L7.43332 40.2606C6.16059 41.9151 6.44907 44.2994 8.09513 45.5721C8.76544 46.0982 9.57998 46.3782 10.42 46.3782C10.5727 46.3782 10.7339 46.3697 10.8866 46.3527C11.0563 46.3273 11.2176 46.2848 11.3788 46.2424C11.3788 46.2933 11.3703 46.3358 11.3703 46.3867C11.3703 47.4727 11.8624 48.4909 12.7109 49.1867C13.3727 49.7127 14.1703 49.9758 14.9594 49.9758C15.4515 49.9758 15.9436 49.8655 16.4018 49.6703V49.7127C16.5206 50.6036 16.9873 51.3927 17.666 51.8933L17.8188 52.0121C18.3957 52.4364 19.083 52.6655 19.7873 52.6655C19.9485 52.6655 20.1097 52.657 20.2794 52.6315C20.6442 52.5806 20.9751 52.4533 21.2976 52.2921C21.4757 53.2 21.9933 53.9806 22.7654 54.4727L22.8757 54.5491C23.4273 54.9139 24.0636 55.1006 24.7085 55.1006C24.946 55.1006 25.1751 55.0751 25.4127 55.0242C26.3036 54.8376 27.0588 54.3115 27.5594 53.5479L27.7036 53.3273C28.306 53.7854 29.0273 54.023 29.7994 54.023C30.7073 54.023 31.5982 53.6497 32.243 53.0133C32.9473 52.3091 33.3206 51.3248 33.2527 50.3321C33.2527 50.2727 33.2442 50.2048 33.2357 50.1455C34.2285 50.2897 35.2721 49.9758 36.0273 49.2206C36.706 48.5418 37.0539 47.5915 36.9776 46.6327C36.9691 46.5139 36.9521 46.3951 36.9266 46.2764C38.0551 46.3442 39.1666 45.8945 39.9303 44.9867C40.5836 44.2145 40.8891 43.1964 40.7618 42.1951C40.7533 42.1188 40.7448 42.0509 40.7279 41.9745C41.7545 42.0848 42.7982 41.7285 43.5618 40.9818C44.4018 40.1418 44.7157 38.9539 44.4866 37.8339C44.5291 37.8255 44.5715 37.8339 44.6139 37.8255L47.346 37.4436C47.6939 37.7576 48.1606 37.9358 48.6273 37.9358C48.8903 37.9358 49.1533 37.8848 49.3994 37.7661L54.3715 35.5685C55.3048 35.1612 55.746 34.0751 55.3642 33.1164ZM6.28786 34.0667C6.16059 34.0836 6.0418 34.0497 5.94847 33.9733L2.13877 30.9612C1.9521 30.8085 1.90968 30.537 2.05392 30.3418L11.2854 17.7927C11.3788 17.6655 11.506 17.6315 11.5824 17.623H11.6418C11.7182 17.623 11.82 17.64 11.9133 17.7164L15.757 20.7455C15.9436 20.8897 15.9776 21.1612 15.8418 21.3394L15.723 21.5006C15.7145 21.5091 15.706 21.5176 15.6976 21.5261L10.386 28.7212C10.3776 28.7297 10.3776 28.7297 10.3691 28.7382L9.35938 30.1127L7.04301 33.2521C7.03453 33.2606 7.03453 33.2691 7.03453 33.2691L6.57635 33.897C6.4915 34.0158 6.37271 34.0582 6.28786 34.0667ZM10.717 44.9018C10.106 44.9782 9.49513 44.8085 9.00301 44.4267C8.0018 43.6461 7.81513 42.1782 8.60422 41.16L11.3363 37.6388C11.7945 37.0448 12.4818 36.7394 13.1776 36.7394C13.6697 36.7394 14.1703 36.9006 14.5945 37.223C15.163 37.6727 15.4939 38.343 15.4939 39.0642C15.4939 39.5818 15.3242 40.0739 15.0018 40.4982L12.2697 44.0194C11.8794 44.5115 11.3279 44.8254 10.717 44.9018ZM13.6357 48.0497C13.1266 47.6339 12.8382 47.0315 12.8382 46.3867C12.8382 45.92 12.9994 45.4618 13.3133 45.063L16.037 41.5503C16.3848 41.0921 16.8939 40.8121 17.4624 40.7442C17.5473 40.7273 17.6321 40.7273 17.7085 40.7273C18.1921 40.7273 18.6673 40.897 19.1085 41.2533C20.0248 41.9915 20.1691 43.3406 19.4309 44.257L16.6394 47.7358C15.9012 48.6351 14.5521 48.7794 13.6357 48.0497ZM20.0588 51.1806C19.5666 51.2485 19.083 51.1297 18.7351 50.8751L18.5909 50.7564C18.1836 50.4594 17.9291 50.0182 17.8612 49.5176C17.7933 49.0085 17.9376 48.5079 18.2515 48.1091L20.3218 45.5467C20.6782 45.097 21.2212 44.8594 21.7642 44.8594C22.146 44.8594 22.5363 44.9782 22.8588 45.2242C23.3254 45.5721 23.597 46.1151 23.597 46.7006C23.597 47.0824 23.4866 47.4388 23.2745 47.7442C23.2576 47.7612 23.2491 47.7867 23.2321 47.8121C23.2236 47.8206 23.2236 47.8291 23.2151 47.8291L23.1812 47.88L21.2551 50.4594C20.9836 50.8582 20.5509 51.1127 20.0588 51.1806ZM27.2963 51.24L26.3206 52.7588C26.0406 53.1915 25.6079 53.4885 25.0988 53.5988C24.5982 53.7006 24.0891 53.6073 23.6733 53.3358L23.563 53.2594C23.1133 52.9709 22.8163 52.5212 22.723 52.0036C22.6297 51.4861 22.74 50.9685 23.0539 50.5358C23.563 49.8655 24.14 49.1188 24.3691 48.8388C24.4115 48.7964 24.4539 48.7455 24.4963 48.7115C24.5048 48.7115 24.5048 48.703 24.5048 48.703C24.5133 48.6945 24.5303 48.6861 24.5388 48.6776C24.5812 48.6436 24.6151 48.6097 24.683 48.5673C25.3194 48.1855 26.117 48.1855 26.7363 48.5842C27.2794 48.9321 27.6103 49.543 27.6103 50.2048C27.6018 50.5782 27.5 50.9345 27.2963 51.24ZM42.5266 39.9467C41.8309 40.6339 40.7024 40.7188 39.9218 40.1503L35.043 36.5442L33.1424 35.1358C32.82 34.8982 32.3618 34.9661 32.1157 35.2885C31.8782 35.6109 31.946 36.0691 32.2685 36.3151L35.5945 38.7758L38.4115 40.863C38.9036 41.2279 39.2176 41.7624 39.2939 42.3733C39.3703 42.9842 39.1921 43.5782 38.7933 44.0533C38.0636 44.9188 36.7739 45.08 35.8491 44.4267L30.003 40.2436C29.6721 40.0061 29.2139 40.0824 28.9848 40.4133C28.7473 40.7442 28.8236 41.2024 29.1545 41.4315L34.746 45.4279C35.1788 45.7418 35.4503 46.2255 35.5012 46.7515C35.5436 47.2861 35.357 47.8036 34.9751 48.1855C34.3388 48.8303 33.3121 48.8897 32.5909 48.3467L27.0757 44.0533C26.7533 43.8073 26.2951 43.8582 26.0491 44.1806C25.803 44.4945 25.8539 44.9612 26.1679 45.2073L30.9873 48.9745C31.4454 49.3309 31.7339 49.8655 31.7679 50.4424C31.8103 51.0279 31.5982 51.5794 31.1824 51.9951C30.5036 52.6739 29.3582 52.7503 28.5945 52.1988C28.5945 52.1988 28.5521 52.1479 28.4927 52.0885L28.5097 52.063C28.866 51.52 29.0527 50.8836 29.0527 50.2133C29.0527 49.0509 28.4757 47.9903 27.5085 47.3624C26.7703 46.8873 25.8879 46.743 25.0479 46.8958C25.0479 46.8364 25.0563 46.777 25.0563 46.7176C25.0563 45.657 24.5727 44.6897 23.7327 44.0618C23.003 43.5188 22.1291 43.3151 21.2976 43.4339C21.4673 42.2121 21.0176 40.9309 19.957 40.0739C19.2018 39.4545 18.243 39.183 17.2757 39.2933C17.1485 39.3103 17.0297 39.3442 16.9109 39.3697C16.9194 39.2679 16.9363 39.1745 16.9363 39.0727C16.9363 37.8933 16.4103 36.8073 15.477 36.0776C14.077 34.9915 12.1509 35.0509 10.8103 36.103C10.8103 36.0945 10.8103 36.0945 10.8188 36.0861C10.8018 36.103 10.7848 36.12 10.7679 36.1285C10.683 36.1964 10.5982 36.2812 10.5218 36.3576C10.4539 36.4255 10.3776 36.4848 10.3097 36.5612V36.1539C10.3097 35.2715 9.89392 34.4485 9.20665 33.9479L8.64665 33.5321L9.71574 32.0812L11.0648 30.2485L11.4891 29.68C11.5145 29.6545 11.5315 29.6291 11.557 29.6036L16.4018 23.0279L16.7157 23.2909C17.1485 23.6727 17.717 23.8848 18.3024 23.8848H21.8491L19.8127 25.8364C19.3376 26.2945 19.0745 26.9139 19.0745 27.5758C19.0745 28.5261 19.6006 29.3661 20.4576 29.7648C22.5448 30.7661 25.0139 30.7151 27.0588 29.6376L27.9412 29.1794C28.7727 28.7382 29.7909 28.84 30.5291 29.4339L39.1412 36.3321C39.6418 36.7224 40.1679 37.0448 40.7109 37.2824C40.8891 37.3588 41.0842 37.4351 41.2539 37.4945C41.4066 37.5539 41.5679 37.6048 41.7036 37.6388C41.8903 37.6982 42.077 37.7406 42.2382 37.7661C42.4588 37.8085 42.6709 37.8424 42.8491 37.8509C42.9339 37.8594 43.0103 37.8594 43.0951 37.8679C43.0612 37.8764 43.0357 37.8848 43.0018 37.8933C43.2394 38.5976 43.0697 39.4036 42.5266 39.9467ZM44.4103 36.383C44.1303 36.417 43.8248 36.4339 43.477 36.4255C43.3327 36.4255 43.197 36.417 43.0018 36.3915C42.8321 36.383 42.6794 36.3491 42.4927 36.3151C42.3739 36.2982 42.2551 36.2727 42.1024 36.2218C41.9836 36.1964 41.8733 36.1539 41.763 36.1115C41.6103 36.0606 41.4491 35.9927 41.3048 35.9333C40.8806 35.7467 40.4563 35.4921 40.0576 35.1782L31.8867 28.6279L31.4454 28.28C30.7497 27.72 29.9012 27.4315 29.0442 27.4315C28.4333 27.4315 27.8224 27.5758 27.2709 27.8727L26.3885 28.3309C24.7509 29.1964 22.7739 29.2388 21.1024 28.4327C20.7036 28.2461 20.5594 27.8642 20.5594 27.5673C20.5594 27.3891 20.6103 27.1176 20.8479 26.8885L25.0818 22.8327C25.9133 22.0351 27.0927 21.6533 28.2382 21.823L37.3848 23.1721C38.2248 23.2909 39.0903 23.1297 39.803 22.7224L40.923 22.0945L42.7218 26.5406L46.5909 36.0776L44.4103 36.383ZM53.7776 34.2448L48.797 36.4424C48.6018 36.5273 48.3642 36.4594 48.22 36.2133L42.9254 23.1382L42.2382 21.4582L41.8479 20.4909C41.7545 20.2703 41.8563 20.0158 42.0854 19.9139L47.0576 17.7079C47.1679 17.657 47.2951 17.657 47.4054 17.6994C47.5157 17.7418 47.6006 17.8267 47.643 17.9455L54.0066 33.6764C54.0915 33.8885 53.9897 34.143 53.7776 34.2448Z" fill="url(#paint0_linear_1486_5447)" stroke="url(#paint1_linear_1486_5447)" stroke-width="0.4"/>
<path d="M28.0004 18.3442C32.8113 18.3442 36.7229 14.4327 36.7229 9.62181C36.7229 4.8109 32.8113 0.8909 28.0004 0.8909C23.1895 0.8909 19.2695 4.80242 19.2695 9.62181C19.278 14.4327 23.1895 18.3442 28.0004 18.3442ZM28.0004 2.35878C32.0053 2.35878 35.255 5.61696 35.255 9.62181C35.255 13.6267 31.9968 16.8764 28.0004 16.8764C23.9956 16.8764 20.7374 13.6182 20.7374 9.62181C20.7374 5.61696 23.9956 2.35878 28.0004 2.35878Z" fill="url(#paint2_linear_1486_5447)" stroke="url(#paint3_linear_1486_5447)" stroke-width="0.4"/>
<path d="M26.2188 12.2776C26.3545 12.4133 26.5412 12.4897 26.7363 12.4897C26.9315 12.4897 27.1181 12.4133 27.2539 12.2776L31.5218 8.00969C31.8103 7.72121 31.8103 7.26303 31.5218 6.97454C31.2333 6.68606 30.7751 6.68606 30.4866 6.97454L26.7363 10.7248L25.523 9.51151C25.2345 9.22303 24.7763 9.22303 24.4878 9.51151C24.1994 9.8 24.1994 10.2582 24.4878 10.5467L26.2188 12.2776Z" fill="url(#paint4_linear_1486_5447)" stroke="url(#paint5_linear_1486_5447)" stroke-width="0.4"/>
</g>
<defs>
<linearGradient id="paint0_linear_1486_5447" x1="27.9998" y1="16.169" x2="27.9998" y2="56.6301" gradientUnits="userSpaceOnUse">
<stop stop-color="#A43499"/>
<stop offset="1" stop-color="#500B7E"/>
</linearGradient>
<linearGradient id="paint1_linear_1486_5447" x1="27.9998" y1="16.169" x2="27.9998" y2="56.6301" gradientUnits="userSpaceOnUse">
<stop stop-color="#A43499"/>
<stop offset="1" stop-color="#500B7E"/>
</linearGradient>
<linearGradient id="paint2_linear_1486_5447" x1="27.9962" y1="0.8909" x2="27.9962" y2="19.0299" gradientUnits="userSpaceOnUse">
<stop stop-color="#A43499"/>
<stop offset="1" stop-color="#500B7E"/>
</linearGradient>
<linearGradient id="paint3_linear_1486_5447" x1="27.9962" y1="0.8909" x2="27.9962" y2="19.0299" gradientUnits="userSpaceOnUse">
<stop stop-color="#A43499"/>
<stop offset="1" stop-color="#500B7E"/>
</linearGradient>
<linearGradient id="paint4_linear_1486_5447" x1="28.0048" y1="6.75818" x2="28.0048" y2="12.7149" gradientUnits="userSpaceOnUse">
<stop stop-color="#A43499"/>
<stop offset="1" stop-color="#500B7E"/>
</linearGradient>
<linearGradient id="paint5_linear_1486_5447" x1="28.0048" y1="6.75818" x2="28.0048" y2="12.7149" gradientUnits="userSpaceOnUse">
<stop stop-color="#A43499"/>
<stop offset="1" stop-color="#500B7E"/>
</linearGradient>
<clipPath id="clip0_1486_5447">
<rect width="56" height="56" fill="white"/>
</clipPath>
</defs>
</svg>
